<mxfile host="65bd71144e">
    <diagram id="an1v-ZwcVW64LHC5DFhM" name="Page-1">
        <mxGraphModel dx="1881" dy="1776" grid="1" gridSize="10" guides="1" tooltips="1" connect="1" arrows="1" fold="1" page="1" pageScale="1" pageWidth="827" pageHeight="1169" math="0" shadow="0">
            <root>
                <mxCell id="0"/>
                <mxCell id="1" parent="0"/>
                <mxCell id="16" value="" style="rounded=0;whiteSpace=wrap;html=1;dashed=1;strokeWidth=1;shadow=0;glass=0;fillColor=none;" vertex="1" parent="1">
                    <mxGeometry x="-520" y="-120" width="740" height="110" as="geometry"/>
                </mxCell>
                <mxCell id="5" value="" style="rounded=0;whiteSpace=wrap;html=1;dashed=1;strokeWidth=1;shadow=0;glass=0;fillColor=none;" vertex="1" parent="1">
                    <mxGeometry x="-520" width="740" height="420" as="geometry"/>
                </mxCell>
                <mxCell id="18" style="edgeStyle=none;rounded=0;html=1;entryX=0.5;entryY=0;entryDx=0;entryDy=0;" edge="1" parent="1" source="2" target="6">
                    <mxGeometry relative="1" as="geometry">
                        <Array as="points">
                            <mxPoint x="-240" y="50"/>
                        </Array>
                    </mxGeometry>
                </mxCell>
                <mxCell id="2" value="CosmosDB&lt;br&gt;" style="aspect=fixed;html=1;points=[];align=center;image;fontSize=12;image=img/lib/azure2/databases/Azure_Cosmos_DB.svg;" vertex="1" parent="1">
                    <mxGeometry x="-126" y="10" width="80" height="80" as="geometry"/>
                </mxCell>
                <mxCell id="12" style="edgeStyle=none;html=1;" edge="1" parent="1" source="3" target="6">
                    <mxGeometry relative="1" as="geometry"/>
                </mxCell>
                <mxCell id="3" value="Frontend" style="shape=image;verticalLabelPosition=bottom;labelBackgroundColor=default;verticalAlign=top;aspect=fixed;imageAspect=0;image=data:image/png,iVBORw0KGgoAAAANSUhEUgAAAaEAAAGhCAYAAADIqAvCAAAAAXNSR0IArs4c6QAAAARnQU1BAACxjwv8YQUAAAAJcEhZcwAAFxEAABcRAcom8z8AAGDhSURBVHhe7Z0JfBTl/f9p66+n7d/6a2vv+mtta6nCzgQwCQhaz3pfKCoqIiDKDclmdwOE+xTCfd/JJhDFAxWB7OwEUPDgUAlHdmZ2IdyXQDYBT/b/fSYPSsJDmJ2dnczsfD+v1/sFSjLnM9/3PHM80wSDwWAwGAwGg8FgMBgMBoPBYDAYDAaDwWAwGAwGg8FgMBgMBpNKuV4M/ZEXQ+nNS6Wb+FLlHj4gdzqHS1A8nCANIfBBeTQXVBZ+h/wmJyjit5D/rvPvykI+GJ567vfVaZBpBpRHyLxaiPJ1zcXI1XQxMBZKOzHyY7JvOFG6huyr8+FEuQX5N+AK+uMYDAbDzjnBkMIPAugLYhjPB5ViTpDX84Icgb/HLIGgRNXlEZSPiMyIvHhByiLLTYpemrjrV3SVMAYnTYxcywWknrAfZsKJRinsg70X7J+LAO3oIDkBgb/P5AJydzItOlkMBuOUtBQjv1V7MFC0oRhYTzBGAaKCgrftW0mBVNWzczwjjyvtRPGytID0ABcMz01KO4Fpkl4wmQfpUdHZYjAYu6fZe/Jv+DLlRpBNVxDNS8CbUJhDzELgLD4HPgY5LQNJDXUJ8uMtyiJc2opNP6WbDgMhPWLYTjNhGx09b9slldp5wQkDzJsuBgaDsUPI5ae6vRvoAQjKV/UPcqQB1J6TvB7OyvPJWTnpMdLN66i4gtL9RNDMbWQWgnwWlsHPBUL30sXCYDBWSrNS5R9povw4HKwT+KC8FopnDfNgRnSjSly95xSeS+6BpIlKm6Zi+eV0F6Rc0kTpJij8c6A9VbO2R6NQe2JALgP+hy4mBoNpjJDix5VKd6oPCgjKVuYBiyQfQT5B7jGRpwBT5ZJRi9IQxwVkaFfyfuY6WwFBOQwnBZP4NXiZDoMxJWmlyp/hDPAhTgiPBPGshsJ3nHlwIo0K7JdyYK4rqDznWre7Kd19tgh54ECVaVD5rP56WRU4Js6AkMakbdr0P3Q1MBiMUVEfjyaPRZP7Eng/x5bAftuovt9k8V5SCyH8TyJP1jrYAThGCptBD46uDgaD0ZvzxcM62BD7AkIiT3oVWO3RY+hdt4XlWsFaZlshyKXkEjVdLQwGozUuIdwcikAfEM/rXFA5yTzAkFQjBPt6DhTOJ7g1e35Pm4Lp4QXpUViGDxnLZ0ugN/epKxh+Blbte7VriMFgmOHL5OtdQbk3FKJXoQjY5ho8kgzkCk6QZpP3k/h3dvyONpGkB+bZC0589rCXydYc5oJhd5NY7Pt0VTEYDAl5oo0PSF3I0CZ4jwdhQoYfCoYLyEgOtNkkJWll4VHM+acQ5Ok5EBH2iDAYV6lyKxwQ+eSMl3WwIAgL6CUHoZecTQZqpU3JkPBCmLzAfLb+/FIRTgwPRBFhHJnrAspVIJ7OvCi/AoXkDOsAQRAtQDuq5EVlVlowfH/T8vIf0iamK5wgPQVyO8iaT0oiyCdAul2bNEERYRwS6PW0hB5PHpAyN3sRCyEoAVdAGuAKhOJ+B4kXQrfDND6+YJopDheUd3FC+D66GTCY1Ay5hg/ieRnv9SCmAGf46Rsqf0Kb3yXjEiqac2JkFXNajkBeywcrbqCbA4NJjZDx2kA6/cjZKbvhI0iSEKSxtBleMjcElKt4MbKYOR0HwQlyCfde+C90s2Aw9g0ZjkV9Cz6olNdv6AiSbLigInNr5Ba0OV4yfFl4Ims6ToQTwvPwQQWMbUM+fqbKh9zsZDRwhA2cgR6EbRY5BxkNAnqQ333W+yJAD1M6//dY03YiIKF82iQvGU6M3MmJ8jHWdByJIEddwfD9dPNgMPYIyuc81KeNlI9UUQSVhaQgqtsmIHciw9HQL5VenayvlZJ3rcj01U+Olyq3kvnWDnMkDVG/9Fn7eWkJli81782R94jW7tb8QisvKo6/DFcfLiAvayfGLqObCIOxbhwrHyoa+HsxMJwLhDqSok8+lEc3jS1CxuEj3/whyw+9r4Hqd4BqP11u2/1JxA+rpulyEqzvY1xQxgdlGLiE8NOwifCyHMaacZJ8oMewjbyhT3oTdhSN3pDeFOm5ETnVPtUo72RtH6vRfJV0M12FBtNUPHw59IJeZ00DAQTlnWtLd/wv3VwYjDWS6vI5Xzip/lVQPVE/FCjKLVQh14rJWi91CnJE60112M/dYB0cMSqCXuBY74UvsWIsEfIxL7XwpJp81C+uyqPJ8PYoHH3hROkaaBud6KW8Ru0tkRMkulgNpnmg8g/w82L930fqIcgbri+t+CvdbBhM46R2XDd7XIq5FLXrEZ6qPiCQpAcDnB5yuZJsX9jeM0nPpP4+SCbN1u7+P7oYDYYLSD3h57EXpAFOUPphbwjTKCH3BMglF1bDtAtwAB1Vz9ADcoeWYuS3dNUwJoYMLko+iQ37gjxWnrSHAMgJhuZLcYK0kjUN5EK4oCLAdv0B3XQYTPJDvmhJLmvAQW3PQUXJ48dBJZ/c0yGXEelqYSwQ9Z4SnBCoj66rX1Fl7D+dwDTH09k0GE6oaAs9tC9Y00AuRvgOuvkwmOSFFGwoDJ2h97OW3RCtCcjyNBeUV7sEeVCaGLkJxWOPNF1VfqVLVB6BfTeDDKDJ2rfxwK2RH6KTbjCcqJCRPJjTQNjAMfYSjqKASWqgeF8L8illNUDLQl4IDUg9ybsudDUwNg3pfdfeR1KfuIu/By4oUa2DlUIvaAdzGsjFEZS9KCFMUqI+ch1UxifzWr2RQIE6SJbX6I+YYayT2kt2oY7kpCiOdvmOlpvnfEDi4Wc/r/e7iBbESDrdjBiMMeFLlXvIGQ6zwVkIUohAPK+RM2W81OaskF4uyGg0OflgtY1zQPvQNFYcJ8rd4efxqTgdcKLSE5+SwxgScqZJHlNmNTQrAfLZxgtSllNGKMBcPOTkwxVQHoE2wXy3h1sTepb+aIPhy8ILWL+PXBpOkBbiJTlMwiHDzpCnx1iNzCpwQflN8m4SXWQMpk5q71/CSdR5L067ypSW9J8bDPxO+Py2hsRBHKNRYDAXpPbJN/LYtTXv/dCb0TNJgaGLjME0GPVVgoDcHU6qtmp5KCF9VeWV0MZOnd/ukDgQlGhTfNcOoydpZcptXFB5ldmwGhvyhJsYHsgFlGZ0cTGYpKRFWYSDs3m8H5QArrW7M+nmxGC0RR2ehHxfhdGgGhUyZltA7kTOZumiYjBJDfSyySPgKKEE4ITwU7Ap8ZIc5tIhj1PCAWe9j3UJ8jucID/bbPXBn9FFxWBMCTnpgTaIEkoA8kI43hfCXDIgn25cUNnCakSNBSzPaldQea7VytAv6GJiMKaGF8PZrLaJaIcTwyNRQpiLpnmg4g/Qy3gJGss39RtPoyEoASJFHLEa09gBCY1gtlFEO0J4KkoIwwy/JpTOBeVlzIbTCEDPJ0heDEzfUHklXUQMplED7XJK/XaKxEkgtAQlhLkg5N2fS71RbhYc+XRCQO6OIxtgrBZ8UTVxOEFahBLC1AkU/X5AJavBmIkqQUEZi2O6YawaOE4msdouoh0cNQHzbVqJe8mYWhNZDaURWJIWUG6ji4bBWDKcEB7JaLtIHBCRo4QwTbiySAYXDJewGom5yKUuQXoaFgkbJcbygTbru7ANI/HABZVhKCGHhxekR+FsZCOrgZhIOReUc7g1O39PFwuDsXzUF7fxPaHEEORslJBTk5f3fVdAGgC9j33MxmESnCDPTQsorehSYTC2ifrpEhwxISFcQrg93ZwYJ0UdfDQYnstqFGYBva+jZCh9ukgYjO3iCoSa4thxiSKn0c2JcUo4UboGdn5jPlr6BfR+pjcXIy66SBiMLUPGKeRt8BFHq8IF5ePXr9/zS7o5MU4IF9jVDA6apawGYQbQ+3mXD4afoYuDwdg+0BP6kNXWkUsD9WAb3g9yUKD43wBd3xWsxpB85GpocPnk8gVdHAwmJcIL0hh2m0cuBReQp6OEHBJyCY4T5J2shpB0BGVv81LpJrooGExKhQsqD+PDCfqAmkQ+oY4SSvXAAXI3L8gbWI3ABBbwAYmni4LBpFw4IfwXONE6zGj7SAOAvE/zZfL1dDNiUjVpQrg97PCt9RtA8pH3ccFwTrOP8Rs/mNQPGVyXfRwgF0VQtuKluBQPXyo/AzKoYDaAJAIHpMAH5AfpYmAwKR9ekF/AS3LxwQWlXJRQCod88qAxHh3lgvIMfPgA47Sorz0Icph1TCAXAieqJ5uvxRfUUzawg/uT5+9ZOz9pCIoEZ4J92pfEfkAXA4NxVDhRmc08NhAG8svYC0rR8AG5L3unJxFBjuDnFjBODyfKLeBYwEtyWsDL9akZ2Lk94CA4ccEOTyaCspQcfHQRMBhHhy9r3KGw7AAnKK/hA0spGFdQeU79CBxjpycLaEyTW6yV/kQXAYNxfFyicisv4uPaFwNqxpcg6kfp5sKkSmDnPkkuidXf4UnkOB+UfE1Lyn9IFwGDwdDwYmQy45hBAC4gL8Z7QSkWLqg8bPJICDtcgdBzdPYYDKZeXIKUyQdNPSm0BdALOsoHw3fQzYRJhUBDJyMhmPYiKjQikcyTzh6DwVwkaWXhUaxjyNEElCnYC0qhpImRa828BwTzWt9SjPyWzh6DwTQQlxBuzotKOetYciJcUJF5MZJONw/G7kkLyq1hp5o2TAj0gBa1XKf8g84eg8FoCBeQO/A4ioKKS5BfaNIEe0EpEWjUabBTV9bfyckCekDTmwcq/kBnj8Fg4gicwA1hHVeOIiBPbBKLfZ9uEoyd01yQ/g09oFeZOzoZCMrYtE3K/6Ozx2AwcaapWH45HwzPYB5fDoALSH5uzc7f082BsXPaieJl0AsqZe3oZAA9oIF01hgMJoHwQuhvvBhezjrOUhpBLm1WFuLoZsDYPbyomPL1RuhpHQP609liMBgDoj62LYbfZR1zqQgXlD/lROlOuvoYuwd6QL2hZ/IVa2cbzG5oPM/T2WIwGANDxkvjg2GJcdylGoddwfAzsMr4IEIqBHol5NPBuxk72lgEZS8nqp/axdg0JXmHLy/wnUpfOvREkd93XC4ecmz9G5OO3Ub/GWOBpIlKGzjRO8A8BlMBQYm6hHB7uroYu4c8Vw879r0LdrTBwEFxCETXjc4WY4P486p+Veg5dY/fW+Up9lW/XOSr3gnE6rMkuyo2vevBmqVDD5W8PecIPmZvgTQvlW7iBPkt1rFoZzhBeZcvi+Do2KmStFLlz9BQX2btbCMh94DgzxfpbDEWy7zsoz9fOqimpd9X/bTfWzOqyBd9DeTCFM7FWNDnZGzoHXti3huV2NQue4+XjD48MzD30FV0FphGCHnZnBfD8+ofj7YFahVXKmXQ1cPYPe1LSn4AZxWTmDvbQGAep6AH1IfOFtPIKfBV/64oJ/ofv6/mxUJv1dQib3Wp3xvdxxJLvLzU4WAsJ1MGpJgb8N0kxWa+WLl3+dhDo8WFJ66gi4AxMdev3/NLONEcCcfiF/WPTVshhKc2fydyNV0tTCoEziqymTvbQKAHVMMLUhadJcbkkMtpfk/01kJPdRZIohh6Otvqi8NIpnc+WkdC7swQpSI2+qHwF/MH7C1fPubgSytnHf4bXUSMSal98EipZB2nVgYEepwPKL5rVoZ+RFcFkwoBAT0BOzepY8JBg/8yTVA8dJaYJGZZv7M/gR4OX+yNPuH3RYeDbF72e6vK4e9fs2SRLGZ2O35RCWVnEHapjOsgn16QvXfT8vEHh6yaW3klXQ1MksOJ0jWcaOKL6AkCNUTky5Qb6eJjUiX0huVm1k43kLMuQR5EZ4kxMEsGRH9TmFvVtthX083vrc4H0bxT5I3uZknBbLRKKDtjZyxLZUdsQkelarGn8t3XJx7qR1cRk+RwpeRpWMWyL7ZyQXk1H5A7NS3Hb4mlXFxr5L9DL2gFa8cbizyazhKTQPyek3/1D6y+CyQzAJgLwnkXiv2x+sXfKuiRUC3bY1mZ22OTnlWOFwzcu+a1yfu70E2ASVKuCYV+RF6XgGPVtBFSLgWcHG/khHCvNHHXr+hiYlItvKAk/WuMXECeQ26G0lliNKQkr/yHIJlmhZ7oY1DM84Bivzf6Mfz5+bkCbwcSkdAAlXIV783bY1O6yYf8eZWvvzHpIL4PksSQobrgmO3OB8ONd79IkE+4ShVv+rLKn9DF0hW6Lh3gr/gCqxXDC1JXLqh8yWwERiHIr/DCHrzp3ECW5Z28sjj3dGaht/q5Il90PMjmLb+3WmYVdbthlIQGZGyL9SekfxrLvb387PQX5L3+YXuKVkzefzvdjBiDk/nuzp9DT+QhLijPgOPYhBEX1JfjF3Ci0tGIwUfJIK6cUPvpGS6g3Ev/N8Yq4cVQOjSwLXUbgbGA4IKuMqUlnSUGUpJz+s9+X/UdIJo+IJxZUKjL4L8P1S/eqUIyJFTLJ7F+wOC7y7+e0VOWl46snL1i+gFsa0lKOzHyY65UupNcVucFxbCvKkMN2gl1Ij8tID1ApEFnl3BcwVA7EOf5L+ZuwveJLJRmqw/+DBrT4vN2UDL4mDRaOkvHJS8v9v1l3s+b+n1VD4Nkcou81YUgnU0gnxpWsU5Vki2hfukff8uwB7d/MbufvH3pmMqJb87c+3e6KzBJSHMxcoU6FFBA7g4SGQ+9pTdBKOuh8EfIUFzn6gD8v4O1/w9Q7zWFp/IBuS+pDcn6YjI9wWYNUfQOfubbIuHFcBZjBxkGNIC90OieoLNL+RTknf1FkefUDUW51c+AZMYUeaOv+33RClZRdhpmSqhv+lZgi8rIx8pPz82SNy8bs2foitn78aa2A8K/s+N3nKgM4UUyHBi7NrlExYMiauTAmcgdcOaisHaQEYCAaqAh9KSzS7ks8h37Q7E3ekuRt6aH31M9DQptAMSzH3o6MeRCZnZtHAn1Td8c60O4YVNs7JPbo/M98nsvj9udlZeXh1/aTMHwQekOLe87QY9tD1eG94caLeoH6gy8nlsHQYmq3fGAlDKP0hZkn/pnoa/mfr+32gOiWVToiX4A4jkF/x1DtGEFCZ2j9w0fxcY/s/2zBblS4NUJu7vS3YyxcdR7VUE5B2rPaWZdYsAJyrb0DYk9dYfRGfWmImOnxA0VDrmhyAVCHVuI8nV0FrbMkgEHf+b31KQV5EQ7FnqjI+AM/hWQzXa/J/oNq7Ai2plhMQnV8mFsQNtNsYldth9ePFh+47X8PY/RpoCxSciQPa6g8hzUI/GC+qQBlyBPwMtyJke9iSgouj9QB9I5wwXDc8kNRXL2QSdruxR5o1f5vVXtCj1V3YFJ8PfV0MvZA0DRRIxmRtdjlpRQ7xs+iPWiuG/96Oyk7tv3Lh4qFS+fHMGvclo8nCi3gHq0jlWn4gEf2zYx5NHH2qdT2Dvj0oSnJutJlmSmOPfM38i3b8hgnSCc+YWe6HvQuzkOxBBzmNHF+hLqdcP7Kj1v2Bjz3bnp66k9tiv+YdI8EFI6bUqYRo5rXejXIJ5noR6RoYWMGv37I/IkHZ0FJpnhg/JUxg64JLDT98Cflv/mz8peZ3+0NKe6ud8d7eDPiQ4pzKlaBnwC4vmSVRgR87CbhHq2ImwA3osNuu+jL6f13r7DP1LKf3vqPvwwXyNEfeE0KOckcfQGfGw72XEFlEcYG/7SCPIJcgmPTsYyWew59b+Lc6raFORUdVmSUzWhICf6Nvw9DL2cGGI97CyhHt/ybmzYI5vPzBqwY0vxGGn46hnyb2hzxJgQLpjcUb45QeqFIkpSai/DfffimGbgd8gXGOlkGi0Lc05cvcRTfWeBJ9oXZDMb/lwLfx5hFTvEmqSKhAgvtlqvMuLxTdE57u0blo4LucU88TLaXDFJChm8FGpS8saxgxNufu3u39HZYYwMV/v1RPaGbwhRMfUx65KS2A+WDIheV+CuegQYBPiBLdDDOV2YA8UMsS2pKKEXW61TeaHV2tjopzadmOvdLiwbH+pOmzMmCeHE3U+Rp3KZ9coISqVZ2BsyOK5A6DbYuPsu2NiXgAvK/rRNsf+hkzE8C/ucuKLAfSp9ifvUs9CrGQuF6g34M1S/eCGpQapLSKVlWaxX5trY2M6bjszL3f7my/ny47S5YwwMF5DH80H5LKtuJQp5+tclqPsNRWRE2omxy2CjFrI2dkNwQeUAL4QNG5W4wF3zR78neitIphcUpOnQswkucVcdgP+OIc5gukMkROjeUlTp9591Z1/qtnnfwrwdS1+ZJN9FDwdMguGF0N+grq1i1S4jINPm3t2T8OjdGAj5fgZrI18KMhAhnUTc8Xurri3IqnoQJOMFlgAfFrijVUAMcS7Tn3OehLq3DKo831KIZd+x/uv8FzeHFw3dMf/lyVImPVwwOsMH5AdBFqzBSY3Ch5flEoz6zXgyfA57A1+C8B10MpfMwqzq3y7JrhoIhebNJe7o0frFB0EIUzsddbSEagmoeO5d9+Xk3lt2Lhmxfcrrk0NN6aGEiTO8IA8CknJZjg/KFc2Dcms6K4yewIYcfuGG1YJccf1bn2r6+il5RBoEFC1wV0GhQZCLM7XTEZQQlVC3lqW1tFgTy33w3TNT+27+uHD0jhFvzFWuoocWRkNc60K/TguGS9h1LHHgJH4u9oZ0hgvKt3B6HskmCEqATqbBkEE9l2Sf+oBVcBCkPtOfw54QS0KEri1Wqwx57N3qmdlbNxaO3ZFTUlL+Q3qoYRoIqXVw4ryLWcsSBGrol+Trrk2aoIjiSvuS2A+gi1rA2qjakAvopBpMQXZVFyCGIFqY+gz2hC4loa4tVql0afFObNiT752Y6dkSXDp+h+VHKmns8GVyn6RdlhPk0hZr9/2JzgqjJeTzuMyNqRGtDyUsya7KB2JIakKeaGP9f71MQQnFJaFaVsa6Z6yKjez03tFZuVveWjZhO5yVY+rnL2Lkx3xAng/1KykiconhQXhZTmNarN/zVy7BUWXJZxno5BoMFBaUUApAZOP3RWNFA6OxZXnVsZeHVcdeGVkTKxlazfx5vUzrjJfj9EiI8FyLt1V6tH3n7OguG/bPGby1ZNnEHXfTQxEDcZUqLaHX8iGrpiUK1ESZWxtuS2eFaSiwwXQ+jPAdnCANoZNrMFBYUEI2gjyhRj6pUDywOrZ0cHVs2RAQzogaVTgsSkBGrOnoBSWUuISeS3tLpXPam7G+t635ZvwLGyILhn68oGRSueXGdmyMqFeBknRZjhOURdgbukRalIY42Fih+hsvXjT3hAaAhLKgwCDWAgp+QU6V2rspVns3pFcDYhlxmimbi6FKiDV9naCEjJVQLStUBty1+ssJPTfuWjj846nLZ+yw9YclEw3IIp9PxmgKZFw5A1/gT8lwQXkUc+PFSTwSWgzFBWk8lrirYoXe6lhRLund1EDvpgZ6N6djL4NEEmUZSIg1T72ghJInoWfT3qC8HvM8UPp5fp8NHy8atXX0splb/0APV8dE/eRDkl5ixd5QA+HX7ubJdUvWhosXlJAFUXs30Viheu8GhJNXDT0VtjyMAiVkTwkROqm8FvM9Eqie3H/D+0vGfOwVF9r3K8jxhl+r9EjKZTnsDV08vKCMYW40HcQloQGnYoixkMeZC3OqoHcTjRUPitbeuwEhvDzCXJYNBQkxlk8v055FCZktIRX+1dgz/PLY4CeEk9Pc74uF47b2oIdwyqbpqvIroZa9Xb+2GQEnhPEF1vrhar+zHmZtMD2ghEwiC4RD7t14QTgDo7UPC0DhJw8LsKRgNiih1JJQLa+o5Dy06vTcIR8u9s9Yr2lkFDuGD+5+EntDJoULSuOYG0snKCHjISMGFHpqezdLoXdDHn9+efiFhd9KoIRSQ0KdW74Wc9+/6syoruv2TnNvXLdg2OZphRM+eWLF7F2/oodyagZ6K3xQ9kNNM1xE2Bs6L2kBpRWYOcLaUHpBCRlLgfsUs8hbHZSQ/STU8+a3zw7uEDw1oed7FbN8H725ZNTWocWTPrmFHrKOC0jobrXnwqhzCYG9oe8CwhjP3EgJoFVCi/pX5S/qfyqGNMySbPtKiLU+esFRtI2V0IC7Sr8a8cz6I1P6fbB53uAtBQXjPu21bHI5jshdL9BrmQYywt5QMsIHwzdwQXkPawNphROUo+RzD1wwPJcXpCy+VLmHfAKCzqLBpLqEyBNd5J4Nee+G9e9aQQnVghLSJ6HumatiuQ+VnR73/MY9M3M2lS0e/umkpRO2t185OfQLeihiGkhaUG5t9NUiFewNkSfi5AnMjXMxBEUCab2p9p4CUpc0UWmTJuq/LpwqEjonm3Mvdy4dEo29TB5/psW40Btl/p5WUEK1oIQuLaG+twjfDHvivZOTen20Y+7Aj1/3jykf9Mq0ChwuJsFArRwBYG/IyHBlkQzowbA/1SAoUeAj6CkVwM8MdAWUR1qI8nXtRPEy+uuGxG4SOicbIhX1aTTyrs1QIpuGn0ZDCRkDSqiuhLz3rf9ybOcPD83o//GHC4duW1Q0fmf3V2bKf6eHF8bANBekf0Nt3HJBrUwUJ/eGyH2b2o2gRDlB2QjCmcoFpJ6cKLcgbwzTH0tqiIQW9jsVsxxQ8L4buqY6VqyOk1YTKxlOAPHESYEnyp6PRsij2KzpWp2lQ6qZ66MXp0qo941rY0Me3Vgz8YXNkdneT4WCUTsnvpxf8dCK2Zt+Sg8lW2aJ5+Q1fm/VA8W+muEL+p78ZPGAU6cX9j15JL/j4Zm92oR+TX/MMuGDyfncg2NHUSD3btLEyLX0PxslCxpbQiCbb9+1ISMJDCK9m6j6pj+rqOoFJWQMUxwgoezb3/tm9FObTkzr88n2BYO3v1o8tsK3fHIknR4ytszCvNiPC33VLr+vqos/tzq/yFu9HjhRBCd4LMgguUNu3/O1O1MuzckMdcxrZ85J8aXSPFDxBxBGkCWSBNkPgkujs8GYmQX9T4KETkKBST6kkC9xn4oVqi92VqmyIcPWsIqn0RR4qpjLpJXFWSeZ07U65N4Ya330MiXFPu898P4Pv3ipy9aDs7LL3y8YVjGvZKLS5a1p4b/Qw8OWWZh34oqCnOhNRZ5oX7+vuqDIG90KUvmKJZuGmPD4Qbqv5Zg7QzoDf77mzgg9kteucYcO4kWpSzJ6Q66gPBjfG2qEQBc8H7rfMSNZrF5KA9l4Tn37YicZtoZVJM2C9LRYy6qVxQNsKiEQPWt99GLXj9r1b7vx7PDHNldP6VGuzM/dtaZolDTulcnKvWKesfdYzczkXqEfLR1Y3bw49/RjIJkhfm/1UpDOJ/D3L1hSiZfJT5/b13WB3pEE+3+2O0PuMCBD/g1dHNOStmn/TzlBepUlkkTggsrGNHF/ar/8a8UYJSEykoA6RtpQdjFsbFBCxmAHCeX+d/PX4zptOz6z/65Pl+RJJSXjwu4V05WWtMnbMv7+Vb/y51a1Acl0KfJWTyjyRd8GUSj1xWEkF5NQXaRtIKMp2RnSA3mtzHvcnLyCwpfJE3lBYT/YpZeA/CBMHntDZoZICIglCrmXwyqCVmEJSIi13FpZZGMJsdZHL1aSUJ/0j2JDH/rk80nP79g/Pye0oXC4Mnv5pMizb86stPWnD4pzzlxd6Kv+b5E32g+EM9vvi64D+RxhiSKZaJPQd4CMNrkzpHGe9Midve4M/YiuTlKTVqr8PyIOXpCn8kF5O1MscQA9rBK8JGdyoLCghDSAEqqlsSSUc8vWs2Oe3BGd0bNCXjRQWfXy2MpRb0yuvJM2Y1tmdrfY/xQOjF6/NPd0e7+3ajCIpsjvjW4F+ZxhScFs4pVQXaR3oX0Mz86Ubqarm/S0FCO/BRk9AczTPxi0XM2XmbfMKZOSvMOXq111T7RnkbdmLjTkj6BRe+g/N5gFvUFCfaDAJIgqIfJEm0UhH45jLbdWVAkxpmt1VAkx1kcvU74tTOZIaNxTO08tGhhe8+qkfe1pk7Vl5vY7eWVx7qlMKO6d4fgcX+SLvgl/l84v+lYjMQmdQzoL7UQAcj2ZUgbdHElPs9W7/s8VVJ7jgrIfhHSQLRw28PMvYW+ogSx2V/2ryFfzoN9b7YOGvIQIB/6srt+AyGOY9FcaDEpIGyihWsyS0IROFSeWjdsz1I4fcSvJO/1n6NXcAcdmn2Jv9Uw4Hsvgvw/VP0atjjES+g7yhB3wdk6GNCA7XeLp5kp6XIFQU/L+JQhmOS8olx4IVZB3tFi/56/0150b0rsB2bQo9FQ/BX+OhAb9KshmJ6uxsEAJ1QUlZAxmSGhednjrW9P2uWgTtWxK2sd+UDQw+m+/r+bhIm/1QDjuCuE43QzU1D8e7YjREqpDhnQiJ0NZ7k6XenrbhEwbsJUPymm8GM4C2awEPq8jn/PgxHAvR/WGirzRq9Tn+n013aGHMxlksxoaciWrYWglHgnN730ylihkCB3ygqlVIZ/WZi23Vhb2P8mcrtUpHhxlro9evitMxkso+8ZPY4t8u8tWza28kjZPy2RhnxNXFPhq0ot91Z38nuhYvy/6BhxnFfWPu1QiqRKqy0FoS0XQprp42pjXA6kdFDU8CKQj1pcQ8E47MWbbx/cbjN9z5q+wg++GHk4WSGceyOY9+O/j5+98I9AqoXkoIU2ghGpJpoSWDNy9ijbLRk1BXs0f4cTwNqBXUW71dDiegvD3A/WPsVTHRAl9C7Sp3dC2FuRkKh196RWmPeXYXKxwpZWFR4F8Ks+JiCsz7x5W0lLgrvkjGZcJRDMEduprcPYUqb+jkwWZJ12MBlMroRNQYBKjVkLWZXH2KeZya6VWQuxpW5laCbHXSQ+Tnz5MC4axEprWXd7/xtxDV9FmaUpiTWLfKx5Y9a9Cb9VD599jhb9HWceU02gMCdUhQ9rlzpBneDKk9p6W+/6X7rakh3yZgC9TppCxPG1zSY4Mk+H3nMqA3sezcMY0Dhpyoz/5or0n9BlKSAMooVqSISHfreVnl4/bP5w2yaSkoNexX/h9Na38vuqnizzR0SCc1+A40XyP1Yk0uoTOw50hfQJSys9prdz7okXGsWu0LPLV/KHYG70FejU9QTjToVELVuyqa5ZQT5BQLygwCUKG51k21LqQcetYy60VMm4aa7pWR5UQY330Mvkp4yU0P2v3FtocDUlRXs3vC+AYheOyR1Fu9VQ4RgPw932s4wS5OFaSUF2kD9yZ8uiszNDtee3sO+ySpiz2nPpHkafmvkJfdQ70bhZBY36/yFt9irXDrEY8EpoHxSVR/DaQEGu5tbLAphIqAgmx1kcvk5IgoZXTDzWjzTHuFAw89c/aS97VHjgxXASy+cAux6jVsa6EvgNktBZ6SENyMsL2/2igmBe77Nx3NYp8NW9Cd30va8fYBc33hFBCmkAJ1WK0hF56quIUbYqaQo5ROD5Hk2MUpHOQ1fYRY5j4xKE6Bd/KuDPkr0BGa3IyFI87XWlFm4t9Ag37WjiD2sraEXYFJVQXlJAxGC2hWb3DEm2KDYY85AM9nI2sto4kBztJqA4ZUjVIaYW7tdw3p3VFc9qErB3o/cxh7QQ7E9fluJ5QYBLEFhJiLLdWyLhprOlaHfISMWt99DKpo7ESWuzbI9Cm2GDgRNHHaudI8rDD5bhL4c6Uj3ky5RJooy9kZ4b/SZuT9ZKKj2TG1RNiFJt4QQlZE6tLaOmIvfNoU2ww0KZL67dxJLnYtid0cfa5M6QC6CU9m3PDzqtp07JGWDvA7mjtCc198bP8uVBcEoVIaCkUPauyCCTEWm6tzAcJsaZrdYiEWOujl8aSEJwoiqx2jiSPVOgJXQwQkQLMdaeHnshqGfktbWaNF9YOsDtxSajHZ7FE8fuq1E9JWxUy9htrubUyv88J5nStDvmMOmt99IIScg6pLKE6ZMjboQ1Pc7eWH8prF7mCNjlzw9oBdgclVBeUkDGghJyDYyR0HtCmt7gz5Zc8mfJd/dIrf0KbX/LD2gF2ByVUF5SQMaCEnIMTJXQ+7gx5A/SSRmRnyLeQIZ5oU0xOinzRs6ydYGfiktCLUGASxO+1uIT6g4QYy60VMmQNa7pWR5UQY330MulJlJBTcLqE6iJtAykNyr5B/jttksbG6RKaA8UlUQotLiEy9htrubViVwn5QUKs9dFLPkrIMaCEGGTIn+dkSCvdGVKWoR/m86OEmAUnHlBC1gQlhOgFJdQw0DP6DHjFk6G86M2IXEubqr6ghNgFJx5QQtYEJYToBSUUBxnS/tp3kELP5rRW/kybrfb4vQ6W0AsgoRegwCSIKqE8KHwWhYyCzVpurZARpFnTtTr+XJAQY330kv8ESsgpoIT04c6UJTg2Znsypce8bUK/pk244ThZQrNRQppACdWCEnIOKKHEgWPkU2AS+Q7SgNsO/ow25wvjdAkBsUQpAAkVQ9GzKmQAUtZya4UM3smartUhEmKtj14mooQcA0rIWKCH9H5OhjzKk67cmtck9n3atGvjeAl1Px5LlALPKSh6RETWZEHfE8zl1sq8np8xp2t1/LmnmOujl+/GE0MJpToooSSSIW/NSpcfbHLu/aMib/Qb1k6wM5ol9PxxlJAGUEK1THwcJeQUUELJJysjNFIVEUqIXXDiASVkTVBCiF5QQubgyVSeRAkxik28oISsCUoI0QtKyBzgOHrL8RKa9fzxWKIU5ICEBkPhsyjzQUKs5dbK3B4gIcZ0rU6h7xRzffSCEnIOKCGTyJBlR0toJkpIEyihWiaghBwDSsg8UEKMYhMvKCFrghJC9IISMg9o4CihREEJWROUEKIXlJB5NPH7qr9m7QQ7o1lCXUFC3aDAJIjlJdQHJMRYbq2Qzxiwpmt1Cr0gIcb66GVCB5SQU0AJmQcZwNTREpoJxSVRloCEiqDoWRUiIdZya4UM3smartUpAAmx1kcvKCHngBIyD5RQt2NQYBLDHhJiL7sW5rx4nDldq1MrIfY66WFCh4P0wEEJpTooIfNACXWFApMgS9wgoUFQ+CwK+RQDa7m1MucFkBBjulZHlRBjffSCEnIOKCHzQAkxik28oISsieESegwl5BRQQuYBDRwllCgoIWuCEkL0ghIyD0dLaDpIaAYUl0RZbHEJzQMJsZZbK7NtLCHW+ujlJZSQY0AJmYezJfQcSKgLFJgEWZxtcQn1AgkxllsrtpWQByTEWB+9oIScA0rIPJoUeau/Yu0EO4MSqgtKyBhQQs4BJWQeKCFGsYkXlJA1QQkhekEJmQcZOw4llCAoIWuCEkL0ghIyD3JPyNESmv7csViiEAn5B1ZZlrk9TzCXWyuzuh9nTtfqLAEJsdZHL+MfRQk5BZSQeThcQkdBQkehwCTG4uyTUPSIiKzJ3J6fMZdbK7O6H2NO1+os8Zxkro9eUELOASVkHighRrGJF5SQNUEJIXpBCZmHsyXUGSTUGQpMgizOsoGEGMutlVnP21RCOSAhxvroBSXkHFBC5uFoCU0DCQGxRFlkcQnNAQmxllsrM20sIdb66GV8e5SQU0AJmUcT2OBf1t8BdgclVBeUkDGghJwDSsg8UEKMYhMvKCFrghJC9IISMg+QUNTZEnoWCkyCqBLKhcJnUeb0AAkxllsr5Fs6rOlanSVukBBjffSCEnIOKCHzQAkxik28oISsCUoI0QtKyDxQQoxiEy8oIWtivIQO0AMHJZTqoITMw9kS6nQ0f+qzR2KJsjDrRKwQip5Vmd3jOHO5tTKj21HmdK3OYpAQa330Mu4RlJBTQAmZBxk7ztkS6gQFJkEWDrC4hF4ECTGWWyszutpYQoz10QtKyDmghMwDGjhKKFFQQtYEJYToBSVkHqSBf8HaCXYGJVQXlJAxoIScA0rIPBwtoSkgoSnPHIklysL+ICEfFD6LQj7FwFpurUzvAhJiTNfqLMo+yVwfvaCEnANKyDyggUedK6GnUUJaQAnVMvZhlJBTQAmZB0qIUWziBSVkTVBCiF5QQuaBEmIUm3hBCVkTlBCiF5SQeaCEoLEliuUl1B0kxFhurZBv6bCma3VUCTHWRy8oIeeAEjIPlFC9QqMHlJA1QQkhekEJmYfDJXQ4f/LTh6HBJcYCkFCB76RlIV9GZS23VqY9d4Q5XauzKPsEc330Mvbh/fTAQQmlOigh8yCfcvi8/g6wOyihuqCEjGHsQyghp4ASMg9nS6gjSOgpKDAJsqAfSMgLhc+ikM9zs5ZbK9M6g4QY07U6i7JAQoz10QtKyDmghMyDDGCKEkoQlJA1QQkhekEJmUcTv4MlNAkkNAmKS6LMt7iEyJdRWcutlak2lRAZ3Zy1PnoZgxJyDCgh80AJdYQCkyDz+9pAQozl1gr5jAFrulaHjOnHWh+9jHkQJeQUUELmgRJiFJt4QQlZE5QQoheUkHlAA0cJJQpKyJqghBC9oITMo0mRt/oMayfYGZRQXVBCxoAScg4oIfNwtIQmPnE4P//Jw7FEIRJa4jlpWWZ0O8Zcbq2Qb+mwpmt1iIRY66OX0Sghx4ASMg+HS+ggSOgQFJjEmN/3M2YRtAozuh1lLrdWpnY6zJyu1Vk44DPm+uhl9IP76IGDEkp1UELmARKKooQSBCVkTVBCiF5QQuaBEmIUm3hBCVkTwyX0AErIKaCEzAMl9AQUmASZ38fiEuoKEmIst1ZsK6H+ICHG+ugFJeQcUELm4XgJTYTikijzLC6h6SAh1nJrZYpNJbQAJMRaH72ghJwDSsg8UEKMYhMvKCFrghJC9IISMo8mfl/1adZOsDOaJfQ4SOhxKDAJMq83SCgHCp9FIZ/nZi23VqY8AxJiTNfqqBJirI9eRt+PEnIKKCHzQAkxik28oISsCUoI0QtKyDxQQoxiEy8oIWuCEkL0ghIyDzKAqWMl9BJIaMLjB2OJMrf38djinBOWZRpIiLXcWpn8zCHmdK3OfJAQa330Mgol5BhQQubhbAk9BhLqAAUmQSwvoedAQozl1srkp20qoX4gIcb66GXUfSghp4ASMg+UEKPYxAtKyJqghBC9oITMAyXEKDbxghKyJighRC8oIfOABu5wCT0GBSZB5vYCCbmh8FkUVUKM5dbK5KdAQozpWh1VQoz10QtKyDmghMyjSZG3uoa1E+xMPBICYoliBwmxllsrk2wsIdb66AUl5BxQQuaBEmIUm3hBCVkToyU0EiXkGFBC5oESYhSbeEEJWROUEKIXlJB5kLHjnCuh9iChR6HAJMjcnhaXUGeQEGO5tTKpo00l1BckxFgfvYy8FyXkFFBC5gENHCWUKCgha4ISQvSCEjIPR0tofPsD+eMfPRBLlDkgoUVQ9KzK1M5HmMutlfyOB5nTtTrz+h5nro9eRt67lx44KKFUByVkHighRrGJF5SQNUEJIXpBCZkHSqg9FJgEUSWUDYXPokx9FiTEWG6t5D8JEmJM1+rM6wMSYqyPXkbegxJyCigh82gCG7y6/g6wOyihuqCEjAEl5BxQQuaBEmIUm3hBCVkToyU0AiXkGFBC5uFsCT18IH/cIwdiiTK7h7UlNKXTEeZya2XiE/aVEGt99IIScg4oIfMACUVRQgmCErImKCFELygh80AJMYpNvKCErAlKCNELSsg8UEKMYhMvKCFrghJC9IISMg+U0MP7Y4ky+8VjsUVZn1mWKc8cZi63ViY+foA5XaszrzdIiLE+ehlxdyU9cFBCqQ5KyDzIgwnR+jvA7miV0FiQ0FgoLolCJLQQip5VmQwSYi23ViaAhFjTtTrkY4Os9dHLcJSQY0AJmQdp4CihBEEJWROUEKIXlJB5oIQYxSZeUELWBCWE6AUlZB7OltBDIKGHoMAkiC0kxFhurUzoYGMJMdZHL8PvQgk5BZSQeaCEGMUmXlBC1gQlhOgFJWQe0MCjjpXQaJDQGCguiTLL4hKaBBJiLbdWXrKxhFjro5dhKCHHgBIyD5TQg1BgEmTWCyChAVD4LMqkp0FCjOXWykuPgYQY07U65LPrrPXRC0rIOaCEzAMlxCg28YISsiYoIUQvKCHzIO8JVdXfAXYHJVQXlJAxoIScA0rIPBwuoX0goX1QYBJj1gtHmUXQKkx6+hBzubViXwkdY66PXlBCzgElZB7OltAD+/KBWKLM7H40tgCKnlWZ9NQh5nJrhXzamjVdqzOn5zHm+uhl2H9RQk4BJWQeKCFGsYkXlJA1QQkhekEJmQdKiFFs4gUlZE1QQoheUELm0cTvi6KEEgQlZE1QQoheUELm4WwJ3QcSuh8KTIKoEuoPhc+iTOoIEmIst1ZUCTGma3VUCTHWRy/D7kQJOQWUkHk4WkIjQUKjoLgkitUllA8SYi23VsbZVEKzQUKs9dHLUJSQY0AJmQe5J3Sq/g6wO3FJ6D4oMAky83mLS+hJkBBjubUyrr1NJdQDJMRYH72ghJwDSsg09jYp8qKEEgUlZE1QQoheUEImkSFvRAndtxcKTGLUSui4Zcl/8iBzubUyrv1+5nStzuweR5nro5ehd+6hBw9KKNVBCZlEeuhex0toJBSXRJkBEpoPRc+qTAQJsZZbK2NBQqzpWh0iIdb66AUl5BxQQklnb3Z6qF+TJrHvOVtC94CE7oUCkyAzuoGE+kHhsyiqhBjLrZWxj4CEGNO1OqqEGOujlyF3oIScAkooebgzZcmbqdxIm3cTkFAUJZQgKCFrghJC9IISMhYQzzF3hlQAx8njvVqFfkGbdm1QQuyCEw8oIWuCEkL0ghIyjM1wjAzPytyRQZvzhUEJsQtOPKCErAlKCNELSkg/0OM5484IvZqdvqtLX37H72gzvnhgg5+svwPsTlwSugcKTIJYXkJPgIQYy62VsQ/bVEIvgoQY66OXIbejhJwCSkgXO0FAE7PSK26lTVdb/A6W0HCQ0AgoLoky3eISmgASYi23VuwqoVkgIdb66AUl5BxQQvEQWuXOqOjdL738Gtpk4wtKiF1w4gElZE1QQoheUEKXIEOuhLY/Oytz1/3t2omX0aaqL46W0F0gobuhwCTI9K4gob5Q+CzKhMdBQozl1srYh0BCjOlaHfLFW9b66AUl5BxQQhchQ17nTpe8/Vpta06bZ+JxtoQqQUKVUGASY3rXI8wiaBUmPH6AudxaGfvQPuZ0rU6thNjrpAeUkHNACdXhuDtDKoQ2/ni3tE3/jzZL4+L3RR0toeFQXBKFSGgeFD2r8hJIiLXcWhkDEmJN1+oQCbHWRy95t++mByVKKNVBCanv9mzJygiNdGfszKRNMTlBCbELTjyghKwJSgjRi1MlBOL5wp0Reh3adNd+6Vv/QJtgcuN4Cd0FBSZBpnexuIQ6gIQYy62VMQ/aWEKM9dFL3m0oIafgPAlJoZxMJT8rc8fttNmZF9jgJ+rvALuDEqoLSsgYUELOwTESypDXuNPlvtlt5b/T5mZ+irwooURBCVkTlBCil1SWkDtDOuDOkOfmpFc8mNe0/Ie0mTVeHC2h/6KEtIASqgUl5BxSUUIgng3Q8xmYkxHiaNOyRqCBR1k7wc74vdEhdPUazDCQEBBLlGlEQn2g8FmUlx47wFxurYx+ACTEmK7Vmdn9KHN99DL41saRELTp0vptHEkuE584VKeA25hT0F6LczKVjv3Sy6+kTcpaKfJGt7J2gp1BCdUFJWQMRkuocHDlCtoUG0yxr3oQq50jycPuPSFon5+6M+XR2ZkV3323x6rxe6K3+n3Rg6wdYVdQQnVBCRmD0RJa5N29njbFBlOcc+JqaNc767dzJHnYsScEbfIbEM8KT6bcPfdG6U+0+dgjC/NOXFHoqc6Cjf9aKggpLgnduSeWKNOeOwxF75hleelRkBBjubUy+v69zOlanZndjzDXRy9GS2hKN/kgbYqXzMK82I/9vqoufl91AbRxFFKSsZOE3BlSOCdDnupuLf+XNhd7Jy9PvGypr5r3e6qfJTf4YYcEgWPn7yCro/XBhGF3VOYPheKSKFNBQnOh6FmV8SAh1nJrZRRIiDVdqzMDJMRaH70MvsVYCbnbbou9MffQVbQ5xpViz6l/FHirHiny1QyFNv9akS+q1D8OEP3Y4nJchhwEAWW5b4j8izaL1E2Bu+aPRb5Td8PO8fq9VUvhbGzH+TvMaqCE6oISMgajJdQ//dPYkoG7S2lzTCgleYcv93tOZ/i9Nc8XeaPTgfWpOC6kWVhXQtJhEM9Cd4bySF7app/S3W94morll/NBqQf/joaP0jVGSvJiP4QzsBaF3urn/L6qKbDTyvzeqGUe9UYJ1QUlZAzJkNDIh3Z98cakAx1pkzQ0hbmn/+L3nboXjtHcIm/1Ur/X2iePVsJqEoL29qE7U87zZCgt6e5NSlqI8nV8UJkCVPGC8lGTWOx79J+sn5Kc03/2+2qgwVeTBl/i90UrWDvXDOKS0B1QYBJkameQUG8ofBZFlRBjubUy6j6QEGO6VmfG8yAhxvroJRkSIszPCm+hTTKpmd0t9j/kUnuxr7oTHKcTgQAcL4frHz+INSQEbawG2trL8PdOAzLk39DdaHj4tbt/xweULpwgv8aL4c9BQLFa5D62khArfm/VtYW+U52KvdUzzXwUXOuDCUNQQppACdWSLAlltf409trE/V1oszQ1JXnVvy32VN+uPpjkjS5Wj1Nv9BvWceUkGldC0g74c3x2pnQz3U1JCVcqZYBshoN8tnwnnm8JNStV/kF/NHVCekvQ2O/xe6t9wFKQRVIuD2jtCREJDYHikihWl9A4kBBrubUy0sYSYq2PXgYlSUL90z+JDXtgx5dFw/YsoU2zUbPEG72uKPf040W+6GjgbZDSXtZxlso0ioQypJXu1lLP3Bt3/x/dFYYn892jP+dEuQMvyAVcUD7OkI+KK6hMsX0vSEvEvJj6JB65PAColweAI6xGEQ8oobqghIwhmRLqB3hv/fTskoGRVbG82PdpE7VE/J7YL/3eqnYgo17AXDhG3/f7oqdZx16qYJaE3BnSHmCmJ0O5J69J8vY7v0a+HqSTA72edSzp1EGQz7oCKfK4t54U+Kp/B438juJc8t5SdAk09o+Bs6yGcjE0S+g2kNDtUGASxPISag8SYiy3Vkbea1MJdQMJMdZHL4P+k1wJ9Uv/WGXq89KB5RP29qXN1JLxDzz1d7+v6uFib80Qv7f6Vb83KrOORbuSdAllSOtyMuQcd7p8Pd2kxgd6Mryo3MMH5RkgoD1M4TDgAtLbjugFxZNCd/R6vyf6JDC2yFuzEs7G9rEazjm0S2g3SGg3FJjEsL6E9jOXWysj761kTtfq1EqIvU56GPSfCC0iyZUQoW/61tjwh7Z/sQh6RiumVyb1iSgjsmTAwZ8t9dWk+3013UBO0+DEcZ2dB0dOkoTIZ7IL3Blyh16tQr+gm87wNFu96/9AJj14QVpZXzBa4ESlJ0roEiGX8cgj4iClntBrIm+QS+c3IM0PJhgkoeldUEJWxO4S6pu+RaV/5pbYqA7bT8/oWSEvGay8UfLSbveK2fuvpc3YsvnuHnCVD47LYmD7+ceplTFSQtBWtgDDszKlDLppkpI0UbqJCyrjQCTb64tFK/D7O3kh9Dc6SUw88edV/arQc+qeYl/NcJBQB/q/GwyREBmeP1GG3rlbfZdm/KP7Y5OeOqh+2mF2j2OxOb2swdhH9jOXWysjQEKs6Vqd6SAh1vroZWAjSahv+uZYH8INm77F99+t30zovOPovOzQB8UjlZnLJ+9+hDZryyaPnDwOrOaKcqufgV7SBKAUTiIPsSTQ2CQqIfUz2ZnSq9BWuvhu3J20Fz5dK0O/5oPyM5wgl4BEqutLJV5AQvnYCzIxgw2SEAsy4CUZ+POlx/bHJj9zCM7Kj8bmMgqlGaCEjGHgzdaRUO8bPqJ8CHwQ653+YWz4o5+cntpzh7JokPRmyXjF+8Z0pRlt6pZNkTd6FXAbMMDvq1nk90W3AF+zxGAmeiXkzpAroH3ke9oot9JVTErUEQ0CoTwQR2V9kSREWRLvUWEuTDIlxGL4PXtiYx7eF5vwxMHYlGcPqQNssoqn0aCEjMHKEur1Le+r9LxhYyzn9o++Gd/p02Ozs3Z8VDBcmv1KfvgxMU+8jDZ/y6bIHf33Uu/pDn5vdBTwFlDJEkUyiVtC6meyQ32zbzDnM9m8IA8iT7ExRaIb+Q3sBZkcsyVUH3KfgTx5NvaRfbGJTx5UH3AgXwNlFdREQAkZg90k1LMVYQPwXqwHZcjDm85M6bEtMj9359tLx8oDX58csdZXNhl5LS92RWFuVVvoIfUE5hR5qzcCNSx5GIUmCWXI+90ZobnZGdIDZn4mu0VpiAMB7WCLRD8uUX4BJWRyBt8CEroVCoyFIG/mkxEKxrffH5vU8ZD6mYjZL7KLrFbGPgwSYsxLKyPusamEuoKEGOujl1SQUI9W76q82Gq9StatG74Z88zmz2YOKN9cMKxi3isT5CfEhZEf00PEslniOXlNobfqIRBGHrAc5FTn4aREaUhC5DPZnkwpt7E+k80Lyljje0FKeXMxcjWdReqnuVjh4gJyd/In/V+NEiIh8o0YqzP0zsrYqAdATI+BmJ4+BGf48fWWxoCEWNPVynAbS4i1PnpJRQm92Gqdygut1tbSsiw2+MH3P5/4wtY983K3ryoasytv+fTkDpppVOoPE+b3Rr9iCUYL9b8n5FY/k60U5WSGOnra7PklnaXp4UTpGk6QTzMkkhCcqExyVC+onRj5MWzIg+oGEJQoH5RL4e/D0wLSA2nirl/RH0t67CIhFsPuroyNfmhf7KXHD8Ymdzqsjg7AKsQElJAxOEVChO4tRUow1v8/686OfOqDE9P6f/zx4qE7FiybKD1VMq38cnoYWTbk8xYFOdGb9HywcwIcV+q+zpCPwp/jB7T6OGlD6cQTqJvToV4a2wsS5EjztUorOgvnhAsq/S+yQb6Ajfwh/DkP/uxNnn1PX1V5Jf01Q2NnCbEYdletmCY8eVC9jDenZ20xRgkZw8CbnCkhwvMtBUpAxffAu19MeH5T5Rzvx6VFY3YOXT45lE4PK0uHfCqdfAyQvNBee28peqa+gApzomR/b3Vn7Hw2r511Lk26yiL/hbr4GbNuJgDU4vGOvBfUSgz9ETbAe/U3CAtOUPbChnqbC8ijOTHSwbVud1M6mYSiSuiWSCyVGX73HvotHPa/a4FMY07Po7ZjetfDzPXRC0roOwl1a1laS4s1Kr1vEs4Oe3LDySl9N32yYOinS5ZO2PnsawsjV9BDzbIhn02nL773X9DnxOq5PT9bnf/EwcfoP1sqUAsXA9gLMjLQ0+nD3DCXAKT0FUhpM/y5EOjHBeVbyEtbdLKaM/iWcMpLyAhQQrUMvCmMErqIhLq2WE1ZpdKlxTuxnHvLvhjXbePeWZ4tQsHobaNemba9LT30MHEmrSzcHmrdl6x6mAiO7QWdSztRvIwXFIm1ceKFE+QzwHqyUbU+8DAQJDQIigvSMMNAQrOhqNuNaSAh1vroJRclFJeEalmp8lyLt2M92q46O/Txdacm9/lg2/y8LYVF48q7Lp/xcdI+1pYqSV+24SdQ45bXr3kJ4/Re0LmQwfKYGygBQESaBjAdeDNI6D9QYJAGGXaXTSXUBSTEWB+9oIQSk5BK2lsqndPeVOnRbuXZEZ3WH53h/qhsyehPBtJDE3NeODHyLAjD2MtwgON7QedyXUC5CjZwGWsj6QUlZCzkRc1RD+6LTehwQB2CiNzwZxV9qzH12UPM9dFLbjuUkNES6py2Iua+t/SLKf0+2FQ49tMB9NDE0KhjwwnyGladSwjsBdUNbJQXL9hICYASSj7k+zrkJdYx5Gk8kJP6/pL6Yi1bCI2B4T0hlJChEhr+zPpjcwZtWf7K5J1J/Yy1nQOyyMZekAkh7wbBRhFYG0sPKKHGgwxFNPzcO0wdyKjih0AGR2KzGkFOKCHrSajfbWu+zu/1wc7Fo7eNssPIDI2ZtODu1pwg72TVuITAXhA7XFB+nrnBdBCPhMgLiEjyIcPeDCdyenBfbPyj0HN6irzLBHLqDsLokRymQs+MtSx68aGEdEsor8PaqlnezaXL8rdb8vFnywV6KXxQng/1DHtBZsXIJ+Vg542mk20wg26OzGUVG8Q8yEugw+7eq372Ytyj+2P5IKepnY/EZr7AFks8oIQaV0I92645O777+3sWDd828405uywx4oBd0qJM6ZyMy3DYC7pEeFHpwtxw8SLI8+gkG0zuTZH+rGKDND6DbyVP5dV+k2n8Ywdi+R1BTqTn9MIxpnBYoIQaR0K+B9edmZa1ZWPRuB096KGGiSNcWeRffEDW9CJ/vGAv6BJJK1X+H2yod+pvuHiBDf0qnWSD8baLXJt7c/irgTeHocggdoDIafhde2KjH6z9km2tnA7FZnUnX7OtL6FDzGnoxdcWJXQxCXVruSY2uvP7hxcM/rTYLkP4WDVQv8ZhL6gRQwYxZW7AOCA38+jkLpmBNynDyfsfiP0Zcsfu2Mj7KmPj2u9T5TThiQPMn9MLSuhCCWXftfarqX22bCscsyOPHlKYBMKLofRkjIygIipjsBekMbygbGVuxDi4Xgz9kU7ukhnYTrnHd5MiAmdYxQdBCCih7yQ0vOPGk3Nyt7398mTpfnoYYRJMs/fk30BvZQWrniUKiO1dV5k5X31NiZCzAdaGjIuA3JdOTnOy2kV+622r3Oa9SRmQ205ZDIVnS2678Nf1ixHiTJwuoX7/KTub32OzsmTEjklvzFWuoocNxqCkiYonKZfhCEK4a5Mm2AuKK3xQnsjcmJqRN7UQwv+kk9OdgTdL/85tJz+e2zY8CoT0lq9duJK8L4I4D9+NzpTQkEffPz3L/en6kolSF3pYYAwOJ4Tb8oISYteyxOACsr9piXmfH0+ZtBT2/JsT5PdZGzUOhtHJGZa8dpErcm8Mt/W1U3r62ipzQE4b4e81rKKFpBZOklCPjLLY+C5bDiweunPxa9MijfoFZCcETpqTdRnuK/K0HZ0NJt7AjunG2rBa4YKKwpVJGXRySYunnXSNr23kQV/bcB70lJaDnCRWEUPsjRMklHvvxi9n9P90a/HYUA5t3pgkhxeTMzQPAU7kR+LDCAmGC8pvsjauVsjvkxdh6eRMSb/0yp94bgrf4G0X7uptG54KUiqD3tJn5D0TxL54U1hCo5/ZfHzh4J2vvzo5fDttxhgTwgnh+0AUe1i1K1HIwwjNSpV/0Flh9IZeK01oJAXYyXNbrd3dqG9s594o/Wlg28hd3hsjHu+NShFQTm50I/Yh1SSUffvGb6b0+rSiaJQ0bmXBsV/QpooxKeSeNR+UV7NqliGI+DCCYQEJeZkbOR4EpZgvk6+nk2z05OXFvu9rF3H52kpPQ09pPLAaxHSQVfwQawD7JyUkNOLxzdVzfTuCL09SOtLmiGmE8AF5CkgoOZfhgrK/aTk+jGBY6LhyCb87RF5i5UTpGjpZy2VAhvwbbxv5Fm8bpZ+3rbIQxLQJ+BKAIog0NnaWUL+2G2P53bftLRwemvv21H14iaaRw5dFXgQBfcOqUwawjxfwsqrhoW8Sf8XY4HGhPi0SVBaS6dFJWzruthX/8twoPea9MTzCe6O8AthNiiHSCLSxn4SGPLj58zlZOz8smRCJ+705THICvZRbeEHewapPRgDTH4UPIyQpfDA8lbXRdSMoe8k0uYDcwco9pPOT1yr0i9zWShtPG+VFTxtpFhTG9+DvUWbRRAwFtrNtJDS+87ajS/KkktenVbalTQdjgZCRXMjYlsx6ZAzvXW/A+5GYi6S5GLmiVhzMjZ84MG2Yx9V0draJp03FX303hu/33CgPAl6G3lIFq4giiWF1CeXetfnrGX13bl82LjK8BF9OtGT4gDyaT9J9IAL0gp7HhxGSHMM+93BxlqeVKn+ms7Nlet0Z+pGnrdISCudzvhuVSVA8g9428rH6RRWJD6tKaGzHbacWDpRXvz559yO0CWAsGH5t+Bk40a1i1BxjCMjz/yLi12qTn7zY92GDL7hgBxhJQJ5I55Yy8aVX/MHTJnInyMgNFHpay5+QexyIdjytrSOh7P9sPju1x65I8YjItFXT9/2J7maMRUMuw4GAjjDrjQFwgnzQtS70azo7TLKTJiptoEtbwdoZxkCeWpF709mlbKCwNstpE+oIxXWst7XyDshpf/3Ci3yHFSQ0sv22M/Nz5A2vTtzTne5GjMWjvg8kyK+za40BCErUFZSfgVnhZTgzQ0bJZu4Qg4AzizPNxQpHjZnluWXf/3ozpZtzWst9PG3k+Tlt5A+h8H5OLkMhIKBGklC/jM2x/G67DhUOjRSumH6gJd1dGBuk6aryK0FAc6GmJPE+kDIOn4ZrhFyzMvQjTlBms3aKUYCIgi6hojmdpSOTnRn+J/QCHslpowzztJZfB0GFWQXaCZgtoSH3b/tqTn/5k1fGVw6kuwNjs0ANGckn8UEE4O1mjTwajKPTQqy8Ds4CgowdYyQLyGfH6Swdn7x2hy93Z0iZnsxQdxDSdE+mtB7+PAWCiqU6sJ6mSGhCp4oTSwZH3nx9yt676WbH2DC8KPeFE+XkfCUV4ILyHl5U7qGzwzRW4EzjITjT2MfaScYhD6azwzCSc8POq6GXcC8IKReK9DIo2DvqF/BUIJkS8t2+7ZuZvRW5ZMy+iatnHPwN3bQYm4YTlY68IO9n1xNjcImKBy/DWSTJvz+kfMWVSnfS2WEukW5pm/7H00ZOc2eEnoXiPTGntRSA4n1ELeJ2x2AJjX28omaxd/fa1ycdfJZuPozNwwelO+DE9WNWLTEKLiAVtnofB521TNJW7P8pnHXMY+0sAylPC0gP0Fli4gz5dLonM3y7u7WUBYV7SU6GvBUK+Te1Rd1uJCahnLblsWndlf3FI/YuWDl9bzO6iTApED4g8VCLShn1wzgEeatr7e5MOkuMVeISws3h7GMtc6cZhvxhWplyG50lJsEMyJCv82TIj7sz5dHuDOltKPB7Lyz4VkSfhEY+GPpivnvP5uUvHciimwCTQmmxSvoTSKiIXTuMofYek9wNR0WwaNJE5REuqBxg7TzDEOSytKDcms4SY2A8bfb8Mjs91A6KfC/oKc0BOb0Pfz/NFkFjEp+EJj+nHPMP2ffqimmHbqGriknBQH0gL9En80k4kFB4Ht4Hsnh4I749dCkEaWWLshBHZ4lJYrJvkP/ubi0/lJMhDYHC/yqISWKLwUwuLaGhd4W+mdtvz67lYw+MFqcdvpyuDiYFQz41Y8Kj2OSl1ECaGLmWzhZj1fzz9Z0/5wRpIXMnGokgv0LehKazxZiUvLT9P3W3DqVnZ8jdQAhTQUpr3RnSiQtFkUwuLqEJHSPRwoH7A29MOfI4XWRMigfkMxFqQrIFFHWVKfiisl1Cbg5ygvIuc2cay2JyHZjOFtNIyWtXfnnODdJNORkhD0jiNZDEwQvFYSR1JZT7n9DZmT0q97w86uCsNTOP/J0uFsYB4UV5UPJ7QHLUJcgv4H0gm4ULSo/BDjx8wQ41npnpGyqvpLPFWCTk3SV3htwhJ1PJz8mQN0Jv6QxbKPFQd8SEwbdJZxfn7P9w5bSjeK/HgeFFxcsF5YQ/tHkp4IR6CN4Hsmk4QR7I2qmGI8gT2uEQ6pZOXrvIj7Mz5Rbu9FBfkEgxSCRyoWQaxk3/nPjEnuplIw8tFheeuIJOHuOwgHzc0AM6w6wHBsIF5BlNxXK8p2jnwI58p/6OTQZcUMmns8TYJANahZp6MqXHoMc0EqT0JvSW9tQXzzm8N8qxeX32SysmH32K/jrGoUkri/QHAVWz6oChkPvO6/f8lc4WY9fQ+0OrmDvZKAS5lBMjHegsMTZOVmaFK++/im/kfbs/G3iL8s3QOyJfznpx77tvzznyD/ojGAeHL9vdmxOVk8w6YCCcIK/nyiIZdLYYuydNlG6CnbqRtbMTAXo/ldAgh9j9S6wYDObSgWO+By8qx+rXAcMRlFBzEUdnSbmQbwORxxyZO10H0LvaiM/sYzDOiCugPFI7WgG7HhhKQH6QzhaTauEE6Sk+wRG3oSF+BT2g8eRzvXSyhoY84ECEWdvo5YGwzENgfgsZ5Kv/FpB6Ni+VbmopRn5LJ4HBYAwMXxYZAMfbUVY9MBqXGB6ET8KleGBH9wCRVNXf+ZoQFIkUfTopQ0LkwQXkDjD9mbBc2y6YZzwI8gn48x2XoHh4MZRO3uSms8FgMHGm2eqPf8YHpWEgIFN6QHDSOS19Q+VP6OwxqRxekLJYjaBBQEAtRPk6OomEQnpRqigEZStzXkahXn4MF5DPUKCQMBjt4dfu/h0vSpPhOErui6gULiiXNBcjV9PZY1I+0N2FAj2G1RhYQA9FJJe86G/rDl+q3MMH5VJySY81n6QiKHvhjG58mrjrV3RxMBgMI+S9HDhO1zCPo2QgyBEiPTp7jFNCPtkNZx8zmI3iPIwQkCso3Q/zWsaavtlAl38nL4QHcaJ0DV08DAZDwwfDN3Ci8irr2EkGUF/e5YK7ccQNp4Y8Wg1y8LMaByFRAamPhgflOaa82BYnsFwfkC/SNntPxk9JYzAQODm7HQQksI6XZECOQTgZxC82Oz2k6632Duo3EEE5qre30KI0xHEBeTx0s5P6jXlDEJQArGtnvCGKcXLSBKk9L4Y3MY+RJMAFlc1cIHQvnT3G6SEfqYOGcf5XWfe5BFnXUPzqk261T6nVaXRWh/T68DFvjBNDPtsPJ2P6npjVA36WAcMKefH0W3kEpC70f2tOq5WhX0AhHwq9qpoLGp1tkNdyAQXPzjCOCDlmoc0PhuP+M/bxkBR28IL0KF0EDKZu0kSlDTSS4fQ/NaflOuUftfd+mI3OVsB67OIDStwSxmDsFPK6BQhoPusYSBqCIrkE+Qm6CBiMMXEFw+34YHgFs9HZFegRckEl95qVoR/R1cRgUiYgn7uBUmbbTxrybldQfgZmj6MhYIxL7f0f5SN2o0sJpqStx8FZMakTaNMvAqHz2rgZ7HMFledg9iggjHEhoxBwjfHSqcmQBxZwtAWM3aOOgCAoY4EvWO08aQjKYU6Uu8MioIAwxoUPSndwQflTZqNLRQR5Ag6qiLFryDiK0IaXMtt2cjnOiQoZaxKPHYxx4QJKMxCQeUN6WAUhnEU3AQZjm5CHjThBPsBs00mEXCVxCeH2dDEwGGPSbLX8Gz4gL2E1ulQHDqqDXCDUkW4KDMbSIZeQyUDFZo2AXQfyHlBA/i9dFAzGuKjXlFmNzikI8lboBeI4VxhLxyUqt0Lv52VmG04yMN/38aN0mKQEegL94Kzqa1bDcxgrmwvSv+lmwWAsk+Zi5Ao4SXKDCBRGu006MO/V/Gr5P3RxMBjjQr506oQn4eKgmG4aDMYS4csiN/OC0hgPH6jACeoyPrCbp4uDwRgbaGSOvA90McjQRGmi9ADdPBhMoyXz3Z0/hzY5AARk9rs/3wICmsMLe/5GFwmDMTZcMPwYXoa7EC4ol6Rt2vQ/dDNhMKbHFQy1g3Z40U+xmAFXGnopbcV+/FAkJjlpKh6+HBraG/UbHnIOdRgSDMbUQNH/KS/KfaFHfsEnWEyDPAFXKg9Km40nYpgkBopsN2YDRFTIjVj8XDjGzJCBR7lgOMhqj2ZB7g9zgvQUXSQMJjlpHqj4A5ztlLEaIXI+cm+6yTCYpKVFWYSDtjYRBHCU3Q5NY7urNPw0XSwMJnnhhXA2owEi9VDfixBCeFMWk5Sce+mUjOzOan+mIigSXyZfTxcNg0leSMO3wBmXbeACEhkfC4MxLrHY99KE8NPQ+zH5kwsXoVSa5VpZ3pQuHQaT3JBPezMbInIxVtJNh8EkHDJAMB8MFzDamelwQaUSemHZ16xcid/WwpgXOPsy94uLNocT5K/SxMhNdPNhMLriEiqaQ1t6iReUw6x2ZjqCXMaVhh6mi4fBmBN16A9BPsNslEhDxP1ZdAyGpPaYk4ZY4r4PhQvKb16/fs8v6SJiMOaFE8NPsRol0jAg7vV0E2IwmuIKhJryQXkwtB3rfJuLfIQuIOX+8/WdP6eLicGYG05QJjMbJ9IgpPeIA5titIRfI18Px9lQaDfb67ejRkVQNrjWVDxOFxODaZzwAfk9ZgNFNIAjKGAuHjIQMC/II7igvIvdfhqTcIGrTGlJFxWDaZy0FCO/ZTdQRCMz6abEYL4NnJykcQF5tPqeDbvdNB6CfIITpKHpGyqvpIuLwTReyMeomA0V0QQXVIJ0U2Iw5IGDq6FN5Fv2QR9BjjQPSDfTxcVgGj/QMAdc0FCROJB3kxd96ebEODCudaFfu9SXTJViTlBOXdhGGh8uKB+Dtgo9MxzpA2OxcEJ4OqvRItppuU75B92cGAeFF0PptQ8byB+y2oWFWMmXRfDz2xhrBg4ikdFokThoXirhS6sOSdNV5VfCPn+SE+RCXpA/q98WLIUg74fje8j1YuiPdPExGOsFuunWeV/BppAhj+jmxKRoXKVKS+jxDOaCykZWG7AaIJ/X0gT5Lrr4GIx1AweVwmrEiHbSgspzdHNiUijku1F8QOoC8imFov4Va99bDfWBiFI5G+9TYmwTOMAOsRozEg9h/L5QiiRNjFzLBeTusF+LoaAfvHBfWxhBXsoF5VvoqmAw9ggvKFFmg0a0IyheujkxNoytxQPAMu/kgkr/VitDv6CrhMHYJLHY96AB17AaNqIdMu4W3aINpp0Y+TH9K6aRY8dLbfUhyw3yWfjvVdKf6GphMPYLdOGPsBo4EgcBuS/dnA0GioYIvaat5GXGtID0QFOx/HL6T5gkh5wAkKcYycjVZD/YVTzn8U6z0u0cXT0Mxr4hb1AzGjgSD4LUlW7OBgM/W3+Mvs/4YHgNGd4FxPQwJ4T/Qn8Uk2CaByr+ANvzPpDNUOjtv8Wlzr3PN6C9dKCricHYP3xQLmc0dCQeBPkJujkbDPxcwyMoCwrpla4EhrmC0v2kkNJfxVwi3Jqdv+cCyr0gnSEgnDfteG+nQQS5DI7Vbk3Fw9h7xqRW4KC1xXsPVoYrle6km7PBgGT2sn7/YkAhPVO7f8JTuYDUk7yhj5fwau/nuEqVW8llUHJPRL3EmaIfZYT9f5SsJz5yjUnZwFnjHFbjR7Sj9ZtCrN/VhSBHoPi+Bn8f7gooj5Cnu+gsUirqfRyxwsUFQh1hfcfD+r6jFmXWNkkxqFSHky+w0s2BwaRmQEI59Q8AJA4Eeb+Wp97I6MrM3zcItWgJykfkGzHqzfeA3J08/EB6T2TedDEsFXJ2T5ZNfWAAROMSFI/a6wPBgmy2AXZ/eCBuyDpzwfBc/p0dv6ObCYNJ7aQJ4fasgwHRBkh8Hd2UDYYvVe5h/b6ZqPdJ1Kfz5DdJoSOyUh9TDsidiLCIDL6FyIFCLn/R1bggtb2V735WlR6dBr1k1olwvmCILNVlYSyjUyEnEeTSIidK19BNi8E4I2rhYBwUiDZI4aCbssHwYjiL9fuIs4ETgnLoTY8gY9PRpoLBOC+1l3HYBwlyCcSwpsezodcxm/n7iCMB+aznBSkLez4YDAQOipn1DxJEC/I3fEDi6WZsMCh6RAXaAXmYBJ92w2DOS+3wJYwDBmkQLhj+gG7CBtOidM9f4edxZAqnIshRoIALKg+jfDAYRlqKkd868UmkRIGikk83YYMh3xti/T6S2kD7qAT5TOVwZGsM5tKBg6ao/kGENIwrIP+Xbr4GAz+LlzudhKBInCAPJCd3tAlgMJhLBXpCnZkHFMIEiozYToxpurQCP7+h/u8jqYb8CfR6JrjKIv9tWlL+Q7rrMRiM1pD3PeAMDr8tpBHy3gvddA2GPP3E+n3E/pB3e+DPYvIOGN7rwWAMCPSGhtY/0JAL4YLKNi6gNKObrcFwojKENQ3EnoB4TsGfy6HX84KrTP473c0YDMaIpK3adS0U2M31DzzkAnx0kzWYzHeP/hx+Fi/FpQBwXAi8oHhdZfhSKQaT1JAX6FgHIfItG5qt3vV/dHM1GHXYGvY0EDtQ+27XcDKIKt2lGAwm2eHe3fN7Xv12CeOgRGKcIPWim+qS4QQFR0mwFfInXFCeQx7S0ToyOgaDSUL4YLgb+yB1NlCgVrcs3fe/dDNdMpwot6gduFN5Bx/6sB7qoKGCIpJ9hL0dDMZCyXx358/hrHAF68B1NuFn6CaKO9cFlKvShMhdsF0Hk20LBfAAex5IsuCCytfw53uw/SfyQvhR/Jw6BmPhkKH46x/EToacMdNNY0jUTyDANla//SMoGwEcscJg1G2qfroiPJd8X4mMGE83PwaDsUPgTHEk6+B2HILyUZoo3UQ3S1JCPttNPhMO8xsOZ+yv8YIcuWA5kItSVzhST3IpVMvHBjEYjIVz/fo9v+TF8DzWQe8UoLhVckHpMbpJTE1aqfJnl6g+YfciJyqT4M+VnCAr5y+fIxGUI+ThGThJmg7/3YMPSDc3e0/+Dd1sGAwmlcKtqfgXFL63LigEzuALPhjuTTeFZULGJFO/1Ko+Th8uID0AKMonGMtvW8hDA7BeEh+US6FnuPDcV2Cxh4PBODDq/SEHfg+HXI6km8AWuSGgXNV8dYWLE6U7eTHSCfaZF3pyk7mgXAKsA1FJ8P8s8JSeXA1UwLKJsFx+kMw4PiD3JZ+aTwvKrcm9Gxx/DYPB1Am5JEUuTbGLSioizyeXI+nqp1SuF0N/5MVQOvm4GhT/Tt9CvvSpPihRC2yHmWovhKL2Sog4auXx5nf/H36O/o76SDqdHhcIdSQnMN8CcsGHAzAYjO6oxYVZsFMLKLLbyIMCdLUxGAwGY5XwgvwCnP3KrOKdCnCCXIgvLmIwGIyFkyZGHoDewrusIm5rBHkC/86O39HVxGAwGIxVQ+4p8EH5ZWYxtx+HeSGc3SQW+x5dPQwGg8FYPWTYE+g9TGUUddvABeVPXUL4abpKGAwGg7FbyBNRnA2HneEEeWeaGLmWrgYGg8Fg7Jq0MuU2+rjuF/WLveUQ1CH7c8iIBHTxMRgMBpMKSROVR0BGrzKLf2MjyGHo/YzEb8VgMBhMCid9Q+VPXEHlOZCRwJSByYB4jsGfU3gxkk4XEYPBYDCpnnaieBkZ0bh2DDC2IJKJOv5YUH4Z7/tgMBiMg3PNytCP+NLQPZygjgRdXl8WRsIF5dMgnhWcGO7FlUX+RRcBg8FgMJgmTcjnsflg+A7oIeWSe0cgpoTGowPpfA09nvdBOtPgz2f5Mvl6OisMBoPBYC4dcrksLSA9oA6gST5KRgbGPDdQ5vkEldfUfwsq49Vx7MRQenMxcgWdDAaDwWAwGAwGg8FgMBgMBoPBYDAYDAaDwWAwGAwGg8FgMBgMBoNphDRp8v8B9dFKPXE4NHIAAAAASUVORK5CYII=;" vertex="1" parent="1">
                    <mxGeometry x="-450" y="163" width="77" height="77" as="geometry"/>
                </mxCell>
                <mxCell id="14" style="edgeStyle=none;html=1;entryX=0;entryY=0.5;entryDx=0;entryDy=0;" edge="1" parent="1" source="4" target="9">
                    <mxGeometry relative="1" as="geometry"/>
                </mxCell>
                <mxCell id="4" value="Requests" style="aspect=fixed;html=1;points=[];align=center;image;fontSize=12;image=img/lib/azure2/integration/Service_Bus.svg;" vertex="1" parent="1">
                    <mxGeometry x="-120" y="171.5" width="68" height="60" as="geometry"/>
                </mxCell>
                <mxCell id="13" style="edgeStyle=none;html=1;" edge="1" parent="1" source="6" target="4">
                    <mxGeometry relative="1" as="geometry"/>
                </mxCell>
                <mxCell id="6" value="Api" style="shape=image;verticalLabelPosition=bottom;labelBackgroundColor=default;verticalAlign=top;aspect=fixed;imageAspect=0;image=data:image/png,iVBORw0KGgoAAAANSUhEUgAAAaEAAAGhCAYAAADIqAvCAAAAAXNSR0IArs4c6QAAAARnQU1BAACxjwv8YQUAAAAJcEhZcwAAFxEAABcRAcom8z8AAGDhSURBVHhe7Z0JfBTl/f9p66+n7d/6a2vv+mtta6nCzgQwCQhaz3pfKCoqIiDKDclmdwOE+xTCfd/JJhDFAxWB7OwEUPDgUAlHdmZ2IdyXQDYBT/b/fSYPSsJDmJ2dnczsfD+v1/sFSjLnM9/3PHM80wSDwWAwGAwGg8FgMBgMBoPBYDAYDAaDwWAwGAwGg8FgMBgMBpNKuV4M/ZEXQ+nNS6Wb+FLlHj4gdzqHS1A8nCANIfBBeTQXVBZ+h/wmJyjit5D/rvPvykI+GJ567vfVaZBpBpRHyLxaiPJ1zcXI1XQxMBZKOzHyY7JvOFG6huyr8+FEuQX5N+AK+uMYDAbDzjnBkMIPAugLYhjPB5ViTpDX84Icgb/HLIGgRNXlEZSPiMyIvHhByiLLTYpemrjrV3SVMAYnTYxcywWknrAfZsKJRinsg70X7J+LAO3oIDkBgb/P5AJydzItOlkMBuOUtBQjv1V7MFC0oRhYTzBGAaKCgrftW0mBVNWzczwjjyvtRPGytID0ABcMz01KO4Fpkl4wmQfpUdHZYjAYu6fZe/Jv+DLlRpBNVxDNS8CbUJhDzELgLD4HPgY5LQNJDXUJ8uMtyiJc2opNP6WbDgMhPWLYTjNhGx09b9slldp5wQkDzJsuBgaDsUPI5ae6vRvoAQjKV/UPcqQB1J6TvB7OyvPJWTnpMdLN66i4gtL9RNDMbWQWgnwWlsHPBUL30sXCYDBWSrNS5R9povw4HKwT+KC8FopnDfNgRnSjSly95xSeS+6BpIlKm6Zi+eV0F6Rc0kTpJij8c6A9VbO2R6NQe2JALgP+hy4mBoNpjJDix5VKd6oPCgjKVuYBiyQfQT5B7jGRpwBT5ZJRi9IQxwVkaFfyfuY6WwFBOQwnBZP4NXiZDoMxJWmlyp/hDPAhTgiPBPGshsJ3nHlwIo0K7JdyYK4rqDznWre7Kd19tgh54ECVaVD5rP56WRU4Js6AkMakbdr0P3Q1MBiMUVEfjyaPRZP7Eng/x5bAftuovt9k8V5SCyH8TyJP1jrYAThGCptBD46uDgaD0ZvzxcM62BD7AkIiT3oVWO3RY+hdt4XlWsFaZlshyKXkEjVdLQwGozUuIdwcikAfEM/rXFA5yTzAkFQjBPt6DhTOJ7g1e35Pm4Lp4QXpUViGDxnLZ0ugN/epKxh+Blbte7VriMFgmOHL5OtdQbk3FKJXoQjY5ho8kgzkCk6QZpP3k/h3dvyONpGkB+bZC0589rCXydYc5oJhd5NY7Pt0VTEYDAl5oo0PSF3I0CZ4jwdhQoYfCoYLyEgOtNkkJWll4VHM+acQ5Ok5EBH2iDAYV6lyKxwQ+eSMl3WwIAgL6CUHoZecTQZqpU3JkPBCmLzAfLb+/FIRTgwPRBFhHJnrAspVIJ7OvCi/AoXkDOsAQRAtQDuq5EVlVlowfH/T8vIf0iamK5wgPQVyO8iaT0oiyCdAul2bNEERYRwS6PW0hB5PHpAyN3sRCyEoAVdAGuAKhOJ+B4kXQrfDND6+YJopDheUd3FC+D66GTCY1Ay5hg/ieRnv9SCmAGf46Rsqf0Kb3yXjEiqac2JkFXNajkBeywcrbqCbA4NJjZDx2kA6/cjZKbvhI0iSEKSxtBleMjcElKt4MbKYOR0HwQlyCfde+C90s2Aw9g0ZjkV9Cz6olNdv6AiSbLigInNr5Ba0OV4yfFl4Ims6ToQTwvPwQQWMbUM+fqbKh9zsZDRwhA2cgR6EbRY5BxkNAnqQ333W+yJAD1M6//dY03YiIKF82iQvGU6M3MmJ8jHWdByJIEddwfD9dPNgMPYIyuc81KeNlI9UUQSVhaQgqtsmIHciw9HQL5VenayvlZJ3rcj01U+Olyq3kvnWDnMkDVG/9Fn7eWkJli81782R94jW7tb8QisvKo6/DFcfLiAvayfGLqObCIOxbhwrHyoa+HsxMJwLhDqSok8+lEc3jS1CxuEj3/whyw+9r4Hqd4BqP11u2/1JxA+rpulyEqzvY1xQxgdlGLiE8NOwifCyHMaacZJ8oMewjbyhT3oTdhSN3pDeFOm5ETnVPtUo72RtH6vRfJV0M12FBtNUPHw59IJeZ00DAQTlnWtLd/wv3VwYjDWS6vI5Xzip/lVQPVE/FCjKLVQh14rJWi91CnJE60112M/dYB0cMSqCXuBY74UvsWIsEfIxL7XwpJp81C+uyqPJ8PYoHH3hROkaaBud6KW8Ru0tkRMkulgNpnmg8g/w82L930fqIcgbri+t+CvdbBhM46R2XDd7XIq5FLXrEZ6qPiCQpAcDnB5yuZJsX9jeM0nPpP4+SCbN1u7+P7oYDYYLSD3h57EXpAFOUPphbwjTKCH3BMglF1bDtAtwAB1Vz9ADcoeWYuS3dNUwJoYMLko+iQ37gjxWnrSHAMgJhuZLcYK0kjUN5EK4oCLAdv0B3XQYTPJDvmhJLmvAQW3PQUXJ48dBJZ/c0yGXEelqYSwQ9Z4SnBCoj66rX1Fl7D+dwDTH09k0GE6oaAs9tC9Y00AuRvgOuvkwmOSFFGwoDJ2h97OW3RCtCcjyNBeUV7sEeVCaGLkJxWOPNF1VfqVLVB6BfTeDDKDJ2rfxwK2RH6KTbjCcqJCRPJjTQNjAMfYSjqKASWqgeF8L8illNUDLQl4IDUg9ybsudDUwNg3pfdfeR1KfuIu/By4oUa2DlUIvaAdzGsjFEZS9KCFMUqI+ch1UxifzWr2RQIE6SJbX6I+YYayT2kt2oY7kpCiOdvmOlpvnfEDi4Wc/r/e7iBbESDrdjBiMMeFLlXvIGQ6zwVkIUohAPK+RM2W81OaskF4uyGg0OflgtY1zQPvQNFYcJ8rd4efxqTgdcKLSE5+SwxgScqZJHlNmNTQrAfLZxgtSllNGKMBcPOTkwxVQHoE2wXy3h1sTepb+aIPhy8ILWL+PXBpOkBbiJTlMwiHDzpCnx1iNzCpwQflN8m4SXWQMpk5q71/CSdR5L067ypSW9J8bDPxO+Py2hsRBHKNRYDAXpPbJN/LYtTXv/dCb0TNJgaGLjME0GPVVgoDcHU6qtmp5KCF9VeWV0MZOnd/ukDgQlGhTfNcOoydpZcptXFB5ldmwGhvyhJsYHsgFlGZ0cTGYpKRFWYSDs3m8H5QArrW7M+nmxGC0RR2ehHxfhdGgGhUyZltA7kTOZumiYjBJDfSyySPgKKEE4ITwU7Ap8ZIc5tIhj1PCAWe9j3UJ8jucID/bbPXBn9FFxWBMCTnpgTaIEkoA8kI43hfCXDIgn25cUNnCakSNBSzPaldQea7VytAv6GJiMKaGF8PZrLaJaIcTwyNRQpiLpnmg4g/Qy3gJGss39RtPoyEoASJFHLEa09gBCY1gtlFEO0J4KkoIwwy/JpTOBeVlzIbTCEDPJ0heDEzfUHklXUQMplED7XJK/XaKxEkgtAQlhLkg5N2fS71RbhYc+XRCQO6OIxtgrBZ8UTVxOEFahBLC1AkU/X5AJavBmIkqQUEZi2O6YawaOE4msdouoh0cNQHzbVqJe8mYWhNZDaURWJIWUG6ji4bBWDKcEB7JaLtIHBCRo4QwTbiySAYXDJewGom5yKUuQXoaFgkbJcbygTbru7ANI/HABZVhKCGHhxekR+FsZCOrgZhIOReUc7g1O39PFwuDsXzUF7fxPaHEEORslJBTk5f3fVdAGgC9j33MxmESnCDPTQsorehSYTC2ifrpEhwxISFcQrg93ZwYJ0UdfDQYnstqFGYBva+jZCh9ukgYjO3iCoSa4thxiSKn0c2JcUo4UboGdn5jPlr6BfR+pjcXIy66SBiMLUPGKeRt8BFHq8IF5ePXr9/zS7o5MU4IF9jVDA6apawGYQbQ+3mXD4afoYuDwdg+0BP6kNXWkUsD9WAb3g9yUKD43wBd3xWsxpB85GpocPnk8gVdHAwmJcIL0hh2m0cuBReQp6OEHBJyCY4T5J2shpB0BGVv81LpJrooGExKhQsqD+PDCfqAmkQ+oY4SSvXAAXI3L8gbWI3ABBbwAYmni4LBpFw4IfwXONE6zGj7SAOAvE/zZfL1dDNiUjVpQrg97PCt9RtA8pH3ccFwTrOP8Rs/mNQPGVyXfRwgF0VQtuKluBQPXyo/AzKoYDaAJAIHpMAH5AfpYmAwKR9ekF/AS3LxwQWlXJRQCod88qAxHh3lgvIMfPgA47Sorz0Icph1TCAXAieqJ5uvxRfUUzawg/uT5+9ZOz9pCIoEZ4J92pfEfkAXA4NxVDhRmc08NhAG8svYC0rR8AG5L3unJxFBjuDnFjBODyfKLeBYwEtyWsDL9akZ2Lk94CA4ccEOTyaCspQcfHQRMBhHhy9r3KGw7AAnKK/hA0spGFdQeU79CBxjpycLaEyTW6yV/kQXAYNxfFyicisv4uPaFwNqxpcg6kfp5sKkSmDnPkkuidXf4UnkOB+UfE1Lyn9IFwGDwdDwYmQy45hBAC4gL8Z7QSkWLqg8bPJICDtcgdBzdPYYDKZeXIKUyQdNPSm0BdALOsoHw3fQzYRJhUBDJyMhmPYiKjQikcyTzh6DwVwkaWXhUaxjyNEElCnYC0qhpImRa828BwTzWt9SjPyWzh6DwTQQlxBuzotKOetYciJcUJF5MZJONw/G7kkLyq1hp5o2TAj0gBa1XKf8g84eg8FoCBeQO/A4ioKKS5BfaNIEe0EpEWjUabBTV9bfyckCekDTmwcq/kBnj8Fg4gicwA1hHVeOIiBPbBKLfZ9uEoyd01yQ/g09oFeZOzoZCMrYtE3K/6Ozx2AwcaapWH45HwzPYB5fDoALSH5uzc7f082BsXPaieJl0AsqZe3oZAA9oIF01hgMJoHwQuhvvBhezjrOUhpBLm1WFuLoZsDYPbyomPL1RuhpHQP609liMBgDoj62LYbfZR1zqQgXlD/lROlOuvoYuwd6QL2hZ/IVa2cbzG5oPM/T2WIwGANDxkvjg2GJcdylGoddwfAzsMr4IEIqBHol5NPBuxk72lgEZS8nqp/axdg0JXmHLy/wnUpfOvREkd93XC4ecmz9G5OO3Ub/GWOBpIlKGzjRO8A8BlMBQYm6hHB7uroYu4c8Vw879r0LdrTBwEFxCETXjc4WY4P486p+Veg5dY/fW+Up9lW/XOSr3gnE6rMkuyo2vevBmqVDD5W8PecIPmZvgTQvlW7iBPkt1rFoZzhBeZcvi+Do2KmStFLlz9BQX2btbCMh94DgzxfpbDEWy7zsoz9fOqimpd9X/bTfWzOqyBd9DeTCFM7FWNDnZGzoHXti3huV2NQue4+XjD48MzD30FV0FphGCHnZnBfD8+ofj7YFahVXKmXQ1cPYPe1LSn4AZxWTmDvbQGAep6AH1IfOFtPIKfBV/64oJ/ofv6/mxUJv1dQib3Wp3xvdxxJLvLzU4WAsJ1MGpJgb8N0kxWa+WLl3+dhDo8WFJ66gi4AxMdev3/NLONEcCcfiF/WPTVshhKc2fydyNV0tTCoEziqymTvbQKAHVMMLUhadJcbkkMtpfk/01kJPdRZIohh6Otvqi8NIpnc+WkdC7swQpSI2+qHwF/MH7C1fPubgSytnHf4bXUSMSal98EipZB2nVgYEepwPKL5rVoZ+RFcFkwoBAT0BOzepY8JBg/8yTVA8dJaYJGZZv7M/gR4OX+yNPuH3RYeDbF72e6vK4e9fs2SRLGZ2O35RCWVnEHapjOsgn16QvXfT8vEHh6yaW3klXQ1MksOJ0jWcaOKL6AkCNUTky5Qb6eJjUiX0huVm1k43kLMuQR5EZ4kxMEsGRH9TmFvVtthX083vrc4H0bxT5I3uZknBbLRKKDtjZyxLZUdsQkelarGn8t3XJx7qR1cRk+RwpeRpWMWyL7ZyQXk1H5A7NS3Hb4mlXFxr5L9DL2gFa8cbizyazhKTQPyek3/1D6y+CyQzAJgLwnkXiv2x+sXfKuiRUC3bY1mZ22OTnlWOFwzcu+a1yfu70E2ASVKuCYV+RF6XgGPVtBFSLgWcHG/khHCvNHHXr+hiYlItvKAk/WuMXECeQ26G0lliNKQkr/yHIJlmhZ7oY1DM84Bivzf6Mfz5+bkCbwcSkdAAlXIV783bY1O6yYf8eZWvvzHpIL4PksSQobrgmO3OB8ONd79IkE+4ShVv+rLKn9DF0hW6Lh3gr/gCqxXDC1JXLqh8yWwERiHIr/DCHrzp3ECW5Z28sjj3dGaht/q5Il90PMjmLb+3WmYVdbthlIQGZGyL9SekfxrLvb387PQX5L3+YXuKVkzefzvdjBiDk/nuzp9DT+QhLijPgOPYhBEX1JfjF3Ci0tGIwUfJIK6cUPvpGS6g3Ev/N8Yq4cVQOjSwLXUbgbGA4IKuMqUlnSUGUpJz+s9+X/UdIJo+IJxZUKjL4L8P1S/eqUIyJFTLJ7F+wOC7y7+e0VOWl46snL1i+gFsa0lKOzHyY65UupNcVucFxbCvKkMN2gl1Ij8tID1ApEFnl3BcwVA7EOf5L+ZuwveJLJRmqw/+DBrT4vN2UDL4mDRaOkvHJS8v9v1l3s+b+n1VD4Nkcou81YUgnU0gnxpWsU5Vki2hfukff8uwB7d/MbufvH3pmMqJb87c+3e6KzBJSHMxcoU6FFBA7g4SGQ+9pTdBKOuh8EfIUFzn6gD8v4O1/w9Q7zWFp/IBuS+pDcn6YjI9wWYNUfQOfubbIuHFcBZjBxkGNIC90OieoLNL+RTknf1FkefUDUW51c+AZMYUeaOv+33RClZRdhpmSqhv+lZgi8rIx8pPz82SNy8bs2foitn78aa2A8K/s+N3nKgM4UUyHBi7NrlExYMiauTAmcgdcOaisHaQEYCAaqAh9KSzS7ks8h37Q7E3ekuRt6aH31M9DQptAMSzH3o6MeRCZnZtHAn1Td8c60O4YVNs7JPbo/M98nsvj9udlZeXh1/aTMHwQekOLe87QY9tD1eG94caLeoH6gy8nlsHQYmq3fGAlDKP0hZkn/pnoa/mfr+32gOiWVToiX4A4jkF/x1DtGEFCZ2j9w0fxcY/s/2zBblS4NUJu7vS3YyxcdR7VUE5B2rPaWZdYsAJyrb0DYk9dYfRGfWmImOnxA0VDrmhyAVCHVuI8nV0FrbMkgEHf+b31KQV5EQ7FnqjI+AM/hWQzXa/J/oNq7Ai2plhMQnV8mFsQNtNsYldth9ePFh+47X8PY/RpoCxSciQPa6g8hzUI/GC+qQBlyBPwMtyJke9iSgouj9QB9I5wwXDc8kNRXL2QSdruxR5o1f5vVXtCj1V3YFJ8PfV0MvZA0DRRIxmRtdjlpRQ7xs+iPWiuG/96Oyk7tv3Lh4qFS+fHMGvclo8nCi3gHq0jlWn4gEf2zYx5NHH2qdT2Dvj0oSnJutJlmSmOPfM38i3b8hgnSCc+YWe6HvQuzkOxBBzmNHF+hLqdcP7Kj1v2Bjz3bnp66k9tiv+YdI8EFI6bUqYRo5rXejXIJ5noR6RoYWMGv37I/IkHZ0FJpnhg/JUxg64JLDT98Cflv/mz8peZ3+0NKe6ud8d7eDPiQ4pzKlaBnwC4vmSVRgR87CbhHq2ImwA3osNuu+jL6f13r7DP1LKf3vqPvwwXyNEfeE0KOckcfQGfGw72XEFlEcYG/7SCPIJcgmPTsYyWew59b+Lc6raFORUdVmSUzWhICf6Nvw9DL2cGGI97CyhHt/ybmzYI5vPzBqwY0vxGGn46hnyb2hzxJgQLpjcUb45QeqFIkpSai/DfffimGbgd8gXGOlkGi0Lc05cvcRTfWeBJ9oXZDMb/lwLfx5hFTvEmqSKhAgvtlqvMuLxTdE57u0blo4LucU88TLaXDFJChm8FGpS8saxgxNufu3u39HZYYwMV/v1RPaGbwhRMfUx65KS2A+WDIheV+CuegQYBPiBLdDDOV2YA8UMsS2pKKEXW61TeaHV2tjopzadmOvdLiwbH+pOmzMmCeHE3U+Rp3KZ9coISqVZ2BsyOK5A6DbYuPsu2NiXgAvK/rRNsf+hkzE8C/ucuKLAfSp9ifvUs9CrGQuF6g34M1S/eCGpQapLSKVlWaxX5trY2M6bjszL3f7my/ny47S5YwwMF5DH80H5LKtuJQp5+tclqPsNRWRE2omxy2CjFrI2dkNwQeUAL4QNG5W4wF3zR78neitIphcUpOnQswkucVcdgP+OIc5gukMkROjeUlTp9591Z1/qtnnfwrwdS1+ZJN9FDwdMguGF0N+grq1i1S4jINPm3t2T8OjdGAj5fgZrI18KMhAhnUTc8Xurri3IqnoQJOMFlgAfFrijVUAMcS7Tn3OehLq3DKo831KIZd+x/uv8FzeHFw3dMf/lyVImPVwwOsMH5AdBFqzBSY3Ch5flEoz6zXgyfA57A1+C8B10MpfMwqzq3y7JrhoIhebNJe7o0frFB0EIUzsddbSEagmoeO5d9+Xk3lt2Lhmxfcrrk0NN6aGEiTO8IA8CknJZjg/KFc2Dcms6K4yewIYcfuGG1YJccf1bn2r6+il5RBoEFC1wV0GhQZCLM7XTEZQQlVC3lqW1tFgTy33w3TNT+27+uHD0jhFvzFWuoocWRkNc60K/TguGS9h1LHHgJH4u9oZ0hgvKt3B6HskmCEqATqbBkEE9l2Sf+oBVcBCkPtOfw54QS0KEri1Wqwx57N3qmdlbNxaO3ZFTUlL+Q3qoYRoIqXVw4ryLWcsSBGrol+Trrk2aoIjiSvuS2A+gi1rA2qjakAvopBpMQXZVFyCGIFqY+gz2hC4loa4tVql0afFObNiT752Y6dkSXDp+h+VHKmns8GVyn6RdlhPk0hZr9/2JzgqjJeTzuMyNqRGtDyUsya7KB2JIakKeaGP9f71MQQnFJaFaVsa6Z6yKjez03tFZuVveWjZhO5yVY+rnL2Lkx3xAng/1KykiconhQXhZTmNarN/zVy7BUWXJZxno5BoMFBaUUApAZOP3RWNFA6OxZXnVsZeHVcdeGVkTKxlazfx5vUzrjJfj9EiI8FyLt1V6tH3n7OguG/bPGby1ZNnEHXfTQxEDcZUqLaHX8iGrpiUK1ESZWxtuS2eFaSiwwXQ+jPAdnCANoZNrMFBYUEI2gjyhRj6pUDywOrZ0cHVs2RAQzogaVTgsSkBGrOnoBSWUuISeS3tLpXPam7G+t635ZvwLGyILhn68oGRSueXGdmyMqFeBknRZjhOURdgbukRalIY42Fih+hsvXjT3hAaAhLKgwCDWAgp+QU6V2rspVns3pFcDYhlxmimbi6FKiDV9naCEjJVQLStUBty1+ssJPTfuWjj846nLZ+yw9YclEw3IIp9PxmgKZFw5A1/gT8lwQXkUc+PFSTwSWgzFBWk8lrirYoXe6lhRLund1EDvpgZ6N6djL4NEEmUZSIg1T72ghJInoWfT3qC8HvM8UPp5fp8NHy8atXX0splb/0APV8dE/eRDkl5ixd5QA+HX7ubJdUvWhosXlJAFUXs30Viheu8GhJNXDT0VtjyMAiVkTwkROqm8FvM9Eqie3H/D+0vGfOwVF9r3K8jxhl+r9EjKZTnsDV08vKCMYW40HcQloQGnYoixkMeZC3OqoHcTjRUPitbeuwEhvDzCXJYNBQkxlk8v055FCZktIRX+1dgz/PLY4CeEk9Pc74uF47b2oIdwyqbpqvIroZa9Xb+2GQEnhPEF1vrhar+zHmZtMD2ghEwiC4RD7t14QTgDo7UPC0DhJw8LsKRgNiih1JJQLa+o5Dy06vTcIR8u9s9Yr2lkFDuGD+5+EntDJoULSuOYG0snKCHjISMGFHpqezdLoXdDHn9+efiFhd9KoIRSQ0KdW74Wc9+/6syoruv2TnNvXLdg2OZphRM+eWLF7F2/oodyagZ6K3xQ9kNNM1xE2Bs6L2kBpRWYOcLaUHpBCRlLgfsUs8hbHZSQ/STU8+a3zw7uEDw1oed7FbN8H725ZNTWocWTPrmFHrKOC0jobrXnwqhzCYG9oe8CwhjP3EgJoFVCi/pX5S/qfyqGNMySbPtKiLU+esFRtI2V0IC7Sr8a8cz6I1P6fbB53uAtBQXjPu21bHI5jshdL9BrmQYywt5QMsIHwzdwQXkPawNphROUo+RzD1wwPJcXpCy+VLmHfAKCzqLBpLqEyBNd5J4Nee+G9e9aQQnVghLSJ6HumatiuQ+VnR73/MY9M3M2lS0e/umkpRO2t185OfQLeihiGkhaUG5t9NUiFewNkSfi5AnMjXMxBEUCab2p9p4CUpc0UWmTJuq/LpwqEjonm3Mvdy4dEo29TB5/psW40Btl/p5WUEK1oIQuLaG+twjfDHvivZOTen20Y+7Aj1/3jykf9Mq0ChwuJsFArRwBYG/IyHBlkQzowbA/1SAoUeAj6CkVwM8MdAWUR1qI8nXtRPEy+uuGxG4SOicbIhX1aTTyrs1QIpuGn0ZDCRkDSqiuhLz3rf9ybOcPD83o//GHC4duW1Q0fmf3V2bKf6eHF8bANBekf0Nt3HJBrUwUJ/eGyH2b2o2gRDlB2QjCmcoFpJ6cKLcgbwzTH0tqiIQW9jsVsxxQ8L4buqY6VqyOk1YTKxlOAPHESYEnyp6PRsij2KzpWp2lQ6qZ66MXp0qo941rY0Me3Vgz8YXNkdneT4WCUTsnvpxf8dCK2Zt+Sg8lW2aJ5+Q1fm/VA8W+muEL+p78ZPGAU6cX9j15JL/j4Zm92oR+TX/MMuGDyfncg2NHUSD3btLEyLX0PxslCxpbQiCbb9+1ISMJDCK9m6j6pj+rqOoFJWQMUxwgoezb3/tm9FObTkzr88n2BYO3v1o8tsK3fHIknR4ytszCvNiPC33VLr+vqos/tzq/yFu9HjhRBCd4LMgguUNu3/O1O1MuzckMdcxrZ85J8aXSPFDxBxBGkCWSBNkPgkujs8GYmQX9T4KETkKBST6kkC9xn4oVqi92VqmyIcPWsIqn0RR4qpjLpJXFWSeZ07U65N4Ya330MiXFPu898P4Pv3ipy9aDs7LL3y8YVjGvZKLS5a1p4b/Qw8OWWZh34oqCnOhNRZ5oX7+vuqDIG90KUvmKJZuGmPD4Qbqv5Zg7QzoDf77mzgg9kteucYcO4kWpSzJ6Q66gPBjfG2qEQBc8H7rfMSNZrF5KA9l4Tn37YicZtoZVJM2C9LRYy6qVxQNsKiEQPWt99GLXj9r1b7vx7PDHNldP6VGuzM/dtaZolDTulcnKvWKesfdYzczkXqEfLR1Y3bw49/RjIJkhfm/1UpDOJ/D3L1hSiZfJT5/b13WB3pEE+3+2O0PuMCBD/g1dHNOStmn/TzlBepUlkkTggsrGNHF/ar/8a8UYJSEykoA6RtpQdjFsbFBCxmAHCeX+d/PX4zptOz6z/65Pl+RJJSXjwu4V05WWtMnbMv7+Vb/y51a1Acl0KfJWTyjyRd8GUSj1xWEkF5NQXaRtIKMp2RnSA3mtzHvcnLyCwpfJE3lBYT/YpZeA/CBMHntDZoZICIglCrmXwyqCVmEJSIi13FpZZGMJsdZHL1aSUJ/0j2JDH/rk80nP79g/Pye0oXC4Mnv5pMizb86stPWnD4pzzlxd6Kv+b5E32g+EM9vvi64D+RxhiSKZaJPQd4CMNrkzpHGe9Midve4M/YiuTlKTVqr8PyIOXpCn8kF5O1MscQA9rBK8JGdyoLCghDSAEqqlsSSUc8vWs2Oe3BGd0bNCXjRQWfXy2MpRb0yuvJM2Y1tmdrfY/xQOjF6/NPd0e7+3ajCIpsjvjW4F+ZxhScFs4pVQXaR3oX0Mz86Ubqarm/S0FCO/BRk9AczTPxi0XM2XmbfMKZOSvMOXq111T7RnkbdmLjTkj6BRe+g/N5gFvUFCfaDAJIgqIfJEm0UhH45jLbdWVAkxpmt1VAkx1kcvU74tTOZIaNxTO08tGhhe8+qkfe1pk7Vl5vY7eWVx7qlMKO6d4fgcX+SLvgl/l84v+lYjMQmdQzoL7UQAcj2ZUgbdHElPs9W7/s8VVJ7jgrIfhHSQLRw28PMvYW+ogSx2V/2ryFfzoN9b7YOGvIQIB/6srt+AyGOY9FcaDEpIGyihWsyS0IROFSeWjdsz1I4fcSvJO/1n6NXcAcdmn2Jv9Uw4Hsvgvw/VP0atjjES+g7yhB3wdk6GNCA7XeLp5kp6XIFQU/L+JQhmOS8olx4IVZB3tFi/56/0150b0rsB2bQo9FQ/BX+OhAb9KshmJ6uxsEAJ1QUlZAxmSGhednjrW9P2uWgTtWxK2sd+UDQw+m+/r+bhIm/1QDjuCuE43QzU1D8e7YjREqpDhnQiJ0NZ7k6XenrbhEwbsJUPymm8GM4C2awEPq8jn/PgxHAvR/WGirzRq9Tn+n013aGHMxlksxoaciWrYWglHgnN730ylihkCB3ygqlVIZ/WZi23Vhb2P8mcrtUpHhxlro9evitMxkso+8ZPY4t8u8tWza28kjZPy2RhnxNXFPhq0ot91Z38nuhYvy/6BhxnFfWPu1QiqRKqy0FoS0XQprp42pjXA6kdFDU8CKQj1pcQ8E47MWbbx/cbjN9z5q+wg++GHk4WSGceyOY9+O/j5+98I9AqoXkoIU2ghGpJpoSWDNy9ijbLRk1BXs0f4cTwNqBXUW71dDiegvD3A/WPsVTHRAl9C7Sp3dC2FuRkKh196RWmPeXYXKxwpZWFR4F8Ks+JiCsz7x5W0lLgrvkjGZcJRDMEduprcPYUqb+jkwWZJ12MBlMroRNQYBKjVkLWZXH2KeZya6VWQuxpW5laCbHXSQ+Tnz5MC4axEprWXd7/xtxDV9FmaUpiTWLfKx5Y9a9Cb9VD599jhb9HWceU02gMCdUhQ9rlzpBneDKk9p6W+/6X7rakh3yZgC9TppCxPG1zSY4Mk+H3nMqA3sezcMY0Dhpyoz/5or0n9BlKSAMooVqSISHfreVnl4/bP5w2yaSkoNexX/h9Na38vuqnizzR0SCc1+A40XyP1Yk0uoTOw50hfQJSys9prdz7okXGsWu0LPLV/KHYG70FejU9QTjToVELVuyqa5ZQT5BQLygwCUKG51k21LqQcetYy60VMm4aa7pWR5UQY330Mvkp4yU0P2v3FtocDUlRXs3vC+AYheOyR1Fu9VQ4RgPw932s4wS5OFaSUF2kD9yZ8uiszNDtee3sO+ySpiz2nPpHkafmvkJfdQ70bhZBY36/yFt9irXDrEY8EpoHxSVR/DaQEGu5tbLAphIqAgmx1kcvk5IgoZXTDzWjzTHuFAw89c/aS97VHjgxXASy+cAux6jVsa6EvgNktBZ6SENyMsL2/2igmBe77Nx3NYp8NW9Cd30va8fYBc33hFBCmkAJ1WK0hF56quIUbYqaQo5ROD5Hk2MUpHOQ1fYRY5j4xKE6Bd/KuDPkr0BGa3IyFI87XWlFm4t9Ag37WjiD2sraEXYFJVQXlJAxGC2hWb3DEm2KDYY85AM9nI2sto4kBztJqA4ZUjVIaYW7tdw3p3VFc9qErB3o/cxh7QQ7E9fluJ5QYBLEFhJiLLdWyLhprOlaHfISMWt99DKpo7ESWuzbI9Cm2GDgRNHHaudI8rDD5bhL4c6Uj3ky5RJooy9kZ4b/SZuT9ZKKj2TG1RNiFJt4QQlZE6tLaOmIvfNoU2ww0KZL67dxJLnYtid0cfa5M6QC6CU9m3PDzqtp07JGWDvA7mjtCc198bP8uVBcEoVIaCkUPauyCCTEWm6tzAcJsaZrdYiEWOujl8aSEJwoiqx2jiSPVOgJXQwQkQLMdaeHnshqGfktbWaNF9YOsDtxSajHZ7FE8fuq1E9JWxUy9htrubUyv88J5nStDvmMOmt99IIScg6pLKE6ZMjboQ1Pc7eWH8prF7mCNjlzw9oBdgclVBeUkDGghJyDYyR0HtCmt7gz5Zc8mfJd/dIrf0KbX/LD2gF2ByVUF5SQMaCEnIMTJXQ+7gx5A/SSRmRnyLeQIZ5oU0xOinzRs6ydYGfiktCLUGASxO+1uIT6g4QYy60VMmQNa7pWR5UQY330MulJlJBTcLqE6iJtAykNyr5B/jttksbG6RKaA8UlUQotLiEy9htrubViVwn5QUKs9dFLPkrIMaCEGGTIn+dkSCvdGVKWoR/m86OEmAUnHlBC1gQlhOgFJdQw0DP6DHjFk6G86M2IXEubqr6ghNgFJx5QQtYEJYToBSUUBxnS/tp3kELP5rRW/kybrfb4vQ6W0AsgoRegwCSIKqE8KHwWhYyCzVpurZARpFnTtTr+XJAQY330kv8ESsgpoIT04c6UJTg2Znsypce8bUK/pk244ThZQrNRQppACdWCEnIOKKHEgWPkU2AS+Q7SgNsO/ow25wvjdAkBsUQpAAkVQ9GzKmQAUtZya4UM3smartUhEmKtj14mooQcA0rIWKCH9H5OhjzKk67cmtck9n3atGvjeAl1Px5LlALPKSh6RETWZEHfE8zl1sq8np8xp2t1/LmnmOujl+/GE0MJpToooSSSIW/NSpcfbHLu/aMib/Qb1k6wM5ol9PxxlJAGUEK1THwcJeQUUELJJysjNFIVEUqIXXDiASVkTVBCiF5QQubgyVSeRAkxik28oISsCUoI0QtKyBzgOHrL8RKa9fzxWKIU5ICEBkPhsyjzQUKs5dbK3B4gIcZ0rU6h7xRzffSCEnIOKCGTyJBlR0toJkpIEyihWiaghBwDSsg8UEKMYhMvKCFrghJC9IISMg9o4CihREEJWROUEKIXlJB5NPH7qr9m7QQ7o1lCXUFC3aDAJIjlJdQHJMRYbq2Qzxiwpmt1Cr0gIcb66GVCB5SQU0AJmQcZwNTREpoJxSVRloCEiqDoWRUiIdZya4UM3smartUpAAmx1kcvKCHngBIyD5RQt2NQYBLDHhJiL7sW5rx4nDldq1MrIfY66WFCh4P0wEEJpTooIfNACXWFApMgS9wgoUFQ+CwK+RQDa7m1MucFkBBjulZHlRBjffSCEnIOKCHzQAkxik28oISsieESegwl5BRQQuYBDRwllCgoIWuCEkL0ghIyD0dLaDpIaAYUl0RZbHEJzQMJsZZbK7NtLCHW+ujlJZSQY0AJmYezJfQcSKgLFJgEWZxtcQn1AgkxllsrtpWQByTEWB+9oIScA0rIPJoUeau/Yu0EO4MSqgtKyBhQQs4BJWQeKCFGsYkXlJA1QQkhekEJmQcZOw4llCAoIWuCEkL0ghIyD3JPyNESmv7csViiEAn5B1ZZlrk9TzCXWyuzuh9nTtfqLAEJsdZHL+MfRQk5BZSQeThcQkdBQkehwCTG4uyTUPSIiKzJ3J6fMZdbK7O6H2NO1+os8Zxkro9eUELOASVkHighRrGJF5SQNUEJIXpBCZmHsyXUGSTUGQpMgizOsoGEGMutlVnP21RCOSAhxvroBSXkHFBC5uFoCU0DCQGxRFlkcQnNAQmxllsrM20sIdb66GV8e5SQU0AJmUcT2OBf1t8BdgclVBeUkDGghJwDSsg8UEKMYhMvKCFrghJC9IISMg+QUNTZEnoWCkyCqBLKhcJnUeb0AAkxllsr5Fs6rOlanSVukBBjffSCEnIOKCHzQAkxik28oISsCUoI0QtKyDxQQoxiEy8oIWtivIQO0AMHJZTqoITMw9kS6nQ0f+qzR2KJsjDrRKwQip5Vmd3jOHO5tTKj21HmdK3OYpAQa330Mu4RlJBTQAmZBxk7ztkS6gQFJkEWDrC4hF4ECTGWWyszutpYQoz10QtKyDmghMwDGjhKKFFQQtYEJYToBSVkHqSBf8HaCXYGJVQXlJAxoIScA0rIPBwtoSkgoSnPHIklysL+ICEfFD6LQj7FwFpurUzvAhJiTNfqLMo+yVwfvaCEnANKyDyggUedK6GnUUJaQAnVMvZhlJBTQAmZB0qIUWziBSVkTVBCiF5QQuaBEmIUm3hBCVkTlBCiF5SQeaCEoLEliuUl1B0kxFhurZBv6bCma3VUCTHWRy8oIeeAEjIPlFC9QqMHlJA1QQkhekEJmYfDJXQ4f/LTh6HBJcYCkFCB76RlIV9GZS23VqY9d4Q5XauzKPsEc330Mvbh/fTAQQmlOigh8yCfcvi8/g6wOyihuqCEjGHsQyghp4ASMg9nS6gjSOgpKDAJsqAfSMgLhc+ikM9zs5ZbK9M6g4QY07U6i7JAQoz10QtKyDmghMyDDGCKEkoQlJA1QQkhekEJmUcTv4MlNAkkNAmKS6LMt7iEyJdRWcutlak2lRAZ3Zy1PnoZgxJyDCgh80AJdYQCkyDz+9pAQozl1gr5jAFrulaHjOnHWh+9jHkQJeQUUELmgRJiFJt4QQlZE5QQoheUkHlAA0cJJQpKyJqghBC9oITMo0mRt/oMayfYGZRQXVBCxoAScg4oIfNwtIQmPnE4P//Jw7FEIRJa4jlpWWZ0O8Zcbq2Qb+mwpmt1iIRY66OX0Sghx4ASMg+HS+ggSOgQFJjEmN/3M2YRtAozuh1lLrdWpnY6zJyu1Vk44DPm+uhl9IP76IGDEkp1UELmARKKooQSBCVkTVBCiF5QQuaBEmIUm3hBCVkTwyX0AErIKaCEzAMl9AQUmASZ38fiEuoKEmIst1ZsK6H+ICHG+ugFJeQcUELm4XgJTYTikijzLC6h6SAh1nJrZYpNJbQAJMRaH72ghJwDSsg8UEKMYhMvKCFrghJC9IISMo8mfl/1adZOsDOaJfQ4SOhxKDAJMq83SCgHCp9FIZ/nZi23VqY8AxJiTNfqqBJirI9eRt+PEnIKKCHzQAkxik28oISsCUoI0QtKyDxQQoxiEy8oIWuCEkL0ghIyDzKAqWMl9BJIaMLjB2OJMrf38djinBOWZRpIiLXcWpn8zCHmdK3OfJAQa330Mgol5BhQQubhbAk9BhLqAAUmQSwvoedAQozl1srkp20qoX4gIcb66GXUfSghp4ASMg+UEKPYxAtKyJqghBC9oITMAyXEKDbxghKyJighRC8oIfOABu5wCT0GBSZB5vYCCbmh8FkUVUKM5dbK5KdAQozpWh1VQoz10QtKyDmghMyjSZG3uoa1E+xMPBICYoliBwmxllsrk2wsIdb66AUl5BxQQuaBEmIUm3hBCVkToyU0EiXkGFBC5oESYhSbeEEJWROUEKIXlJB5kLHjnCuh9iChR6HAJMjcnhaXUGeQEGO5tTKpo00l1BckxFgfvYy8FyXkFFBC5gENHCWUKCgha4ISQvSCEjIPR0tofPsD+eMfPRBLlDkgoUVQ9KzK1M5HmMutlfyOB5nTtTrz+h5nro9eRt67lx44KKFUByVkHighRrGJF5SQNUEJIXpBCZkHSqg9FJgEUSWUDYXPokx9FiTEWG6t5D8JEmJM1+rM6wMSYqyPXkbegxJyCigh82gCG7y6/g6wOyihuqCEjAEl5BxQQuaBEmIUm3hBCVkToyU0AiXkGFBC5uFsCT18IH/cIwdiiTK7h7UlNKXTEeZya2XiE/aVEGt99IIScg4oIfMACUVRQgmCErImKCFELygh80AJMYpNvKCErAlKCNELSsg8UEKMYhMvKCFrghJC9IISMg+U0MP7Y4ky+8VjsUVZn1mWKc8cZi63ViY+foA5XaszrzdIiLE+ehlxdyU9cFBCqQ5KyDzIgwnR+jvA7miV0FiQ0FgoLolCJLQQip5VmQwSYi23ViaAhFjTtTrkY4Os9dHLcJSQY0AJmQdp4CihBEEJWROUEKIXlJB5oIQYxSZeUELWBCWE6AUlZB7OltBDIKGHoMAkiC0kxFhurUzoYGMJMdZHL8PvQgk5BZSQeaCEGMUmXlBC1gQlhOgFJWQe0MCjjpXQaJDQGCguiTLL4hKaBBJiLbdWXrKxhFjro5dhKCHHgBIyD5TQg1BgEmTWCyChAVD4LMqkp0FCjOXWykuPgYQY07U65LPrrPXRC0rIOaCEzAMlxCg28YISsiYoIUQvKCHzIO8JVdXfAXYHJVQXlJAxoIScA0rIPBwuoX0goX1QYBJj1gtHmUXQKkx6+hBzubViXwkdY66PXlBCzgElZB7OltAD+/KBWKLM7H40tgCKnlWZ9NQh5nJrhXzamjVdqzOn5zHm+uhl2H9RQk4BJWQeKCFGsYkXlJA1QQkhekEJmQdKiFFs4gUlZE1QQoheUELm0cTvi6KEEgQlZE1QQoheUELm4WwJ3QcSuh8KTIKoEuoPhc+iTOoIEmIst1ZUCTGma3VUCTHWRy/D7kQJOQWUkHk4WkIjQUKjoLgkitUllA8SYi23VsbZVEKzQUKs9dHLUJSQY0AJmQe5J3Sq/g6wO3FJ6D4oMAky83mLS+hJkBBjubUyrr1NJdQDJMRYH72ghJwDSsg09jYp8qKEEgUlZE1QQoheUEImkSFvRAndtxcKTGLUSui4Zcl/8iBzubUyrv1+5nStzuweR5nro5ehd+6hBw9KKNVBCZlEeuhex0toJBSXRJkBEpoPRc+qTAQJsZZbK2NBQqzpWh0iIdb66AUl5BxQQklnb3Z6qF+TJrHvOVtC94CE7oUCkyAzuoGE+kHhsyiqhBjLrZWxj4CEGNO1OqqEGOujlyF3oIScAkooebgzZcmbqdxIm3cTkFAUJZQgKCFrghJC9IISMhYQzzF3hlQAx8njvVqFfkGbdm1QQuyCEw8oIWuCEkL0ghIyjM1wjAzPytyRQZvzhUEJsQtOPKCErAlKCNELSkg/0OM5484IvZqdvqtLX37H72gzvnhgg5+svwPsTlwSugcKTIJYXkJPgIQYy62VsQ/bVEIvgoQY66OXIbejhJwCSkgXO0FAE7PSK26lTVdb/A6W0HCQ0AgoLoky3eISmgASYi23VuwqoVkgIdb66AUl5BxQQvEQWuXOqOjdL738Gtpk4wtKiF1w4gElZE1QQoheUEKXIEOuhLY/Oytz1/3t2omX0aaqL46W0F0gobuhwCTI9K4gob5Q+CzKhMdBQozl1srYh0BCjOlaHfLFW9b66AUl5BxQQhchQ17nTpe8/Vpta06bZ+JxtoQqQUKVUGASY3rXI8wiaBUmPH6AudxaGfvQPuZ0rU6thNjrpAeUkHNACdXhuDtDKoQ2/ni3tE3/jzZL4+L3RR0toeFQXBKFSGgeFD2r8hJIiLXcWhkDEmJN1+oQCbHWRy95t++mByVKKNVBCanv9mzJygiNdGfszKRNMTlBCbELTjyghKwJSgjRi1MlBOL5wp0Reh3adNd+6Vv/QJtgcuN4Cd0FBSZBpnexuIQ6gIQYy62VMQ/aWEKM9dFL3m0oIafgPAlJoZxMJT8rc8fttNmZF9jgJ+rvALuDEqoLSsgYUELOwTESypDXuNPlvtlt5b/T5mZ+irwooURBCVkTlBCil1SWkDtDOuDOkOfmpFc8mNe0/Ie0mTVeHC2h/6KEtIASqgUl5BxSUUIgng3Q8xmYkxHiaNOyRqCBR1k7wc74vdEhdPUazDCQEBBLlGlEQn2g8FmUlx47wFxurYx+ACTEmK7Vmdn9KHN99DL41saRELTp0vptHEkuE584VKeA25hT0F6LczKVjv3Sy6+kTcpaKfJGt7J2gp1BCdUFJWQMRkuocHDlCtoUG0yxr3oQq50jycPuPSFon5+6M+XR2ZkV3323x6rxe6K3+n3Rg6wdYVdQQnVBCRmD0RJa5N29njbFBlOcc+JqaNc767dzJHnYsScEbfIbEM8KT6bcPfdG6U+0+dgjC/NOXFHoqc6Cjf9aKggpLgnduSeWKNOeOwxF75hleelRkBBjubUy+v69zOlanZndjzDXRy9GS2hKN/kgbYqXzMK82I/9vqoufl91AbRxFFKSsZOE3BlSOCdDnupuLf+XNhd7Jy9PvGypr5r3e6qfJTf4YYcEgWPn7yCro/XBhGF3VOYPheKSKFNBQnOh6FmV8SAh1nJrZRRIiDVdqzMDJMRaH70MvsVYCbnbbou9MffQVbQ5xpViz6l/FHirHiny1QyFNv9akS+q1D8OEP3Y4nJchhwEAWW5b4j8izaL1E2Bu+aPRb5Td8PO8fq9VUvhbGzH+TvMaqCE6oISMgajJdQ//dPYkoG7S2lzTCgleYcv93tOZ/i9Nc8XeaPTgfWpOC6kWVhXQtJhEM9Cd4bySF7app/S3W94morll/NBqQf/joaP0jVGSvJiP4QzsBaF3urn/L6qKbDTyvzeqGUe9UYJ1QUlZAzJkNDIh3Z98cakAx1pkzQ0hbmn/+L3nboXjtHcIm/1Ur/X2iePVsJqEoL29qE7U87zZCgt6e5NSlqI8nV8UJkCVPGC8lGTWOx79J+sn5Kc03/2+2qgwVeTBl/i90UrWDvXDOKS0B1QYBJkameQUG8ofBZFlRBjubUy6j6QEGO6VmfG8yAhxvroJRkSIszPCm+hTTKpmd0t9j/kUnuxr7oTHKcTgQAcL4frHz+INSQEbawG2trL8PdOAzLk39DdaHj4tbt/xweULpwgv8aL4c9BQLFa5D62khArfm/VtYW+U52KvdUzzXwUXOuDCUNQQppACdWSLAlltf409trE/V1oszQ1JXnVvy32VN+uPpjkjS5Wj1Nv9BvWceUkGldC0g74c3x2pnQz3U1JCVcqZYBshoN8tnwnnm8JNStV/kF/NHVCekvQ2O/xe6t9wFKQRVIuD2jtCREJDYHikihWl9A4kBBrubUy0sYSYq2PXgYlSUL90z+JDXtgx5dFw/YsoU2zUbPEG72uKPf040W+6GjgbZDSXtZxlso0ioQypJXu1lLP3Bt3/x/dFYYn892jP+dEuQMvyAVcUD7OkI+KK6hMsX0vSEvEvJj6JB65PAColweAI6xGEQ8oobqghIwhmRLqB3hv/fTskoGRVbG82PdpE7VE/J7YL/3eqnYgo17AXDhG3/f7oqdZx16qYJaE3BnSHmCmJ0O5J69J8vY7v0a+HqSTA72edSzp1EGQz7oCKfK4t54U+Kp/B438juJc8t5SdAk09o+Bs6yGcjE0S+g2kNDtUGASxPISag8SYiy3Vkbea1MJdQMJMdZHL4P+k1wJ9Uv/WGXq89KB5RP29qXN1JLxDzz1d7+v6uFib80Qv7f6Vb83KrOORbuSdAllSOtyMuQcd7p8Pd2kxgd6Mryo3MMH5RkgoD1M4TDgAtLbjugFxZNCd/R6vyf6JDC2yFuzEs7G9rEazjm0S2g3SGg3FJjEsL6E9jOXWysj761kTtfq1EqIvU56GPSfCC0iyZUQoW/61tjwh7Z/sQh6RiumVyb1iSgjsmTAwZ8t9dWk+3013UBO0+DEcZ2dB0dOkoTIZ7IL3Blyh16tQr+gm87wNFu96/9AJj14QVpZXzBa4ESlJ0roEiGX8cgj4iClntBrIm+QS+c3IM0PJhgkoeldUEJWxO4S6pu+RaV/5pbYqA7bT8/oWSEvGay8UfLSbveK2fuvpc3YsvnuHnCVD47LYmD7+ceplTFSQtBWtgDDszKlDLppkpI0UbqJCyrjQCTb64tFK/D7O3kh9Dc6SUw88edV/arQc+qeYl/NcJBQB/q/GwyREBmeP1GG3rlbfZdm/KP7Y5OeOqh+2mF2j2OxOb2swdhH9jOXWysjQEKs6Vqd6SAh1vroZWAjSahv+uZYH8INm77F99+t30zovOPovOzQB8UjlZnLJ+9+hDZryyaPnDwOrOaKcqufgV7SBKAUTiIPsSTQ2CQqIfUz2ZnSq9BWuvhu3J20Fz5dK0O/5oPyM5wgl4BEqutLJV5AQvnYCzIxgw2SEAsy4CUZ+POlx/bHJj9zCM7Kj8bmMgqlGaCEjGHgzdaRUO8bPqJ8CHwQ653+YWz4o5+cntpzh7JokPRmyXjF+8Z0pRlt6pZNkTd6FXAbMMDvq1nk90W3AF+zxGAmeiXkzpAroH3ke9oot9JVTErUEQ0CoTwQR2V9kSREWRLvUWEuTDIlxGL4PXtiYx7eF5vwxMHYlGcPqQNssoqn0aCEjMHKEur1Le+r9LxhYyzn9o++Gd/p02Ozs3Z8VDBcmv1KfvgxMU+8jDZ/y6bIHf33Uu/pDn5vdBTwFlDJEkUyiVtC6meyQ32zbzDnM9m8IA8iT7ExRaIb+Q3sBZkcsyVUH3KfgTx5NvaRfbGJTx5UH3AgXwNlFdREQAkZg90k1LMVYQPwXqwHZcjDm85M6bEtMj9359tLx8oDX58csdZXNhl5LS92RWFuVVvoIfUE5hR5qzcCNSx5GIUmCWXI+90ZobnZGdIDZn4mu0VpiAMB7WCLRD8uUX4BJWRyBt8CEroVCoyFIG/mkxEKxrffH5vU8ZD6mYjZL7KLrFbGPgwSYsxLKyPusamEuoKEGOujl1SQUI9W76q82Gq9StatG74Z88zmz2YOKN9cMKxi3isT5CfEhZEf00PEslniOXlNobfqIRBGHrAc5FTn4aREaUhC5DPZnkwpt7E+k80Lyljje0FKeXMxcjWdReqnuVjh4gJyd/In/V+NEiIh8o0YqzP0zsrYqAdATI+BmJ4+BGf48fWWxoCEWNPVynAbS4i1PnpJRQm92Gqdygut1tbSsiw2+MH3P5/4wtY983K3ryoasytv+fTkDpppVOoPE+b3Rr9iCUYL9b8n5FY/k60U5WSGOnra7PklnaXp4UTpGk6QTzMkkhCcqExyVC+onRj5MWzIg+oGEJQoH5RL4e/D0wLSA2nirl/RH0t67CIhFsPuroyNfmhf7KXHD8Ymdzqsjg7AKsQElJAxOEVChO4tRUow1v8/686OfOqDE9P6f/zx4qE7FiybKD1VMq38cnoYWTbk8xYFOdGb9HywcwIcV+q+zpCPwp/jB7T6OGlD6cQTqJvToV4a2wsS5EjztUorOgvnhAsq/S+yQb6Ajfwh/DkP/uxNnn1PX1V5Jf01Q2NnCbEYdletmCY8eVC9jDenZ20xRgkZw8CbnCkhwvMtBUpAxffAu19MeH5T5Rzvx6VFY3YOXT45lE4PK0uHfCqdfAyQvNBee28peqa+gApzomR/b3Vn7Hw2r511Lk26yiL/hbr4GbNuJgDU4vGOvBfUSgz9ETbAe/U3CAtOUPbChnqbC8ijOTHSwbVud1M6mYSiSuiWSCyVGX73HvotHPa/a4FMY07Po7ZjetfDzPXRC0roOwl1a1laS4s1Kr1vEs4Oe3LDySl9N32yYOinS5ZO2PnsawsjV9BDzbIhn02nL773X9DnxOq5PT9bnf/EwcfoP1sqUAsXA9gLMjLQ0+nD3DCXAKT0FUhpM/y5EOjHBeVbyEtbdLKaM/iWcMpLyAhQQrUMvCmMErqIhLq2WE1ZpdKlxTuxnHvLvhjXbePeWZ4tQsHobaNemba9LT30MHEmrSzcHmrdl6x6mAiO7QWdSztRvIwXFIm1ceKFE+QzwHqyUbU+8DAQJDQIigvSMMNAQrOhqNuNaSAh1vroJRclFJeEalmp8lyLt2M92q46O/Txdacm9/lg2/y8LYVF48q7Lp/xcdI+1pYqSV+24SdQ45bXr3kJ4/Re0LmQwfKYGygBQESaBjAdeDNI6D9QYJAGGXaXTSXUBSTEWB+9oIQSk5BK2lsqndPeVOnRbuXZEZ3WH53h/qhsyehPBtJDE3NeODHyLAjD2MtwgON7QedyXUC5CjZwGWsj6QUlZCzkRc1RD+6LTehwQB2CiNzwZxV9qzH12UPM9dFLbjuUkNES6py2Iua+t/SLKf0+2FQ49tMB9NDE0KhjwwnyGladSwjsBdUNbJQXL9hICYASSj7k+zrkJdYx5Gk8kJP6/pL6Yi1bCI2B4T0hlJChEhr+zPpjcwZtWf7K5J1J/Yy1nQOyyMZekAkh7wbBRhFYG0sPKKHGgwxFNPzcO0wdyKjih0AGR2KzGkFOKCHrSajfbWu+zu/1wc7Fo7eNssPIDI2ZtODu1pwg72TVuITAXhA7XFB+nrnBdBCPhMgLiEjyIcPeDCdyenBfbPyj0HN6irzLBHLqDsLokRymQs+MtSx68aGEdEsor8PaqlnezaXL8rdb8vFnywV6KXxQng/1DHtBZsXIJ+Vg542mk20wg26OzGUVG8Q8yEugw+7eq372Ytyj+2P5IKepnY/EZr7AFks8oIQaV0I92645O777+3sWDd828405uywx4oBd0qJM6ZyMy3DYC7pEeFHpwtxw8SLI8+gkG0zuTZH+rGKDND6DbyVP5dV+k2n8Ywdi+R1BTqTn9MIxpnBYoIQaR0K+B9edmZa1ZWPRuB096KGGiSNcWeRffEDW9CJ/vGAv6BJJK1X+H2yod+pvuHiBDf0qnWSD8baLXJt7c/irgTeHocggdoDIafhde2KjH6z9km2tnA7FZnUnX7OtL6FDzGnoxdcWJXQxCXVruSY2uvP7hxcM/rTYLkP4WDVQv8ZhL6gRQwYxZW7AOCA38+jkLpmBNynDyfsfiP0Zcsfu2Mj7KmPj2u9T5TThiQPMn9MLSuhCCWXftfarqX22bCscsyOPHlKYBMKLofRkjIygIipjsBekMbygbGVuxDi4Xgz9kU7ukhnYTrnHd5MiAmdYxQdBCCih7yQ0vOPGk3Nyt7398mTpfnoYYRJMs/fk30BvZQWrniUKiO1dV5k5X31NiZCzAdaGjIuA3JdOTnOy2kV+622r3Oa9SRmQ205ZDIVnS2678Nf1ixHiTJwuoX7/KTub32OzsmTEjklvzFWuoocNxqCkiYonKZfhCEK4a5Mm2AuKK3xQnsjcmJqRN7UQwv+kk9OdgTdL/85tJz+e2zY8CoT0lq9duJK8L4I4D9+NzpTQkEffPz3L/en6kolSF3pYYAwOJ4Tb8oISYteyxOACsr9piXmfH0+ZtBT2/JsT5PdZGzUOhtHJGZa8dpErcm8Mt/W1U3r62ipzQE4b4e81rKKFpBZOklCPjLLY+C5bDiweunPxa9MijfoFZCcETpqTdRnuK/K0HZ0NJt7AjunG2rBa4YKKwpVJGXRySYunnXSNr23kQV/bcB70lJaDnCRWEUPsjRMklHvvxi9n9P90a/HYUA5t3pgkhxeTMzQPAU7kR+LDCAmGC8pvsjauVsjvkxdh6eRMSb/0yp94bgrf4G0X7uptG54KUiqD3tJn5D0TxL54U1hCo5/ZfHzh4J2vvzo5fDttxhgTwgnh+0AUe1i1K1HIwwjNSpV/0Flh9IZeK01oJAXYyXNbrd3dqG9s594o/Wlg28hd3hsjHu+NShFQTm50I/Yh1SSUffvGb6b0+rSiaJQ0bmXBsV/QpooxKeSeNR+UV7NqliGI+DCCYQEJeZkbOR4EpZgvk6+nk2z05OXFvu9rF3H52kpPQ09pPLAaxHSQVfwQawD7JyUkNOLxzdVzfTuCL09SOtLmiGmE8AF5CkgoOZfhgrK/aTk+jGBY6LhyCb87RF5i5UTpGjpZy2VAhvwbbxv5Fm8bpZ+3rbIQxLQJ+BKAIog0NnaWUL+2G2P53bftLRwemvv21H14iaaRw5dFXgQBfcOqUwawjxfwsqrhoW8Sf8XY4HGhPi0SVBaS6dFJWzruthX/8twoPea9MTzCe6O8AthNiiHSCLSxn4SGPLj58zlZOz8smRCJ+705THICvZRbeEHewapPRgDTH4UPIyQpfDA8lbXRdSMoe8k0uYDcwco9pPOT1yr0i9zWShtPG+VFTxtpFhTG9+DvUWbRRAwFtrNtJDS+87ajS/KkktenVbalTQdjgZCRXMjYlsx6ZAzvXW/A+5GYi6S5GLmiVhzMjZ84MG2Yx9V0draJp03FX303hu/33CgPAl6G3lIFq4giiWF1CeXetfnrGX13bl82LjK8BF9OtGT4gDyaT9J9IAL0gp7HhxGSHMM+93BxlqeVKn+ms7Nlet0Z+pGnrdISCudzvhuVSVA8g9428rH6RRWJD6tKaGzHbacWDpRXvz559yO0CWAsGH5t+Bk40a1i1BxjCMjz/yLi12qTn7zY92GDL7hgBxhJQJ5I55Yy8aVX/MHTJnInyMgNFHpay5+QexyIdjytrSOh7P9sPju1x65I8YjItFXT9/2J7maMRUMuw4GAjjDrjQFwgnzQtS70azo7TLKTJiptoEtbwdoZxkCeWpF709mlbKCwNstpE+oIxXWst7XyDshpf/3Ci3yHFSQ0sv22M/Nz5A2vTtzTne5GjMWjvg8kyK+za40BCErUFZSfgVnhZTgzQ0bJZu4Qg4AzizPNxQpHjZnluWXf/3ozpZtzWst9PG3k+Tlt5A+h8H5OLkMhIKBGklC/jM2x/G67DhUOjRSumH6gJd1dGBuk6aryK0FAc6GmJPE+kDIOn4ZrhFyzMvQjTlBms3aKUYCIgi6hojmdpSOTnRn+J/QCHslpowzztJZfB0GFWQXaCZgtoSH3b/tqTn/5k1fGVw6kuwNjs0ANGckn8UEE4O1mjTwajKPTQqy8Ds4CgowdYyQLyGfH6Swdn7x2hy93Z0iZnsxQdxDSdE+mtB7+PAWCiqU6sJ6mSGhCp4oTSwZH3nx9yt676WbH2DC8KPeFE+XkfCUV4ILyHl5U7qGzwzRW4EzjITjT2MfaScYhD6azwzCSc8POq6GXcC8IKReK9DIo2DvqF/BUIJkS8t2+7ZuZvRW5ZMy+iatnHPwN3bQYm4YTlY68IO9n1xNjcImKBy/DWSTJvz+kfMWVSnfS2WEukW5pm/7H00ZOc2eEnoXiPTGntRSA4n1ELeJ2x2AJjX28omaxd/fa1ycdfJZuPozNwwelO+DE9WNWLTEKLiAVtnofB521TNJW7P8pnHXMY+0sAylPC0gP0Fli4gz5dLonM3y7u7WUBYV7SU6GvBUK+Te1Rd1uJCahnLblsWndlf3FI/YuWDl9bzO6iTApED4g8VCLShn1wzgEeatr7e5MOkuMVeISws3h7GMtc6cZhvxhWplyG50lJsEMyJCv82TIj7sz5dHuDOltKPB7Lyz4VkSfhEY+GPpivnvP5uUvHciimwCTQmmxSvoTSKiIXTuMofYek9wNR0WwaNJE5REuqBxg7TzDEOSytKDcms4SY2A8bfb8Mjs91A6KfC/oKc0BOb0Pfz/NFkFjEp+EJj+nHPMP2ffqimmHbqGriknBQH0gL9En80k4kFB4Ht4Hsnh4I749dCkEaWWLshBHZ4lJYrJvkP/ubi0/lJMhDYHC/yqISWKLwUwuLaGhd4W+mdtvz67lYw+MFqcdvpyuDiYFQz41Y8Kj2OSl1ECaGLmWzhZj1fzz9Z0/5wRpIXMnGokgv0LehKazxZiUvLT9P3W3DqVnZ8jdQAhTQUpr3RnSiQtFkUwuLqEJHSPRwoH7A29MOfI4XWRMigfkMxFqQrIFFHWVKfiisl1Cbg5ygvIuc2cay2JyHZjOFtNIyWtXfnnODdJNORkhD0jiNZDEwQvFYSR1JZT7n9DZmT0q97w86uCsNTOP/J0uFsYB4UV5UPJ7QHLUJcgv4H0gm4ULSo/BDjx8wQ41npnpGyqvpLPFWCTk3SV3htwhJ1PJz8mQN0Jv6QxbKPFQd8SEwbdJZxfn7P9w5bSjeK/HgeFFxcsF5YQ/tHkp4IR6CN4Hsmk4QR7I2qmGI8gT2uEQ6pZOXrvIj7Mz5Rbu9FBfkEgxSCRyoWQaxk3/nPjEnuplIw8tFheeuIJOHuOwgHzc0AM6w6wHBsIF5BlNxXK8p2jnwI58p/6OTQZcUMmns8TYJANahZp6MqXHoMc0EqT0JvSW9tQXzzm8N8qxeX32SysmH32K/jrGoUkri/QHAVWz6oChkPvO6/f8lc4WY9fQ+0OrmDvZKAS5lBMjHegsMTZOVmaFK++/im/kfbs/G3iL8s3QOyJfznpx77tvzznyD/ojGAeHL9vdmxOVk8w6YCCcIK/nyiIZdLYYuydNlG6CnbqRtbMTAXo/ldAgh9j9S6wYDObSgWO+By8qx+rXAcMRlFBzEUdnSbmQbwORxxyZO10H0LvaiM/sYzDOiCugPFI7WgG7HhhKQH6QzhaTauEE6Sk+wRG3oSF+BT2g8eRzvXSyhoY84ECEWdvo5YGwzENgfgsZ5Kv/FpB6Ni+VbmopRn5LJ4HBYAwMXxYZAMfbUVY9MBqXGB6ET8KleGBH9wCRVNXf+ZoQFIkUfTopQ0LkwQXkDjD9mbBc2y6YZzwI8gn48x2XoHh4MZRO3uSms8FgMHGm2eqPf8YHpWEgIFN6QHDSOS19Q+VP6OwxqRxekLJYjaBBQEAtRPk6OomEQnpRqigEZStzXkahXn4MF5DPUKCQMBjt4dfu/h0vSpPhOErui6gULiiXNBcjV9PZY1I+0N2FAj2G1RhYQA9FJJe86G/rDl+q3MMH5VJySY81n6QiKHvhjG58mrjrV3RxMBgMI+S9HDhO1zCPo2QgyBEiPTp7jFNCPtkNZx8zmI3iPIwQkCso3Q/zWsaavtlAl38nL4QHcaJ0DV08DAZDwwfDN3Ci8irr2EkGUF/e5YK7ccQNp4Y8Wg1y8LMaByFRAamPhgflOaa82BYnsFwfkC/SNntPxk9JYzAQODm7HQQksI6XZECOQTgZxC82Oz2k6632Duo3EEE5qre30KI0xHEBeTx0s5P6jXlDEJQArGtnvCGKcXLSBKk9L4Y3MY+RJMAFlc1cIHQvnT3G6SEfqYOGcf5XWfe5BFnXUPzqk261T6nVaXRWh/T68DFvjBNDPtsPJ2P6npjVA36WAcMKefH0W3kEpC70f2tOq5WhX0AhHwq9qpoLGp1tkNdyAQXPzjCOCDlmoc0PhuP+M/bxkBR28IL0KF0EDKZu0kSlDTSS4fQ/NaflOuUftfd+mI3OVsB67OIDStwSxmDsFPK6BQhoPusYSBqCIrkE+Qm6CBiMMXEFw+34YHgFs9HZFegRckEl95qVoR/R1cRgUiYgn7uBUmbbTxrybldQfgZmj6MhYIxL7f0f5SN2o0sJpqStx8FZMakTaNMvAqHz2rgZ7HMFledg9iggjHEhoxBwjfHSqcmQBxZwtAWM3aOOgCAoY4EvWO08aQjKYU6Uu8MioIAwxoUPSndwQflTZqNLRQR5Ag6qiLFryDiK0IaXMtt2cjnOiQoZaxKPHYxx4QJKMxCQeUN6WAUhnEU3AQZjm5CHjThBPsBs00mEXCVxCeH2dDEwGGPSbLX8Gz4gL2E1ulQHDqqDXCDUkW4KDMbSIZeQyUDFZo2AXQfyHlBA/i9dFAzGuKjXlFmNzikI8lboBeI4VxhLxyUqt0Lv52VmG04yMN/38aN0mKQEegL94Kzqa1bDcxgrmwvSv+lmwWAsk+Zi5Ao4SXKDCBRGu006MO/V/Gr5P3RxMBjjQr506oQn4eKgmG4aDMYS4csiN/OC0hgPH6jACeoyPrCbp4uDwRgbaGSOvA90McjQRGmi9ADdPBhMoyXz3Z0/hzY5AARk9rs/3wICmsMLe/5GFwmDMTZcMPwYXoa7EC4ol6Rt2vQ/dDNhMKbHFQy1g3Z40U+xmAFXGnopbcV+/FAkJjlpKh6+HBraG/UbHnIOdRgSDMbUQNH/KS/KfaFHfsEnWEyDPAFXKg9Km40nYpgkBopsN2YDRFTIjVj8XDjGzJCBR7lgOMhqj2ZB7g9zgvQUXSQMJjlpHqj4A5ztlLEaIXI+cm+6yTCYpKVFWYSDtjYRBHCU3Q5NY7urNPw0XSwMJnnhhXA2owEi9VDfixBCeFMWk5Sce+mUjOzOan+mIigSXyZfTxcNg0leSMO3wBmXbeACEhkfC4MxLrHY99KE8NPQ+zH5kwsXoVSa5VpZ3pQuHQaT3JBPezMbInIxVtJNh8EkHDJAMB8MFzDamelwQaUSemHZ16xcid/WwpgXOPsy94uLNocT5K/SxMhNdPNhMLriEiqaQ1t6iReUw6x2ZjqCXMaVhh6mi4fBmBN16A9BPsNslEhDxP1ZdAyGpPaYk4ZY4r4PhQvKb16/fs8v6SJiMOaFE8NPsRol0jAg7vV0E2IwmuIKhJryQXkwtB3rfJuLfIQuIOX+8/WdP6eLicGYG05QJjMbJ9IgpPeIA5titIRfI18Px9lQaDfb67ejRkVQNrjWVDxOFxODaZzwAfk9ZgNFNIAjKGAuHjIQMC/II7igvIvdfhqTcIGrTGlJFxWDaZy0FCO/ZTdQRCMz6abEYL4NnJykcQF5tPqeDbvdNB6CfIITpKHpGyqvpIuLwTReyMeomA0V0QQXVIJ0U2Iw5IGDq6FN5Fv2QR9BjjQPSDfTxcVgGj/QMAdc0FCROJB3kxd96ebEODCudaFfu9SXTJViTlBOXdhGGh8uKB+Dtgo9MxzpA2OxcEJ4OqvRItppuU75B92cGAeFF0PptQ8byB+y2oWFWMmXRfDz2xhrBg4ikdFokThoXirhS6sOSdNV5VfCPn+SE+RCXpA/q98WLIUg74fje8j1YuiPdPExGOsFuunWeV/BppAhj+jmxKRoXKVKS+jxDOaCykZWG7AaIJ/X0gT5Lrr4GIx1AweVwmrEiHbSgspzdHNiUijku1F8QOoC8imFov4Va99bDfWBiFI5G+9TYmwTOMAOsRozEg9h/L5QiiRNjFzLBeTusF+LoaAfvHBfWxhBXsoF5VvoqmAw9ggvKFFmg0a0IyheujkxNoytxQPAMu/kgkr/VitDv6CrhMHYJLHY96AB17AaNqIdMu4W3aINpp0Y+TH9K6aRY8dLbfUhyw3yWfjvVdKf6GphMPYLdOGPsBo4EgcBuS/dnA0GioYIvaat5GXGtID0QFOx/HL6T5gkh5wAkKcYycjVZD/YVTzn8U6z0u0cXT0Mxr4hb1AzGjgSD4LUlW7OBgM/W3+Mvs/4YHgNGd4FxPQwJ4T/Qn8Uk2CaByr+ANvzPpDNUOjtv8Wlzr3PN6C9dKCricHYP3xQLmc0dCQeBPkJujkbDPxcwyMoCwrpla4EhrmC0v2kkNJfxVwi3Jqdv+cCyr0gnSEgnDfteG+nQQS5DI7Vbk3Fw9h7xqRW4KC1xXsPVoYrle6km7PBgGT2sn7/YkAhPVO7f8JTuYDUk7yhj5fwau/nuEqVW8llUHJPRL3EmaIfZYT9f5SsJz5yjUnZwFnjHFbjR7Sj9ZtCrN/VhSBHoPi+Bn8f7gooj5Cnu+gsUirqfRyxwsUFQh1hfcfD+r6jFmXWNkkxqFSHky+w0s2BwaRmQEI59Q8AJA4Eeb+Wp97I6MrM3zcItWgJykfkGzHqzfeA3J08/EB6T2TedDEsFXJ2T5ZNfWAAROMSFI/a6wPBgmy2AXZ/eCBuyDpzwfBc/p0dv6ObCYNJ7aQJ4fasgwHRBkh8Hd2UDYYvVe5h/b6ZqPdJ1Kfz5DdJoSOyUh9TDsidiLCIDL6FyIFCLn/R1bggtb2V735WlR6dBr1k1olwvmCILNVlYSyjUyEnEeTSIidK19BNi8E4I2rhYBwUiDZI4aCbssHwYjiL9fuIs4ETgnLoTY8gY9PRpoLBOC+1l3HYBwlyCcSwpsezodcxm/n7iCMB+aznBSkLez4YDAQOipn1DxJEC/I3fEDi6WZsMCh6RAXaAXmYBJ92w2DOS+3wJYwDBmkQLhj+gG7CBtOidM9f4edxZAqnIshRoIALKg+jfDAYRlqKkd868UmkRIGikk83YYMh3xti/T6S2kD7qAT5TOVwZGsM5tKBg6ao/kGENIwrIP+Xbr4GAz+LlzudhKBInCAPJCd3tAlgMJhLBXpCnZkHFMIEiozYToxpurQCP7+h/u8jqYb8CfR6JrjKIv9tWlL+Q7rrMRiM1pD3PeAMDr8tpBHy3gvddA2GPP3E+n3E/pB3e+DPYvIOGN7rwWAMCPSGhtY/0JAL4YLKNi6gNKObrcFwojKENQ3EnoB4TsGfy6HX84KrTP473c0YDMaIpK3adS0U2M31DzzkAnx0kzWYzHeP/hx+Fi/FpQBwXAi8oHhdZfhSKQaT1JAX6FgHIfItG5qt3vV/dHM1GHXYGvY0EDtQ+27XcDKIKt2lGAwm2eHe3fN7Xv12CeOgRGKcIPWim+qS4QQFR0mwFfInXFCeQx7S0ToyOgaDSUL4YLgb+yB1NlCgVrcs3fe/dDNdMpwot6gduFN5Bx/6sB7qoKGCIpJ9hL0dDMZCyXx358/hrHAF68B1NuFn6CaKO9cFlKvShMhdsF0Hk20LBfAAex5IsuCCytfw53uw/SfyQvhR/Jw6BmPhkKH46x/EToacMdNNY0jUTyDANla//SMoGwEcscJg1G2qfroiPJd8X4mMGE83PwaDsUPgTHEk6+B2HILyUZoo3UQ3S1JCPttNPhMO8xsOZ+yv8YIcuWA5kItSVzhST3IpVMvHBjEYjIVz/fo9v+TF8DzWQe8UoLhVckHpMbpJTE1aqfJnl6g+YfciJyqT4M+VnCAr5y+fIxGUI+ThGThJmg7/3YMPSDc3e0/+Dd1sGAwmlcKtqfgXFL63LigEzuALPhjuTTeFZULGJFO/1Ko+Th8uID0AKMonGMtvW8hDA7BeEh+US6FnuPDcV2Cxh4PBODDq/SEHfg+HXI6km8AWuSGgXNV8dYWLE6U7eTHSCfaZF3pyk7mgXAKsA1FJ8P8s8JSeXA1UwLKJsFx+kMw4PiD3JZ+aTwvKrcm9Gxx/DYPB1Am5JEUuTbGLSioizyeXI+nqp1SuF0N/5MVQOvm4GhT/Tt9CvvSpPihRC2yHmWovhKL2Sog4auXx5nf/H36O/o76SDqdHhcIdSQnMN8CcsGHAzAYjO6oxYVZsFMLKLLbyIMCdLUxGAwGY5XwgvwCnP3KrOKdCnCCXIgvLmIwGIyFkyZGHoDewrusIm5rBHkC/86O39HVxGAwGIxVQ+4p8EH5ZWYxtx+HeSGc3SQW+x5dPQwGg8FYPWTYE+g9TGUUddvABeVPXUL4abpKGAwGg7FbyBNRnA2HneEEeWeaGLmWrgYGg8Fg7Jq0MuU2+rjuF/WLveUQ1CH7c8iIBHTxMRgMBpMKSROVR0BGrzKLf2MjyGHo/YzEb8VgMBhMCid9Q+VPXEHlOZCRwJSByYB4jsGfU3gxkk4XEYPBYDCpnnaieBkZ0bh2DDC2IJKJOv5YUH4Z7/tgMBiMg3PNytCP+NLQPZygjgRdXl8WRsIF5dMgnhWcGO7FlUX+RRcBg8FgMJgmTcjnsflg+A7oIeWSe0cgpoTGowPpfA09nvdBOtPgz2f5Mvl6OisMBoPBYC4dcrksLSA9oA6gST5KRgbGPDdQ5vkEldfUfwsq49Vx7MRQenMxcgWdDAaDwWAwGAwGg8FgMBgMBoPBYDAYDAaDwWAwGAwGg8FgMBgMBoNphDRp8v8B9dFKPXE4NHIAAAAASUVORK5CYII=;" vertex="1" parent="1">
                    <mxGeometry x="-280" y="163" width="77" height="77" as="geometry"/>
                </mxCell>
                <mxCell id="11" value="" style="edgeStyle=none;html=1;" edge="1" parent="1" source="9" target="10">
                    <mxGeometry relative="1" as="geometry"/>
                </mxCell>
                <mxCell id="17" style="edgeStyle=none;html=1;entryX=0.99;entryY=0.452;entryDx=0;entryDy=0;entryPerimeter=0;rounded=0;" edge="1" parent="1" source="9" target="2">
                    <mxGeometry relative="1" as="geometry">
                        <Array as="points">
                            <mxPoint x="60" y="46"/>
                        </Array>
                    </mxGeometry>
                </mxCell>
                <mxCell id="20" style="edgeStyle=none;rounded=0;html=1;entryX=0.978;entryY=0.52;entryDx=0;entryDy=0;entryPerimeter=0;" edge="1" parent="1" source="9" target="19">
                    <mxGeometry relative="1" as="geometry">
                        <Array as="points">
                            <mxPoint x="59" y="341"/>
                        </Array>
                    </mxGeometry>
                </mxCell>
                <mxCell id="9" value="Processor" style="shape=image;verticalLabelPosition=bottom;labelBackgroundColor=default;verticalAlign=top;aspect=fixed;imageAspect=0;image=data:image/png,iVBORw0KGgoAAAANSUhEUgAAAaEAAAGhCAYAAADIqAvCAAAAAXNSR0IArs4c6QAAAARnQU1BAACxjwv8YQUAAAAJcEhZcwAAFxEAABcRAcom8z8AAGDhSURBVHhe7Z0JfBTl/f9p66+n7d/6a2vv+mtta6nCzgQwCQhaz3pfKCoqIiDKDclmdwOE+xTCfd/JJhDFAxWB7OwEUPDgUAlHdmZ2IdyXQDYBT/b/fSYPSsJDmJ2dnczsfD+v1/sFSjLnM9/3PHM80wSDwWAwGAwGg8FgMBgMBoPBYDAYDAaDwWAwGAwGg8FgMBgMBpNKuV4M/ZEXQ+nNS6Wb+FLlHj4gdzqHS1A8nCANIfBBeTQXVBZ+h/wmJyjit5D/rvPvykI+GJ567vfVaZBpBpRHyLxaiPJ1zcXI1XQxMBZKOzHyY7JvOFG6huyr8+FEuQX5N+AK+uMYDAbDzjnBkMIPAugLYhjPB5ViTpDX84Icgb/HLIGgRNXlEZSPiMyIvHhByiLLTYpemrjrV3SVMAYnTYxcywWknrAfZsKJRinsg70X7J+LAO3oIDkBgb/P5AJydzItOlkMBuOUtBQjv1V7MFC0oRhYTzBGAaKCgrftW0mBVNWzczwjjyvtRPGytID0ABcMz01KO4Fpkl4wmQfpUdHZYjAYu6fZe/Jv+DLlRpBNVxDNS8CbUJhDzELgLD4HPgY5LQNJDXUJ8uMtyiJc2opNP6WbDgMhPWLYTjNhGx09b9slldp5wQkDzJsuBgaDsUPI5ae6vRvoAQjKV/UPcqQB1J6TvB7OyvPJWTnpMdLN66i4gtL9RNDMbWQWgnwWlsHPBUL30sXCYDBWSrNS5R9povw4HKwT+KC8FopnDfNgRnSjSly95xSeS+6BpIlKm6Zi+eV0F6Rc0kTpJij8c6A9VbO2R6NQe2JALgP+hy4mBoNpjJDix5VKd6oPCgjKVuYBiyQfQT5B7jGRpwBT5ZJRi9IQxwVkaFfyfuY6WwFBOQwnBZP4NXiZDoMxJWmlyp/hDPAhTgiPBPGshsJ3nHlwIo0K7JdyYK4rqDznWre7Kd19tgh54ECVaVD5rP56WRU4Js6AkMakbdr0P3Q1MBiMUVEfjyaPRZP7Eng/x5bAftuovt9k8V5SCyH8TyJP1jrYAThGCptBD46uDgaD0ZvzxcM62BD7AkIiT3oVWO3RY+hdt4XlWsFaZlshyKXkEjVdLQwGozUuIdwcikAfEM/rXFA5yTzAkFQjBPt6DhTOJ7g1e35Pm4Lp4QXpUViGDxnLZ0ugN/epKxh+Blbte7VriMFgmOHL5OtdQbk3FKJXoQjY5ho8kgzkCk6QZpP3k/h3dvyONpGkB+bZC0589rCXydYc5oJhd5NY7Pt0VTEYDAl5oo0PSF3I0CZ4jwdhQoYfCoYLyEgOtNkkJWll4VHM+acQ5Ok5EBH2iDAYV6lyKxwQ+eSMl3WwIAgL6CUHoZecTQZqpU3JkPBCmLzAfLb+/FIRTgwPRBFhHJnrAspVIJ7OvCi/AoXkDOsAQRAtQDuq5EVlVlowfH/T8vIf0iamK5wgPQVyO8iaT0oiyCdAul2bNEERYRwS6PW0hB5PHpAyN3sRCyEoAVdAGuAKhOJ+B4kXQrfDND6+YJopDheUd3FC+D66GTCY1Ay5hg/ieRnv9SCmAGf46Rsqf0Kb3yXjEiqac2JkFXNajkBeywcrbqCbA4NJjZDx2kA6/cjZKbvhI0iSEKSxtBleMjcElKt4MbKYOR0HwQlyCfde+C90s2Aw9g0ZjkV9Cz6olNdv6AiSbLigInNr5Ba0OV4yfFl4Ims6ToQTwvPwQQWMbUM+fqbKh9zsZDRwhA2cgR6EbRY5BxkNAnqQ333W+yJAD1M6//dY03YiIKF82iQvGU6M3MmJ8jHWdByJIEddwfD9dPNgMPYIyuc81KeNlI9UUQSVhaQgqtsmIHciw9HQL5VenayvlZJ3rcj01U+Olyq3kvnWDnMkDVG/9Fn7eWkJli81782R94jW7tb8QisvKo6/DFcfLiAvayfGLqObCIOxbhwrHyoa+HsxMJwLhDqSok8+lEc3jS1CxuEj3/whyw+9r4Hqd4BqP11u2/1JxA+rpulyEqzvY1xQxgdlGLiE8NOwifCyHMaacZJ8oMewjbyhT3oTdhSN3pDeFOm5ETnVPtUo72RtH6vRfJV0M12FBtNUPHw59IJeZ00DAQTlnWtLd/wv3VwYjDWS6vI5Xzip/lVQPVE/FCjKLVQh14rJWi91CnJE60112M/dYB0cMSqCXuBY74UvsWIsEfIxL7XwpJp81C+uyqPJ8PYoHH3hROkaaBud6KW8Ru0tkRMkulgNpnmg8g/w82L930fqIcgbri+t+CvdbBhM46R2XDd7XIq5FLXrEZ6qPiCQpAcDnB5yuZJsX9jeM0nPpP4+SCbN1u7+P7oYDYYLSD3h57EXpAFOUPphbwjTKCH3BMglF1bDtAtwAB1Vz9ADcoeWYuS3dNUwJoYMLko+iQ37gjxWnrSHAMgJhuZLcYK0kjUN5EK4oCLAdv0B3XQYTPJDvmhJLmvAQW3PQUXJ48dBJZ/c0yGXEelqYSwQ9Z4SnBCoj66rX1Fl7D+dwDTH09k0GE6oaAs9tC9Y00AuRvgOuvkwmOSFFGwoDJ2h97OW3RCtCcjyNBeUV7sEeVCaGLkJxWOPNF1VfqVLVB6BfTeDDKDJ2rfxwK2RH6KTbjCcqJCRPJjTQNjAMfYSjqKASWqgeF8L8illNUDLQl4IDUg9ybsudDUwNg3pfdfeR1KfuIu/By4oUa2DlUIvaAdzGsjFEZS9KCFMUqI+ch1UxifzWr2RQIE6SJbX6I+YYayT2kt2oY7kpCiOdvmOlpvnfEDi4Wc/r/e7iBbESDrdjBiMMeFLlXvIGQ6zwVkIUohAPK+RM2W81OaskF4uyGg0OflgtY1zQPvQNFYcJ8rd4efxqTgdcKLSE5+SwxgScqZJHlNmNTQrAfLZxgtSllNGKMBcPOTkwxVQHoE2wXy3h1sTepb+aIPhy8ILWL+PXBpOkBbiJTlMwiHDzpCnx1iNzCpwQflN8m4SXWQMpk5q71/CSdR5L067ypSW9J8bDPxO+Py2hsRBHKNRYDAXpPbJN/LYtTXv/dCb0TNJgaGLjME0GPVVgoDcHU6qtmp5KCF9VeWV0MZOnd/ukDgQlGhTfNcOoydpZcptXFB5ldmwGhvyhJsYHsgFlGZ0cTGYpKRFWYSDs3m8H5QArrW7M+nmxGC0RR2ehHxfhdGgGhUyZltA7kTOZumiYjBJDfSyySPgKKEE4ITwU7Ap8ZIc5tIhj1PCAWe9j3UJ8jucID/bbPXBn9FFxWBMCTnpgTaIEkoA8kI43hfCXDIgn25cUNnCakSNBSzPaldQea7VytAv6GJiMKaGF8PZrLaJaIcTwyNRQpiLpnmg4g/Qy3gJGss39RtPoyEoASJFHLEa09gBCY1gtlFEO0J4KkoIwwy/JpTOBeVlzIbTCEDPJ0heDEzfUHklXUQMplED7XJK/XaKxEkgtAQlhLkg5N2fS71RbhYc+XRCQO6OIxtgrBZ8UTVxOEFahBLC1AkU/X5AJavBmIkqQUEZi2O6YawaOE4msdouoh0cNQHzbVqJe8mYWhNZDaURWJIWUG6ji4bBWDKcEB7JaLtIHBCRo4QwTbiySAYXDJewGom5yKUuQXoaFgkbJcbygTbru7ANI/HABZVhKCGHhxekR+FsZCOrgZhIOReUc7g1O39PFwuDsXzUF7fxPaHEEORslJBTk5f3fVdAGgC9j33MxmESnCDPTQsorehSYTC2ifrpEhwxISFcQrg93ZwYJ0UdfDQYnstqFGYBva+jZCh9ukgYjO3iCoSa4thxiSKn0c2JcUo4UboGdn5jPlr6BfR+pjcXIy66SBiMLUPGKeRt8BFHq8IF5ePXr9/zS7o5MU4IF9jVDA6apawGYQbQ+3mXD4afoYuDwdg+0BP6kNXWkUsD9WAb3g9yUKD43wBd3xWsxpB85GpocPnk8gVdHAwmJcIL0hh2m0cuBReQp6OEHBJyCY4T5J2shpB0BGVv81LpJrooGExKhQsqD+PDCfqAmkQ+oY4SSvXAAXI3L8gbWI3ABBbwAYmni4LBpFw4IfwXONE6zGj7SAOAvE/zZfL1dDNiUjVpQrg97PCt9RtA8pH3ccFwTrOP8Rs/mNQPGVyXfRwgF0VQtuKluBQPXyo/AzKoYDaAJAIHpMAH5AfpYmAwKR9ekF/AS3LxwQWlXJRQCod88qAxHh3lgvIMfPgA47Sorz0Icph1TCAXAieqJ5uvxRfUUzawg/uT5+9ZOz9pCIoEZ4J92pfEfkAXA4NxVDhRmc08NhAG8svYC0rR8AG5L3unJxFBjuDnFjBODyfKLeBYwEtyWsDL9akZ2Lk94CA4ccEOTyaCspQcfHQRMBhHhy9r3KGw7AAnKK/hA0spGFdQeU79CBxjpycLaEyTW6yV/kQXAYNxfFyicisv4uPaFwNqxpcg6kfp5sKkSmDnPkkuidXf4UnkOB+UfE1Lyn9IFwGDwdDwYmQy45hBAC4gL8Z7QSkWLqg8bPJICDtcgdBzdPYYDKZeXIKUyQdNPSm0BdALOsoHw3fQzYRJhUBDJyMhmPYiKjQikcyTzh6DwVwkaWXhUaxjyNEElCnYC0qhpImRa828BwTzWt9SjPyWzh6DwTQQlxBuzotKOetYciJcUJF5MZJONw/G7kkLyq1hp5o2TAj0gBa1XKf8g84eg8FoCBeQO/A4ioKKS5BfaNIEe0EpEWjUabBTV9bfyckCekDTmwcq/kBnj8Fg4gicwA1hHVeOIiBPbBKLfZ9uEoyd01yQ/g09oFeZOzoZCMrYtE3K/6Ozx2AwcaapWH45HwzPYB5fDoALSH5uzc7f082BsXPaieJl0AsqZe3oZAA9oIF01hgMJoHwQuhvvBhezjrOUhpBLm1WFuLoZsDYPbyomPL1RuhpHQP609liMBgDoj62LYbfZR1zqQgXlD/lROlOuvoYuwd6QL2hZ/IVa2cbzG5oPM/T2WIwGANDxkvjg2GJcdylGoddwfAzsMr4IEIqBHol5NPBuxk72lgEZS8nqp/axdg0JXmHLy/wnUpfOvREkd93XC4ecmz9G5OO3Ub/GWOBpIlKGzjRO8A8BlMBQYm6hHB7uroYu4c8Vw879r0LdrTBwEFxCETXjc4WY4P486p+Veg5dY/fW+Up9lW/XOSr3gnE6rMkuyo2vevBmqVDD5W8PecIPmZvgTQvlW7iBPkt1rFoZzhBeZcvi+Do2KmStFLlz9BQX2btbCMh94DgzxfpbDEWy7zsoz9fOqimpd9X/bTfWzOqyBd9DeTCFM7FWNDnZGzoHXti3huV2NQue4+XjD48MzD30FV0FphGCHnZnBfD8+ofj7YFahVXKmXQ1cPYPe1LSn4AZxWTmDvbQGAep6AH1IfOFtPIKfBV/64oJ/ofv6/mxUJv1dQib3Wp3xvdxxJLvLzU4WAsJ1MGpJgb8N0kxWa+WLl3+dhDo8WFJ66gi4AxMdev3/NLONEcCcfiF/WPTVshhKc2fydyNV0tTCoEziqymTvbQKAHVMMLUhadJcbkkMtpfk/01kJPdRZIohh6Otvqi8NIpnc+WkdC7swQpSI2+qHwF/MH7C1fPubgSytnHf4bXUSMSal98EipZB2nVgYEepwPKL5rVoZ+RFcFkwoBAT0BOzepY8JBg/8yTVA8dJaYJGZZv7M/gR4OX+yNPuH3RYeDbF72e6vK4e9fs2SRLGZ2O35RCWVnEHapjOsgn16QvXfT8vEHh6yaW3klXQ1MksOJ0jWcaOKL6AkCNUTky5Qb6eJjUiX0huVm1k43kLMuQR5EZ4kxMEsGRH9TmFvVtthX083vrc4H0bxT5I3uZknBbLRKKDtjZyxLZUdsQkelarGn8t3XJx7qR1cRk+RwpeRpWMWyL7ZyQXk1H5A7NS3Hb4mlXFxr5L9DL2gFa8cbizyazhKTQPyek3/1D6y+CyQzAJgLwnkXiv2x+sXfKuiRUC3bY1mZ22OTnlWOFwzcu+a1yfu70E2ASVKuCYV+RF6XgGPVtBFSLgWcHG/khHCvNHHXr+hiYlItvKAk/WuMXECeQ26G0lliNKQkr/yHIJlmhZ7oY1DM84Bivzf6Mfz5+bkCbwcSkdAAlXIV783bY1O6yYf8eZWvvzHpIL4PksSQobrgmO3OB8ONd79IkE+4ShVv+rLKn9DF0hW6Lh3gr/gCqxXDC1JXLqh8yWwERiHIr/DCHrzp3ECW5Z28sjj3dGaht/q5Il90PMjmLb+3WmYVdbthlIQGZGyL9SekfxrLvb387PQX5L3+YXuKVkzefzvdjBiDk/nuzp9DT+QhLijPgOPYhBEX1JfjF3Ci0tGIwUfJIK6cUPvpGS6g3Ev/N8Yq4cVQOjSwLXUbgbGA4IKuMqUlnSUGUpJz+s9+X/UdIJo+IJxZUKjL4L8P1S/eqUIyJFTLJ7F+wOC7y7+e0VOWl46snL1i+gFsa0lKOzHyY65UupNcVucFxbCvKkMN2gl1Ij8tID1ApEFnl3BcwVA7EOf5L+ZuwveJLJRmqw/+DBrT4vN2UDL4mDRaOkvHJS8v9v1l3s+b+n1VD4Nkcou81YUgnU0gnxpWsU5Vki2hfukff8uwB7d/MbufvH3pmMqJb87c+3e6KzBJSHMxcoU6FFBA7g4SGQ+9pTdBKOuh8EfIUFzn6gD8v4O1/w9Q7zWFp/IBuS+pDcn6YjI9wWYNUfQOfubbIuHFcBZjBxkGNIC90OieoLNL+RTknf1FkefUDUW51c+AZMYUeaOv+33RClZRdhpmSqhv+lZgi8rIx8pPz82SNy8bs2foitn78aa2A8K/s+N3nKgM4UUyHBi7NrlExYMiauTAmcgdcOaisHaQEYCAaqAh9KSzS7ks8h37Q7E3ekuRt6aH31M9DQptAMSzH3o6MeRCZnZtHAn1Td8c60O4YVNs7JPbo/M98nsvj9udlZeXh1/aTMHwQekOLe87QY9tD1eG94caLeoH6gy8nlsHQYmq3fGAlDKP0hZkn/pnoa/mfr+32gOiWVToiX4A4jkF/x1DtGEFCZ2j9w0fxcY/s/2zBblS4NUJu7vS3YyxcdR7VUE5B2rPaWZdYsAJyrb0DYk9dYfRGfWmImOnxA0VDrmhyAVCHVuI8nV0FrbMkgEHf+b31KQV5EQ7FnqjI+AM/hWQzXa/J/oNq7Ai2plhMQnV8mFsQNtNsYldth9ePFh+47X8PY/RpoCxSciQPa6g8hzUI/GC+qQBlyBPwMtyJke9iSgouj9QB9I5wwXDc8kNRXL2QSdruxR5o1f5vVXtCj1V3YFJ8PfV0MvZA0DRRIxmRtdjlpRQ7xs+iPWiuG/96Oyk7tv3Lh4qFS+fHMGvclo8nCi3gHq0jlWn4gEf2zYx5NHH2qdT2Dvj0oSnJutJlmSmOPfM38i3b8hgnSCc+YWe6HvQuzkOxBBzmNHF+hLqdcP7Kj1v2Bjz3bnp66k9tiv+YdI8EFI6bUqYRo5rXejXIJ5noR6RoYWMGv37I/IkHZ0FJpnhg/JUxg64JLDT98Cflv/mz8peZ3+0NKe6ud8d7eDPiQ4pzKlaBnwC4vmSVRgR87CbhHq2ImwA3osNuu+jL6f13r7DP1LKf3vqPvwwXyNEfeE0KOckcfQGfGw72XEFlEcYG/7SCPIJcgmPTsYyWew59b+Lc6raFORUdVmSUzWhICf6Nvw9DL2cGGI97CyhHt/ybmzYI5vPzBqwY0vxGGn46hnyb2hzxJgQLpjcUb45QeqFIkpSai/DfffimGbgd8gXGOlkGi0Lc05cvcRTfWeBJ9oXZDMb/lwLfx5hFTvEmqSKhAgvtlqvMuLxTdE57u0blo4LucU88TLaXDFJChm8FGpS8saxgxNufu3u39HZYYwMV/v1RPaGbwhRMfUx65KS2A+WDIheV+CuegQYBPiBLdDDOV2YA8UMsS2pKKEXW61TeaHV2tjopzadmOvdLiwbH+pOmzMmCeHE3U+Rp3KZ9coISqVZ2BsyOK5A6DbYuPsu2NiXgAvK/rRNsf+hkzE8C/ucuKLAfSp9ifvUs9CrGQuF6g34M1S/eCGpQapLSKVlWaxX5trY2M6bjszL3f7my/ny47S5YwwMF5DH80H5LKtuJQp5+tclqPsNRWRE2omxy2CjFrI2dkNwQeUAL4QNG5W4wF3zR78neitIphcUpOnQswkucVcdgP+OIc5gukMkROjeUlTp9591Z1/qtnnfwrwdS1+ZJN9FDwdMguGF0N+grq1i1S4jINPm3t2T8OjdGAj5fgZrI18KMhAhnUTc8Xurri3IqnoQJOMFlgAfFrijVUAMcS7Tn3OehLq3DKo831KIZd+x/uv8FzeHFw3dMf/lyVImPVwwOsMH5AdBFqzBSY3Ch5flEoz6zXgyfA57A1+C8B10MpfMwqzq3y7JrhoIhebNJe7o0frFB0EIUzsddbSEagmoeO5d9+Xk3lt2Lhmxfcrrk0NN6aGEiTO8IA8CknJZjg/KFc2Dcms6K4yewIYcfuGG1YJccf1bn2r6+il5RBoEFC1wV0GhQZCLM7XTEZQQlVC3lqW1tFgTy33w3TNT+27+uHD0jhFvzFWuoocWRkNc60K/TguGS9h1LHHgJH4u9oZ0hgvKt3B6HskmCEqATqbBkEE9l2Sf+oBVcBCkPtOfw54QS0KEri1Wqwx57N3qmdlbNxaO3ZFTUlL+Q3qoYRoIqXVw4ryLWcsSBGrol+Trrk2aoIjiSvuS2A+gi1rA2qjakAvopBpMQXZVFyCGIFqY+gz2hC4loa4tVql0afFObNiT752Y6dkSXDp+h+VHKmns8GVyn6RdlhPk0hZr9/2JzgqjJeTzuMyNqRGtDyUsya7KB2JIakKeaGP9f71MQQnFJaFaVsa6Z6yKjez03tFZuVveWjZhO5yVY+rnL2Lkx3xAng/1KykiconhQXhZTmNarN/zVy7BUWXJZxno5BoMFBaUUApAZOP3RWNFA6OxZXnVsZeHVcdeGVkTKxlazfx5vUzrjJfj9EiI8FyLt1V6tH3n7OguG/bPGby1ZNnEHXfTQxEDcZUqLaHX8iGrpiUK1ESZWxtuS2eFaSiwwXQ+jPAdnCANoZNrMFBYUEI2gjyhRj6pUDywOrZ0cHVs2RAQzogaVTgsSkBGrOnoBSWUuISeS3tLpXPam7G+t635ZvwLGyILhn68oGRSueXGdmyMqFeBknRZjhOURdgbukRalIY42Fih+hsvXjT3hAaAhLKgwCDWAgp+QU6V2rspVns3pFcDYhlxmimbi6FKiDV9naCEjJVQLStUBty1+ssJPTfuWjj846nLZ+yw9YclEw3IIp9PxmgKZFw5A1/gT8lwQXkUc+PFSTwSWgzFBWk8lrirYoXe6lhRLund1EDvpgZ6N6djL4NEEmUZSIg1T72ghJInoWfT3qC8HvM8UPp5fp8NHy8atXX0splb/0APV8dE/eRDkl5ixd5QA+HX7ubJdUvWhosXlJAFUXs30Viheu8GhJNXDT0VtjyMAiVkTwkROqm8FvM9Eqie3H/D+0vGfOwVF9r3K8jxhl+r9EjKZTnsDV08vKCMYW40HcQloQGnYoixkMeZC3OqoHcTjRUPitbeuwEhvDzCXJYNBQkxlk8v055FCZktIRX+1dgz/PLY4CeEk9Pc74uF47b2oIdwyqbpqvIroZa9Xb+2GQEnhPEF1vrhar+zHmZtMD2ghEwiC4RD7t14QTgDo7UPC0DhJw8LsKRgNiih1JJQLa+o5Dy06vTcIR8u9s9Yr2lkFDuGD+5+EntDJoULSuOYG0snKCHjISMGFHpqezdLoXdDHn9+efiFhd9KoIRSQ0KdW74Wc9+/6syoruv2TnNvXLdg2OZphRM+eWLF7F2/oodyagZ6K3xQ9kNNM1xE2Bs6L2kBpRWYOcLaUHpBCRlLgfsUs8hbHZSQ/STU8+a3zw7uEDw1oed7FbN8H725ZNTWocWTPrmFHrKOC0jobrXnwqhzCYG9oe8CwhjP3EgJoFVCi/pX5S/qfyqGNMySbPtKiLU+esFRtI2V0IC7Sr8a8cz6I1P6fbB53uAtBQXjPu21bHI5jshdL9BrmQYywt5QMsIHwzdwQXkPawNphROUo+RzD1wwPJcXpCy+VLmHfAKCzqLBpLqEyBNd5J4Nee+G9e9aQQnVghLSJ6HumatiuQ+VnR73/MY9M3M2lS0e/umkpRO2t185OfQLeihiGkhaUG5t9NUiFewNkSfi5AnMjXMxBEUCab2p9p4CUpc0UWmTJuq/LpwqEjonm3Mvdy4dEo29TB5/psW40Btl/p5WUEK1oIQuLaG+twjfDHvivZOTen20Y+7Aj1/3jykf9Mq0ChwuJsFArRwBYG/IyHBlkQzowbA/1SAoUeAj6CkVwM8MdAWUR1qI8nXtRPEy+uuGxG4SOicbIhX1aTTyrs1QIpuGn0ZDCRkDSqiuhLz3rf9ybOcPD83o//GHC4duW1Q0fmf3V2bKf6eHF8bANBekf0Nt3HJBrUwUJ/eGyH2b2o2gRDlB2QjCmcoFpJ6cKLcgbwzTH0tqiIQW9jsVsxxQ8L4buqY6VqyOk1YTKxlOAPHESYEnyp6PRsij2KzpWp2lQ6qZ66MXp0qo941rY0Me3Vgz8YXNkdneT4WCUTsnvpxf8dCK2Zt+Sg8lW2aJ5+Q1fm/VA8W+muEL+p78ZPGAU6cX9j15JL/j4Zm92oR+TX/MMuGDyfncg2NHUSD3btLEyLX0PxslCxpbQiCbb9+1ISMJDCK9m6j6pj+rqOoFJWQMUxwgoezb3/tm9FObTkzr88n2BYO3v1o8tsK3fHIknR4ytszCvNiPC33VLr+vqos/tzq/yFu9HjhRBCd4LMgguUNu3/O1O1MuzckMdcxrZ85J8aXSPFDxBxBGkCWSBNkPgkujs8GYmQX9T4KETkKBST6kkC9xn4oVqi92VqmyIcPWsIqn0RR4qpjLpJXFWSeZ07U65N4Ya330MiXFPu898P4Pv3ipy9aDs7LL3y8YVjGvZKLS5a1p4b/Qw8OWWZh34oqCnOhNRZ5oX7+vuqDIG90KUvmKJZuGmPD4Qbqv5Zg7QzoDf77mzgg9kteucYcO4kWpSzJ6Q66gPBjfG2qEQBc8H7rfMSNZrF5KA9l4Tn37YicZtoZVJM2C9LRYy6qVxQNsKiEQPWt99GLXj9r1b7vx7PDHNldP6VGuzM/dtaZolDTulcnKvWKesfdYzczkXqEfLR1Y3bw49/RjIJkhfm/1UpDOJ/D3L1hSiZfJT5/b13WB3pEE+3+2O0PuMCBD/g1dHNOStmn/TzlBepUlkkTggsrGNHF/ar/8a8UYJSEykoA6RtpQdjFsbFBCxmAHCeX+d/PX4zptOz6z/65Pl+RJJSXjwu4V05WWtMnbMv7+Vb/y51a1Acl0KfJWTyjyRd8GUSj1xWEkF5NQXaRtIKMp2RnSA3mtzHvcnLyCwpfJE3lBYT/YpZeA/CBMHntDZoZICIglCrmXwyqCVmEJSIi13FpZZGMJsdZHL1aSUJ/0j2JDH/rk80nP79g/Pye0oXC4Mnv5pMizb86stPWnD4pzzlxd6Kv+b5E32g+EM9vvi64D+RxhiSKZaJPQd4CMNrkzpHGe9Midve4M/YiuTlKTVqr8PyIOXpCn8kF5O1MscQA9rBK8JGdyoLCghDSAEqqlsSSUc8vWs2Oe3BGd0bNCXjRQWfXy2MpRb0yuvJM2Y1tmdrfY/xQOjF6/NPd0e7+3ajCIpsjvjW4F+ZxhScFs4pVQXaR3oX0Mz86Ubqarm/S0FCO/BRk9AczTPxi0XM2XmbfMKZOSvMOXq111T7RnkbdmLjTkj6BRe+g/N5gFvUFCfaDAJIgqIfJEm0UhH45jLbdWVAkxpmt1VAkx1kcvU74tTOZIaNxTO08tGhhe8+qkfe1pk7Vl5vY7eWVx7qlMKO6d4fgcX+SLvgl/l84v+lYjMQmdQzoL7UQAcj2ZUgbdHElPs9W7/s8VVJ7jgrIfhHSQLRw28PMvYW+ogSx2V/2ryFfzoN9b7YOGvIQIB/6srt+AyGOY9FcaDEpIGyihWsyS0IROFSeWjdsz1I4fcSvJO/1n6NXcAcdmn2Jv9Uw4Hsvgvw/VP0atjjES+g7yhB3wdk6GNCA7XeLp5kp6XIFQU/L+JQhmOS8olx4IVZB3tFi/56/0150b0rsB2bQo9FQ/BX+OhAb9KshmJ6uxsEAJ1QUlZAxmSGhednjrW9P2uWgTtWxK2sd+UDQw+m+/r+bhIm/1QDjuCuE43QzU1D8e7YjREqpDhnQiJ0NZ7k6XenrbhEwbsJUPymm8GM4C2awEPq8jn/PgxHAvR/WGirzRq9Tn+n013aGHMxlksxoaciWrYWglHgnN730ylihkCB3ygqlVIZ/WZi23Vhb2P8mcrtUpHhxlro9evitMxkso+8ZPY4t8u8tWza28kjZPy2RhnxNXFPhq0ot91Z38nuhYvy/6BhxnFfWPu1QiqRKqy0FoS0XQprp42pjXA6kdFDU8CKQj1pcQ8E47MWbbx/cbjN9z5q+wg++GHk4WSGceyOY9+O/j5+98I9AqoXkoIU2ghGpJpoSWDNy9ijbLRk1BXs0f4cTwNqBXUW71dDiegvD3A/WPsVTHRAl9C7Sp3dC2FuRkKh196RWmPeXYXKxwpZWFR4F8Ks+JiCsz7x5W0lLgrvkjGZcJRDMEduprcPYUqb+jkwWZJ12MBlMroRNQYBKjVkLWZXH2KeZya6VWQuxpW5laCbHXSQ+Tnz5MC4axEprWXd7/xtxDV9FmaUpiTWLfKx5Y9a9Cb9VD599jhb9HWceU02gMCdUhQ9rlzpBneDKk9p6W+/6X7rakh3yZgC9TppCxPG1zSY4Mk+H3nMqA3sezcMY0Dhpyoz/5or0n9BlKSAMooVqSISHfreVnl4/bP5w2yaSkoNexX/h9Na38vuqnizzR0SCc1+A40XyP1Yk0uoTOw50hfQJSys9prdz7okXGsWu0LPLV/KHYG70FejU9QTjToVELVuyqa5ZQT5BQLygwCUKG51k21LqQcetYy60VMm4aa7pWR5UQY330Mvkp4yU0P2v3FtocDUlRXs3vC+AYheOyR1Fu9VQ4RgPw932s4wS5OFaSUF2kD9yZ8uiszNDtee3sO+ySpiz2nPpHkafmvkJfdQ70bhZBY36/yFt9irXDrEY8EpoHxSVR/DaQEGu5tbLAphIqAgmx1kcvk5IgoZXTDzWjzTHuFAw89c/aS97VHjgxXASy+cAux6jVsa6EvgNktBZ6SENyMsL2/2igmBe77Nx3NYp8NW9Cd30va8fYBc33hFBCmkAJ1WK0hF56quIUbYqaQo5ROD5Hk2MUpHOQ1fYRY5j4xKE6Bd/KuDPkr0BGa3IyFI87XWlFm4t9Ag37WjiD2sraEXYFJVQXlJAxGC2hWb3DEm2KDYY85AM9nI2sto4kBztJqA4ZUjVIaYW7tdw3p3VFc9qErB3o/cxh7QQ7E9fluJ5QYBLEFhJiLLdWyLhprOlaHfISMWt99DKpo7ESWuzbI9Cm2GDgRNHHaudI8rDD5bhL4c6Uj3ky5RJooy9kZ4b/SZuT9ZKKj2TG1RNiFJt4QQlZE6tLaOmIvfNoU2ww0KZL67dxJLnYtid0cfa5M6QC6CU9m3PDzqtp07JGWDvA7mjtCc198bP8uVBcEoVIaCkUPauyCCTEWm6tzAcJsaZrdYiEWOujl8aSEJwoiqx2jiSPVOgJXQwQkQLMdaeHnshqGfktbWaNF9YOsDtxSajHZ7FE8fuq1E9JWxUy9htrubUyv88J5nStDvmMOmt99IIScg6pLKE6ZMjboQ1Pc7eWH8prF7mCNjlzw9oBdgclVBeUkDGghJyDYyR0HtCmt7gz5Zc8mfJd/dIrf0KbX/LD2gF2ByVUF5SQMaCEnIMTJXQ+7gx5A/SSRmRnyLeQIZ5oU0xOinzRs6ydYGfiktCLUGASxO+1uIT6g4QYy60VMmQNa7pWR5UQY330MulJlJBTcLqE6iJtAykNyr5B/jttksbG6RKaA8UlUQotLiEy9htrubViVwn5QUKs9dFLPkrIMaCEGGTIn+dkSCvdGVKWoR/m86OEmAUnHlBC1gQlhOgFJdQw0DP6DHjFk6G86M2IXEubqr6ghNgFJx5QQtYEJYToBSUUBxnS/tp3kELP5rRW/kybrfb4vQ6W0AsgoRegwCSIKqE8KHwWhYyCzVpurZARpFnTtTr+XJAQY330kv8ESsgpoIT04c6UJTg2Znsypce8bUK/pk244ThZQrNRQppACdWCEnIOKKHEgWPkU2AS+Q7SgNsO/ow25wvjdAkBsUQpAAkVQ9GzKmQAUtZya4UM3smartUhEmKtj14mooQcA0rIWKCH9H5OhjzKk67cmtck9n3atGvjeAl1Px5LlALPKSh6RETWZEHfE8zl1sq8np8xp2t1/LmnmOujl+/GE0MJpToooSSSIW/NSpcfbHLu/aMib/Qb1k6wM5ol9PxxlJAGUEK1THwcJeQUUELJJysjNFIVEUqIXXDiASVkTVBCiF5QQubgyVSeRAkxik28oISsCUoI0QtKyBzgOHrL8RKa9fzxWKIU5ICEBkPhsyjzQUKs5dbK3B4gIcZ0rU6h7xRzffSCEnIOKCGTyJBlR0toJkpIEyihWiaghBwDSsg8UEKMYhMvKCFrghJC9IISMg9o4CihREEJWROUEKIXlJB5NPH7qr9m7QQ7o1lCXUFC3aDAJIjlJdQHJMRYbq2Qzxiwpmt1Cr0gIcb66GVCB5SQU0AJmQcZwNTREpoJxSVRloCEiqDoWRUiIdZya4UM3smartUpAAmx1kcvKCHngBIyD5RQt2NQYBLDHhJiL7sW5rx4nDldq1MrIfY66WFCh4P0wEEJpTooIfNACXWFApMgS9wgoUFQ+CwK+RQDa7m1MucFkBBjulZHlRBjffSCEnIOKCHzQAkxik28oISsieESegwl5BRQQuYBDRwllCgoIWuCEkL0ghIyD0dLaDpIaAYUl0RZbHEJzQMJsZZbK7NtLCHW+ujlJZSQY0AJmYezJfQcSKgLFJgEWZxtcQn1AgkxllsrtpWQByTEWB+9oIScA0rIPJoUeau/Yu0EO4MSqgtKyBhQQs4BJWQeKCFGsYkXlJA1QQkhekEJmQcZOw4llCAoIWuCEkL0ghIyD3JPyNESmv7csViiEAn5B1ZZlrk9TzCXWyuzuh9nTtfqLAEJsdZHL+MfRQk5BZSQeThcQkdBQkehwCTG4uyTUPSIiKzJ3J6fMZdbK7O6H2NO1+os8Zxkro9eUELOASVkHighRrGJF5SQNUEJIXpBCZmHsyXUGSTUGQpMgizOsoGEGMutlVnP21RCOSAhxvroBSXkHFBC5uFoCU0DCQGxRFlkcQnNAQmxllsrM20sIdb66GV8e5SQU0AJmUcT2OBf1t8BdgclVBeUkDGghJwDSsg8UEKMYhMvKCFrghJC9IISMg+QUNTZEnoWCkyCqBLKhcJnUeb0AAkxllsr5Fs6rOlanSVukBBjffSCEnIOKCHzQAkxik28oISsCUoI0QtKyDxQQoxiEy8oIWtivIQO0AMHJZTqoITMw9kS6nQ0f+qzR2KJsjDrRKwQip5Vmd3jOHO5tTKj21HmdK3OYpAQa330Mu4RlJBTQAmZBxk7ztkS6gQFJkEWDrC4hF4ECTGWWyszutpYQoz10QtKyDmghMwDGjhKKFFQQtYEJYToBSVkHqSBf8HaCXYGJVQXlJAxoIScA0rIPBwtoSkgoSnPHIklysL+ICEfFD6LQj7FwFpurUzvAhJiTNfqLMo+yVwfvaCEnANKyDyggUedK6GnUUJaQAnVMvZhlJBTQAmZB0qIUWziBSVkTVBCiF5QQuaBEmIUm3hBCVkTlBCiF5SQeaCEoLEliuUl1B0kxFhurZBv6bCma3VUCTHWRy8oIeeAEjIPlFC9QqMHlJA1QQkhekEJmYfDJXQ4f/LTh6HBJcYCkFCB76RlIV9GZS23VqY9d4Q5XauzKPsEc330Mvbh/fTAQQmlOigh8yCfcvi8/g6wOyihuqCEjGHsQyghp4ASMg9nS6gjSOgpKDAJsqAfSMgLhc+ikM9zs5ZbK9M6g4QY07U6i7JAQoz10QtKyDmghMyDDGCKEkoQlJA1QQkhekEJmUcTv4MlNAkkNAmKS6LMt7iEyJdRWcutlak2lRAZ3Zy1PnoZgxJyDCgh80AJdYQCkyDz+9pAQozl1gr5jAFrulaHjOnHWh+9jHkQJeQUUELmgRJiFJt4QQlZE5QQoheUkHlAA0cJJQpKyJqghBC9oITMo0mRt/oMayfYGZRQXVBCxoAScg4oIfNwtIQmPnE4P//Jw7FEIRJa4jlpWWZ0O8Zcbq2Qb+mwpmt1iIRY66OX0Sghx4ASMg+HS+ggSOgQFJjEmN/3M2YRtAozuh1lLrdWpnY6zJyu1Vk44DPm+uhl9IP76IGDEkp1UELmARKKooQSBCVkTVBCiF5QQuaBEmIUm3hBCVkTwyX0AErIKaCEzAMl9AQUmASZ38fiEuoKEmIst1ZsK6H+ICHG+ugFJeQcUELm4XgJTYTikijzLC6h6SAh1nJrZYpNJbQAJMRaH72ghJwDSsg8UEKMYhMvKCFrghJC9IISMo8mfl/1adZOsDOaJfQ4SOhxKDAJMq83SCgHCp9FIZ/nZi23VqY8AxJiTNfqqBJirI9eRt+PEnIKKCHzQAkxik28oISsCUoI0QtKyDxQQoxiEy8oIWuCEkL0ghIyDzKAqWMl9BJIaMLjB2OJMrf38djinBOWZRpIiLXcWpn8zCHmdK3OfJAQa330Mgol5BhQQubhbAk9BhLqAAUmQSwvoedAQozl1srkp20qoX4gIcb66GXUfSghp4ASMg+UEKPYxAtKyJqghBC9oITMAyXEKDbxghKyJighRC8oIfOABu5wCT0GBSZB5vYCCbmh8FkUVUKM5dbK5KdAQozpWh1VQoz10QtKyDmghMyjSZG3uoa1E+xMPBICYoliBwmxllsrk2wsIdb66AUl5BxQQuaBEmIUm3hBCVkToyU0EiXkGFBC5oESYhSbeEEJWROUEKIXlJB5kLHjnCuh9iChR6HAJMjcnhaXUGeQEGO5tTKpo00l1BckxFgfvYy8FyXkFFBC5gENHCWUKCgha4ISQvSCEjIPR0tofPsD+eMfPRBLlDkgoUVQ9KzK1M5HmMutlfyOB5nTtTrz+h5nro9eRt67lx44KKFUByVkHighRrGJF5SQNUEJIXpBCZkHSqg9FJgEUSWUDYXPokx9FiTEWG6t5D8JEmJM1+rM6wMSYqyPXkbegxJyCigh82gCG7y6/g6wOyihuqCEjAEl5BxQQuaBEmIUm3hBCVkToyU0AiXkGFBC5uFsCT18IH/cIwdiiTK7h7UlNKXTEeZya2XiE/aVEGt99IIScg4oIfMACUVRQgmCErImKCFELygh80AJMYpNvKCErAlKCNELSsg8UEKMYhMvKCFrghJC9IISMg+U0MP7Y4ky+8VjsUVZn1mWKc8cZi63ViY+foA5XaszrzdIiLE+ehlxdyU9cFBCqQ5KyDzIgwnR+jvA7miV0FiQ0FgoLolCJLQQip5VmQwSYi23ViaAhFjTtTrkY4Os9dHLcJSQY0AJmQdp4CihBEEJWROUEKIXlJB5oIQYxSZeUELWBCWE6AUlZB7OltBDIKGHoMAkiC0kxFhurUzoYGMJMdZHL8PvQgk5BZSQeaCEGMUmXlBC1gQlhOgFJWQe0MCjjpXQaJDQGCguiTLL4hKaBBJiLbdWXrKxhFjro5dhKCHHgBIyD5TQg1BgEmTWCyChAVD4LMqkp0FCjOXWykuPgYQY07U65LPrrPXRC0rIOaCEzAMlxCg28YISsiYoIUQvKCHzIO8JVdXfAXYHJVQXlJAxoIScA0rIPBwuoX0goX1QYBJj1gtHmUXQKkx6+hBzubViXwkdY66PXlBCzgElZB7OltAD+/KBWKLM7H40tgCKnlWZ9NQh5nJrhXzamjVdqzOn5zHm+uhl2H9RQk4BJWQeKCFGsYkXlJA1QQkhekEJmQdKiFFs4gUlZE1QQoheUELm0cTvi6KEEgQlZE1QQoheUELm4WwJ3QcSuh8KTIKoEuoPhc+iTOoIEmIst1ZUCTGma3VUCTHWRy/D7kQJOQWUkHk4WkIjQUKjoLgkitUllA8SYi23VsbZVEKzQUKs9dHLUJSQY0AJmQe5J3Sq/g6wO3FJ6D4oMAky83mLS+hJkBBjubUyrr1NJdQDJMRYH72ghJwDSsg09jYp8qKEEgUlZE1QQoheUEImkSFvRAndtxcKTGLUSui4Zcl/8iBzubUyrv1+5nStzuweR5nro5ehd+6hBw9KKNVBCZlEeuhex0toJBSXRJkBEpoPRc+qTAQJsZZbK2NBQqzpWh0iIdb66AUl5BxQQklnb3Z6qF+TJrHvOVtC94CE7oUCkyAzuoGE+kHhsyiqhBjLrZWxj4CEGNO1OqqEGOujlyF3oIScAkooebgzZcmbqdxIm3cTkFAUJZQgKCFrghJC9IISMhYQzzF3hlQAx8njvVqFfkGbdm1QQuyCEw8oIWuCEkL0ghIyjM1wjAzPytyRQZvzhUEJsQtOPKCErAlKCNELSkg/0OM5484IvZqdvqtLX37H72gzvnhgg5+svwPsTlwSugcKTIJYXkJPgIQYy62VsQ/bVEIvgoQY66OXIbejhJwCSkgXO0FAE7PSK26lTVdb/A6W0HCQ0AgoLoky3eISmgASYi23VuwqoVkgIdb66AUl5BxQQvEQWuXOqOjdL738Gtpk4wtKiF1w4gElZE1QQoheUEKXIEOuhLY/Oytz1/3t2omX0aaqL46W0F0gobuhwCTI9K4gob5Q+CzKhMdBQozl1srYh0BCjOlaHfLFW9b66AUl5BxQQhchQ17nTpe8/Vpta06bZ+JxtoQqQUKVUGASY3rXI8wiaBUmPH6AudxaGfvQPuZ0rU6thNjrpAeUkHNACdXhuDtDKoQ2/ni3tE3/jzZL4+L3RR0toeFQXBKFSGgeFD2r8hJIiLXcWhkDEmJN1+oQCbHWRy95t++mByVKKNVBCanv9mzJygiNdGfszKRNMTlBCbELTjyghKwJSgjRi1MlBOL5wp0Reh3adNd+6Vv/QJtgcuN4Cd0FBSZBpnexuIQ6gIQYy62VMQ/aWEKM9dFL3m0oIafgPAlJoZxMJT8rc8fttNmZF9jgJ+rvALuDEqoLSsgYUELOwTESypDXuNPlvtlt5b/T5mZ+irwooURBCVkTlBCil1SWkDtDOuDOkOfmpFc8mNe0/Ie0mTVeHC2h/6KEtIASqgUl5BxSUUIgng3Q8xmYkxHiaNOyRqCBR1k7wc74vdEhdPUazDCQEBBLlGlEQn2g8FmUlx47wFxurYx+ACTEmK7Vmdn9KHN99DL41saRELTp0vptHEkuE584VKeA25hT0F6LczKVjv3Sy6+kTcpaKfJGt7J2gp1BCdUFJWQMRkuocHDlCtoUG0yxr3oQq50jycPuPSFon5+6M+XR2ZkV3323x6rxe6K3+n3Rg6wdYVdQQnVBCRmD0RJa5N29njbFBlOcc+JqaNc767dzJHnYsScEbfIbEM8KT6bcPfdG6U+0+dgjC/NOXFHoqc6Cjf9aKggpLgnduSeWKNOeOwxF75hleelRkBBjubUy+v69zOlanZndjzDXRy9GS2hKN/kgbYqXzMK82I/9vqoufl91AbRxFFKSsZOE3BlSOCdDnupuLf+XNhd7Jy9PvGypr5r3e6qfJTf4YYcEgWPn7yCro/XBhGF3VOYPheKSKFNBQnOh6FmV8SAh1nJrZRRIiDVdqzMDJMRaH70MvsVYCbnbbou9MffQVbQ5xpViz6l/FHirHiny1QyFNv9akS+q1D8OEP3Y4nJchhwEAWW5b4j8izaL1E2Bu+aPRb5Td8PO8fq9VUvhbGzH+TvMaqCE6oISMgajJdQ//dPYkoG7S2lzTCgleYcv93tOZ/i9Nc8XeaPTgfWpOC6kWVhXQtJhEM9Cd4bySF7app/S3W94morll/NBqQf/joaP0jVGSvJiP4QzsBaF3urn/L6qKbDTyvzeqGUe9UYJ1QUlZAzJkNDIh3Z98cakAx1pkzQ0hbmn/+L3nboXjtHcIm/1Ur/X2iePVsJqEoL29qE7U87zZCgt6e5NSlqI8nV8UJkCVPGC8lGTWOx79J+sn5Kc03/2+2qgwVeTBl/i90UrWDvXDOKS0B1QYBJkameQUG8ofBZFlRBjubUy6j6QEGO6VmfG8yAhxvroJRkSIszPCm+hTTKpmd0t9j/kUnuxr7oTHKcTgQAcL4frHz+INSQEbawG2trL8PdOAzLk39DdaHj4tbt/xweULpwgv8aL4c9BQLFa5D62khArfm/VtYW+U52KvdUzzXwUXOuDCUNQQppACdWSLAlltf409trE/V1oszQ1JXnVvy32VN+uPpjkjS5Wj1Nv9BvWceUkGldC0g74c3x2pnQz3U1JCVcqZYBshoN8tnwnnm8JNStV/kF/NHVCekvQ2O/xe6t9wFKQRVIuD2jtCREJDYHikihWl9A4kBBrubUy0sYSYq2PXgYlSUL90z+JDXtgx5dFw/YsoU2zUbPEG72uKPf040W+6GjgbZDSXtZxlso0ioQypJXu1lLP3Bt3/x/dFYYn892jP+dEuQMvyAVcUD7OkI+KK6hMsX0vSEvEvJj6JB65PAColweAI6xGEQ8oobqghIwhmRLqB3hv/fTskoGRVbG82PdpE7VE/J7YL/3eqnYgo17AXDhG3/f7oqdZx16qYJaE3BnSHmCmJ0O5J69J8vY7v0a+HqSTA72edSzp1EGQz7oCKfK4t54U+Kp/B438juJc8t5SdAk09o+Bs6yGcjE0S+g2kNDtUGASxPISag8SYiy3Vkbea1MJdQMJMdZHL4P+k1wJ9Uv/WGXq89KB5RP29qXN1JLxDzz1d7+v6uFib80Qv7f6Vb83KrOORbuSdAllSOtyMuQcd7p8Pd2kxgd6Mryo3MMH5RkgoD1M4TDgAtLbjugFxZNCd/R6vyf6JDC2yFuzEs7G9rEazjm0S2g3SGg3FJjEsL6E9jOXWysj761kTtfq1EqIvU56GPSfCC0iyZUQoW/61tjwh7Z/sQh6RiumVyb1iSgjsmTAwZ8t9dWk+3013UBO0+DEcZ2dB0dOkoTIZ7IL3Blyh16tQr+gm87wNFu96/9AJj14QVpZXzBa4ESlJ0roEiGX8cgj4iClntBrIm+QS+c3IM0PJhgkoeldUEJWxO4S6pu+RaV/5pbYqA7bT8/oWSEvGay8UfLSbveK2fuvpc3YsvnuHnCVD47LYmD7+ceplTFSQtBWtgDDszKlDLppkpI0UbqJCyrjQCTb64tFK/D7O3kh9Dc6SUw88edV/arQc+qeYl/NcJBQB/q/GwyREBmeP1GG3rlbfZdm/KP7Y5OeOqh+2mF2j2OxOb2swdhH9jOXWysjQEKs6Vqd6SAh1vroZWAjSahv+uZYH8INm77F99+t30zovOPovOzQB8UjlZnLJ+9+hDZryyaPnDwOrOaKcqufgV7SBKAUTiIPsSTQ2CQqIfUz2ZnSq9BWuvhu3J20Fz5dK0O/5oPyM5wgl4BEqutLJV5AQvnYCzIxgw2SEAsy4CUZ+POlx/bHJj9zCM7Kj8bmMgqlGaCEjGHgzdaRUO8bPqJ8CHwQ653+YWz4o5+cntpzh7JokPRmyXjF+8Z0pRlt6pZNkTd6FXAbMMDvq1nk90W3AF+zxGAmeiXkzpAroH3ke9oot9JVTErUEQ0CoTwQR2V9kSREWRLvUWEuTDIlxGL4PXtiYx7eF5vwxMHYlGcPqQNssoqn0aCEjMHKEur1Le+r9LxhYyzn9o++Gd/p02Ozs3Z8VDBcmv1KfvgxMU+8jDZ/y6bIHf33Uu/pDn5vdBTwFlDJEkUyiVtC6meyQ32zbzDnM9m8IA8iT7ExRaIb+Q3sBZkcsyVUH3KfgTx5NvaRfbGJTx5UH3AgXwNlFdREQAkZg90k1LMVYQPwXqwHZcjDm85M6bEtMj9359tLx8oDX58csdZXNhl5LS92RWFuVVvoIfUE5hR5qzcCNSx5GIUmCWXI+90ZobnZGdIDZn4mu0VpiAMB7WCLRD8uUX4BJWRyBt8CEroVCoyFIG/mkxEKxrffH5vU8ZD6mYjZL7KLrFbGPgwSYsxLKyPusamEuoKEGOujl1SQUI9W76q82Gq9StatG74Z88zmz2YOKN9cMKxi3isT5CfEhZEf00PEslniOXlNobfqIRBGHrAc5FTn4aREaUhC5DPZnkwpt7E+k80Lyljje0FKeXMxcjWdReqnuVjh4gJyd/In/V+NEiIh8o0YqzP0zsrYqAdATI+BmJ4+BGf48fWWxoCEWNPVynAbS4i1PnpJRQm92Gqdygut1tbSsiw2+MH3P5/4wtY983K3ryoasytv+fTkDpppVOoPE+b3Rr9iCUYL9b8n5FY/k60U5WSGOnra7PklnaXp4UTpGk6QTzMkkhCcqExyVC+onRj5MWzIg+oGEJQoH5RL4e/D0wLSA2nirl/RH0t67CIhFsPuroyNfmhf7KXHD8Ymdzqsjg7AKsQElJAxOEVChO4tRUow1v8/686OfOqDE9P6f/zx4qE7FiybKD1VMq38cnoYWTbk8xYFOdGb9HywcwIcV+q+zpCPwp/jB7T6OGlD6cQTqJvToV4a2wsS5EjztUorOgvnhAsq/S+yQb6Ajfwh/DkP/uxNnn1PX1V5Jf01Q2NnCbEYdletmCY8eVC9jDenZ20xRgkZw8CbnCkhwvMtBUpAxffAu19MeH5T5Rzvx6VFY3YOXT45lE4PK0uHfCqdfAyQvNBee28peqa+gApzomR/b3Vn7Hw2r511Lk26yiL/hbr4GbNuJgDU4vGOvBfUSgz9ETbAe/U3CAtOUPbChnqbC8ijOTHSwbVud1M6mYSiSuiWSCyVGX73HvotHPa/a4FMY07Po7ZjetfDzPXRC0roOwl1a1laS4s1Kr1vEs4Oe3LDySl9N32yYOinS5ZO2PnsawsjV9BDzbIhn02nL773X9DnxOq5PT9bnf/EwcfoP1sqUAsXA9gLMjLQ0+nD3DCXAKT0FUhpM/y5EOjHBeVbyEtbdLKaM/iWcMpLyAhQQrUMvCmMErqIhLq2WE1ZpdKlxTuxnHvLvhjXbePeWZ4tQsHobaNemba9LT30MHEmrSzcHmrdl6x6mAiO7QWdSztRvIwXFIm1ceKFE+QzwHqyUbU+8DAQJDQIigvSMMNAQrOhqNuNaSAh1vroJRclFJeEalmp8lyLt2M92q46O/Txdacm9/lg2/y8LYVF48q7Lp/xcdI+1pYqSV+24SdQ45bXr3kJ4/Re0LmQwfKYGygBQESaBjAdeDNI6D9QYJAGGXaXTSXUBSTEWB+9oIQSk5BK2lsqndPeVOnRbuXZEZ3WH53h/qhsyehPBtJDE3NeODHyLAjD2MtwgON7QedyXUC5CjZwGWsj6QUlZCzkRc1RD+6LTehwQB2CiNzwZxV9qzH12UPM9dFLbjuUkNES6py2Iua+t/SLKf0+2FQ49tMB9NDE0KhjwwnyGladSwjsBdUNbJQXL9hICYASSj7k+zrkJdYx5Gk8kJP6/pL6Yi1bCI2B4T0hlJChEhr+zPpjcwZtWf7K5J1J/Yy1nQOyyMZekAkh7wbBRhFYG0sPKKHGgwxFNPzcO0wdyKjih0AGR2KzGkFOKCHrSajfbWu+zu/1wc7Fo7eNssPIDI2ZtODu1pwg72TVuITAXhA7XFB+nrnBdBCPhMgLiEjyIcPeDCdyenBfbPyj0HN6irzLBHLqDsLokRymQs+MtSx68aGEdEsor8PaqlnezaXL8rdb8vFnywV6KXxQng/1DHtBZsXIJ+Vg542mk20wg26OzGUVG8Q8yEugw+7eq372Ytyj+2P5IKepnY/EZr7AFks8oIQaV0I92645O777+3sWDd828405uywx4oBd0qJM6ZyMy3DYC7pEeFHpwtxw8SLI8+gkG0zuTZH+rGKDND6DbyVP5dV+k2n8Ywdi+R1BTqTn9MIxpnBYoIQaR0K+B9edmZa1ZWPRuB096KGGiSNcWeRffEDW9CJ/vGAv6BJJK1X+H2yod+pvuHiBDf0qnWSD8baLXJt7c/irgTeHocggdoDIafhde2KjH6z9km2tnA7FZnUnX7OtL6FDzGnoxdcWJXQxCXVruSY2uvP7hxcM/rTYLkP4WDVQv8ZhL6gRQwYxZW7AOCA38+jkLpmBNynDyfsfiP0Zcsfu2Mj7KmPj2u9T5TThiQPMn9MLSuhCCWXftfarqX22bCscsyOPHlKYBMKLofRkjIygIipjsBekMbygbGVuxDi4Xgz9kU7ukhnYTrnHd5MiAmdYxQdBCCih7yQ0vOPGk3Nyt7398mTpfnoYYRJMs/fk30BvZQWrniUKiO1dV5k5X31NiZCzAdaGjIuA3JdOTnOy2kV+622r3Oa9SRmQ205ZDIVnS2678Nf1ixHiTJwuoX7/KTub32OzsmTEjklvzFWuoocNxqCkiYonKZfhCEK4a5Mm2AuKK3xQnsjcmJqRN7UQwv+kk9OdgTdL/85tJz+e2zY8CoT0lq9duJK8L4I4D9+NzpTQkEffPz3L/en6kolSF3pYYAwOJ4Tb8oISYteyxOACsr9piXmfH0+ZtBT2/JsT5PdZGzUOhtHJGZa8dpErcm8Mt/W1U3r62ipzQE4b4e81rKKFpBZOklCPjLLY+C5bDiweunPxa9MijfoFZCcETpqTdRnuK/K0HZ0NJt7AjunG2rBa4YKKwpVJGXRySYunnXSNr23kQV/bcB70lJaDnCRWEUPsjRMklHvvxi9n9P90a/HYUA5t3pgkhxeTMzQPAU7kR+LDCAmGC8pvsjauVsjvkxdh6eRMSb/0yp94bgrf4G0X7uptG54KUiqD3tJn5D0TxL54U1hCo5/ZfHzh4J2vvzo5fDttxhgTwgnh+0AUe1i1K1HIwwjNSpV/0Flh9IZeK01oJAXYyXNbrd3dqG9s594o/Wlg28hd3hsjHu+NShFQTm50I/Yh1SSUffvGb6b0+rSiaJQ0bmXBsV/QpooxKeSeNR+UV7NqliGI+DCCYQEJeZkbOR4EpZgvk6+nk2z05OXFvu9rF3H52kpPQ09pPLAaxHSQVfwQawD7JyUkNOLxzdVzfTuCL09SOtLmiGmE8AF5CkgoOZfhgrK/aTk+jGBY6LhyCb87RF5i5UTpGjpZy2VAhvwbbxv5Fm8bpZ+3rbIQxLQJ+BKAIog0NnaWUL+2G2P53bftLRwemvv21H14iaaRw5dFXgQBfcOqUwawjxfwsqrhoW8Sf8XY4HGhPi0SVBaS6dFJWzruthX/8twoPea9MTzCe6O8AthNiiHSCLSxn4SGPLj58zlZOz8smRCJ+705THICvZRbeEHewapPRgDTH4UPIyQpfDA8lbXRdSMoe8k0uYDcwco9pPOT1yr0i9zWShtPG+VFTxtpFhTG9+DvUWbRRAwFtrNtJDS+87ajS/KkktenVbalTQdjgZCRXMjYlsx6ZAzvXW/A+5GYi6S5GLmiVhzMjZ84MG2Yx9V0draJp03FX303hu/33CgPAl6G3lIFq4giiWF1CeXetfnrGX13bl82LjK8BF9OtGT4gDyaT9J9IAL0gp7HhxGSHMM+93BxlqeVKn+ms7Nlet0Z+pGnrdISCudzvhuVSVA8g9428rH6RRWJD6tKaGzHbacWDpRXvz559yO0CWAsGH5t+Bk40a1i1BxjCMjz/yLi12qTn7zY92GDL7hgBxhJQJ5I55Yy8aVX/MHTJnInyMgNFHpay5+QexyIdjytrSOh7P9sPju1x65I8YjItFXT9/2J7maMRUMuw4GAjjDrjQFwgnzQtS70azo7TLKTJiptoEtbwdoZxkCeWpF709mlbKCwNstpE+oIxXWst7XyDshpf/3Ci3yHFSQ0sv22M/Nz5A2vTtzTne5GjMWjvg8kyK+za40BCErUFZSfgVnhZTgzQ0bJZu4Qg4AzizPNxQpHjZnluWXf/3ozpZtzWst9PG3k+Tlt5A+h8H5OLkMhIKBGklC/jM2x/G67DhUOjRSumH6gJd1dGBuk6aryK0FAc6GmJPE+kDIOn4ZrhFyzMvQjTlBms3aKUYCIgi6hojmdpSOTnRn+J/QCHslpowzztJZfB0GFWQXaCZgtoSH3b/tqTn/5k1fGVw6kuwNjs0ANGckn8UEE4O1mjTwajKPTQqy8Ds4CgowdYyQLyGfH6Swdn7x2hy93Z0iZnsxQdxDSdE+mtB7+PAWCiqU6sJ6mSGhCp4oTSwZH3nx9yt676WbH2DC8KPeFE+XkfCUV4ILyHl5U7qGzwzRW4EzjITjT2MfaScYhD6azwzCSc8POq6GXcC8IKReK9DIo2DvqF/BUIJkS8t2+7ZuZvRW5ZMy+iatnHPwN3bQYm4YTlY68IO9n1xNjcImKBy/DWSTJvz+kfMWVSnfS2WEukW5pm/7H00ZOc2eEnoXiPTGntRSA4n1ELeJ2x2AJjX28omaxd/fa1ycdfJZuPozNwwelO+DE9WNWLTEKLiAVtnofB521TNJW7P8pnHXMY+0sAylPC0gP0Fli4gz5dLonM3y7u7WUBYV7SU6GvBUK+Te1Rd1uJCahnLblsWndlf3FI/YuWDl9bzO6iTApED4g8VCLShn1wzgEeatr7e5MOkuMVeISws3h7GMtc6cZhvxhWplyG50lJsEMyJCv82TIj7sz5dHuDOltKPB7Lyz4VkSfhEY+GPpivnvP5uUvHciimwCTQmmxSvoTSKiIXTuMofYek9wNR0WwaNJE5REuqBxg7TzDEOSytKDcms4SY2A8bfb8Mjs91A6KfC/oKc0BOb0Pfz/NFkFjEp+EJj+nHPMP2ffqimmHbqGriknBQH0gL9En80k4kFB4Ht4Hsnh4I749dCkEaWWLshBHZ4lJYrJvkP/ubi0/lJMhDYHC/yqISWKLwUwuLaGhd4W+mdtvz67lYw+MFqcdvpyuDiYFQz41Y8Kj2OSl1ECaGLmWzhZj1fzz9Z0/5wRpIXMnGokgv0LehKazxZiUvLT9P3W3DqVnZ8jdQAhTQUpr3RnSiQtFkUwuLqEJHSPRwoH7A29MOfI4XWRMigfkMxFqQrIFFHWVKfiisl1Cbg5ygvIuc2cay2JyHZjOFtNIyWtXfnnODdJNORkhD0jiNZDEwQvFYSR1JZT7n9DZmT0q97w86uCsNTOP/J0uFsYB4UV5UPJ7QHLUJcgv4H0gm4ULSo/BDjx8wQ41npnpGyqvpLPFWCTk3SV3htwhJ1PJz8mQN0Jv6QxbKPFQd8SEwbdJZxfn7P9w5bSjeK/HgeFFxcsF5YQ/tHkp4IR6CN4Hsmk4QR7I2qmGI8gT2uEQ6pZOXrvIj7Mz5Rbu9FBfkEgxSCRyoWQaxk3/nPjEnuplIw8tFheeuIJOHuOwgHzc0AM6w6wHBsIF5BlNxXK8p2jnwI58p/6OTQZcUMmns8TYJANahZp6MqXHoMc0EqT0JvSW9tQXzzm8N8qxeX32SysmH32K/jrGoUkri/QHAVWz6oChkPvO6/f8lc4WY9fQ+0OrmDvZKAS5lBMjHegsMTZOVmaFK++/im/kfbs/G3iL8s3QOyJfznpx77tvzznyD/ojGAeHL9vdmxOVk8w6YCCcIK/nyiIZdLYYuydNlG6CnbqRtbMTAXo/ldAgh9j9S6wYDObSgWO+By8qx+rXAcMRlFBzEUdnSbmQbwORxxyZO10H0LvaiM/sYzDOiCugPFI7WgG7HhhKQH6QzhaTauEE6Sk+wRG3oSF+BT2g8eRzvXSyhoY84ECEWdvo5YGwzENgfgsZ5Kv/FpB6Ni+VbmopRn5LJ4HBYAwMXxYZAMfbUVY9MBqXGB6ET8KleGBH9wCRVNXf+ZoQFIkUfTopQ0LkwQXkDjD9mbBc2y6YZzwI8gn48x2XoHh4MZRO3uSms8FgMHGm2eqPf8YHpWEgIFN6QHDSOS19Q+VP6OwxqRxekLJYjaBBQEAtRPk6OomEQnpRqigEZStzXkahXn4MF5DPUKCQMBjt4dfu/h0vSpPhOErui6gULiiXNBcjV9PZY1I+0N2FAj2G1RhYQA9FJJe86G/rDl+q3MMH5VJySY81n6QiKHvhjG58mrjrV3RxMBgMI+S9HDhO1zCPo2QgyBEiPTp7jFNCPtkNZx8zmI3iPIwQkCso3Q/zWsaavtlAl38nL4QHcaJ0DV08DAZDwwfDN3Ci8irr2EkGUF/e5YK7ccQNp4Y8Wg1y8LMaByFRAamPhgflOaa82BYnsFwfkC/SNntPxk9JYzAQODm7HQQksI6XZECOQTgZxC82Oz2k6632Duo3EEE5qre30KI0xHEBeTx0s5P6jXlDEJQArGtnvCGKcXLSBKk9L4Y3MY+RJMAFlc1cIHQvnT3G6SEfqYOGcf5XWfe5BFnXUPzqk261T6nVaXRWh/T68DFvjBNDPtsPJ2P6npjVA36WAcMKefH0W3kEpC70f2tOq5WhX0AhHwq9qpoLGp1tkNdyAQXPzjCOCDlmoc0PhuP+M/bxkBR28IL0KF0EDKZu0kSlDTSS4fQ/NaflOuUftfd+mI3OVsB67OIDStwSxmDsFPK6BQhoPusYSBqCIrkE+Qm6CBiMMXEFw+34YHgFs9HZFegRckEl95qVoR/R1cRgUiYgn7uBUmbbTxrybldQfgZmj6MhYIxL7f0f5SN2o0sJpqStx8FZMakTaNMvAqHz2rgZ7HMFledg9iggjHEhoxBwjfHSqcmQBxZwtAWM3aOOgCAoY4EvWO08aQjKYU6Uu8MioIAwxoUPSndwQflTZqNLRQR5Ag6qiLFryDiK0IaXMtt2cjnOiQoZaxKPHYxx4QJKMxCQeUN6WAUhnEU3AQZjm5CHjThBPsBs00mEXCVxCeH2dDEwGGPSbLX8Gz4gL2E1ulQHDqqDXCDUkW4KDMbSIZeQyUDFZo2AXQfyHlBA/i9dFAzGuKjXlFmNzikI8lboBeI4VxhLxyUqt0Lv52VmG04yMN/38aN0mKQEegL94Kzqa1bDcxgrmwvSv+lmwWAsk+Zi5Ao4SXKDCBRGu006MO/V/Gr5P3RxMBjjQr506oQn4eKgmG4aDMYS4csiN/OC0hgPH6jACeoyPrCbp4uDwRgbaGSOvA90McjQRGmi9ADdPBhMoyXz3Z0/hzY5AARk9rs/3wICmsMLe/5GFwmDMTZcMPwYXoa7EC4ol6Rt2vQ/dDNhMKbHFQy1g3Z40U+xmAFXGnopbcV+/FAkJjlpKh6+HBraG/UbHnIOdRgSDMbUQNH/KS/KfaFHfsEnWEyDPAFXKg9Km40nYpgkBopsN2YDRFTIjVj8XDjGzJCBR7lgOMhqj2ZB7g9zgvQUXSQMJjlpHqj4A5ztlLEaIXI+cm+6yTCYpKVFWYSDtjYRBHCU3Q5NY7urNPw0XSwMJnnhhXA2owEi9VDfixBCeFMWk5Sce+mUjOzOan+mIigSXyZfTxcNg0leSMO3wBmXbeACEhkfC4MxLrHY99KE8NPQ+zH5kwsXoVSa5VpZ3pQuHQaT3JBPezMbInIxVtJNh8EkHDJAMB8MFzDamelwQaUSemHZ16xcid/WwpgXOPsy94uLNocT5K/SxMhNdPNhMLriEiqaQ1t6iReUw6x2ZjqCXMaVhh6mi4fBmBN16A9BPsNslEhDxP1ZdAyGpPaYk4ZY4r4PhQvKb16/fs8v6SJiMOaFE8NPsRol0jAg7vV0E2IwmuIKhJryQXkwtB3rfJuLfIQuIOX+8/WdP6eLicGYG05QJjMbJ9IgpPeIA5titIRfI18Px9lQaDfb67ejRkVQNrjWVDxOFxODaZzwAfk9ZgNFNIAjKGAuHjIQMC/II7igvIvdfhqTcIGrTGlJFxWDaZy0FCO/ZTdQRCMz6abEYL4NnJykcQF5tPqeDbvdNB6CfIITpKHpGyqvpIuLwTReyMeomA0V0QQXVIJ0U2Iw5IGDq6FN5Fv2QR9BjjQPSDfTxcVgGj/QMAdc0FCROJB3kxd96ebEODCudaFfu9SXTJViTlBOXdhGGh8uKB+Dtgo9MxzpA2OxcEJ4OqvRItppuU75B92cGAeFF0PptQ8byB+y2oWFWMmXRfDz2xhrBg4ikdFokThoXirhS6sOSdNV5VfCPn+SE+RCXpA/q98WLIUg74fje8j1YuiPdPExGOsFuunWeV/BppAhj+jmxKRoXKVKS+jxDOaCykZWG7AaIJ/X0gT5Lrr4GIx1AweVwmrEiHbSgspzdHNiUijku1F8QOoC8imFov4Va99bDfWBiFI5G+9TYmwTOMAOsRozEg9h/L5QiiRNjFzLBeTusF+LoaAfvHBfWxhBXsoF5VvoqmAw9ggvKFFmg0a0IyheujkxNoytxQPAMu/kgkr/VitDv6CrhMHYJLHY96AB17AaNqIdMu4W3aINpp0Y+TH9K6aRY8dLbfUhyw3yWfjvVdKf6GphMPYLdOGPsBo4EgcBuS/dnA0GioYIvaat5GXGtID0QFOx/HL6T5gkh5wAkKcYycjVZD/YVTzn8U6z0u0cXT0Mxr4hb1AzGjgSD4LUlW7OBgM/W3+Mvs/4YHgNGd4FxPQwJ4T/Qn8Uk2CaByr+ANvzPpDNUOjtv8Wlzr3PN6C9dKCricHYP3xQLmc0dCQeBPkJujkbDPxcwyMoCwrpla4EhrmC0v2kkNJfxVwi3Jqdv+cCyr0gnSEgnDfteG+nQQS5DI7Vbk3Fw9h7xqRW4KC1xXsPVoYrle6km7PBgGT2sn7/YkAhPVO7f8JTuYDUk7yhj5fwau/nuEqVW8llUHJPRL3EmaIfZYT9f5SsJz5yjUnZwFnjHFbjR7Sj9ZtCrN/VhSBHoPi+Bn8f7gooj5Cnu+gsUirqfRyxwsUFQh1hfcfD+r6jFmXWNkkxqFSHky+w0s2BwaRmQEI59Q8AJA4Eeb+Wp97I6MrM3zcItWgJykfkGzHqzfeA3J08/EB6T2TedDEsFXJ2T5ZNfWAAROMSFI/a6wPBgmy2AXZ/eCBuyDpzwfBc/p0dv6ObCYNJ7aQJ4fasgwHRBkh8Hd2UDYYvVe5h/b6ZqPdJ1Kfz5DdJoSOyUh9TDsidiLCIDL6FyIFCLn/R1bggtb2V735WlR6dBr1k1olwvmCILNVlYSyjUyEnEeTSIidK19BNi8E4I2rhYBwUiDZI4aCbssHwYjiL9fuIs4ETgnLoTY8gY9PRpoLBOC+1l3HYBwlyCcSwpsezodcxm/n7iCMB+aznBSkLez4YDAQOipn1DxJEC/I3fEDi6WZsMCh6RAXaAXmYBJ92w2DOS+3wJYwDBmkQLhj+gG7CBtOidM9f4edxZAqnIshRoIALKg+jfDAYRlqKkd868UmkRIGikk83YYMh3xti/T6S2kD7qAT5TOVwZGsM5tKBg6ao/kGENIwrIP+Xbr4GAz+LlzudhKBInCAPJCd3tAlgMJhLBXpCnZkHFMIEiozYToxpurQCP7+h/u8jqYb8CfR6JrjKIv9tWlL+Q7rrMRiM1pD3PeAMDr8tpBHy3gvddA2GPP3E+n3E/pB3e+DPYvIOGN7rwWAMCPSGhtY/0JAL4YLKNi6gNKObrcFwojKENQ3EnoB4TsGfy6HX84KrTP473c0YDMaIpK3adS0U2M31DzzkAnx0kzWYzHeP/hx+Fi/FpQBwXAi8oHhdZfhSKQaT1JAX6FgHIfItG5qt3vV/dHM1GHXYGvY0EDtQ+27XcDKIKt2lGAwm2eHe3fN7Xv12CeOgRGKcIPWim+qS4QQFR0mwFfInXFCeQx7S0ToyOgaDSUL4YLgb+yB1NlCgVrcs3fe/dDNdMpwot6gduFN5Bx/6sB7qoKGCIpJ9hL0dDMZCyXx358/hrHAF68B1NuFn6CaKO9cFlKvShMhdsF0Hk20LBfAAex5IsuCCytfw53uw/SfyQvhR/Jw6BmPhkKH46x/EToacMdNNY0jUTyDANla//SMoGwEcscJg1G2qfroiPJd8X4mMGE83PwaDsUPgTHEk6+B2HILyUZoo3UQ3S1JCPttNPhMO8xsOZ+yv8YIcuWA5kItSVzhST3IpVMvHBjEYjIVz/fo9v+TF8DzWQe8UoLhVckHpMbpJTE1aqfJnl6g+YfciJyqT4M+VnCAr5y+fIxGUI+ThGThJmg7/3YMPSDc3e0/+Dd1sGAwmlcKtqfgXFL63LigEzuALPhjuTTeFZULGJFO/1Ko+Th8uID0AKMonGMtvW8hDA7BeEh+US6FnuPDcV2Cxh4PBODDq/SEHfg+HXI6km8AWuSGgXNV8dYWLE6U7eTHSCfaZF3pyk7mgXAKsA1FJ8P8s8JSeXA1UwLKJsFx+kMw4PiD3JZ+aTwvKrcm9Gxx/DYPB1Am5JEUuTbGLSioizyeXI+nqp1SuF0N/5MVQOvm4GhT/Tt9CvvSpPihRC2yHmWovhKL2Sog4auXx5nf/H36O/o76SDqdHhcIdSQnMN8CcsGHAzAYjO6oxYVZsFMLKLLbyIMCdLUxGAwGY5XwgvwCnP3KrOKdCnCCXIgvLmIwGIyFkyZGHoDewrusIm5rBHkC/86O39HVxGAwGIxVQ+4p8EH5ZWYxtx+HeSGc3SQW+x5dPQwGg8FYPWTYE+g9TGUUddvABeVPXUL4abpKGAwGg7FbyBNRnA2HneEEeWeaGLmWrgYGg8Fg7Jq0MuU2+rjuF/WLveUQ1CH7c8iIBHTxMRgMBpMKSROVR0BGrzKLf2MjyGHo/YzEb8VgMBhMCid9Q+VPXEHlOZCRwJSByYB4jsGfU3gxkk4XEYPBYDCpnnaieBkZ0bh2DDC2IJKJOv5YUH4Z7/tgMBiMg3PNytCP+NLQPZygjgRdXl8WRsIF5dMgnhWcGO7FlUX+RRcBg8FgMJgmTcjnsflg+A7oIeWSe0cgpoTGowPpfA09nvdBOtPgz2f5Mvl6OisMBoPBYC4dcrksLSA9oA6gST5KRgbGPDdQ5vkEldfUfwsq49Vx7MRQenMxcgWdDAaDwWAwGAwGg8FgMBgMBoPBYDAYDAaDwWAwGAwGg8FgMBgMBoNphDRp8v8B9dFKPXE4NHIAAAAASUVORK5CYII=;" vertex="1" parent="1">
                    <mxGeometry x="20" y="163" width="77" height="77" as="geometry"/>
                </mxCell>
                <mxCell id="10" value="Azure OpenAI&#10;" style="shape=image;verticalLabelPosition=bottom;labelBackgroundColor=default;verticalAlign=top;aspect=fixed;imageAspect=0;image=data:image/png,iVBORw0KGgoAAAANSUhEUgAAASgAAAEsCAMAAABHSN49AAAC/VBMVEVHcEwAAAAAAAAAAAAAAAAAAAAAAAAAAAAAAAAAAAAAAAAAAAAAAAAAAAAAAAAAAAAAAAAAAAAAAAAAAAAAAAAAAAAAAAAAAAAAAAAAAAAAAAAAAAAAAAAAAAAAAAAAAAAAAAAAAAAAAAAAAAAAAAAAAAAAAAAAAAAAAAAAAAAAAAAAAAAAAAAAAAAAAAAAAAAAAAAAAAAAAAAAAAAAAAAAAAAAAAAAAAAAAAAAAAAAAAAAAAAAAAAAAAAAAAAAAAAAAAAAAAAAAAAAAAAAAAAAAAAAAAAAAAAAAAAAAAAAAAAAAAAAAAAAAAAAAAAAAAAAAAAAAAAAAAAAAAAAAAAAAAAAAAAAAAAAAAAAAAAAAAAAAAAAAAAAAAAAAAAAAAAAAAAAAAAAAAAAAAAAAAAAAAAAAAAAAAAAAAAAAAAAAAAAAAAAAAAAAAAAAAAAAAAAAAAAAAAAAAAAAAAAAAAAAAAAAAAAAAAAAAAAAAAAAAAAAAAAAAAAAAAAAAAAAAAAAAAAAAAAAAAAAAAAAAAAAAAAAAAAAAAAAAAAAAAAAAAAAAAAAAAAAAAAAAAAAAAAAAAAAAAAAAAAAAAAAAAAAAAAAAAAAAAAAAAAAAAAAAAAAAAAAAAAAAAAAAAAAAAAAAAAAAAAAAAAAAAAAAAAAAAAAAAAAAAAAAAAAAAAAAAAAAAAAAAAAAAAAAAAAAAAAAAAAAAAAAAAAAAAAAAAAAAAAAAAAAAAAAAAAAAAAAAAAAAAAAAAAAAAAAAAAAAAAAAAAAAAAAAAAAAAAAAAAAAAAAAAAAAAAAAAAAAAAAAAAAAAAAAAAAAAAAAAAAAAAAAAAAAAAAAAAAAAAAAAAAAAAAAAAAAAAAAAAAAAAAAAAAAAAAAAAAAAAAAAAAAAAAAAAAAAAAAAAAAAAAAAAAAAAAAAAAAAAAAAAAAAAAAAAAAAAAAAAAAAAAAAAAAAAAAAAAAAAAAAAAAAAAAAAAAAAAAAAAAAAAAAAAAAAAAAAAAAAAAAAAAAAAAwPeu4AAAA/3RSTlMADRs2TWNyiJafuri1mX9uW0cvFQgHIoGkx+n5//bcmHA9Aythns3rv5FPHgpBjMr6uzEFQNf7yHgmfNH0EKXx3YQnAlK5nVbE9zBGvfWTICijeQ4Je+9LPByF3sWU7DJavoc02KgLSMAYV/j85sOiimpUQzl1kKzO8M9plWYTAT79rQTBLSoMJCxCU2BiRCUaVeTyN17V5+qqc5Lo2u5nNWsf1qYSLmy2sF+JZA+L4o+yRbEjGUp3F3rQ01BloTizzB2rM0yA4H23cWiO1O2nm7Rvg1yu31i8FBZ2IVE/xtsp44bSO5p+wssGdKBdydnhOq+XbVnlEamN805JnIIq7cN5AAAbSElEQVR4AezQA2JkUQAEwI5tJx3btm3btm2ba/Oma2M8wftTRyjcGD19A0MjYxNTM3MLC3NLK1NrG1s7ewdH6Pzg5Gzo4urm7sG/eXqZe/v46kPHzz8gMMiTsgWHhIaFQ8IiIqOiY6iY4FjjOEhSfEJoIpWSlJziD6lJTUunCjIsbTMhIQlZ2VRVTm4epCG/oJBqyS6KgwQUl1BtpYFlEFx5BTWisqoaAquppca419VDUA2NTdSk9GYIqSWZmhbYCuFEtMVQ89oLIBj7DmpHZz1EEtBFbQnqhjAcq6hFXT0QRGsvtasPQugfoLYNDuHuGw6m9o2M4q4bG6diJianpmdm5+bLUj9bKO9ZXFpeWaWC1lJxt60nUQGVKxub3Vvb+JPT6I7xtNcuFZBTg7vMhvJ17W3W7OP/IloaDyopV/tdnjKiPJ6WAa2Q7zBtTf7UEb45Hj05nT87D7i4PI+8sr93Xw+33INSyvZwpgwK8rtyfUTZEvXR+viJyeDI02ce/CnpeeLBixmjlmrcVvPjlGng5SiUUfPqNWV60+HO/3ubPP3ufQNun4/t3XdAltX///EX2tSvDYGGvLCPuBUTQ3HhRDNSXBhFjjLMiXtiJRIpmnvjnrj3VtxWVCaa5cyWe4u5zT6/1e4657rOue/rvm6x3+Pv5lOB2zPeJ28qzTSdGQ1dsyaPoXtmzylUE/cW39k0EfN0Glwx9226K6HMvHupVfJ8mlgwAK4qUZluGzN/YT/cIxZRruNiuGHJUtpg2fI43AtGUW7FILhnZSvaIGxVm0R42+pUyoQ0htvWTKQtOg3xcqrE2pTpuBZ2mBRJW7RcCW9aR5kiBWGHWb0iaZO3C8Jr5kZRIvd62CBlQwvaZ8zDafCOiJaU6O0DG4zaSHulb4JXbKbEliC4b+t82q/wejjPtyPFtiXDbbHNA+gJU1+F4yZTrOUSuMvv8dH0kKQaQXDW3EgKpfvCXQ9spwf9zw44aiKFpgyEm+bupGflLwUHfRRAkfiP4Z52S8PpaYHD4Jy3KfQJ3BL0Tgad8Km3f0N9FgR3rPyAGiKnFNn26POvf/7OzF3rXv+iUe3dmWFU1RwO6UyRFiPghoJ7qCqk+oLH2g9ekoy/8vfNWej1eh2pZG8onDAonCLT4boqT2dSTb4v9+X0h0yV4ZU+GENrC5rAAV9RJFciXBUxdCqVxLz/dSysDNxXLIxW9ifC46IzKBA+GK7q35JK0iuMgJqPlh6ghb2eL3WQIs/DRavzhFDFofZNoO7wvMo01wueto0CHY/AJT6vZFJFmbXQ1OTBvjT1DTzraBQFesIldTZSRflv4QL/XU1p5gkvHMk4UAUu6PEZVXR8PBmuWVM8nnJjxsJjfF7e1YoClaBvR/MOVNChfkm47rvvKffDGnjEj7vmlKNQi3bQ1WTfMarYFge3BB+Pp9QK2C4x7pNmAZR5BLo29aWKE3XgtrXVKVUB9hpcqQ9NJM2Anrm9qWLCNz6wQWxuynQ4Cfv4dVsVTlPNEqGj3fIoKog/VRL2CK1Pmd3RsEm7z0/QyuN6iykHqKJeWUf2ICfblOn0MVoKHwR1T56hinJPwFaF4ikW1h/uS6t0jAoOQdmPe6gi5pM02GycrNRZf7jpXNepVHJefTElhgriL9SE/S7GK/3n66t7iWri41QXU36gig8+hEcspFhqSbhhzXPxVHQ5GCq+a0kVTXclw0O+odheuK79ASqbCAWD8iiFH3O8HzynOYVCPoKLfPdSwyRYWvJpJlXszAtPCq1t759kvttNHWVh5eAJqnh2LTxsTRZFkgrAFQ9FUse0ozDXYz5VZM08B49bGUaRbdDX5EXqGR8KM7HvBlBB4OQccMJxiiRdga5ZbampNkwkPn6MKn56A844V4Qie6Ap7jJ1XYVc64mqiymOORlGgcia0NK9qK07+aErqKDjQ629f7JrEXSMSqC+9yD1Ka2FXC0JbUGhEXCV7wQKHFsCdQcD6IJukGkwhpbKnISu1ZP2j884sXPeUbjmGkWe0L9BrakuZGrQyu7r0LXm+Wn8VYu3DsMVTS679wlhZSStdCocRoPvIJHYh+amPbYEmkK7ZvBPUwslwgW7KFCtAdScjKG58M7D8YLOB/McmTQT/+II6HqgPP+ubSnoC25Fgf9AScPRNBVTfDCA73RCvRxJE8U+hK6Bc0QL67Ns2sOtBxVpfWgmsvkIQDdU3kBK5X8wCJqOvJVAkXzfpEBT2g0aJRyFtYgFapuQNoVKqHETmhKHVadMnxLQVJ8CF2HtLZoodx2wNdStAdD1YUua2fkGtMQF0KgRLHWjiau+sDVUpzbQVbMzLQR28YWOZ11aqW2Qj1LLhgB2hsrqGgRN0UqrfvmHRUDdPhqFvQxzEbkolfso7AwVdTsHNCVe3E01Z4ZDWcMONHrH5V1U9joHO0PtfwG6TtamsvgXn4Kq8jS6AFN571AibCZgY6jKtaCrwSMdqCO1QjTU1KDRs0EwEXSGEuG1YGOoaeeDoan1uqLUdaIblNSl0bSRMNGVEkVLwc5Q+6FrSF+64qc4KLiZSqOTkBuZj2KpJ2FrqInQk3MBXRR5ez2stdRbWkMeit35DvaG6g0dOYp3oOvyL46Alef1ljlzBlAoYBO8GMpvXgbd81JdWBhKo7ch9RnF3oMXQ/28nTLhb3W/QCWPDoKpKzQ6EwGJuxR7GN4LNeAWJX77IFa3E1WkVvKBiRx3aFCuNSTaUmgbvBbqyMN3KLNxCP6f5HeaUkX6QcgFl6NBiyN6v6GarvdWqIj35AlGf94Ev/NVvHu8IA4yicVoEHIUYsUokvQkvBSqezHKhF2dhb/6aD9VBPQaqXPRfgaECiRRZBG8E6rgHErN74F/+vgSVWTtClL/YHRF5655ZT+vhKryWCZl0ttDwP+hCVTxbBvlD1KbIDIiiiIfwhuhxrWiTKZ0V6vk5EiqaFQRRhuUN3OfpsgpeCFU/zKUif9lNeTGfkkVRSsZW79CoyEQaDKVAq2qOB/q6NUQ148IPzGbKmYfdDnUqxR5Ak6Hiq7UgjJTH4yAlZR1U6jiyxkuhnqUAn3POR2q20bKVPvqJlSsfpQqAurHWn2PGgWjI1Mkv6EcDdXjfyg1MS9Ula1HFcfmBZn/1HsVRrUoUM7P0VA7TBZTmtWFjqGXqaL8XfzuFI16qH7lnYeDofyuHaPU09DU73g1qnhmIH51iwZJL8OgdX7J1WDHQtXqQxN9xyVDU8M5VJH5SRUAQD0aBOyAwWtJNHoRjoUa0JsWin0HXWu/p4rLFyWrBxMOq30u5UqnQq354g4thZ1arX/O7ABV5M6J6DE0SPdTmxuS38+ZUEHvHaCS1HUp0HTkdiAVBCzaFKJ0Q/PmDRpNhiOhnuxEZX1rQVfcKqoISFLaKt5KgeFOhBpclVq2zYCuWtvpmqfVTnOMjvZ8qCWPTaOmwC+OQFNwz3x0RXsY7KXR+/B0qMRhlymTL4MyGV1DoamBS0N0X4bBGRqd93SoAmUok/RoycMPh1Om2ZP2H4Mx6ngY/9RkNI1e82ioqrF7TRZTugPAG/vlIWUX1/UXYORawmBWGA0yj3g01LJllLk8LBG/KnFJfSnB/tHxk2HwGo06JXoylFzCf9Pwh9CZxygz+7qHH+F+U+2dkgvwSqg9c/E3sZMDKFO7AHR92JaqAmvCYCaNKjkbSn6YIm4BZUKax0JTxOLqVNM3GQYP0+i686GWzTsHkVF9KTP6oSbQtH5RNaqYDKOqNCrgdKg7D7eDROueHSnTZxN0/TiHCh6AUW4aJFV0ONT7L8PESJNJgRMHQNcDZ2ll9GEYFaHBtB2Ohjq7CRZOzqdM+KIj0HTu8SyaexsC1WmQddjBUKP/EwprddJNbmdB10iL044HBsNoKg3Sgx0LFaI6WTN6Q1HK1OsOXWNX0czsdjBoSoPdrZ0KtWIslK3+JYwyj1aErlonaKKMH/4pyXuhNg6Bliu5KFO0cWtourk0hHL18U8TvBVqSuNo6Bp3mTK7D0JX9z6UG4p/uOyd71FhV0vCBVU+nUaZbR9Bk08eSlWbi7/LT4MMz//Uc32yZsPOlIlcHgtNi6tRZrs//mY2DVrk8HCo2W/CDcPbUmb04+eg50p+yizF3xyiQcgIz4b6fgnc8wilmrWBngblKRFWCn/1Po2ueDbUHrhpHk3cKggtN3NRIt0Hf1GcRnXg6TVz90yimYRPlkBH8NuUqIG/OE+jntk6FHm5UAQ0hO6kWORc/OkijfJk81Bkrtegockhis3Hn4bTqEy2D8WQPEehrt92in2LPzSkUccq2T4UmdozGMpWL6NQn3P43ZIEGs3IhqGMipSAsrKBVn+SiehDo67ZKFRYrkzKLHgDqmZSaLc/freHRp2zUaikKwN3UiZ86REoeoZChfC70zSq3iT7hGJdoMR2ylRXnfV9Mz9F0kPxm7UUuJKNQj1psVfTaSWUrIw3/8FXshqN/pvNQgGxjwTo3b42es78GYnk8jTqGwELZXX2A+d6PhRwpQxlpp2+CWv9sigQNsNsWHx8Tljor/M7qn+SA6GA6+mU2d0e1gpR5F38ZhMFvoCFgXdoUPpDiD1JR0KhyulplPmfK7AS9CwFOqbhV7HTaJTlA3PBB4SHvFZDpK5DoYAfOydRImBpKCw8aX4f7zOXBgduoUhqYx+vhgLKtqXMZ9GwkIsCC8zOBbMTLBSgWLk3vRsKQdObUmJnIsytNB2JWzGcRknDYaEzJT7r4dVQQL+3qlFsMSy8RIFxptMhyrg+AjbgagNHQxnN3UmhH3xg7gmanSafTpHusFCyGWWmfNPa0VBGJc5SpBvMpWTQ6EY//CpHDAXaRsBCismYmT5DvBsK54SXJd+FhUUUaGN27I5sD0t5b1FqW05HQxk9QKO2sPBCAI2O4zelKDI1GtZe/Z4ygb3aeTXUSRpdgpVnzc7nR5SmyFtQ4LfvBmWy9jXxYqiyNHoWVhrTKHM9fvMgRSLjoGLk7SjKbP85u4V6IZ5GpfAbn/wUOXsOSuK2UWrPgOwVKvSE6av05ynUBYpG9aFM1O2bObNRKDSn0Rb8zrcjhWpBkf/5jpQZ/2JYNgr1hPnf9hCFWtSEqqN5wiiTlI1CjQihQb7W+J1PUwptT4OyK/Mpl21C+Y+nQdII/GEYxVYkQ93XrbJ/KOw3H84WUZ5ieaDh5qep2T7UcYt7VKXibXlj/KnCSdk8VCEa7cNfnKItpdD9TPYO1d9qD8E3ixK9dJ+4mUoTt+Cmxz0balCI1QvM1ynzqB+0HH79DqVyw02vezbUmnyWy5iNKFN7DfTMnUOZ+Hql4IajpwI9Gyq6FQ3S8Tf9qlOm1RVoevJ7kzFHR+Gi1j0nkJ4N5V+EBtXxd8PjKVPtPWjyn7eMMvk2LIGR+sU9T4ZCPRpMNU7dkus8EprWPx9OmfEHoe2FBaQDoVrSIMNkZLVRRnvo+mgBpb7MCS07igfSW6HC8E9V+tLEMzWha8h2Km9rmfE3bhY4GCoLBhVv0MS0SinQ5G+yVtxxUhOoebU86VSoQzSYCqNSqTRz4jp0NTAZldxnFBTk7U06EEp+Yqy6fIlPLlcP6Bo7n25cSEyrUY0Ohmq9mwbjFfbfjTq8uwO63txNmagv2sFE0PT8pJOhDi+jQS4YFQykpQk9U6Ap+pVUk2c5/CAz/APS2VBHBQF2wmgeVfQdAl1H98ZTpvTHEKpZmHQ61AzFE4jv6z/KpqpUW0rtfAEGN/+bQOdDtafR5zCokkVFAZNjoetiK8pELm2Hv3tiN+mFUK+ojSjrQXVZXZOh6fDrCZSpPj0If3qtDOmVUI3UHjS5Rh2XfoauglUp9exd/Oboc2GUifFoqKDSNBoBg6pU5+Lj1XXPUGpOQQBI6TmFMhlfV/BoqJF3aJCagn8614eaqj3sC03JXTMok1AjDaPSKVPt+BHs82ioV9X+ttgYamu6ORSafE0O683+jFK9B3h8c+G42uPqJ+mKtmVdX1vSULoE4PFQLWm0DgaL6ZKkRgWha1Npasl6PBSeD1XyjtoPvYfpopjT0dDk/59jVBZQPAfgQKjFiu87V6VBUu8TVDF+HHTtaN6Ban6aATgSahuNiiWqfYW+cfOLcKoo0x+6ZqyigspDAGdCxVZTe5DR7wQNOjQAXv6JKkLylISug+NpYUpjHzgVaqbih/9+N2iQtQQAvu1LFVMaL4Gm6G/yx1Mu4JEdgGOhvqfRFF8YjAykQelkAECw4rfeE92gq84YhTErjoQqkKT4ssKPYTT4DL+JrR9AFSu2QsfI29Mok34dcDLUHAoMhdEV86An51NFmMYCTOKuLMq0+DQajoZqGEWjzBwwGkujvfiLUSeoYtnjoVBy9yVKNWoIOBtqLwVWqd4feQR/tcTw/qTyrGSjgc9Qql5ZwOFQDQMp8DUEhtDoquGcdAhV7J8Lc2lPx1Cm6YOJcDxUVQp07AeBn+Wh5G/kyhdg2pmey8tPmZinDwOOhzoZT4H6ENmqdhkwsVArqsh4LxkSBUxi7ykIOB8q8QMKxMcph9oCgSWfTKOKM8Mhstpk6+r7u4A3Qu2iyCEoh1oAocF7qKSq8bdH63VFKdN0ZhC8EuqpohQZon4RpB4kuhejioSvquBv6vSlTKRhe92xUF9SZGMyhEZG0WCjPyQSNx+ginILE9UePd/5BuClUJ/rTUpIO0aDCWlmL62MoQnje6ftvgikzNmfAW+FuhJJkXJNIOa/kQZhDWFi7k6qCDh1VHJs7nc3JgXDa6HaXabQgzqnzbgWpn4+SxVFG4+8W54yHYqPBLwW6lxt2RxOrSE+n1uek86gigmU+mwr4MVQeyn2M6SeptEvsLKmeADdsLEb4M1Qb1HsS8iNo9GlRI2XVvTlq5ACLQ/ZHGoSxcIHQG4rjcbEQkGtynRF2C+rvXy76iFKHIeJkZk02gQVPutSqS13AeiaUdrWUI0pUS4FJiKa0WgR1My62oFapi6ErnZLw2ljqIgvKJFUF6Yu0KhIIhSdzE11LT69CU3nro0mbQy1ZCdlJsPcOzQKGABlX++momcqQteTzUg7Qw28RJmNKTD3RjyNGkNd61daUMGZupCTr1fYGqp9PspE5YSF6Pw0etbup25/eC8RmnyPV6OtoW42p9w1WKpKo4A4aCl7iGbCHz4CTRGFfiBtDXU3nXKFYW0oBepDT8SD+U0nJela2Ym0NVTsczTxUjCsVYyi0Y00aPKtkUCh8muha/WjSbQ1VMpDx2iiaQMoSGxLga7QVnAPjZbt84Omm48VpYk22qFaTx9PM9W2QklPClQOhb5XL/Hvop5fD11PlKOZ+JM6ob4HfGem01SHV2GkvAHPN+GC0F1N+RcrZkDXa7lprugRrVADFh2juYD2UNWSAn384Yr1z/+R/VIJ6HrqVBIt5NZ67SAyilbegbLNFHkPrpl7/NKEzMysiddDocn/mym0dB0yT9IVj0Pd4XwUaFoFruo3a0draOvWh9a+l+evQ30hF6HjKkWOw0lxK6gg4QVIdaW2aqOgJS6MAoEvwDGxvaKoIOZjyL1OXaO/g6bclMyjdobfvglUUTonTDxDTWcbQtddCvWEIz6+RBVZ8/xg5lnq2dkP+l6iSPgMeF7eW1TRoX4sTFU5QC2n4Yo6FEqvAg/z7RJOFV/2gIXBgdQwdS1cEnSGQnvgUcmbf7BtI7AONezJARfVpdgGeNDd76mi6CvRsHabyjouhOtWUSj+a3hKzc5UEfLcUajoRFUvloQb8nagUGAbeMTNGjFUceg7KNkRQzVFPoZ7llIsYSs8YGErqih3MRFqvqWSjHl+cFPaAYrdmAG7FThEFZkar3//QgWpp33hvvaUmLASthpROIkq5gyEMp+mtHSsxlOwxX5KjBkC+7SukEoVxT6Ehja0cmJSO9ikZD5KhFyDXa6foIqMXUHQ8QtNha8a5Qf7tKdUfT/YYeuXVDGmy3po8U2lXNL2VwbDXnko1bIi9BkvqXto/ss7lIls9klcIuzm04dS+b6Ge4InTaGK7SWgK7EIhcrN2VwTHjE4hnJzZsEND2ynimPXzkHbWgqMHjbABx7TniaOLYarPtqvuJiyAy74gALL4VGf0kzLlXBFji+iqGJFTrjiLkW+g2ftpamdcdCV1vMYVWwcAtd8QIHK5+BZ/itoKnJiWeiIrdCUKlI3pMA1QyjyKTwt+iVaqLcwDYq2Np+iOLxkFlwUPJsCUTXhcb7NaOXA5O7+sFTx2pkkKjnU3+7vqr3hgCMv0Vq54rXaQS507KTcCVQzfmEiXDZXfoLR+d9TEqnFjh8cKBgwuL7741umhlDRNPWRXeqr/aWT4QjfMlQUeKxt4eP7rv/8WtyMGXFtai1+ZfL+EzHUUHUg3FGJQl/DIcG3qCnp/6C2tqXglrIdKNKqCZyS2IWelzE9GW5pl59C78BBm6NoM8EwUvcE5aZQejCcVOoHetKtAXBXc4q1h7Nif6LHnC0Bt22gWKcIOK1nFD3i2LxQuG0XxcJeg/O2dqL9AurvgPsuhlBsL7zB/3QgbbZiBmwwNIRiN9bAO/Kuop36DoEdzlNmKLzmejrtUr1CCuywiDI/wYuiKxygLUKGwQ5L5lBmwix41eHGTWmHafPgvgGXKFUH3tbvfDnaofMRuKlQJqWW4x6QMq4ebTC7LtwR24hynfxxb+hf/xjdV9wXLnuzKeVGH8U9I21Uo9F019RCEXBJ3CqaCKiLe8qRb6+eiKd72j4JfbNuh9PMO7jnhH70YKOzY2hmTDWaml8Xep7qkkpTNXBvCho0fFLhXLOn8Z+qtSrTufHdQT2K0lyu9ilQFvdIJs2dwj0tJXbwyutdK1Wqf/Xq1XdPV5r5RJu8s6Lx/1xpQQuXa+SFCt+FtQNoYQuyr7tRtBJ46D8DgmCqXZ3CHWlpgR+ysU13aC3y7O1RO/wgdLhAhVUtqGBnMLK1UqlUEl656lcHtz7lG4xf+VUpOffVSVfb5qOaUxHI5k5mUV3kshOdytSrV+9Qsb4/JFDD84nI9n7cSI87j/uB75f0rMz2uD8kF6cn7Y7DfaNQJj2m6mHcR/KWp2eE78P9JeU2PeH7ONx37paj3SKfDsZ9qN/zkbRVy7G4T/XIRfsc6BqK+1bixRO0R+br/XBfC545m+4LP/Uj7ns+82bTPTF55uJfwWdoJ7oua9Eg/HsM35JKVwTUW9wP/y6z5rXsQE27v/oI/0Z5J+VKoKqwS136++Nfa/XBPKU70FKrt2cOTsS/XOigbx/ePzucYgEHahd/cEA0fvX/hR5++YFdnzSqnT41hv9X1NTZ9eY8fK3b1hxN4B3/G75qNnu+AKpoAAAAAElFTkSuQmCC;" vertex="1" parent="1">
                    <mxGeometry x="140" y="171.76999999999998" width="58.94" height="59.73" as="geometry"/>
                </mxCell>
                <mxCell id="15" value="Container registry" style="shape=image;verticalLabelPosition=bottom;labelBackgroundColor=default;verticalAlign=top;aspect=fixed;imageAspect=0;image=data:image/svg+xml,PHN2ZyB4bWxucz0iaHR0cDovL3d3dy53My5vcmcvMjAwMC9zdmciIHZpZXdCb3g9IjAgMCAxOCAxOCIgaGVpZ2h0PSIxOCIgd2lkdGg9IjE4IiBpZD0iZTlmN2JhNzMtNTZiOC00ODY0LTk2ZmYtZGNlODBiZWY3MjlhIj48ZGVmcz48bGluZWFyR3JhZGllbnQgZ3JhZGllbnRVbml0cz0idXNlclNwYWNlT25Vc2UiIHkyPSIxNi43MzkiIHgyPSI4LjYzNyIgeTE9Ii0xLjk5MSIgeDE9IjguNjM3IiBpZD0iYmRmMjdkYzYtMDI1Yy00ODA1LThiZmQtM2EwNWRlZmQzZmJkIj48c3RvcCBzdG9wLWNvbG9yPSIjNWVhMGVmIiBvZmZzZXQ9IjAiLz48c3RvcCBzdG9wLWNvbG9yPSIjMDA3OGQ0IiBvZmZzZXQ9IjEiLz48L2xpbmVhckdyYWRpZW50PjxsaW5lYXJHcmFkaWVudCBncmFkaWVudFVuaXRzPSJ1c2VyU3BhY2VPblVzZSIgZ3JhZGllbnRUcmFuc2Zvcm09Im1hdHJpeCgxLCAwLCAwLCAtMSwgMCwgMjApIiB5Mj0iNi4xNDEiIHgyPSIxMi45NiIgeTE9IjguNTYxIiB4MT0iMTIuOTYiIGlkPSJmY2Q2YzZjNy1lMmViLTRhMzItYjkxNC0zYTg0ODU1ODVhMWIiPjxzdG9wIHN0b3AtY29sb3I9IiMzMzMxMzIiIG9mZnNldD0iMCIvPjxzdG9wIHN0b3AtY29sb3I9IiM1YjVhNWMiIG9mZnNldD0iMSIvPjwvbGluZWFyR3JhZGllbnQ+PC9kZWZzPjxwYXRoIGZpbGw9InVybCgjYmRmMjdkYzYtMDI1Yy00ODA1LThiZmQtM2EwNWRlZmQzZmJkKSIgZD0iTTcuNDMsOC4xNzhsMi41ODktMS41NzMsNy4yNTUsMi43MzFBMy42NjQsMy42NjQsMCwwLDAsMTYuMjMsNy40OWwtLjAxLS4wNUE0LjE5NCw0LjE5NCwwLDAsMCwxNCw2LjMyYTQuOTEsNC45MSwwLDAsMC01LjEtNC43QTUuMDcxLDUuMDcxLDAsMCwwLDQuMDYsNC45MSw0LjYyMSw0LjYyMSwwLDAsMCwwLDkuMzlhNC43Myw0LjczLDAsMCwwLDQuODksNC41NEg3LjQzWiIvPjxwb2x5Z29uIGZpbGw9IiM3Njc2NzYiIHBvaW50cz0iMTAuMDcgNy4xNTkgMTAuMDggMTEuNDM5IDE3Ljk5IDEzLjExOSAxNy45OSAxMC4xMzkgMTAuMDcgNy4xNTkiLz48cG9seWxpbmUgZmlsbD0iIzk5OSIgcG9pbnRzPSIxMC4wNyA3LjE1OSA3LjkzIDguNDU5IDcuOTMgMTIuNDM5IDEwLjA4IDExLjQzOSIvPjxwb2x5Z29uIGZpbGw9IiNhM2EzYTMiIHBvaW50cz0iMTMuNjggMTEuNDk5IDE0LjQgMTEuNjk5IDE0LjQgOS4zNjkgMTMuNjggOS4xMTkgMTMuNjggMTEuNDk5Ii8+PHBvbHlnb24gZmlsbD0iI2EzYTNhMyIgcG9pbnRzPSIxMi45NiA4Ljg4OSAxMi4yNCA4LjYyOSAxMi4yNCAxMS4xMTkgMTIuOTYgMTEuMzE5IDEyLjk2IDguODg5Ii8+PHBvbHlnb24gZmlsbD0iI2EzYTNhMyIgcG9pbnRzPSIxNS4xMiAxMS44ODkgMTUuODIgMTIuMDc5IDE1Ljg0IDkuODU5IDE1LjEyIDkuNjE5IDE1LjEyIDExLjg4OSIvPjxwb2x5Z29uIGZpbGw9IiNhM2EzYTMiIHBvaW50cz0iMTAuODEgMTAuNzQ5IDExLjUzIDEwLjkyOSAxMS41MyA4LjM5OSAxMC44MSA4LjE1OSAxMC44MSAxMC43NDkiLz48cG9seWdvbiBmaWxsPSIjYTNhM2EzIiBwb2ludHM9IjE3LjI3IDEwLjM0OSAxNi41NSAxMC4wOTkgMTYuNTUgMTIuMjY5IDE3LjI3IDEyLjQ2OSAxNy4yNyAxMC4zNDkiLz48cGF0aCBmaWxsPSIjYjNiM2IzIiBkPSJNOC42NiwxMS4zNjlsLS4zNi4yMVY4Ljc0OWwuMzYtLjE5Wm0uNzEtMy4yMkw5LDguMzg5djIuNzVsLjM3LS4yWiIgaWQ9ImVmMGQxYjU0LWExZTctNGNiOS1hNGU1LThhODUxOGU3YzEyNyIvPjxwb2x5Z29uIGZpbGw9InVybCgjZmNkNmM2YzctZTJlYi00YTMyLWI5MTQtM2E4NDg1NTg1YTFiKSIgcG9pbnRzPSIxNy45OSAxMy4xMTkgMTUuODMgMTMuODU5IDcuOTMgMTIuNDM5IDEwLjA4IDExLjQzOSAxNy45OSAxMy4xMTkiLz48cG9seWdvbiBmaWxsPSIjNzY3Njc2IiBwb2ludHM9IjE3Ljk5IDE2LjE2OSAxMC4wNCAxNy42NzkgMTAuMDggMTIuMDg5IDE3Ljk5IDEzLjU1OSAxNy45OSAxNi4xNjkiLz48cG9seWdvbiBmaWxsPSIjYTNhM2EzIiBwb2ludHM9IjEwLjgxIDE2Ljc1OSAxMC44MSAxMy4yMDkgMTEuNTMgMTMuMjk5IDExLjUzIDE2LjYzOSAxMC44MSAxNi43NTkiLz48cG9seWdvbiBmaWxsPSIjYTNhM2EzIiBwb2ludHM9IjEyLjk2IDE2LjM5OSAxMi4yNCAxNi41MjkgMTIuMjQgMTMuMzg5IDEyLjk2IDEzLjQ5OSAxMi45NiAxNi4zOTkgMTIuOTYgMTYuMzk5Ii8+PHBvbHlnb24gZmlsbD0iI2EzYTNhMyIgcG9pbnRzPSIxMy42OCAxNi4yODkgMTMuNjggMTMuNTY5IDE0LjQgMTMuNjU5IDE0LjQgMTYuMTU5IDEzLjY4IDE2LjI4OSIvPjxwb2x5Z29uIGZpbGw9IiNhM2EzYTMiIHBvaW50cz0iMTUuODMgMTUuOTA5IDE1LjEyIDE2LjAzOSAxNS4xMiAxMy43NDkgMTUuODMgMTMuODU5IDE1LjgzIDE1LjkwOSIvPjxwb2x5Z29uIGZpbGw9IiNhM2EzYTMiIHBvaW50cz0iMTcuMjkgMTUuNjc5IDE2LjU1IDE1LjgwOSAxNi41NSAxMy45MjkgMTcuMjQgMTQuMDE5IDE3LjI5IDE1LjY3OSIvPjxwYXRoIGZpbGw9IiM5OTkiIGQ9Ik03LjkzLDE2LjR2LTMuMjZsMi4xNi0xdjUuNloiIGlkPSJiOWYyNWViNC00Yzg4LTQ1YzItYmM0ZC1mOTkyNzU3ZDdlMGUiLz48cGF0aCBmaWxsPSIjYjNiM2IzIiBkPSJNOC42MSwxNi4zODlsLS4zMi0uMTZ2LTIuNzZsLjMyLS4xNVptLjc3LTMuNDUtLjM4LjE5djMuNDhsLjM3LjE5di0zLjg2WiIgaWQ9ImViOTIwMGE3LTQ2OTMtNDQyNy1iZGFlLWIzM2NlOTBmZjdmMiIvPjwvc3ZnPg==;" vertex="1" parent="1">
                    <mxGeometry x="-490" y="-110" width="70" height="70" as="geometry"/>
                </mxCell>
                <mxCell id="22" style="edgeStyle=none;rounded=0;html=1;entryX=1;entryY=0.5;entryDx=0;entryDy=0;" edge="1" parent="1" source="19" target="21">
                    <mxGeometry relative="1" as="geometry"/>
                </mxCell>
                <mxCell id="19" value="Notifications" style="aspect=fixed;html=1;points=[];align=center;image;fontSize=12;image=img/lib/azure2/integration/Service_Bus.svg;" vertex="1" parent="1">
                    <mxGeometry x="-120" y="310" width="68" height="60" as="geometry"/>
                </mxCell>
                <mxCell id="25" style="edgeStyle=none;rounded=0;html=1;entryX=1.01;entryY=0.473;entryDx=0;entryDy=0;entryPerimeter=0;" edge="1" parent="1" source="21" target="24">
                    <mxGeometry relative="1" as="geometry"/>
                </mxCell>
                <mxCell id="21" value="Email sender" style="shape=image;verticalLabelPosition=bottom;labelBackgroundColor=default;verticalAlign=top;aspect=fixed;imageAspect=0;image=data:image/png,iVBORw0KGgoAAAANSUhEUgAAAaEAAAGhCAYAAADIqAvCAAAAAXNSR0IArs4c6QAAAARnQU1BAACxjwv8YQUAAAAJcEhZcwAAFxEAABcRAcom8z8AAGDhSURBVHhe7Z0JfBTl/f9p66+n7d/6a2vv+mtta6nCzgQwCQhaz3pfKCoqIiDKDclmdwOE+xTCfd/JJhDFAxWB7OwEUPDgUAlHdmZ2IdyXQDYBT/b/fSYPSsJDmJ2dnczsfD+v1/sFSjLnM9/3PHM80wSDwWAwGAwGg8FgMBgMBoPBYDAYDAaDwWAwGAwGg8FgMBgMBpNKuV4M/ZEXQ+nNS6Wb+FLlHj4gdzqHS1A8nCANIfBBeTQXVBZ+h/wmJyjit5D/rvPvykI+GJ567vfVaZBpBpRHyLxaiPJ1zcXI1XQxMBZKOzHyY7JvOFG6huyr8+FEuQX5N+AK+uMYDAbDzjnBkMIPAugLYhjPB5ViTpDX84Icgb/HLIGgRNXlEZSPiMyIvHhByiLLTYpemrjrV3SVMAYnTYxcywWknrAfZsKJRinsg70X7J+LAO3oIDkBgb/P5AJydzItOlkMBuOUtBQjv1V7MFC0oRhYTzBGAaKCgrftW0mBVNWzczwjjyvtRPGytID0ABcMz01KO4Fpkl4wmQfpUdHZYjAYu6fZe/Jv+DLlRpBNVxDNS8CbUJhDzELgLD4HPgY5LQNJDXUJ8uMtyiJc2opNP6WbDgMhPWLYTjNhGx09b9slldp5wQkDzJsuBgaDsUPI5ae6vRvoAQjKV/UPcqQB1J6TvB7OyvPJWTnpMdLN66i4gtL9RNDMbWQWgnwWlsHPBUL30sXCYDBWSrNS5R9povw4HKwT+KC8FopnDfNgRnSjSly95xSeS+6BpIlKm6Zi+eV0F6Rc0kTpJij8c6A9VbO2R6NQe2JALgP+hy4mBoNpjJDix5VKd6oPCgjKVuYBiyQfQT5B7jGRpwBT5ZJRi9IQxwVkaFfyfuY6WwFBOQwnBZP4NXiZDoMxJWmlyp/hDPAhTgiPBPGshsJ3nHlwIo0K7JdyYK4rqDznWre7Kd19tgh54ECVaVD5rP56WRU4Js6AkMakbdr0P3Q1MBiMUVEfjyaPRZP7Eng/x5bAftuovt9k8V5SCyH8TyJP1jrYAThGCptBD46uDgaD0ZvzxcM62BD7AkIiT3oVWO3RY+hdt4XlWsFaZlshyKXkEjVdLQwGozUuIdwcikAfEM/rXFA5yTzAkFQjBPt6DhTOJ7g1e35Pm4Lp4QXpUViGDxnLZ0ugN/epKxh+Blbte7VriMFgmOHL5OtdQbk3FKJXoQjY5ho8kgzkCk6QZpP3k/h3dvyONpGkB+bZC0589rCXydYc5oJhd5NY7Pt0VTEYDAl5oo0PSF3I0CZ4jwdhQoYfCoYLyEgOtNkkJWll4VHM+acQ5Ok5EBH2iDAYV6lyKxwQ+eSMl3WwIAgL6CUHoZecTQZqpU3JkPBCmLzAfLb+/FIRTgwPRBFhHJnrAspVIJ7OvCi/AoXkDOsAQRAtQDuq5EVlVlowfH/T8vIf0iamK5wgPQVyO8iaT0oiyCdAul2bNEERYRwS6PW0hB5PHpAyN3sRCyEoAVdAGuAKhOJ+B4kXQrfDND6+YJopDheUd3FC+D66GTCY1Ay5hg/ieRnv9SCmAGf46Rsqf0Kb3yXjEiqac2JkFXNajkBeywcrbqCbA4NJjZDx2kA6/cjZKbvhI0iSEKSxtBleMjcElKt4MbKYOR0HwQlyCfde+C90s2Aw9g0ZjkV9Cz6olNdv6AiSbLigInNr5Ba0OV4yfFl4Ims6ToQTwvPwQQWMbUM+fqbKh9zsZDRwhA2cgR6EbRY5BxkNAnqQ333W+yJAD1M6//dY03YiIKF82iQvGU6M3MmJ8jHWdByJIEddwfD9dPNgMPYIyuc81KeNlI9UUQSVhaQgqtsmIHciw9HQL5VenayvlZJ3rcj01U+Olyq3kvnWDnMkDVG/9Fn7eWkJli81782R94jW7tb8QisvKo6/DFcfLiAvayfGLqObCIOxbhwrHyoa+HsxMJwLhDqSok8+lEc3jS1CxuEj3/whyw+9r4Hqd4BqP11u2/1JxA+rpulyEqzvY1xQxgdlGLiE8NOwifCyHMaacZJ8oMewjbyhT3oTdhSN3pDeFOm5ETnVPtUo72RtH6vRfJV0M12FBtNUPHw59IJeZ00DAQTlnWtLd/wv3VwYjDWS6vI5Xzip/lVQPVE/FCjKLVQh14rJWi91CnJE60112M/dYB0cMSqCXuBY74UvsWIsEfIxL7XwpJp81C+uyqPJ8PYoHH3hROkaaBud6KW8Ru0tkRMkulgNpnmg8g/w82L930fqIcgbri+t+CvdbBhM46R2XDd7XIq5FLXrEZ6qPiCQpAcDnB5yuZJsX9jeM0nPpP4+SCbN1u7+P7oYDYYLSD3h57EXpAFOUPphbwjTKCH3BMglF1bDtAtwAB1Vz9ADcoeWYuS3dNUwJoYMLko+iQ37gjxWnrSHAMgJhuZLcYK0kjUN5EK4oCLAdv0B3XQYTPJDvmhJLmvAQW3PQUXJ48dBJZ/c0yGXEelqYSwQ9Z4SnBCoj66rX1Fl7D+dwDTH09k0GE6oaAs9tC9Y00AuRvgOuvkwmOSFFGwoDJ2h97OW3RCtCcjyNBeUV7sEeVCaGLkJxWOPNF1VfqVLVB6BfTeDDKDJ2rfxwK2RH6KTbjCcqJCRPJjTQNjAMfYSjqKASWqgeF8L8illNUDLQl4IDUg9ybsudDUwNg3pfdfeR1KfuIu/By4oUa2DlUIvaAdzGsjFEZS9KCFMUqI+ch1UxifzWr2RQIE6SJbX6I+YYayT2kt2oY7kpCiOdvmOlpvnfEDi4Wc/r/e7iBbESDrdjBiMMeFLlXvIGQ6zwVkIUohAPK+RM2W81OaskF4uyGg0OflgtY1zQPvQNFYcJ8rd4efxqTgdcKLSE5+SwxgScqZJHlNmNTQrAfLZxgtSllNGKMBcPOTkwxVQHoE2wXy3h1sTepb+aIPhy8ILWL+PXBpOkBbiJTlMwiHDzpCnx1iNzCpwQflN8m4SXWQMpk5q71/CSdR5L067ypSW9J8bDPxO+Py2hsRBHKNRYDAXpPbJN/LYtTXv/dCb0TNJgaGLjME0GPVVgoDcHU6qtmp5KCF9VeWV0MZOnd/ukDgQlGhTfNcOoydpZcptXFB5ldmwGhvyhJsYHsgFlGZ0cTGYpKRFWYSDs3m8H5QArrW7M+nmxGC0RR2ehHxfhdGgGhUyZltA7kTOZumiYjBJDfSyySPgKKEE4ITwU7Ap8ZIc5tIhj1PCAWe9j3UJ8jucID/bbPXBn9FFxWBMCTnpgTaIEkoA8kI43hfCXDIgn25cUNnCakSNBSzPaldQea7VytAv6GJiMKaGF8PZrLaJaIcTwyNRQpiLpnmg4g/Qy3gJGss39RtPoyEoASJFHLEa09gBCY1gtlFEO0J4KkoIwwy/JpTOBeVlzIbTCEDPJ0heDEzfUHklXUQMplED7XJK/XaKxEkgtAQlhLkg5N2fS71RbhYc+XRCQO6OIxtgrBZ8UTVxOEFahBLC1AkU/X5AJavBmIkqQUEZi2O6YawaOE4msdouoh0cNQHzbVqJe8mYWhNZDaURWJIWUG6ji4bBWDKcEB7JaLtIHBCRo4QwTbiySAYXDJewGom5yKUuQXoaFgkbJcbygTbru7ANI/HABZVhKCGHhxekR+FsZCOrgZhIOReUc7g1O39PFwuDsXzUF7fxPaHEEORslJBTk5f3fVdAGgC9j33MxmESnCDPTQsorehSYTC2ifrpEhwxISFcQrg93ZwYJ0UdfDQYnstqFGYBva+jZCh9ukgYjO3iCoSa4thxiSKn0c2JcUo4UboGdn5jPlr6BfR+pjcXIy66SBiMLUPGKeRt8BFHq8IF5ePXr9/zS7o5MU4IF9jVDA6apawGYQbQ+3mXD4afoYuDwdg+0BP6kNXWkUsD9WAb3g9yUKD43wBd3xWsxpB85GpocPnk8gVdHAwmJcIL0hh2m0cuBReQp6OEHBJyCY4T5J2shpB0BGVv81LpJrooGExKhQsqD+PDCfqAmkQ+oY4SSvXAAXI3L8gbWI3ABBbwAYmni4LBpFw4IfwXONE6zGj7SAOAvE/zZfL1dDNiUjVpQrg97PCt9RtA8pH3ccFwTrOP8Rs/mNQPGVyXfRwgF0VQtuKluBQPXyo/AzKoYDaAJAIHpMAH5AfpYmAwKR9ekF/AS3LxwQWlXJRQCod88qAxHh3lgvIMfPgA47Sorz0Icph1TCAXAieqJ5uvxRfUUzawg/uT5+9ZOz9pCIoEZ4J92pfEfkAXA4NxVDhRmc08NhAG8svYC0rR8AG5L3unJxFBjuDnFjBODyfKLeBYwEtyWsDL9akZ2Lk94CA4ccEOTyaCspQcfHQRMBhHhy9r3KGw7AAnKK/hA0spGFdQeU79CBxjpycLaEyTW6yV/kQXAYNxfFyicisv4uPaFwNqxpcg6kfp5sKkSmDnPkkuidXf4UnkOB+UfE1Lyn9IFwGDwdDwYmQy45hBAC4gL8Z7QSkWLqg8bPJICDtcgdBzdPYYDKZeXIKUyQdNPSm0BdALOsoHw3fQzYRJhUBDJyMhmPYiKjQikcyTzh6DwVwkaWXhUaxjyNEElCnYC0qhpImRa828BwTzWt9SjPyWzh6DwTQQlxBuzotKOetYciJcUJF5MZJONw/G7kkLyq1hp5o2TAj0gBa1XKf8g84eg8FoCBeQO/A4ioKKS5BfaNIEe0EpEWjUabBTV9bfyckCekDTmwcq/kBnj8Fg4gicwA1hHVeOIiBPbBKLfZ9uEoyd01yQ/g09oFeZOzoZCMrYtE3K/6Ozx2AwcaapWH45HwzPYB5fDoALSH5uzc7f082BsXPaieJl0AsqZe3oZAA9oIF01hgMJoHwQuhvvBhezjrOUhpBLm1WFuLoZsDYPbyomPL1RuhpHQP609liMBgDoj62LYbfZR1zqQgXlD/lROlOuvoYuwd6QL2hZ/IVa2cbzG5oPM/T2WIwGANDxkvjg2GJcdylGoddwfAzsMr4IEIqBHol5NPBuxk72lgEZS8nqp/axdg0JXmHLy/wnUpfOvREkd93XC4ecmz9G5OO3Ub/GWOBpIlKGzjRO8A8BlMBQYm6hHB7uroYu4c8Vw879r0LdrTBwEFxCETXjc4WY4P486p+Veg5dY/fW+Up9lW/XOSr3gnE6rMkuyo2vevBmqVDD5W8PecIPmZvgTQvlW7iBPkt1rFoZzhBeZcvi+Do2KmStFLlz9BQX2btbCMh94DgzxfpbDEWy7zsoz9fOqimpd9X/bTfWzOqyBd9DeTCFM7FWNDnZGzoHXti3huV2NQue4+XjD48MzD30FV0FphGCHnZnBfD8+ofj7YFahVXKmXQ1cPYPe1LSn4AZxWTmDvbQGAep6AH1IfOFtPIKfBV/64oJ/ofv6/mxUJv1dQib3Wp3xvdxxJLvLzU4WAsJ1MGpJgb8N0kxWa+WLl3+dhDo8WFJ66gi4AxMdev3/NLONEcCcfiF/WPTVshhKc2fydyNV0tTCoEziqymTvbQKAHVMMLUhadJcbkkMtpfk/01kJPdRZIohh6Otvqi8NIpnc+WkdC7swQpSI2+qHwF/MH7C1fPubgSytnHf4bXUSMSal98EipZB2nVgYEepwPKL5rVoZ+RFcFkwoBAT0BOzepY8JBg/8yTVA8dJaYJGZZv7M/gR4OX+yNPuH3RYeDbF72e6vK4e9fs2SRLGZ2O35RCWVnEHapjOsgn16QvXfT8vEHh6yaW3klXQ1MksOJ0jWcaOKL6AkCNUTky5Qb6eJjUiX0huVm1k43kLMuQR5EZ4kxMEsGRH9TmFvVtthX083vrc4H0bxT5I3uZknBbLRKKDtjZyxLZUdsQkelarGn8t3XJx7qR1cRk+RwpeRpWMWyL7ZyQXk1H5A7NS3Hb4mlXFxr5L9DL2gFa8cbizyazhKTQPyek3/1D6y+CyQzAJgLwnkXiv2x+sXfKuiRUC3bY1mZ22OTnlWOFwzcu+a1yfu70E2ASVKuCYV+RF6XgGPVtBFSLgWcHG/khHCvNHHXr+hiYlItvKAk/WuMXECeQ26G0lliNKQkr/yHIJlmhZ7oY1DM84Bivzf6Mfz5+bkCbwcSkdAAlXIV783bY1O6yYf8eZWvvzHpIL4PksSQobrgmO3OB8ONd79IkE+4ShVv+rLKn9DF0hW6Lh3gr/gCqxXDC1JXLqh8yWwERiHIr/DCHrzp3ECW5Z28sjj3dGaht/q5Il90PMjmLb+3WmYVdbthlIQGZGyL9SekfxrLvb387PQX5L3+YXuKVkzefzvdjBiDk/nuzp9DT+QhLijPgOPYhBEX1JfjF3Ci0tGIwUfJIK6cUPvpGS6g3Ev/N8Yq4cVQOjSwLXUbgbGA4IKuMqUlnSUGUpJz+s9+X/UdIJo+IJxZUKjL4L8P1S/eqUIyJFTLJ7F+wOC7y7+e0VOWl46snL1i+gFsa0lKOzHyY65UupNcVucFxbCvKkMN2gl1Ij8tID1ApEFnl3BcwVA7EOf5L+ZuwveJLJRmqw/+DBrT4vN2UDL4mDRaOkvHJS8v9v1l3s+b+n1VD4Nkcou81YUgnU0gnxpWsU5Vki2hfukff8uwB7d/MbufvH3pmMqJb87c+3e6KzBJSHMxcoU6FFBA7g4SGQ+9pTdBKOuh8EfIUFzn6gD8v4O1/w9Q7zWFp/IBuS+pDcn6YjI9wWYNUfQOfubbIuHFcBZjBxkGNIC90OieoLNL+RTknf1FkefUDUW51c+AZMYUeaOv+33RClZRdhpmSqhv+lZgi8rIx8pPz82SNy8bs2foitn78aa2A8K/s+N3nKgM4UUyHBi7NrlExYMiauTAmcgdcOaisHaQEYCAaqAh9KSzS7ks8h37Q7E3ekuRt6aH31M9DQptAMSzH3o6MeRCZnZtHAn1Td8c60O4YVNs7JPbo/M98nsvj9udlZeXh1/aTMHwQekOLe87QY9tD1eG94caLeoH6gy8nlsHQYmq3fGAlDKP0hZkn/pnoa/mfr+32gOiWVToiX4A4jkF/x1DtGEFCZ2j9w0fxcY/s/2zBblS4NUJu7vS3YyxcdR7VUE5B2rPaWZdYsAJyrb0DYk9dYfRGfWmImOnxA0VDrmhyAVCHVuI8nV0FrbMkgEHf+b31KQV5EQ7FnqjI+AM/hWQzXa/J/oNq7Ai2plhMQnV8mFsQNtNsYldth9ePFh+47X8PY/RpoCxSciQPa6g8hzUI/GC+qQBlyBPwMtyJke9iSgouj9QB9I5wwXDc8kNRXL2QSdruxR5o1f5vVXtCj1V3YFJ8PfV0MvZA0DRRIxmRtdjlpRQ7xs+iPWiuG/96Oyk7tv3Lh4qFS+fHMGvclo8nCi3gHq0jlWn4gEf2zYx5NHH2qdT2Dvj0oSnJutJlmSmOPfM38i3b8hgnSCc+YWe6HvQuzkOxBBzmNHF+hLqdcP7Kj1v2Bjz3bnp66k9tiv+YdI8EFI6bUqYRo5rXejXIJ5noR6RoYWMGv37I/IkHZ0FJpnhg/JUxg64JLDT98Cflv/mz8peZ3+0NKe6ud8d7eDPiQ4pzKlaBnwC4vmSVRgR87CbhHq2ImwA3osNuu+jL6f13r7DP1LKf3vqPvwwXyNEfeE0KOckcfQGfGw72XEFlEcYG/7SCPIJcgmPTsYyWew59b+Lc6raFORUdVmSUzWhICf6Nvw9DL2cGGI97CyhHt/ybmzYI5vPzBqwY0vxGGn46hnyb2hzxJgQLpjcUb45QeqFIkpSai/DfffimGbgd8gXGOlkGi0Lc05cvcRTfWeBJ9oXZDMb/lwLfx5hFTvEmqSKhAgvtlqvMuLxTdE57u0blo4LucU88TLaXDFJChm8FGpS8saxgxNufu3u39HZYYwMV/v1RPaGbwhRMfUx65KS2A+WDIheV+CuegQYBPiBLdDDOV2YA8UMsS2pKKEXW61TeaHV2tjopzadmOvdLiwbH+pOmzMmCeHE3U+Rp3KZ9coISqVZ2BsyOK5A6DbYuPsu2NiXgAvK/rRNsf+hkzE8C/ucuKLAfSp9ifvUs9CrGQuF6g34M1S/eCGpQapLSKVlWaxX5trY2M6bjszL3f7my/ny47S5YwwMF5DH80H5LKtuJQp5+tclqPsNRWRE2omxy2CjFrI2dkNwQeUAL4QNG5W4wF3zR78neitIphcUpOnQswkucVcdgP+OIc5gukMkROjeUlTp9591Z1/qtnnfwrwdS1+ZJN9FDwdMguGF0N+grq1i1S4jINPm3t2T8OjdGAj5fgZrI18KMhAhnUTc8Xurri3IqnoQJOMFlgAfFrijVUAMcS7Tn3OehLq3DKo831KIZd+x/uv8FzeHFw3dMf/lyVImPVwwOsMH5AdBFqzBSY3Ch5flEoz6zXgyfA57A1+C8B10MpfMwqzq3y7JrhoIhebNJe7o0frFB0EIUzsddbSEagmoeO5d9+Xk3lt2Lhmxfcrrk0NN6aGEiTO8IA8CknJZjg/KFc2Dcms6K4yewIYcfuGG1YJccf1bn2r6+il5RBoEFC1wV0GhQZCLM7XTEZQQlVC3lqW1tFgTy33w3TNT+27+uHD0jhFvzFWuoocWRkNc60K/TguGS9h1LHHgJH4u9oZ0hgvKt3B6HskmCEqATqbBkEE9l2Sf+oBVcBCkPtOfw54QS0KEri1Wqwx57N3qmdlbNxaO3ZFTUlL+Q3qoYRoIqXVw4ryLWcsSBGrol+Trrk2aoIjiSvuS2A+gi1rA2qjakAvopBpMQXZVFyCGIFqY+gz2hC4loa4tVql0afFObNiT752Y6dkSXDp+h+VHKmns8GVyn6RdlhPk0hZr9/2JzgqjJeTzuMyNqRGtDyUsya7KB2JIakKeaGP9f71MQQnFJaFaVsa6Z6yKjez03tFZuVveWjZhO5yVY+rnL2Lkx3xAng/1KykiconhQXhZTmNarN/zVy7BUWXJZxno5BoMFBaUUApAZOP3RWNFA6OxZXnVsZeHVcdeGVkTKxlazfx5vUzrjJfj9EiI8FyLt1V6tH3n7OguG/bPGby1ZNnEHXfTQxEDcZUqLaHX8iGrpiUK1ESZWxtuS2eFaSiwwXQ+jPAdnCANoZNrMFBYUEI2gjyhRj6pUDywOrZ0cHVs2RAQzogaVTgsSkBGrOnoBSWUuISeS3tLpXPam7G+t635ZvwLGyILhn68oGRSueXGdmyMqFeBknRZjhOURdgbukRalIY42Fih+hsvXjT3hAaAhLKgwCDWAgp+QU6V2rspVns3pFcDYhlxmimbi6FKiDV9naCEjJVQLStUBty1+ssJPTfuWjj846nLZ+yw9YclEw3IIp9PxmgKZFw5A1/gT8lwQXkUc+PFSTwSWgzFBWk8lrirYoXe6lhRLund1EDvpgZ6N6djL4NEEmUZSIg1T72ghJInoWfT3qC8HvM8UPp5fp8NHy8atXX0splb/0APV8dE/eRDkl5ixd5QA+HX7ubJdUvWhosXlJAFUXs30Viheu8GhJNXDT0VtjyMAiVkTwkROqm8FvM9Eqie3H/D+0vGfOwVF9r3K8jxhl+r9EjKZTnsDV08vKCMYW40HcQloQGnYoixkMeZC3OqoHcTjRUPitbeuwEhvDzCXJYNBQkxlk8v055FCZktIRX+1dgz/PLY4CeEk9Pc74uF47b2oIdwyqbpqvIroZa9Xb+2GQEnhPEF1vrhar+zHmZtMD2ghEwiC4RD7t14QTgDo7UPC0DhJw8LsKRgNiih1JJQLa+o5Dy06vTcIR8u9s9Yr2lkFDuGD+5+EntDJoULSuOYG0snKCHjISMGFHpqezdLoXdDHn9+efiFhd9KoIRSQ0KdW74Wc9+/6syoruv2TnNvXLdg2OZphRM+eWLF7F2/oodyagZ6K3xQ9kNNM1xE2Bs6L2kBpRWYOcLaUHpBCRlLgfsUs8hbHZSQ/STU8+a3zw7uEDw1oed7FbN8H725ZNTWocWTPrmFHrKOC0jobrXnwqhzCYG9oe8CwhjP3EgJoFVCi/pX5S/qfyqGNMySbPtKiLU+esFRtI2V0IC7Sr8a8cz6I1P6fbB53uAtBQXjPu21bHI5jshdL9BrmQYywt5QMsIHwzdwQXkPawNphROUo+RzD1wwPJcXpCy+VLmHfAKCzqLBpLqEyBNd5J4Nee+G9e9aQQnVghLSJ6HumatiuQ+VnR73/MY9M3M2lS0e/umkpRO2t185OfQLeihiGkhaUG5t9NUiFewNkSfi5AnMjXMxBEUCab2p9p4CUpc0UWmTJuq/LpwqEjonm3Mvdy4dEo29TB5/psW40Btl/p5WUEK1oIQuLaG+twjfDHvivZOTen20Y+7Aj1/3jykf9Mq0ChwuJsFArRwBYG/IyHBlkQzowbA/1SAoUeAj6CkVwM8MdAWUR1qI8nXtRPEy+uuGxG4SOicbIhX1aTTyrs1QIpuGn0ZDCRkDSqiuhLz3rf9ybOcPD83o//GHC4duW1Q0fmf3V2bKf6eHF8bANBekf0Nt3HJBrUwUJ/eGyH2b2o2gRDlB2QjCmcoFpJ6cKLcgbwzTH0tqiIQW9jsVsxxQ8L4buqY6VqyOk1YTKxlOAPHESYEnyp6PRsij2KzpWp2lQ6qZ66MXp0qo941rY0Me3Vgz8YXNkdneT4WCUTsnvpxf8dCK2Zt+Sg8lW2aJ5+Q1fm/VA8W+muEL+p78ZPGAU6cX9j15JL/j4Zm92oR+TX/MMuGDyfncg2NHUSD3btLEyLX0PxslCxpbQiCbb9+1ISMJDCK9m6j6pj+rqOoFJWQMUxwgoezb3/tm9FObTkzr88n2BYO3v1o8tsK3fHIknR4ytszCvNiPC33VLr+vqos/tzq/yFu9HjhRBCd4LMgguUNu3/O1O1MuzckMdcxrZ85J8aXSPFDxBxBGkCWSBNkPgkujs8GYmQX9T4KETkKBST6kkC9xn4oVqi92VqmyIcPWsIqn0RR4qpjLpJXFWSeZ07U65N4Ya330MiXFPu898P4Pv3ipy9aDs7LL3y8YVjGvZKLS5a1p4b/Qw8OWWZh34oqCnOhNRZ5oX7+vuqDIG90KUvmKJZuGmPD4Qbqv5Zg7QzoDf77mzgg9kteucYcO4kWpSzJ6Q66gPBjfG2qEQBc8H7rfMSNZrF5KA9l4Tn37YicZtoZVJM2C9LRYy6qVxQNsKiEQPWt99GLXj9r1b7vx7PDHNldP6VGuzM/dtaZolDTulcnKvWKesfdYzczkXqEfLR1Y3bw49/RjIJkhfm/1UpDOJ/D3L1hSiZfJT5/b13WB3pEE+3+2O0PuMCBD/g1dHNOStmn/TzlBepUlkkTggsrGNHF/ar/8a8UYJSEykoA6RtpQdjFsbFBCxmAHCeX+d/PX4zptOz6z/65Pl+RJJSXjwu4V05WWtMnbMv7+Vb/y51a1Acl0KfJWTyjyRd8GUSj1xWEkF5NQXaRtIKMp2RnSA3mtzHvcnLyCwpfJE3lBYT/YpZeA/CBMHntDZoZICIglCrmXwyqCVmEJSIi13FpZZGMJsdZHL1aSUJ/0j2JDH/rk80nP79g/Pye0oXC4Mnv5pMizb86stPWnD4pzzlxd6Kv+b5E32g+EM9vvi64D+RxhiSKZaJPQd4CMNrkzpHGe9Midve4M/YiuTlKTVqr8PyIOXpCn8kF5O1MscQA9rBK8JGdyoLCghDSAEqqlsSSUc8vWs2Oe3BGd0bNCXjRQWfXy2MpRb0yuvJM2Y1tmdrfY/xQOjF6/NPd0e7+3ajCIpsjvjW4F+ZxhScFs4pVQXaR3oX0Mz86Ubqarm/S0FCO/BRk9AczTPxi0XM2XmbfMKZOSvMOXq111T7RnkbdmLjTkj6BRe+g/N5gFvUFCfaDAJIgqIfJEm0UhH45jLbdWVAkxpmt1VAkx1kcvU74tTOZIaNxTO08tGhhe8+qkfe1pk7Vl5vY7eWVx7qlMKO6d4fgcX+SLvgl/l84v+lYjMQmdQzoL7UQAcj2ZUgbdHElPs9W7/s8VVJ7jgrIfhHSQLRw28PMvYW+ogSx2V/2ryFfzoN9b7YOGvIQIB/6srt+AyGOY9FcaDEpIGyihWsyS0IROFSeWjdsz1I4fcSvJO/1n6NXcAcdmn2Jv9Uw4Hsvgvw/VP0atjjES+g7yhB3wdk6GNCA7XeLp5kp6XIFQU/L+JQhmOS8olx4IVZB3tFi/56/0150b0rsB2bQo9FQ/BX+OhAb9KshmJ6uxsEAJ1QUlZAxmSGhednjrW9P2uWgTtWxK2sd+UDQw+m+/r+bhIm/1QDjuCuE43QzU1D8e7YjREqpDhnQiJ0NZ7k6XenrbhEwbsJUPymm8GM4C2awEPq8jn/PgxHAvR/WGirzRq9Tn+n013aGHMxlksxoaciWrYWglHgnN730ylihkCB3ygqlVIZ/WZi23Vhb2P8mcrtUpHhxlro9evitMxkso+8ZPY4t8u8tWza28kjZPy2RhnxNXFPhq0ot91Z38nuhYvy/6BhxnFfWPu1QiqRKqy0FoS0XQprp42pjXA6kdFDU8CKQj1pcQ8E47MWbbx/cbjN9z5q+wg++GHk4WSGceyOY9+O/j5+98I9AqoXkoIU2ghGpJpoSWDNy9ijbLRk1BXs0f4cTwNqBXUW71dDiegvD3A/WPsVTHRAl9C7Sp3dC2FuRkKh196RWmPeXYXKxwpZWFR4F8Ks+JiCsz7x5W0lLgrvkjGZcJRDMEduprcPYUqb+jkwWZJ12MBlMroRNQYBKjVkLWZXH2KeZya6VWQuxpW5laCbHXSQ+Tnz5MC4axEprWXd7/xtxDV9FmaUpiTWLfKx5Y9a9Cb9VD599jhb9HWceU02gMCdUhQ9rlzpBneDKk9p6W+/6X7rakh3yZgC9TppCxPG1zSY4Mk+H3nMqA3sezcMY0Dhpyoz/5or0n9BlKSAMooVqSISHfreVnl4/bP5w2yaSkoNexX/h9Na38vuqnizzR0SCc1+A40XyP1Yk0uoTOw50hfQJSys9prdz7okXGsWu0LPLV/KHYG70FejU9QTjToVELVuyqa5ZQT5BQLygwCUKG51k21LqQcetYy60VMm4aa7pWR5UQY330Mvkp4yU0P2v3FtocDUlRXs3vC+AYheOyR1Fu9VQ4RgPw932s4wS5OFaSUF2kD9yZ8uiszNDtee3sO+ySpiz2nPpHkafmvkJfdQ70bhZBY36/yFt9irXDrEY8EpoHxSVR/DaQEGu5tbLAphIqAgmx1kcvk5IgoZXTDzWjzTHuFAw89c/aS97VHjgxXASy+cAux6jVsa6EvgNktBZ6SENyMsL2/2igmBe77Nx3NYp8NW9Cd30va8fYBc33hFBCmkAJ1WK0hF56quIUbYqaQo5ROD5Hk2MUpHOQ1fYRY5j4xKE6Bd/KuDPkr0BGa3IyFI87XWlFm4t9Ag37WjiD2sraEXYFJVQXlJAxGC2hWb3DEm2KDYY85AM9nI2sto4kBztJqA4ZUjVIaYW7tdw3p3VFc9qErB3o/cxh7QQ7E9fluJ5QYBLEFhJiLLdWyLhprOlaHfISMWt99DKpo7ESWuzbI9Cm2GDgRNHHaudI8rDD5bhL4c6Uj3ky5RJooy9kZ4b/SZuT9ZKKj2TG1RNiFJt4QQlZE6tLaOmIvfNoU2ww0KZL67dxJLnYtid0cfa5M6QC6CU9m3PDzqtp07JGWDvA7mjtCc198bP8uVBcEoVIaCkUPauyCCTEWm6tzAcJsaZrdYiEWOujl8aSEJwoiqx2jiSPVOgJXQwQkQLMdaeHnshqGfktbWaNF9YOsDtxSajHZ7FE8fuq1E9JWxUy9htrubUyv88J5nStDvmMOmt99IIScg6pLKE6ZMjboQ1Pc7eWH8prF7mCNjlzw9oBdgclVBeUkDGghJyDYyR0HtCmt7gz5Zc8mfJd/dIrf0KbX/LD2gF2ByVUF5SQMaCEnIMTJXQ+7gx5A/SSRmRnyLeQIZ5oU0xOinzRs6ydYGfiktCLUGASxO+1uIT6g4QYy60VMmQNa7pWR5UQY330MulJlJBTcLqE6iJtAykNyr5B/jttksbG6RKaA8UlUQotLiEy9htrubViVwn5QUKs9dFLPkrIMaCEGGTIn+dkSCvdGVKWoR/m86OEmAUnHlBC1gQlhOgFJdQw0DP6DHjFk6G86M2IXEubqr6ghNgFJx5QQtYEJYToBSUUBxnS/tp3kELP5rRW/kybrfb4vQ6W0AsgoRegwCSIKqE8KHwWhYyCzVpurZARpFnTtTr+XJAQY330kv8ESsgpoIT04c6UJTg2Znsypce8bUK/pk244ThZQrNRQppACdWCEnIOKKHEgWPkU2AS+Q7SgNsO/ow25wvjdAkBsUQpAAkVQ9GzKmQAUtZya4UM3smartUhEmKtj14mooQcA0rIWKCH9H5OhjzKk67cmtck9n3atGvjeAl1Px5LlALPKSh6RETWZEHfE8zl1sq8np8xp2t1/LmnmOujl+/GE0MJpToooSSSIW/NSpcfbHLu/aMib/Qb1k6wM5ol9PxxlJAGUEK1THwcJeQUUELJJysjNFIVEUqIXXDiASVkTVBCiF5QQubgyVSeRAkxik28oISsCUoI0QtKyBzgOHrL8RKa9fzxWKIU5ICEBkPhsyjzQUKs5dbK3B4gIcZ0rU6h7xRzffSCEnIOKCGTyJBlR0toJkpIEyihWiaghBwDSsg8UEKMYhMvKCFrghJC9IISMg9o4CihREEJWROUEKIXlJB5NPH7qr9m7QQ7o1lCXUFC3aDAJIjlJdQHJMRYbq2Qzxiwpmt1Cr0gIcb66GVCB5SQU0AJmQcZwNTREpoJxSVRloCEiqDoWRUiIdZya4UM3smartUpAAmx1kcvKCHngBIyD5RQt2NQYBLDHhJiL7sW5rx4nDldq1MrIfY66WFCh4P0wEEJpTooIfNACXWFApMgS9wgoUFQ+CwK+RQDa7m1MucFkBBjulZHlRBjffSCEnIOKCHzQAkxik28oISsieESegwl5BRQQuYBDRwllCgoIWuCEkL0ghIyD0dLaDpIaAYUl0RZbHEJzQMJsZZbK7NtLCHW+ujlJZSQY0AJmYezJfQcSKgLFJgEWZxtcQn1AgkxllsrtpWQByTEWB+9oIScA0rIPJoUeau/Yu0EO4MSqgtKyBhQQs4BJWQeKCFGsYkXlJA1QQkhekEJmQcZOw4llCAoIWuCEkL0ghIyD3JPyNESmv7csViiEAn5B1ZZlrk9TzCXWyuzuh9nTtfqLAEJsdZHL+MfRQk5BZSQeThcQkdBQkehwCTG4uyTUPSIiKzJ3J6fMZdbK7O6H2NO1+os8Zxkro9eUELOASVkHighRrGJF5SQNUEJIXpBCZmHsyXUGSTUGQpMgizOsoGEGMutlVnP21RCOSAhxvroBSXkHFBC5uFoCU0DCQGxRFlkcQnNAQmxllsrM20sIdb66GV8e5SQU0AJmUcT2OBf1t8BdgclVBeUkDGghJwDSsg8UEKMYhMvKCFrghJC9IISMg+QUNTZEnoWCkyCqBLKhcJnUeb0AAkxllsr5Fs6rOlanSVukBBjffSCEnIOKCHzQAkxik28oISsCUoI0QtKyDxQQoxiEy8oIWtivIQO0AMHJZTqoITMw9kS6nQ0f+qzR2KJsjDrRKwQip5Vmd3jOHO5tTKj21HmdK3OYpAQa330Mu4RlJBTQAmZBxk7ztkS6gQFJkEWDrC4hF4ECTGWWyszutpYQoz10QtKyDmghMwDGjhKKFFQQtYEJYToBSVkHqSBf8HaCXYGJVQXlJAxoIScA0rIPBwtoSkgoSnPHIklysL+ICEfFD6LQj7FwFpurUzvAhJiTNfqLMo+yVwfvaCEnANKyDyggUedK6GnUUJaQAnVMvZhlJBTQAmZB0qIUWziBSVkTVBCiF5QQuaBEmIUm3hBCVkTlBCiF5SQeaCEoLEliuUl1B0kxFhurZBv6bCma3VUCTHWRy8oIeeAEjIPlFC9QqMHlJA1QQkhekEJmYfDJXQ4f/LTh6HBJcYCkFCB76RlIV9GZS23VqY9d4Q5XauzKPsEc330Mvbh/fTAQQmlOigh8yCfcvi8/g6wOyihuqCEjGHsQyghp4ASMg9nS6gjSOgpKDAJsqAfSMgLhc+ikM9zs5ZbK9M6g4QY07U6i7JAQoz10QtKyDmghMyDDGCKEkoQlJA1QQkhekEJmUcTv4MlNAkkNAmKS6LMt7iEyJdRWcutlak2lRAZ3Zy1PnoZgxJyDCgh80AJdYQCkyDz+9pAQozl1gr5jAFrulaHjOnHWh+9jHkQJeQUUELmgRJiFJt4QQlZE5QQoheUkHlAA0cJJQpKyJqghBC9oITMo0mRt/oMayfYGZRQXVBCxoAScg4oIfNwtIQmPnE4P//Jw7FEIRJa4jlpWWZ0O8Zcbq2Qb+mwpmt1iIRY66OX0Sghx4ASMg+HS+ggSOgQFJjEmN/3M2YRtAozuh1lLrdWpnY6zJyu1Vk44DPm+uhl9IP76IGDEkp1UELmARKKooQSBCVkTVBCiF5QQuaBEmIUm3hBCVkTwyX0AErIKaCEzAMl9AQUmASZ38fiEuoKEmIst1ZsK6H+ICHG+ugFJeQcUELm4XgJTYTikijzLC6h6SAh1nJrZYpNJbQAJMRaH72ghJwDSsg8UEKMYhMvKCFrghJC9IISMo8mfl/1adZOsDOaJfQ4SOhxKDAJMq83SCgHCp9FIZ/nZi23VqY8AxJiTNfqqBJirI9eRt+PEnIKKCHzQAkxik28oISsCUoI0QtKyDxQQoxiEy8oIWuCEkL0ghIyDzKAqWMl9BJIaMLjB2OJMrf38djinBOWZRpIiLXcWpn8zCHmdK3OfJAQa330Mgol5BhQQubhbAk9BhLqAAUmQSwvoedAQozl1srkp20qoX4gIcb66GXUfSghp4ASMg+UEKPYxAtKyJqghBC9oITMAyXEKDbxghKyJighRC8oIfOABu5wCT0GBSZB5vYCCbmh8FkUVUKM5dbK5KdAQozpWh1VQoz10QtKyDmghMyjSZG3uoa1E+xMPBICYoliBwmxllsrk2wsIdb66AUl5BxQQuaBEmIUm3hBCVkToyU0EiXkGFBC5oESYhSbeEEJWROUEKIXlJB5kLHjnCuh9iChR6HAJMjcnhaXUGeQEGO5tTKpo00l1BckxFgfvYy8FyXkFFBC5gENHCWUKCgha4ISQvSCEjIPR0tofPsD+eMfPRBLlDkgoUVQ9KzK1M5HmMutlfyOB5nTtTrz+h5nro9eRt67lx44KKFUByVkHighRrGJF5SQNUEJIXpBCZkHSqg9FJgEUSWUDYXPokx9FiTEWG6t5D8JEmJM1+rM6wMSYqyPXkbegxJyCigh82gCG7y6/g6wOyihuqCEjAEl5BxQQuaBEmIUm3hBCVkToyU0AiXkGFBC5uFsCT18IH/cIwdiiTK7h7UlNKXTEeZya2XiE/aVEGt99IIScg4oIfMACUVRQgmCErImKCFELygh80AJMYpNvKCErAlKCNELSsg8UEKMYhMvKCFrghJC9IISMg+U0MP7Y4ky+8VjsUVZn1mWKc8cZi63ViY+foA5XaszrzdIiLE+ehlxdyU9cFBCqQ5KyDzIgwnR+jvA7miV0FiQ0FgoLolCJLQQip5VmQwSYi23ViaAhFjTtTrkY4Os9dHLcJSQY0AJmQdp4CihBEEJWROUEKIXlJB5oIQYxSZeUELWBCWE6AUlZB7OltBDIKGHoMAkiC0kxFhurUzoYGMJMdZHL8PvQgk5BZSQeaCEGMUmXlBC1gQlhOgFJWQe0MCjjpXQaJDQGCguiTLL4hKaBBJiLbdWXrKxhFjro5dhKCHHgBIyD5TQg1BgEmTWCyChAVD4LMqkp0FCjOXWykuPgYQY07U65LPrrPXRC0rIOaCEzAMlxCg28YISsiYoIUQvKCHzIO8JVdXfAXYHJVQXlJAxoIScA0rIPBwuoX0goX1QYBJj1gtHmUXQKkx6+hBzubViXwkdY66PXlBCzgElZB7OltAD+/KBWKLM7H40tgCKnlWZ9NQh5nJrhXzamjVdqzOn5zHm+uhl2H9RQk4BJWQeKCFGsYkXlJA1QQkhekEJmQdKiFFs4gUlZE1QQoheUELm0cTvi6KEEgQlZE1QQoheUELm4WwJ3QcSuh8KTIKoEuoPhc+iTOoIEmIst1ZUCTGma3VUCTHWRy/D7kQJOQWUkHk4WkIjQUKjoLgkitUllA8SYi23VsbZVEKzQUKs9dHLUJSQY0AJmQe5J3Sq/g6wO3FJ6D4oMAky83mLS+hJkBBjubUyrr1NJdQDJMRYH72ghJwDSsg09jYp8qKEEgUlZE1QQoheUEImkSFvRAndtxcKTGLUSui4Zcl/8iBzubUyrv1+5nStzuweR5nro5ehd+6hBw9KKNVBCZlEeuhex0toJBSXRJkBEpoPRc+qTAQJsZZbK2NBQqzpWh0iIdb66AUl5BxQQklnb3Z6qF+TJrHvOVtC94CE7oUCkyAzuoGE+kHhsyiqhBjLrZWxj4CEGNO1OqqEGOujlyF3oIScAkooebgzZcmbqdxIm3cTkFAUJZQgKCFrghJC9IISMhYQzzF3hlQAx8njvVqFfkGbdm1QQuyCEw8oIWuCEkL0ghIyjM1wjAzPytyRQZvzhUEJsQtOPKCErAlKCNELSkg/0OM5484IvZqdvqtLX37H72gzvnhgg5+svwPsTlwSugcKTIJYXkJPgIQYy62VsQ/bVEIvgoQY66OXIbejhJwCSkgXO0FAE7PSK26lTVdb/A6W0HCQ0AgoLoky3eISmgASYi23VuwqoVkgIdb66AUl5BxQQvEQWuXOqOjdL738Gtpk4wtKiF1w4gElZE1QQoheUEKXIEOuhLY/Oytz1/3t2omX0aaqL46W0F0gobuhwCTI9K4gob5Q+CzKhMdBQozl1srYh0BCjOlaHfLFW9b66AUl5BxQQhchQ17nTpe8/Vpta06bZ+JxtoQqQUKVUGASY3rXI8wiaBUmPH6AudxaGfvQPuZ0rU6thNjrpAeUkHNACdXhuDtDKoQ2/ni3tE3/jzZL4+L3RR0toeFQXBKFSGgeFD2r8hJIiLXcWhkDEmJN1+oQCbHWRy95t++mByVKKNVBCanv9mzJygiNdGfszKRNMTlBCbELTjyghKwJSgjRi1MlBOL5wp0Reh3adNd+6Vv/QJtgcuN4Cd0FBSZBpnexuIQ6gIQYy62VMQ/aWEKM9dFL3m0oIafgPAlJoZxMJT8rc8fttNmZF9jgJ+rvALuDEqoLSsgYUELOwTESypDXuNPlvtlt5b/T5mZ+irwooURBCVkTlBCil1SWkDtDOuDOkOfmpFc8mNe0/Ie0mTVeHC2h/6KEtIASqgUl5BxSUUIgng3Q8xmYkxHiaNOyRqCBR1k7wc74vdEhdPUazDCQEBBLlGlEQn2g8FmUlx47wFxurYx+ACTEmK7Vmdn9KHN99DL41saRELTp0vptHEkuE584VKeA25hT0F6LczKVjv3Sy6+kTcpaKfJGt7J2gp1BCdUFJWQMRkuocHDlCtoUG0yxr3oQq50jycPuPSFon5+6M+XR2ZkV3323x6rxe6K3+n3Rg6wdYVdQQnVBCRmD0RJa5N29njbFBlOcc+JqaNc767dzJHnYsScEbfIbEM8KT6bcPfdG6U+0+dgjC/NOXFHoqc6Cjf9aKggpLgnduSeWKNOeOwxF75hleelRkBBjubUy+v69zOlanZndjzDXRy9GS2hKN/kgbYqXzMK82I/9vqoufl91AbRxFFKSsZOE3BlSOCdDnupuLf+XNhd7Jy9PvGypr5r3e6qfJTf4YYcEgWPn7yCro/XBhGF3VOYPheKSKFNBQnOh6FmV8SAh1nJrZRRIiDVdqzMDJMRaH70MvsVYCbnbbou9MffQVbQ5xpViz6l/FHirHiny1QyFNv9akS+q1D8OEP3Y4nJchhwEAWW5b4j8izaL1E2Bu+aPRb5Td8PO8fq9VUvhbGzH+TvMaqCE6oISMgajJdQ//dPYkoG7S2lzTCgleYcv93tOZ/i9Nc8XeaPTgfWpOC6kWVhXQtJhEM9Cd4bySF7app/S3W94morll/NBqQf/joaP0jVGSvJiP4QzsBaF3urn/L6qKbDTyvzeqGUe9UYJ1QUlZAzJkNDIh3Z98cakAx1pkzQ0hbmn/+L3nboXjtHcIm/1Ur/X2iePVsJqEoL29qE7U87zZCgt6e5NSlqI8nV8UJkCVPGC8lGTWOx79J+sn5Kc03/2+2qgwVeTBl/i90UrWDvXDOKS0B1QYBJkameQUG8ofBZFlRBjubUy6j6QEGO6VmfG8yAhxvroJRkSIszPCm+hTTKpmd0t9j/kUnuxr7oTHKcTgQAcL4frHz+INSQEbawG2trL8PdOAzLk39DdaHj4tbt/xweULpwgv8aL4c9BQLFa5D62khArfm/VtYW+U52KvdUzzXwUXOuDCUNQQppACdWSLAlltf409trE/V1oszQ1JXnVvy32VN+uPpjkjS5Wj1Nv9BvWceUkGldC0g74c3x2pnQz3U1JCVcqZYBshoN8tnwnnm8JNStV/kF/NHVCekvQ2O/xe6t9wFKQRVIuD2jtCREJDYHikihWl9A4kBBrubUy0sYSYq2PXgYlSUL90z+JDXtgx5dFw/YsoU2zUbPEG72uKPf040W+6GjgbZDSXtZxlso0ioQypJXu1lLP3Bt3/x/dFYYn892jP+dEuQMvyAVcUD7OkI+KK6hMsX0vSEvEvJj6JB65PAColweAI6xGEQ8oobqghIwhmRLqB3hv/fTskoGRVbG82PdpE7VE/J7YL/3eqnYgo17AXDhG3/f7oqdZx16qYJaE3BnSHmCmJ0O5J69J8vY7v0a+HqSTA72edSzp1EGQz7oCKfK4t54U+Kp/B438juJc8t5SdAk09o+Bs6yGcjE0S+g2kNDtUGASxPISag8SYiy3Vkbea1MJdQMJMdZHL4P+k1wJ9Uv/WGXq89KB5RP29qXN1JLxDzz1d7+v6uFib80Qv7f6Vb83KrOORbuSdAllSOtyMuQcd7p8Pd2kxgd6Mryo3MMH5RkgoD1M4TDgAtLbjugFxZNCd/R6vyf6JDC2yFuzEs7G9rEazjm0S2g3SGg3FJjEsL6E9jOXWysj761kTtfq1EqIvU56GPSfCC0iyZUQoW/61tjwh7Z/sQh6RiumVyb1iSgjsmTAwZ8t9dWk+3013UBO0+DEcZ2dB0dOkoTIZ7IL3Blyh16tQr+gm87wNFu96/9AJj14QVpZXzBa4ESlJ0roEiGX8cgj4iClntBrIm+QS+c3IM0PJhgkoeldUEJWxO4S6pu+RaV/5pbYqA7bT8/oWSEvGay8UfLSbveK2fuvpc3YsvnuHnCVD47LYmD7+ceplTFSQtBWtgDDszKlDLppkpI0UbqJCyrjQCTb64tFK/D7O3kh9Dc6SUw88edV/arQc+qeYl/NcJBQB/q/GwyREBmeP1GG3rlbfZdm/KP7Y5OeOqh+2mF2j2OxOb2swdhH9jOXWysjQEKs6Vqd6SAh1vroZWAjSahv+uZYH8INm77F99+t30zovOPovOzQB8UjlZnLJ+9+hDZryyaPnDwOrOaKcqufgV7SBKAUTiIPsSTQ2CQqIfUz2ZnSq9BWuvhu3J20Fz5dK0O/5oPyM5wgl4BEqutLJV5AQvnYCzIxgw2SEAsy4CUZ+POlx/bHJj9zCM7Kj8bmMgqlGaCEjGHgzdaRUO8bPqJ8CHwQ653+YWz4o5+cntpzh7JokPRmyXjF+8Z0pRlt6pZNkTd6FXAbMMDvq1nk90W3AF+zxGAmeiXkzpAroH3ke9oot9JVTErUEQ0CoTwQR2V9kSREWRLvUWEuTDIlxGL4PXtiYx7eF5vwxMHYlGcPqQNssoqn0aCEjMHKEur1Le+r9LxhYyzn9o++Gd/p02Ozs3Z8VDBcmv1KfvgxMU+8jDZ/y6bIHf33Uu/pDn5vdBTwFlDJEkUyiVtC6meyQ32zbzDnM9m8IA8iT7ExRaIb+Q3sBZkcsyVUH3KfgTx5NvaRfbGJTx5UH3AgXwNlFdREQAkZg90k1LMVYQPwXqwHZcjDm85M6bEtMj9359tLx8oDX58csdZXNhl5LS92RWFuVVvoIfUE5hR5qzcCNSx5GIUmCWXI+90ZobnZGdIDZn4mu0VpiAMB7WCLRD8uUX4BJWRyBt8CEroVCoyFIG/mkxEKxrffH5vU8ZD6mYjZL7KLrFbGPgwSYsxLKyPusamEuoKEGOujl1SQUI9W76q82Gq9StatG74Z88zmz2YOKN9cMKxi3isT5CfEhZEf00PEslniOXlNobfqIRBGHrAc5FTn4aREaUhC5DPZnkwpt7E+k80Lyljje0FKeXMxcjWdReqnuVjh4gJyd/In/V+NEiIh8o0YqzP0zsrYqAdATI+BmJ4+BGf48fWWxoCEWNPVynAbS4i1PnpJRQm92Gqdygut1tbSsiw2+MH3P5/4wtY983K3ryoasytv+fTkDpppVOoPE+b3Rr9iCUYL9b8n5FY/k60U5WSGOnra7PklnaXp4UTpGk6QTzMkkhCcqExyVC+onRj5MWzIg+oGEJQoH5RL4e/D0wLSA2nirl/RH0t67CIhFsPuroyNfmhf7KXHD8Ymdzqsjg7AKsQElJAxOEVChO4tRUow1v8/686OfOqDE9P6f/zx4qE7FiybKD1VMq38cnoYWTbk8xYFOdGb9HywcwIcV+q+zpCPwp/jB7T6OGlD6cQTqJvToV4a2wsS5EjztUorOgvnhAsq/S+yQb6Ajfwh/DkP/uxNnn1PX1V5Jf01Q2NnCbEYdletmCY8eVC9jDenZ20xRgkZw8CbnCkhwvMtBUpAxffAu19MeH5T5Rzvx6VFY3YOXT45lE4PK0uHfCqdfAyQvNBee28peqa+gApzomR/b3Vn7Hw2r511Lk26yiL/hbr4GbNuJgDU4vGOvBfUSgz9ETbAe/U3CAtOUPbChnqbC8ijOTHSwbVud1M6mYSiSuiWSCyVGX73HvotHPa/a4FMY07Po7ZjetfDzPXRC0roOwl1a1laS4s1Kr1vEs4Oe3LDySl9N32yYOinS5ZO2PnsawsjV9BDzbIhn02nL773X9DnxOq5PT9bnf/EwcfoP1sqUAsXA9gLMjLQ0+nD3DCXAKT0FUhpM/y5EOjHBeVbyEtbdLKaM/iWcMpLyAhQQrUMvCmMErqIhLq2WE1ZpdKlxTuxnHvLvhjXbePeWZ4tQsHobaNemba9LT30MHEmrSzcHmrdl6x6mAiO7QWdSztRvIwXFIm1ceKFE+QzwHqyUbU+8DAQJDQIigvSMMNAQrOhqNuNaSAh1vroJRclFJeEalmp8lyLt2M92q46O/Txdacm9/lg2/y8LYVF48q7Lp/xcdI+1pYqSV+24SdQ45bXr3kJ4/Re0LmQwfKYGygBQESaBjAdeDNI6D9QYJAGGXaXTSXUBSTEWB+9oIQSk5BK2lsqndPeVOnRbuXZEZ3WH53h/qhsyehPBtJDE3NeODHyLAjD2MtwgON7QedyXUC5CjZwGWsj6QUlZCzkRc1RD+6LTehwQB2CiNzwZxV9qzH12UPM9dFLbjuUkNES6py2Iua+t/SLKf0+2FQ49tMB9NDE0KhjwwnyGladSwjsBdUNbJQXL9hICYASSj7k+zrkJdYx5Gk8kJP6/pL6Yi1bCI2B4T0hlJChEhr+zPpjcwZtWf7K5J1J/Yy1nQOyyMZekAkh7wbBRhFYG0sPKKHGgwxFNPzcO0wdyKjih0AGR2KzGkFOKCHrSajfbWu+zu/1wc7Fo7eNssPIDI2ZtODu1pwg72TVuITAXhA7XFB+nrnBdBCPhMgLiEjyIcPeDCdyenBfbPyj0HN6irzLBHLqDsLokRymQs+MtSx68aGEdEsor8PaqlnezaXL8rdb8vFnywV6KXxQng/1DHtBZsXIJ+Vg542mk20wg26OzGUVG8Q8yEugw+7eq372Ytyj+2P5IKepnY/EZr7AFks8oIQaV0I92645O777+3sWDd828405uywx4oBd0qJM6ZyMy3DYC7pEeFHpwtxw8SLI8+gkG0zuTZH+rGKDND6DbyVP5dV+k2n8Ywdi+R1BTqTn9MIxpnBYoIQaR0K+B9edmZa1ZWPRuB096KGGiSNcWeRffEDW9CJ/vGAv6BJJK1X+H2yod+pvuHiBDf0qnWSD8baLXJt7c/irgTeHocggdoDIafhde2KjH6z9km2tnA7FZnUnX7OtL6FDzGnoxdcWJXQxCXVruSY2uvP7hxcM/rTYLkP4WDVQv8ZhL6gRQwYxZW7AOCA38+jkLpmBNynDyfsfiP0Zcsfu2Mj7KmPj2u9T5TThiQPMn9MLSuhCCWXftfarqX22bCscsyOPHlKYBMKLofRkjIygIipjsBekMbygbGVuxDi4Xgz9kU7ukhnYTrnHd5MiAmdYxQdBCCih7yQ0vOPGk3Nyt7398mTpfnoYYRJMs/fk30BvZQWrniUKiO1dV5k5X31NiZCzAdaGjIuA3JdOTnOy2kV+622r3Oa9SRmQ205ZDIVnS2678Nf1ixHiTJwuoX7/KTub32OzsmTEjklvzFWuoocNxqCkiYonKZfhCEK4a5Mm2AuKK3xQnsjcmJqRN7UQwv+kk9OdgTdL/85tJz+e2zY8CoT0lq9duJK8L4I4D9+NzpTQkEffPz3L/en6kolSF3pYYAwOJ4Tb8oISYteyxOACsr9piXmfH0+ZtBT2/JsT5PdZGzUOhtHJGZa8dpErcm8Mt/W1U3r62ipzQE4b4e81rKKFpBZOklCPjLLY+C5bDiweunPxa9MijfoFZCcETpqTdRnuK/K0HZ0NJt7AjunG2rBa4YKKwpVJGXRySYunnXSNr23kQV/bcB70lJaDnCRWEUPsjRMklHvvxi9n9P90a/HYUA5t3pgkhxeTMzQPAU7kR+LDCAmGC8pvsjauVsjvkxdh6eRMSb/0yp94bgrf4G0X7uptG54KUiqD3tJn5D0TxL54U1hCo5/ZfHzh4J2vvzo5fDttxhgTwgnh+0AUe1i1K1HIwwjNSpV/0Flh9IZeK01oJAXYyXNbrd3dqG9s594o/Wlg28hd3hsjHu+NShFQTm50I/Yh1SSUffvGb6b0+rSiaJQ0bmXBsV/QpooxKeSeNR+UV7NqliGI+DCCYQEJeZkbOR4EpZgvk6+nk2z05OXFvu9rF3H52kpPQ09pPLAaxHSQVfwQawD7JyUkNOLxzdVzfTuCL09SOtLmiGmE8AF5CkgoOZfhgrK/aTk+jGBY6LhyCb87RF5i5UTpGjpZy2VAhvwbbxv5Fm8bpZ+3rbIQxLQJ+BKAIog0NnaWUL+2G2P53bftLRwemvv21H14iaaRw5dFXgQBfcOqUwawjxfwsqrhoW8Sf8XY4HGhPi0SVBaS6dFJWzruthX/8twoPea9MTzCe6O8AthNiiHSCLSxn4SGPLj58zlZOz8smRCJ+705THICvZRbeEHewapPRgDTH4UPIyQpfDA8lbXRdSMoe8k0uYDcwco9pPOT1yr0i9zWShtPG+VFTxtpFhTG9+DvUWbRRAwFtrNtJDS+87ajS/KkktenVbalTQdjgZCRXMjYlsx6ZAzvXW/A+5GYi6S5GLmiVhzMjZ84MG2Yx9V0draJp03FX303hu/33CgPAl6G3lIFq4giiWF1CeXetfnrGX13bl82LjK8BF9OtGT4gDyaT9J9IAL0gp7HhxGSHMM+93BxlqeVKn+ms7Nlet0Z+pGnrdISCudzvhuVSVA8g9428rH6RRWJD6tKaGzHbacWDpRXvz559yO0CWAsGH5t+Bk40a1i1BxjCMjz/yLi12qTn7zY92GDL7hgBxhJQJ5I55Yy8aVX/MHTJnInyMgNFHpay5+QexyIdjytrSOh7P9sPju1x65I8YjItFXT9/2J7maMRUMuw4GAjjDrjQFwgnzQtS70azo7TLKTJiptoEtbwdoZxkCeWpF709mlbKCwNstpE+oIxXWst7XyDshpf/3Ci3yHFSQ0sv22M/Nz5A2vTtzTne5GjMWjvg8kyK+za40BCErUFZSfgVnhZTgzQ0bJZu4Qg4AzizPNxQpHjZnluWXf/3ozpZtzWst9PG3k+Tlt5A+h8H5OLkMhIKBGklC/jM2x/G67DhUOjRSumH6gJd1dGBuk6aryK0FAc6GmJPE+kDIOn4ZrhFyzMvQjTlBms3aKUYCIgi6hojmdpSOTnRn+J/QCHslpowzztJZfB0GFWQXaCZgtoSH3b/tqTn/5k1fGVw6kuwNjs0ANGckn8UEE4O1mjTwajKPTQqy8Ds4CgowdYyQLyGfH6Swdn7x2hy93Z0iZnsxQdxDSdE+mtB7+PAWCiqU6sJ6mSGhCp4oTSwZH3nx9yt676WbH2DC8KPeFE+XkfCUV4ILyHl5U7qGzwzRW4EzjITjT2MfaScYhD6azwzCSc8POq6GXcC8IKReK9DIo2DvqF/BUIJkS8t2+7ZuZvRW5ZMy+iatnHPwN3bQYm4YTlY68IO9n1xNjcImKBy/DWSTJvz+kfMWVSnfS2WEukW5pm/7H00ZOc2eEnoXiPTGntRSA4n1ELeJ2x2AJjX28omaxd/fa1ycdfJZuPozNwwelO+DE9WNWLTEKLiAVtnofB521TNJW7P8pnHXMY+0sAylPC0gP0Fli4gz5dLonM3y7u7WUBYV7SU6GvBUK+Te1Rd1uJCahnLblsWndlf3FI/YuWDl9bzO6iTApED4g8VCLShn1wzgEeatr7e5MOkuMVeISws3h7GMtc6cZhvxhWplyG50lJsEMyJCv82TIj7sz5dHuDOltKPB7Lyz4VkSfhEY+GPpivnvP5uUvHciimwCTQmmxSvoTSKiIXTuMofYek9wNR0WwaNJE5REuqBxg7TzDEOSytKDcms4SY2A8bfb8Mjs91A6KfC/oKc0BOb0Pfz/NFkFjEp+EJj+nHPMP2ffqimmHbqGriknBQH0gL9En80k4kFB4Ht4Hsnh4I749dCkEaWWLshBHZ4lJYrJvkP/ubi0/lJMhDYHC/yqISWKLwUwuLaGhd4W+mdtvz67lYw+MFqcdvpyuDiYFQz41Y8Kj2OSl1ECaGLmWzhZj1fzz9Z0/5wRpIXMnGokgv0LehKazxZiUvLT9P3W3DqVnZ8jdQAhTQUpr3RnSiQtFkUwuLqEJHSPRwoH7A29MOfI4XWRMigfkMxFqQrIFFHWVKfiisl1Cbg5ygvIuc2cay2JyHZjOFtNIyWtXfnnODdJNORkhD0jiNZDEwQvFYSR1JZT7n9DZmT0q97w86uCsNTOP/J0uFsYB4UV5UPJ7QHLUJcgv4H0gm4ULSo/BDjx8wQ41npnpGyqvpLPFWCTk3SV3htwhJ1PJz8mQN0Jv6QxbKPFQd8SEwbdJZxfn7P9w5bSjeK/HgeFFxcsF5YQ/tHkp4IR6CN4Hsmk4QR7I2qmGI8gT2uEQ6pZOXrvIj7Mz5Rbu9FBfkEgxSCRyoWQaxk3/nPjEnuplIw8tFheeuIJOHuOwgHzc0AM6w6wHBsIF5BlNxXK8p2jnwI58p/6OTQZcUMmns8TYJANahZp6MqXHoMc0EqT0JvSW9tQXzzm8N8qxeX32SysmH32K/jrGoUkri/QHAVWz6oChkPvO6/f8lc4WY9fQ+0OrmDvZKAS5lBMjHegsMTZOVmaFK++/im/kfbs/G3iL8s3QOyJfznpx77tvzznyD/ojGAeHL9vdmxOVk8w6YCCcIK/nyiIZdLYYuydNlG6CnbqRtbMTAXo/ldAgh9j9S6wYDObSgWO+By8qx+rXAcMRlFBzEUdnSbmQbwORxxyZO10H0LvaiM/sYzDOiCugPFI7WgG7HhhKQH6QzhaTauEE6Sk+wRG3oSF+BT2g8eRzvXSyhoY84ECEWdvo5YGwzENgfgsZ5Kv/FpB6Ni+VbmopRn5LJ4HBYAwMXxYZAMfbUVY9MBqXGB6ET8KleGBH9wCRVNXf+ZoQFIkUfTopQ0LkwQXkDjD9mbBc2y6YZzwI8gn48x2XoHh4MZRO3uSms8FgMHGm2eqPf8YHpWEgIFN6QHDSOS19Q+VP6OwxqRxekLJYjaBBQEAtRPk6OomEQnpRqigEZStzXkahXn4MF5DPUKCQMBjt4dfu/h0vSpPhOErui6gULiiXNBcjV9PZY1I+0N2FAj2G1RhYQA9FJJe86G/rDl+q3MMH5VJySY81n6QiKHvhjG58mrjrV3RxMBgMI+S9HDhO1zCPo2QgyBEiPTp7jFNCPtkNZx8zmI3iPIwQkCso3Q/zWsaavtlAl38nL4QHcaJ0DV08DAZDwwfDN3Ci8irr2EkGUF/e5YK7ccQNp4Y8Wg1y8LMaByFRAamPhgflOaa82BYnsFwfkC/SNntPxk9JYzAQODm7HQQksI6XZECOQTgZxC82Oz2k6632Duo3EEE5qre30KI0xHEBeTx0s5P6jXlDEJQArGtnvCGKcXLSBKk9L4Y3MY+RJMAFlc1cIHQvnT3G6SEfqYOGcf5XWfe5BFnXUPzqk261T6nVaXRWh/T68DFvjBNDPtsPJ2P6npjVA36WAcMKefH0W3kEpC70f2tOq5WhX0AhHwq9qpoLGp1tkNdyAQXPzjCOCDlmoc0PhuP+M/bxkBR28IL0KF0EDKZu0kSlDTSS4fQ/NaflOuUftfd+mI3OVsB67OIDStwSxmDsFPK6BQhoPusYSBqCIrkE+Qm6CBiMMXEFw+34YHgFs9HZFegRckEl95qVoR/R1cRgUiYgn7uBUmbbTxrybldQfgZmj6MhYIxL7f0f5SN2o0sJpqStx8FZMakTaNMvAqHz2rgZ7HMFledg9iggjHEhoxBwjfHSqcmQBxZwtAWM3aOOgCAoY4EvWO08aQjKYU6Uu8MioIAwxoUPSndwQflTZqNLRQR5Ag6qiLFryDiK0IaXMtt2cjnOiQoZaxKPHYxx4QJKMxCQeUN6WAUhnEU3AQZjm5CHjThBPsBs00mEXCVxCeH2dDEwGGPSbLX8Gz4gL2E1ulQHDqqDXCDUkW4KDMbSIZeQyUDFZo2AXQfyHlBA/i9dFAzGuKjXlFmNzikI8lboBeI4VxhLxyUqt0Lv52VmG04yMN/38aN0mKQEegL94Kzqa1bDcxgrmwvSv+lmwWAsk+Zi5Ao4SXKDCBRGu006MO/V/Gr5P3RxMBjjQr506oQn4eKgmG4aDMYS4csiN/OC0hgPH6jACeoyPrCbp4uDwRgbaGSOvA90McjQRGmi9ADdPBhMoyXz3Z0/hzY5AARk9rs/3wICmsMLe/5GFwmDMTZcMPwYXoa7EC4ol6Rt2vQ/dDNhMKbHFQy1g3Z40U+xmAFXGnopbcV+/FAkJjlpKh6+HBraG/UbHnIOdRgSDMbUQNH/KS/KfaFHfsEnWEyDPAFXKg9Km40nYpgkBopsN2YDRFTIjVj8XDjGzJCBR7lgOMhqj2ZB7g9zgvQUXSQMJjlpHqj4A5ztlLEaIXI+cm+6yTCYpKVFWYSDtjYRBHCU3Q5NY7urNPw0XSwMJnnhhXA2owEi9VDfixBCeFMWk5Sce+mUjOzOan+mIigSXyZfTxcNg0leSMO3wBmXbeACEhkfC4MxLrHY99KE8NPQ+zH5kwsXoVSa5VpZ3pQuHQaT3JBPezMbInIxVtJNh8EkHDJAMB8MFzDamelwQaUSemHZ16xcid/WwpgXOPsy94uLNocT5K/SxMhNdPNhMLriEiqaQ1t6iReUw6x2ZjqCXMaVhh6mi4fBmBN16A9BPsNslEhDxP1ZdAyGpPaYk4ZY4r4PhQvKb16/fs8v6SJiMOaFE8NPsRol0jAg7vV0E2IwmuIKhJryQXkwtB3rfJuLfIQuIOX+8/WdP6eLicGYG05QJjMbJ9IgpPeIA5titIRfI18Px9lQaDfb67ejRkVQNrjWVDxOFxODaZzwAfk9ZgNFNIAjKGAuHjIQMC/II7igvIvdfhqTcIGrTGlJFxWDaZy0FCO/ZTdQRCMz6abEYL4NnJykcQF5tPqeDbvdNB6CfIITpKHpGyqvpIuLwTReyMeomA0V0QQXVIJ0U2Iw5IGDq6FN5Fv2QR9BjjQPSDfTxcVgGj/QMAdc0FCROJB3kxd96ebEODCudaFfu9SXTJViTlBOXdhGGh8uKB+Dtgo9MxzpA2OxcEJ4OqvRItppuU75B92cGAeFF0PptQ8byB+y2oWFWMmXRfDz2xhrBg4ikdFokThoXirhS6sOSdNV5VfCPn+SE+RCXpA/q98WLIUg74fje8j1YuiPdPExGOsFuunWeV/BppAhj+jmxKRoXKVKS+jxDOaCykZWG7AaIJ/X0gT5Lrr4GIx1AweVwmrEiHbSgspzdHNiUijku1F8QOoC8imFov4Va99bDfWBiFI5G+9TYmwTOMAOsRozEg9h/L5QiiRNjFzLBeTusF+LoaAfvHBfWxhBXsoF5VvoqmAw9ggvKFFmg0a0IyheujkxNoytxQPAMu/kgkr/VitDv6CrhMHYJLHY96AB17AaNqIdMu4W3aINpp0Y+TH9K6aRY8dLbfUhyw3yWfjvVdKf6GphMPYLdOGPsBo4EgcBuS/dnA0GioYIvaat5GXGtID0QFOx/HL6T5gkh5wAkKcYycjVZD/YVTzn8U6z0u0cXT0Mxr4hb1AzGjgSD4LUlW7OBgM/W3+Mvs/4YHgNGd4FxPQwJ4T/Qn8Uk2CaByr+ANvzPpDNUOjtv8Wlzr3PN6C9dKCricHYP3xQLmc0dCQeBPkJujkbDPxcwyMoCwrpla4EhrmC0v2kkNJfxVwi3Jqdv+cCyr0gnSEgnDfteG+nQQS5DI7Vbk3Fw9h7xqRW4KC1xXsPVoYrle6km7PBgGT2sn7/YkAhPVO7f8JTuYDUk7yhj5fwau/nuEqVW8llUHJPRL3EmaIfZYT9f5SsJz5yjUnZwFnjHFbjR7Sj9ZtCrN/VhSBHoPi+Bn8f7gooj5Cnu+gsUirqfRyxwsUFQh1hfcfD+r6jFmXWNkkxqFSHky+w0s2BwaRmQEI59Q8AJA4Eeb+Wp97I6MrM3zcItWgJykfkGzHqzfeA3J08/EB6T2TedDEsFXJ2T5ZNfWAAROMSFI/a6wPBgmy2AXZ/eCBuyDpzwfBc/p0dv6ObCYNJ7aQJ4fasgwHRBkh8Hd2UDYYvVe5h/b6ZqPdJ1Kfz5DdJoSOyUh9TDsidiLCIDL6FyIFCLn/R1bggtb2V735WlR6dBr1k1olwvmCILNVlYSyjUyEnEeTSIidK19BNi8E4I2rhYBwUiDZI4aCbssHwYjiL9fuIs4ETgnLoTY8gY9PRpoLBOC+1l3HYBwlyCcSwpsezodcxm/n7iCMB+aznBSkLez4YDAQOipn1DxJEC/I3fEDi6WZsMCh6RAXaAXmYBJ92w2DOS+3wJYwDBmkQLhj+gG7CBtOidM9f4edxZAqnIshRoIALKg+jfDAYRlqKkd868UmkRIGikk83YYMh3xti/T6S2kD7qAT5TOVwZGsM5tKBg6ao/kGENIwrIP+Xbr4GAz+LlzudhKBInCAPJCd3tAlgMJhLBXpCnZkHFMIEiozYToxpurQCP7+h/u8jqYb8CfR6JrjKIv9tWlL+Q7rrMRiM1pD3PeAMDr8tpBHy3gvddA2GPP3E+n3E/pB3e+DPYvIOGN7rwWAMCPSGhtY/0JAL4YLKNi6gNKObrcFwojKENQ3EnoB4TsGfy6HX84KrTP473c0YDMaIpK3adS0U2M31DzzkAnx0kzWYzHeP/hx+Fi/FpQBwXAi8oHhdZfhSKQaT1JAX6FgHIfItG5qt3vV/dHM1GHXYGvY0EDtQ+27XcDKIKt2lGAwm2eHe3fN7Xv12CeOgRGKcIPWim+qS4QQFR0mwFfInXFCeQx7S0ToyOgaDSUL4YLgb+yB1NlCgVrcs3fe/dDNdMpwot6gduFN5Bx/6sB7qoKGCIpJ9hL0dDMZCyXx358/hrHAF68B1NuFn6CaKO9cFlKvShMhdsF0Hk20LBfAAex5IsuCCytfw53uw/SfyQvhR/Jw6BmPhkKH46x/EToacMdNNY0jUTyDANla//SMoGwEcscJg1G2qfroiPJd8X4mMGE83PwaDsUPgTHEk6+B2HILyUZoo3UQ3S1JCPttNPhMO8xsOZ+yv8YIcuWA5kItSVzhST3IpVMvHBjEYjIVz/fo9v+TF8DzWQe8UoLhVckHpMbpJTE1aqfJnl6g+YfciJyqT4M+VnCAr5y+fIxGUI+ThGThJmg7/3YMPSDc3e0/+Dd1sGAwmlcKtqfgXFL63LigEzuALPhjuTTeFZULGJFO/1Ko+Th8uID0AKMonGMtvW8hDA7BeEh+US6FnuPDcV2Cxh4PBODDq/SEHfg+HXI6km8AWuSGgXNV8dYWLE6U7eTHSCfaZF3pyk7mgXAKsA1FJ8P8s8JSeXA1UwLKJsFx+kMw4PiD3JZ+aTwvKrcm9Gxx/DYPB1Am5JEUuTbGLSioizyeXI+nqp1SuF0N/5MVQOvm4GhT/Tt9CvvSpPihRC2yHmWovhKL2Sog4auXx5nf/H36O/o76SDqdHhcIdSQnMN8CcsGHAzAYjO6oxYVZsFMLKLLbyIMCdLUxGAwGY5XwgvwCnP3KrOKdCnCCXIgvLmIwGIyFkyZGHoDewrusIm5rBHkC/86O39HVxGAwGIxVQ+4p8EH5ZWYxtx+HeSGc3SQW+x5dPQwGg8FYPWTYE+g9TGUUddvABeVPXUL4abpKGAwGg7FbyBNRnA2HneEEeWeaGLmWrgYGg8Fg7Jq0MuU2+rjuF/WLveUQ1CH7c8iIBHTxMRgMBpMKSROVR0BGrzKLf2MjyGHo/YzEb8VgMBhMCid9Q+VPXEHlOZCRwJSByYB4jsGfU3gxkk4XEYPBYDCpnnaieBkZ0bh2DDC2IJKJOv5YUH4Z7/tgMBiMg3PNytCP+NLQPZygjgRdXl8WRsIF5dMgnhWcGO7FlUX+RRcBg8FgMJgmTcjnsflg+A7oIeWSe0cgpoTGowPpfA09nvdBOtPgz2f5Mvl6OisMBoPBYC4dcrksLSA9oA6gST5KRgbGPDdQ5vkEldfUfwsq49Vx7MRQenMxcgWdDAaDwWAwGAwGg8FgMBgMBoPBYDAYDAaDwWAwGAwGg8FgMBgMBoNphDRp8v8B9dFKPXE4NHIAAAAASUVORK5CYII=;" vertex="1" parent="1">
                    <mxGeometry x="-280" y="301.5" width="77" height="77" as="geometry"/>
                </mxCell>
                <mxCell id="29" style="edgeStyle=none;rounded=0;html=1;entryX=0.446;entryY=1.041;entryDx=0;entryDy=0;entryPerimeter=0;" edge="1" parent="1" source="24" target="27">
                    <mxGeometry relative="1" as="geometry">
                        <Array as="points">
                            <mxPoint x="-633" y="340"/>
                        </Array>
                    </mxGeometry>
                </mxCell>
                <mxCell id="24" value="Azure Communication Services" style="aspect=fixed;html=1;points=[];align=center;image;fontSize=12;image=img/lib/azure2/other/Azure_Communication_Services.svg;rounded=0;shadow=0;glass=0;dashed=1;sketch=0;strokeWidth=1;fillColor=none;" vertex="1" parent="1">
                    <mxGeometry x="-445.5" y="315" width="68" height="50" as="geometry"/>
                </mxCell>
                <mxCell id="28" style="edgeStyle=none;rounded=0;html=1;entryX=0;entryY=0.5;entryDx=0;entryDy=0;" edge="1" parent="1" source="27" target="3">
                    <mxGeometry relative="1" as="geometry"/>
                </mxCell>
                <mxCell id="27" value="" style="sketch=0;aspect=fixed;html=1;points=[];align=center;image;fontSize=12;image=img/lib/mscae/Person.svg;rounded=0;shadow=0;glass=0;dashed=1;strokeWidth=1;fillColor=none;" vertex="1" parent="1">
                    <mxGeometry x="-650" y="176.63" width="37" height="50" as="geometry"/>
                </mxCell>
                <mxCell id="30" value="&lt;font style=&quot;font-size: 20px;&quot;&gt;Application&lt;/font&gt;" style="text;html=1;align=center;verticalAlign=middle;resizable=0;points=[];autosize=1;strokeColor=none;fillColor=none;" vertex="1" parent="1">
                    <mxGeometry x="-515" width="120" height="40" as="geometry"/>
                </mxCell>
                <mxCell id="31" value="Key vault" style="aspect=fixed;html=1;points=[];align=center;image;fontSize=12;image=img/lib/azure2/security/Key_Vaults.svg;rounded=0;shadow=0;glass=0;dashed=1;sketch=0;strokeWidth=1;fillColor=none;" vertex="1" parent="1">
                    <mxGeometry x="-390" y="-108" width="68" height="68" as="geometry"/>
                </mxCell>
                <mxCell id="32" value="" style="shape=image;verticalLabelPosition=bottom;labelBackgroundColor=default;verticalAlign=top;aspect=fixed;imageAspect=0;image=data:image/png,iVBORw0KGgoAAAANSUhEUgAAAOEAAACvCAMAAAA8P0lUAAAAAXNSR0IArs4c6QAAAARnQU1BAACxjwv8YQUAAAFfUExURQAAAAAAqgBAgP///wAgn////xUrlf///3eIzBAgjw0mjP///wwkkgkjlRAgjw4jlQ0ilA0hkAshkgsgjw8ikw4ilQ4gklxttAwgjwwfkQ4jk05crQ0gkwwikh4xmwwgkAwgkQ4ikhwvmA0gkg0hkw0hkQ4hkQ4gkgsgkA4ikw0gkQ0ikQwgkgwgkQwikw4hkw0gkQ0gkg0hkg4gkwwgkgwikgwikQwhkgwgkg4ikw0hkw0hkw0gkQ0gkw0ikg0gkwwikgwgkg0hkg0gkig5nw0ikg0hkig5ng0hkSc5ng0hkg4hkw4hkQwikg0hkiQ1mw0hkQ0gkQ0hkg4hkQ0hkg0hkw0hkgwgkQ4hkyQ2nA0hkgwhkQ0gkg0hkg0hkg0hkQ0hkQ0hkhkslyAzmw0ikQwhkg0hkw0hkg0hkg0hkg0hkwwhkw0hkQ0hkw0hkiEymwwgkg0hkhksmBotmCAym6HNsVQAAABwdFJOUwADBAUICAwODxAUFBUdICQmJy8wNDU4PUBBSUtQUlRXWFtcYGNkbXBxcXZ5foCAhIeIjY6Pj5CUlpeZmp6en6Ckpqutra+ysrO2t7i6vr/AwcXHyMvLzM/Pz9DW19rb3d7f4OHj5ens7/Pz9fn6+/sLj6/KAAAACXBIWXMAABcRAAAXEQHKJvM/AAAHbklEQVR4Xu2c6bvTRBSHCyIahbIUMGBR8QIVJIpLr4pyXetuVdzqglrXqLhE/f8fJ+1vspxzZpJOnz6mw7xfuPdMTmbeyWQyWbi9QCAQCAQCgcDtzd3vfy/w3byZr0fYRcd5+F+Jv7MWzLGLjvMAnOq0Mkyxi44TDC0Ew44QDC0Ew44QDC0Ew44QDC0Ew44QDC0Ew44QDC0Ew44QDC0Ew44QDC0Ew44QDC0Ew44QDC0Ew44QDC0Ew44QDC0Ew00xnNRBeMl9b/wJB4F/0HJXfnnuHlSzWRLUp0F4yWuQEVnXMMseRzWbxWoIF5n1DaeoZrP8n4YzVLNZgqGZYNiM/4YdmGnegozI+oZPoprNYjW8/3PYSKxt+HYf1WwWq+G9Nu7CRl3nNje808Yd2KjrWA29IBhuP8Fw+wmG208w3H6C4fYTDLeLaDiezdMsS+eTJEasnWE0TKYzlZlVMlckipMprXwFosFg0HDHHMWLJhak40VCC8MontYys2VmPK4TLTbu9fr4XYONpV1QkKHRHREnaLrt0VW0M19sU2OsCpoN4xmKKuQ6O/hZo9s8wO+aoaqd+OVMuGOEIs3y/9VW6rcYDoRWKmaDRsP+BAV10ngFw4HQu4q8g2tIhoNq/WbDEe9CEDcYxsbMndaGA9M+VAfXEAzr9RsNx9hAYop/NUgB5q5Rwwz/akyGtn3UpxxuSDrHYBjtobwVSFpCD7AVk6GVHSQtYIZ90jkGQ9sR5CBpwQixdjgZ5vNQATVM6ACTDVdrZtWQnmgNuBlmlXORGrIJSjQ0nuYGkKagQ6QJR8PKHyKghgzJMKIHugnkKeTLhBlHw2wPeY6GK47RiuEQgda4GhaJToaRfK21gMReb9WD725YHEQXQ/FApJPRzk5iGIRINGUmKlNYguXYDedjc6U608VQOBCzkV4ii5dilElnYVpkSotcq+E0LipFpEqCMtkwHY/iwSAeJjPBUEiZ6KoU0jSEoh53mBbni0LoAIthcd+hiPgSWX8tJRmW3ar2rLuihF/RqnUpuCIKYvxaMqtn8oWS2ZAssXmlSBUMSa0M1gyawGciFLDBNKdVsXYaDcvLwRJeKf78EDdsEuStYDfX7FghzkZhbQGZ00dBgckwZa1ksxgOMjdsfBhAO6v+Xd4CugnC9GQRZjE6QEyG7DbQ2C5mKLSXgA0LqstcQE9VhGkb+DnOjoTJUKiU3gxg5cYMhdQ6xoFUgW6DMH4rEOqi7TEZCqcS7RxMpnSPzV+ksnMe8Sp0rwjjtwKhb3rkcmowlP7EF+v6ZZi2pfmLImoo9YlsSKPSgdi8IZ2EOYYd1Wg5SskTlQUo0hgMpW41DC5qKMxRBHYkhLFGLxcI0wWdMG3TZhoMpcNPpzfDTCNMbxRsWSD8YT/DszY6lwoDhi4KTIbsSsqvtrgWUUOhuRTaTj5i2PoCcbpWEMYa3cRkKCyX6QgxXA9bGLI1DetPtjpDnD2+YucEW5iYDPmVxrRzB0P2NDAlMwZ/ioMCfntIzkT+FMdoSJdt/H4AfeBgyNtZVxQeU6GEVkYz+/weyGhIVu3CY3SkOhiyE1E1tDJQh7wubShkVod4LBSbDbO0MlCF+259proYSk+DJ8uWRtI7pdJQelg605ns/M6xGKpKl4M8GkqVmu7x2xjywbZgPl2+7xRAokOm1VBhTC3OUxdD4Va8AeSt+jJA0WRopLiwOxmyhVsTyFPVGQ6VEVfDcqp1Mlz5UCBNwSdiO66GpYebIbtbbwBZOfLDTSOOhpX7eEfDFUcbsnKE53423Ayrz5ocDVesEUkLVnsn4GRYW0e4GtpfsNHjhJwlwsqlhOq7GM5rCyVnQ1tDx/YvFSwDdUzXBCbDxNzBM52zxN3QfFkcN35tYpqLx1Fbw6Gxg8kD+LUM5XcpqdpFk6H8MUye2drQ0MEzdle1lqFa8dKWpotXLY2GQmY2zU+fFQyF76rmlTcumjUN1SW82pWzZHmS51/EVVkEKcPqK8N0jI2QodEtfvCvOo8sorUP29JJ8batBvakqZ+l7egPk/HeXv5CDoHWqMxEZSbDxsxHoaF5CnFdudqFqLc9PAYzzTOI+8MTMNM8j7g/PA0zzYuI+8OzMNO8jLg/vAAzzauI+8NLMNO8jrg/vAIzzTuI+8ObMNO8h7g/vAszzYeI+8MHMNN8jLg/fAQzzReI+8NnMNN8hbg/fAkzzTeI+8O3MNP8gLg//AgzzU+I+8PPMNM0f/ezbfwKM81viHvDvt9hpvljH0p84SDESg6ixBcOwavkEEp84TC8Sg6jxBeOwqvkKEp84Ti8So6jxBdOwavkFEp84TS8Sk6jxBfOwKvkDEp84Sy8Ss6ixBfOwavkHEp84QK8Si6gxBcuwqvkIkp84TK8Si6jxBeuwKvkCkp84Sq8Sq6ixBd24VWyixJfuAavkmso8YUT9MuN+QmUeMOx3Vtwy7m1ewxxnzj/KfSy7JPziHnGyesQvH4SEe84cOmm8rt56QB+95EjN7IbR/Czp+x/aD9+CgQCgUAgEAgI9Hr/AcDxNGlg9QCeAAAAAElFTkSuQmCC;" vertex="1" parent="1">
                    <mxGeometry x="-308" y="-105.84" width="105" height="81.67" as="geometry"/>
                </mxCell>
                <mxCell id="33" value="" style="shape=image;verticalLabelPosition=bottom;labelBackgroundColor=default;verticalAlign=top;aspect=fixed;imageAspect=0;image=data:image/png,iVBORw0KGgoAAAANSUhEUgAAAnEAAAJxCAYAAAAtjeQ4AAAAGXRFWHRTb2Z0d2FyZQBBZG9iZSBJbWFnZVJlYWR5ccllPAAAVbpJREFUeNrs3Q2QHGl95/l/ZlW33qWaVzHSwJQwY2CNUc+we8TtXqxKEXe354h1RMsbYBvWQbeBGdizkGQwZm2DWgZzPmNQC+EFBox6DvO+azV4z3bsXlgl7gy290bTmuEwMwOoNC/SvEqtVr9WV+Vzz1OVrenR9Ft1Z+bzZOb3Y1eUhhl1VT+Z+Ty/fPJ5EQEAAAAAAAAAAAAAAAAAAAAAAAAAAAAAAAAAAAAAAAAAAAAAAAAAAAAAAAAAAAAAAAAAAAAAAAAAAAAAAAAAAAAAAAAAAAAAAAAAAAAAAAAAAAAAAAAAAAAAAAAAAAAAAAAAAAAAAAAAAAAAAAAAAAAAAAAAAAAAAAAAAICbPIoAgOvu3n+hot969Gu3fpXnvZZSm/c6q18jZ47vqFKaAAhxABBfaDMBrVe/9oTvURrWr9PmXYe6GqUNgBAHAGsLbqUwsB2Qdq9bEkb061gY6EY5CgAIcQDQWXg7GIa3kqWvMRqGuUHCHABCHAC4H94IcwAIcQDQQYDr029HHQpvC4W5QzrIDXG0ABDiABDe2hMWTuhXJSVfuapf/UyAAECIA5DnANcbBrhSyr76aBjkhjmKAFziUwQAEghw5tHpyRQGOAm/88nwdwAAZ9ATByDO8FYKw1slI79SVb/2MekBACEOQNYD3ClJbs23pJi15fYS5AAQ4gAQ4AhyAECIA0CAI8gByAMmNgCI2skcBDgJf8eTHG4AhDgAqRfO4Kzk6FeuMGsVgC08TgUQVYAz68DltWdqH+vIASDEAUhjgCvrtwclnevARcGMi7uLnR0AJInHqQCikMadGKJUCssAAAhxANIh3My+Qkm0xsf1UQwAksLjVABrCXCmB+qc5LsXbj7zWHUXy44ASAI9cQDW4iAB7iVKYZkAQOzoiQOwKvTCLYreOACJoCcOwGrRC7cweuMAJIKeOAAdoxduWfTGAYgdPXEAVqOXALekUlhGAECIA+CUAxQBZQTALh6nAuhIuDvDOUpiRXaxiwOAuNATB6BTPCakrAAQ4gCk0B6KgLICQIgDkD70LlFWAAhxANLk7v0XKpRCZ/7V713soxQAEOIAWHPoC8+Wt9/gMeOyQ1s3eSd02Z3SL8IcgEgxOxXAsuFNvx3Wr75Hngjk6csBhdKBV9zgy2tfee1+uaZfR46++9YhSgYAIQ5A7OFt7n87+9OmjI4rCqcDpc2e7H514fr/uRXm9GtYBzp2dQBAiAMQSXirSHuh2pcNyv/7HzVluk6I68T6bk/e/LrCYv/aBLhj+jVImANAiAOwlvBmet4qi/03px9qUFCrsOeNxeX+E8IcAEIcgI7Dm+lxO7BUeCPExR7i5huS9ri5GiUHgBAHYKHw1iftnrfySv8OIS6REEeYA0CIAxBNeCPErc2bX1eU9d2r/uvD+nVMh7kqJQmAEAfkL7iVpD3L9MBqwpsxXTcTGwhxq7HKnrjrmRB3hDAHgBAH5Ce8HQzDW2mtP4+eOKshbn6Yu5+15gAQ4gDCGyEuXSFuTk1YOBggxAHISHi77+UL9Ebp9MOEuFWFuJ8vxvnjW2FOzMLB97A8CUCIA0B4W8DfP8Jiv51qLfb72kISH/XiWnOEOYAQB8BtB+9rLdD7jrjD25yHzLZbE4S4TpQ2efLGVxeS/MhrYW6QMAcQ4gA4Gd6W3F0hDo88GcgzlwMOQAe23+DLa2/3bXy0CXBmeZIjOszVOBIAIQ5ADsPbnKeeD+QnFwlxnfiZ23zZebNv+2sMEeYAQhwAO+GtT9ozTXtsfo8rE0rO/rTJAenA7lcXZNsmZ6paE+bu12GuypEBCHEA4g9vq9pdIS7fZYZqR/5lvDNTV8uEuCOEOYAQByDa4GbWdet1LbzN+f/ON+WFMSY3rMRNWz35uTsKLn9FE+KO6TA3zNECCHEA1hbeIl+gN2qMi1s5R8bDrURN2j1zQxw1gBAHIGPhbY7ZQ/UfHuGR6kr8d69d08b3hDkAhDjA0fBWDoNbXxrC23xnHmvK+DSPVJeyeb0nd99ZSOvXZ605gBAHYJHwFvvuCnF65rKSR55klupSXnt7QbbfkPoqljAHEOIAZCG8zWk0249UG+S4BRUL7UepxUJmfiUWDgYIcUAOw9vnn63oK83aAr1xOf9MIOefZYLDQu641Zc7tvtZ/fWGROkwdy9hDiDEAVkOb5K98Dan1Rv3KL1x12v1wv1spnrhFg9zZuHge1lrDiDEAdkJb33S3pS+kvXf1fTE0Rv3Uq1euFv9PP3KJsQdIcwBhDgg7eHNyQV640Jv3EvlqBdusTB3TIc5Fg4GCHFAWsLbM2F488p5/P2fGQ3kkSfpjTNee7sv20t+zktB1aTVM7d9iDMCIMQBLga3uQV6zWPTct7L46FzgYxO5HvduNImT964y+fieBFhDiDEAe448GJ4O+ClbIHeOE3VpfbfHm2a8shrmYzecau/745bPRPq+zgjXqTmrTV37N7trDUHEOKAxMNbOWycU7E1VoJq+nVEN85Dd++/0Kv/fDKn5bDvzPEdw/POlUysBxh10CXMAYQ4IOnwRoO8RHib/z/qIHdU2j2VeTKoA9whgn9HYW44PH9qFAdAiAMIb8moho1vdbH/QAe5U5KD5VXmykMHuL3LnEvXHsET5l5miDAHEOKAqMKbCR+Ma1pFeJsX4kxQMUGuJ+NlMqJfe3WIG13huVWSF3vmypxSLwtz96/k/AJAiAMWCm+Z3V0h6cY1B0GuowC3wPnWJzlbUzDqmwUAhDgQ3ghvi4e3NT3mynCQW1OAWyDMHZDs91quJswd0+cfCwcDhDhgwcaTnpAYwtsCQe5khkKyCRf7oghw3EysSE0WmEADgBAHwhva5pZ+GIprgHlGZq0uOAuVMEeYAwhxQHwNIwPKlw5viazbFa4jd0LSN0PTlE3/3DpwCZ2zZWF2tPVzFiDEAbbC2+dY2mERNX3l32+jIdRBrhwGuUpKyqoaBriapRuQsijC3JJh7j2EORDiAMJbHsKbeST1HvuPpHSYM6HkqMPHxwSDQzq8DTlyTpeFhYMXO07D4XldozhAiAPSG95MQ2d6LXpp6NwMb9cFORfD9rUenqgnL3CDErshwhwIcUB6w1sfpfESVTFrvL3H7cHgjoQ5p8PbImGuTxjnuViYM+d9laIAIQ5wtyHrCRsxwtvLw9uRtDViYZjrlWTXTRsJw9twGsLbItdBnzDjOjPXAUCIQ9bDW0VYhiHTjVY4AcIEuj3he5TMGKrTYXCrZei66BMWDl7sujimrwsWDgYhDrDlfYS3xQyZ8PbpDI8F0qGuEoaT3dLucZp7LaU273VWv0Z0aKtyneRWLbxOhigKEOKA5BqlPmlvSk+jlLPw1kHIM49iS1nqWSPMEeYAQhzSHt4Y6/NSo2F4O0Z4wwqvI8aOLh7mWuslfpq15kCIAwhvMYe3YzQ4WMN1VRZmcXNtgRAHxNDAsP4VDQySC3NzPXNcay+91oaEXm4Q4gDC2xqZRuSIfg0T3sC1lzgT5hhvCkIcQG9A5+GNQdewEObM5KEyJfKyMGd65kYoChDiQIPxWR3ePMblLGAkbCwIb7AZ6Mx1yXjUl6uK0jdX72XhYBDikNfwxqDqhRsHoXGAc9crYY7rFYQ40Bi01qoyj017KQ0aA6Ty+mWtuZerhdfvEEUBQhyo/PPDVPr3E97A9UyYAwhxcK2yn9vAnMr+5eHNVPY1igIpvr5ZOHjxMNdeOPi9zCYHIQ7pq9z7hDE0hDfk5XovC2NcF/Liuo6EORDiQHijIgccD3MsFbRwHWBu4I5xAwdCHFyruEthpX2A8EZ4A8I6gYWDF2bCHL3xIMSl3d37L1T0mxlTsjsMP+UVhKDavNdZ/Ro5c3xHlYraKbUwvA0R3kCYY+HgJcKc6ZmzunBw2tshEOKSvFjMhWEG+u+R6JfYGNav0+ZdX0yx3uER3pas2JiZBixcb/QJQy0WUpUElxfKSjsEQlxSwa0UXigHwrudJLRW+w8vpMh6gvaHg5c9Bi8T3gDCXKRUGOaOxxDmstQOgRCXZHiz3Vt1bUzWWi6i/cw8W+oO+piudIcpCqDjeqUirDW36E3h8QhuCrPUDoEQl6fwFslFFFay7yC8LRjeYrljBghzWGuYy1I7BEJckgHOhJ2j4u44MXPhHNIX0BCV6qqYHrdjhDcgljDHwsGLh7nWwsHHVzBRKivtEAhxSYa3sn47kaLQY0JI//UDT/f/B8LbIob0lWHuiGsUBRB7mCuLYvjGIuGn1ZN1/N+9PMxlpR0CIS7pANcbXjilFFYI5gIa1uGtT5Id8Jqe8GYeZ/w7whuQeJj7DywcvETdbeqmY3N1UxbaIQ4rIc5GgDNd1gfT/Dvcss2r/ewOv8zRXLyCBGA1zLGk0RI3mn/7j83RtLdD0h4nd4jDSYhLKryZiuSkZOSx47aNnrzudl+KhdyHt0UfVQBwJsyxcLDWaIr86MlArkyqrPxKVf3ax6QHQlwSAe6UZOzR46b1nrzhVbkMcoQ3IH2Brk9yvNacCXA/eDyQiWmVtV/NrC23lyBHiCPAEeSWU5P2eLchzmyAMEeAI8gR4ghwBDnCG4Dkw1xFcjCzPgcBjiBHiIstxJ2SnCy9YcbIveEOP2u/VlW/7ie8AYS5tPrB+UyNgVu2ztYhbi9nNSEuigCX+lmondpxoye7tmciyJnwZnreqpzJQG7CXOYWDj73TCAXLqm8HUpmrRLi1hzgzPo7J/P4u7/+dl9u3JLaU4LwBhDmypKBfZ8vXVXyj08GeT2M+1hHjhC32gBnKoAHJadrE5lxcT27CrKuK1Vfe0jaa7yNcAYDmBfmUrlw8MysyMi5Zms8XE6ZcXF3sbMDIW41IS434+AWk6LxcSa8sbsCgKXCXOoWDs7ZOLjFMD6OENdxgDN3bCcoCZE7d3hy6zYnTw1zhzbcDm+vILwBWGGYezoVCwc/e0XJYxcUB6zNbM81RDEQ4lYS4MwFfk7Y4qXFPFZ90884tezIvAV6X8EUdABrCXTmht25tebM49MHfhLk+THqQvX+LpYdWaa9pghaDhLgXlqZXLis5JU3ey5cxK3w9hnCG4AI6BvBIf029BuOhTlT5xLgXmKu93SAolhc7nvi6IVbJN0XdNnY642rheFtiPAGIE46zJkVCcyYuYrNG+cz9MItdiNPb9xSbTVFQC/cYpXKxUuJ98aZ8HbkM/9r604ZAGKnbxTNONvh3/iTp02Is7JwsKlrCXALojduGbnuiaMXbpmEP9cbF/9kVcIbACeEYc5MgOhL5IY5oBduGfTGLcHP+e/fS4BbonJpthedjFFVv/bq8LaLAAfABbouqupXvwkO0l7KKFamjiXALakUttVYQN574szCvj2cBovbtF5kdznyrG/Cm+l5q1LCAFz2G3/ydFnaj1ljuek/WzMb3FPOyxg5c3zHXRQDIW5+gDMX5jlOgeWZ5UYi2sXB3NXeT3gDkMIwF/nCwWZ3BrOsCFZkF7s4vFyeH6fSPbtCl8bX/EjVhDfzyLSfAAcgjXTdNapfA9J+zHpE2mO1bNettNk5l+fZqXs4/CtzZVLkthtWHd7MY1PungBkJsxJe7bkwG/8ydrWmjN1KzpqswcphpfK8+NUboE68M9ft+JO27kFeocIbwDyYLVh7ns/4lFqJ84c38EuU4S4VoCr6LdTHP6Ve8OrfNm6cUXhbTC8UwWAvIW5FS8cPDYp8oPHCXEd2quDXJVieFFeH6cyI7VDEzNKh7gFM39Nv+4nvAHIO10HrnjhYFOnYlVtNyGOECe7OfQdhrjpBcMbC/QCwMvDnAka1aUWDmZZEdpuQtzqlTn0nTFT4QlvALCqMGdmsx6eH+bm1amg7SbEcSLEa3rWdP17/YQ3AOg4zJmb3/55Ya5X16nsFkTbvWZ5ndjAYIRVYGYQAKydWTj4ez8KLlMStENr5VMEAAAkh0lgIMQBAAAQ4oDlhfvNAgBAO0SI4wRIEzYfBgDaIdohQhwnAACAIAIQ4gAAAAhxAAAAIMQ5qcahp8wAgDqVMiPEcSJQZgAA6lTKjBDHiUCZAQB1KigzQtxCznLoKTMAoE6lzAhx6TPCoafMAIA6lTJLs9xuJHv3/guKw79ybDoMALRDtENuyfMSI8McfsoKAKhbKStCXPqc5vBTVgBA3UpZEeJI9ZQVAIC6lbIixMUt3LuOQZLLG2GfPwCgHaIdIsS55hinAGUEANSxlBEhLn1M9+wop8GiRoUubACgHaIdIsS55szxHaMk/KXvfsIyAgDQDtEOEeKcM8hd0KJ3P4MUAwDQDtEOEeK4C+LuBwBAO0Q7RIjjLoi7HwCgHaIdIsRxFyRyiJK45hB3PwBAO0Q75Db2IZvn7v0XTum3Ss6LoaovnL2cDQBAO0Q75DZ64l6qX/LdnT0algEAgHaIdogQlx7hitB5Pnn6WRUbAGiHaIcIcWm9gMyignkcTDkY/u4AANoh2qEUYEzcInI2LoHxBwBAO0Q7lDL0xC1un+RjY+KR8HcFANAO0Q6lCD1xS98FlfSbuRPqyfCFs5dp3ABAO0Q7RIjjAuLCAQDQDtEOJYDHqcsITy7znL6aoV+ryoUDALRDtEPpRk9cZ3dDR/XbwZT/Gmb2D6uCAwDtkBW3lUT+z4/uIH8Q4qxcQL0FX042g9R99dYCikzfBoD0t0P67YR+ldL0vXXbKT+z3ZMbNrf+ce9n33dblaO5NjxO7dCb7/RGfv5VnmzdkKqvbS6UuwhwAJB+YV1+l6To8appM03bGQY4o4cjSYizoWddl8jrb/fk1fqOouB2Cc71vu1lBWwAyFSQq4Xrqjm9TZdpI01badpM03bOs4ejSIiz4dqJd8tWfSu0y5Pbb3IuzJkL+oh+7dIX+RCHDAAyG+ZMHb8rrPOdCXOmTTRto2kjTVu5gApHb+0YE9eh93764oOyQDewGSP3tL58Ll5WYnG8nLmAj0l78gIzfgAgR8KlSMykhwNiabycCW+33eDJK0qyks6Nuz77vttGOHKrV6QIOtaz2Im780bRJ64nl8ZNoFMyOZPYdxoJw9sw4Q0A8ims/wd0mDP7rvaGYS6RsWcb17Xbvxs3SydPpnokHztSxIaeuA6899MXK9JecHFFZmZFLk+IjE0puTwe+dcxA1tPh8GtxtEBAFxPB7pyGOj2hO+RMZMUtm7w5IZNcv14t5Ua+uz7buvnKK0ePXGdqXTyH5uT2nQpm7sTY2xKWr1zkzOqFfBmGu2gt9zPWKeP0lRdhmebrdA2okNblUMBAFhOeJM/GL5MqDPtmOkB261f5XmvZdsh875xndfqdYtohYYKR2ht6InrwHuPXTwV50lnxtI1gvbFssCR2qXvWGocBQBAXG3bku1QPG747IHbGAa0SsxO7UysYwvMOIJFLpwaAQ4AEJORFbRDcalQ/IS4JO5UTICztTp2lSMAAIjJaYufzXpxhLjM3y2cpfgBADGp5rRtJcTlyO6cXmAAgAwLx6TZWuqD7bcIcdm+W9AXGOvoAADiZK2dee+xixWKnxAX5wlWlmWmYMeoyhEAAMTM5rg4QhwhLlY9Ob2wAAD5ULX42UxuIMRl9gSrUvwAgDh99kBrGauapY+vcAQIcVk9wRgPBwDIdHsTLuMFQlz0lEiPar8n/RphJWsAQEJt3WlLbZ15VTgChLjIvcfurJkqRwAAkIM2h3FxhLhY2AxxLPILAEjE59rLWdl6+lPhCBDisnZ3UKX4AQAJsjUurvSe9nJeIMRFSEmPpQECtc8dYNN7AECibd5psTcwrsIBIMRF5j2DVje9Z1YqACBpVYufzbg4QlykbN4VsMgvACBRnzt4m80QV+EIEOKixKb3AIC8sdX+lN8zeLFE8RPiUn9XoO+GeJwKALDBZvtTofgJcWum7wbKwqb3AID8sTmch3FxhLhIsOk9ACCPqhY/u0LxE+LSfjdQpfgBADZ87mBru0dbj1TZQ5UQl/q7AcbDAQBsstYOvWfQ6naXhLiMsHU3MBLeBQEAYIvNYT2EOEJcau8CqhwBAIBlNtsiJjcQ4lJ7F8Cm9wAAqz53sLXtYy2HbTAhLgNY5BcAkHc2x8UxwYEQtzpKSUW/xMKrFt79AABguy08baktbLXDHAFCXMfuPcqm9wAACOPiCHEpxCK/AIDc+/whq9s/8jiVEJe69F+l+AEADrHVLpXvPdra/hKEuI5UcnrXAwDA9VgvjhCXDjr1m7FwtpJ/lSMAAHCMzbaJcXGEuNSkfsbDAQCc8vlDt9kMcYyLI8SlJvVXKX4AgINsDfXpCZ+QgRDnfOpnPBwAwEVVi59dofgJca6fLCOfP8Sm9wAAJ9kc7sO4OELc8u49yqb3AAA41kYxLo4QtyI2Qxyb3gMAnBQ+KarlsG0mxKWH2q1fYulVpfwBAA63kVVbbeS9Ry8Q5Ahxzqb92ucP7ahR/AAAh7HoLyHOTTrls+k9AACLq1r8bCY3EOKWxKb3AAAsInxiZGsVBSY3EOKWoHTKtzYcjp44AEAq2sqqpXaydO+nLhDkCHGLqli7u/nNHVWKHwCQAoyLI8S55Z5PXSjpoF+21BFHgAMApIJps+w9tGJcHCHOvXTPeDgAQCrc95s7bA7/4XEqIW5BNtM94+EAAGlStfS55Xs+daFM8RPiXEr3VYofAJAijIsjxDnF1kkxct9v7mDTewBAmlQtfjbj4ghxL7rnU1a38uBRKgAgVe6zu6IC4+IIcS9hM8QxqQEAkEa2OiF6zIoSFD8hbs5ui59d5fQDAKSQzfarQvET4myfDKP3/Sab3gMAUsnmkyTGxRHiWuPhbG56X+XUAwCklM02jHFxhDjrJwLj4QAAqRSurFCz9PEVjgAhrr3pvT3MTAUApFnV1gdbXlmCEOeIiq0N4O5j03sAQJopOS32NlIlxOU5xN3zydYU5XLe7l4AAMhAW8bkhjyHOGF9OAAAVu2+97dWWLC16xCTG3Ie4hgPBwDA2lQtfW7pnk9eIMjlOMSx6T0AAGtj88lSheIXKebxl1YWN73/wvvZ9B4AkIm21OaTpd0cgRz2xL37k2x6DwDAWn3h/VZXWqhwBPL5OJVFfgEAiIatIFd+9ycvlAlx+bMnhyc7AABxYFwcIS4XB330C+9n03sAQKZULX527sfF5SrEhV2vbHoPAEA0bI71rhDi8sXmAWc8HAAgU8IVF2wFuZ53t3dgIsTlBIv8AgAQrarFz64Q4vJCSY+tDXstT8UGACCutvW0rba11a4T4rLv3X/c6nK1dbAJcACArLL5pGlPngs+Tz1xFYufzXg4AEAmfeEDrZUXajls263L07ZbNrtcczEe7u79rd0wTkXxs84c3+El8H379NuJmD9mn/5dhiP6vgP67XCOrtmqLru9EZWdsnTdj4avs+E/1/TvxPjY6K9lcx33LfCv+nV5D1FCyVyvixyD2L37jy9UdJCsEuKyjUV+kXSA648qwCH1N46988690bBOOB0GVULd2q7lniXCg7npIcQl47StECft3rhctrM8Tk3gblzfIbDpvVuVfiWBAHeEHgAsohSGuqP69aA+H8/p11H9KlM0q3J0iX9X1uXaSxEl09ZZ/OzcLvqbixBnulpzemJj4bv2kzF/zJAOcAOUNlbIhLeD+mXC3INhLzFWfkO2XP1+gJKK3xc+sGNu+IANlbyWe1564tj0HnMBzozZi3NxyGEd4PopbayhrjoR9s4R5pa3kjGilTDsIX5VS59bevcfX8jlUiO5CHFKZI+9JWwYD+dIgDPB7WTMAc7ciRLgEIUyYW7Za9oEs5WGs8OUWCJt7WmLbW0ug3peeuJsHdzRL36ATe8dCXCnwoYxzgC398xxxj8iljD3YNiTjNUFswrllwjGxRHiovWuP2bTewJcK8DFWYGb4NZPgEOMzPlrgtxRiqLjXrg5jI2L2RftLvNRyWOZ56EnzuaBZTycfUcTCHB7WSYCCTlIr1zLah6P9jEDOBG2glw57LQhxGUMm97n9259sQVAo7SPAIeEtSbo5HWs3Cp74dYS/tAZm50XlbwVdvZDnMXNcb/4ATa9t1jRH00gwJlHqBxj2GCGCZzI6ePVtQQxeuPiZ69OVPkbF5fpEPeuT4Sb3tuZKkPjbi/AmfB2MOaPOcRivnDAwbDHOS/XdkXW3tvSx2kTa5AasTU9VeiJyxybB5RHbPYCXNyNmlnMd5DShiNM79KJcBJP1kXxOPRATsrKii/+VmuCl632ryfsvCHEZQSL/OYrwFUSCnCsBQfngpzEvxOJC9d3FDfmppE/yCkTq6rFz67kqaCzHuLY9D4/AS6J7bTM3eUhShuOqmT80WqUkxLojYuXzU6MXM3czniIUxVLa0fXwi5lJBfg4t5Oi8V8kQZ9WQxy4Sb2lQh/pKkr+jhdYmt7R6zt2yBqT55KOrMh7l2feKpi8eOrXMSJVe6tWXoxB7hRAhxSFuSy9rgwjlm4LP4bky/+1s6afqtZ+vhKnso6yz1xjIfLR4BLYjcGAhxSF3qysul7OFmpHMOPLrMvbayqtj7YcidOoooZ/t1Y5Df74g5wIm7txjAk+erldTE4H1rh9V0OX7vDc7Rs4bue1CFlVwZuQA7H/LOHqEpjcdbiZ/fkpa7McoizlcRHv/hbOwlx8d+dn0ggwPW7tBuD/i41sfeIAuEN2moWeA4XmDXjut4hyT0lmBtqsC/F13lfzAG41RvHmo+xsBmiTCdOLpaByuTj1Hd94qmysOl91gNcXwIBjoodkQVws7agft2l/3GXtHt/kugh6w0nBaRVEttkvYMzNHphZ4atXuBKXso5q2PibB7As1y+sQa4gQQC3BABDjEHuv4wzCXRW5DKhYAT6IW71l5kZfygg6qWPrf0rk88lYulRjIZ4pTIHmuTm+mJi7tSj/vOnMV8kVSYG9UvM8bO9M7F+di+JOnc+P1wRj8rN3R7eNZiW0yISzFrB+9Pf2snIS6+ABf3+ldVAhwshLmR8DHrkRg/5mCaNn5PsBduDr1xMdWpFj87F+vFZS7EvfMTT5UshjgCXDwVek8CAc70hOyjtGExzA2E52Bc44jS1Ntk47uyblzELHdq5CKUZ7EnzuaBY1ZqPAHuVMwfUxPWgoMbQW7YnIsxBbm+NPTGWeiFm9Obpt7KFLEV5MrvbE9yJMSlipIee7t9sMhvTAEu7t0Y9hHg4FCQG4kxyKWht+lwTj87m0y7aK9Nzvy4uCz2xLHpfTYCXJLbadGDirwEuT6XZ6pa7IWbXz5lzsBI2axfMz8ujsep0an96Qd30psTnSR2YzhEgIPjQe5QxD/WBDiX1407zHfInGoO8wAhbjXe+Udsep8hSezGMEQxw/EgZ87RqM9TJx+phmtAlh34Kr1pXFfPVWHnhq2b5R6dCzJ9LLPWE8em91iJIwQ4pIjpjatFWU+69sgwDE2uhEvzXQ5y2kWqmtNcQIjrEJveYzlD4VIOQCqEk26ifqzq2iPVg2Jvq8SFHKA3LlI2dzKqEOLSw1biHv3TD7LpfQoMs5gvUhrkzNIj1Qh/pDP7hTrWCzeH3rhoVS1+dqYnN2QmxL3zj1rrwZRzeIJiZUzIJsAhzaLc0aHHoZ4m13rh5rD4b0T+9IM7axLtkIBOVLJctsUM/S42DxSb3rsf4FK/mG84jqmcgeNhNoCvcVp2RpdZVZ8D1QjrOvNzhi2f0y72ws0pmSVPGD8bGXPu9tn4YDPpUQfJKiHObbstn5xw1/0ZWczXVIBZWP7A9CgNcFqu7lyOMMTtsR3ixN1euDnmeiPERcNmZ0dPVtvpLI2Jq9j64Kwm/AxhkDKyIsrQZXXWnuO9cHPK4QLEWDub7WRmx8VlIsSF68Cw6T0WrYiFQcrIgLBHOaogZ3vpBdd74eaw+G8Ewsl/tp6IVAhxbrNZGTErNR0OsJ0OMuLbEf2ckq0e6jh74bZs8GXHjYVIbwL1961w2kWiaulzS+/8o6cyuV5cVkKczQuMRX7TwTQaRykGZECUN462GrbYeuHeVtkkmzdE3rTRGxcN2+PiCHEuUkr26JdYelW5LlOjlztqpF3E+/0m3hMXdy/cr1Y2yqNPzUbeUUDdEUlbXbXYVmdyXBw9cWtT+9Jvs+l9ypygCJABUd082uidiK0X7p5f2CxXp1Rc35veuDXS7WXV4sdnMoSnPsT9+v9u9Tl3lcsydcz4FiY5ABaE41Jj6YUz4+DMo9SLl5qxhQD9/Xs4iqltN8s6L5QJce6xma4ZD5dOh1lyBCmX1glVpjcrlmvv/b+0tfX+wGP1OL8/uziku93MXAjPQohj03t0ikkOSLsrafvCYS9cXxw/+013dkvljetbf746FcT5a/Qxyz3V7WbmxsVlIcRZ2/T+S7/Npvcp1sdAZSBRsY0pu/cXtlz78yPRT2pI7PfIiarFz85cnZ/qEBc+3y7n8ERENOiNQ1ptS9OXjbMX7hffvEHe9Jrua/988YVm3L8OvXFrEE4GtNUB0qNzQ6aG0qS9J85mqmbT+/TrYUsdpPXcTdn3ja336p55vXDGhUvNJH4f6o21qXLtEOIMNr3HWh1lkgMQnzh74cxj1Pm7Mzwa/6PUOezHvDY2O0EqhDh3WDsYlte7ybMjEf+8kjDGBfmt+2oJfNdYrq+5hX3ni3GNuIXqDZYqWj2b7WemJjekNsSFz7XZ9D5f+s8c3zEQQ5A7yPpPSIuIx2PVEviufXH8bLMm3JbrtteKeXmR69Ebt0pf+u2dtYRuIOK8ASLErRGb3ucvwA2Ffx7Ur6h3ymCSA9IiykYo7oY0ll448wjV7M5wvZiXF7leSRgbl8p21PImAYQ4B9I0i/wm69C8AGf2jjQBLureOLMaey9FjRSI7HGQvpZiC3Fx9sJdP5lhziPJjYmbw+K/6WxHK1kpxGJqv7nNzWw9euISNKQbmsEFGp9B3UiYCrQc4WeZSQ7VMCQ6J3yUPMApkXtR3WxUY/6esfTCmYV9zbIiC0lgeZHrmW38+ubfZGLFbXjV4qeb/DCYhWKkJ65ztfB5PpIJcP1L/Pv+qCtkYbAyHBb2Fkc1DqsW4/c011JfHD/73kV64YyElhdJJKxm3Zc+1Fos39YNcyUr5ZjKEPfrf8im9wS4Vs9UNYbjcZiFPOGwd0T4s+J8nBVLsDFba81f2He+R5N/lHrt5o/1JlfN1lOtks4Rmajn09oTZzNFs8hvApYLcPMciuHjmeQA54Q3F1GO26zG9D1N/RxLqJnb5H4hF15o2jw87+AMde5GwuUcke8Qp0T2qPa7jVeV686psGfu5IYi/rG97KsKB0XZu1WLcVJDLL1wZkmR+Qv7Xu/RpxpWOxaoM1bVllcttuWZWC8urT1x1ja9P/EhNr13kJmpGvXYihMUK1wRrmPYF+GPHI7pe1bi6OEw68EttKTIfBcuNWwfJsbGdVrJfsjqovmZCN2pC3H9f2h103sCnIPCHoVjEf9YM85lgNKFI6J+xH9/moLMQgv7vjzENW0fI3rjVsdWkCvrPJH6xZrT2BNn8yJhfTh3menitYh/Jiuywzp9Dh6MuN6rhcMQov6elTjqZ/MI9frttRby6JMNFw4X68Z1zmbnSOpDdxpDHJve42ViWgDYBDgmOcBmgOuRnPfCmYV9l+uFMxLerWExvcxu75jNzpHUj4ujJ64Dlp/fY/kgNxTDXV0fj0hgKcCZm4hTMfzooRi+ayWOuvlnd3YturDvfA/8uO7SoWNsXGdstqupr9tTFeLC59e2JjUwHi4dWHIEWQpwUT/OH4ppVmosweUD/2briv67q5OBS4evj964lTvxoZ2jFtvX1O+hmraeOBb5xZJiWgC4h8U8YSHAxVHf3R/D961IDD0aZnutxRb2vZ7l5UUSC7UZZq2TpP8Pn6qkueBSFuJUxdqKMqKY1JAe/TH8zKNMckACAa4nxgBXDW9yUhFYBt6+8svNgeVFrtdLfdFR237aYttOiEuQzUGIPE5NifBxUdSbG5e4u0bMAa43xgBnHInhO5sGMPJG0IyDW2ph35eHuKZrh9PUF+zD3MENRk5zRe5CnK3EXDvxodtrXGepEscCwAfDnhIgyiBU0i8z7vKkRD8G7lojmZZeuPbCvls6+juOLC9yPZYoWqGwfbXVxlbSXHbFtHzR/j98csnGc3zGk6lZkWn9qjc9qTfM+9I/s1vf6HUXzbuS9V0iG/Rr8zrl2l0CVsEsOaIr0GMxNDKmsd1LCSOiANcXnqPluKvQGL57JY4GcLntta5nlhZxZHmR6831xg1wpq/IyEqvg6jbe5MvdJBM5dO21IQ4US+tLMwBuzLtycRM+301zM9oH/j5f9+TbeuVbFonrffudl3CpvfpDHIDuqF5R8QNpFmVvVf/7GFKGCkIb8aRtMxINb1wK1nYdz4HJzXMd4AQt+I23ow7712srY6zvVftXtMjMe4nTIjTdjeD9gF8fqKdwuNiPuPKtMiFK14rrRd8MY87SuGCskgX81g16n1QzSSHKucDOgxu5mmCuakwAS6px2wj5mYmphBaifrnvv+Xtq5oYd/5LrzQdPmwm7ajL1zDEkurzv+HJNv78Jo0S8OY3jjzBGc4LfV7KkKcCVBPXVGVy1Ne68AmKTx5zB3ngfDx3CCNd3qYyjPsjYuywSkLj0mwdJ01d76Z993hu43xUf0x/dzIe+HMI9SVLOx7vYuXmq6fDqasCHHLOPHvbx/p/9+eHNVtfMkEt+cmkm/vpT2p6ER4o56K9t5z+cuFg0JNY3nAUgW4kNEwqRPmFm64IllhXpet5+L3us6uJLvf9e8xIPmaIbs3qsH4uuxUDi/J/jh6gMJeuKh7t+W+99204nXh5nv/Fy9L9aHpXB6LjLUfpRs3qlNXpr2epjtDHJ1v732HD6ipKM6FjZZLM3zmlpo4xwKw6RAGgTgqUHZygKuGYgwNkd9IdLKw7/UcndQQe5llLMC12vtLk04FuFS0976DB7OsX6fCOz2Xp2eb73bCfFe2WEmFIzH8zF72VYWDzHjNWB6jhg1Z5PXdB35p66r/7gOP1dNwTMrUFbT3mQ9x4WKXD0q61m0x3/XB8LvDUeFjzziC3AlKFw4xA7P3xfjzI+9RMuPgzEb3q5GSXrjYyi7lAY72PkshLoHFLuNO6SfD3wHuMrs4RD2uoRyOVQNcCHB74xq7E1cvXKcL+87n+PIiLwsA9MbR3ket6MDBLIUHMwsn99yK/vuY9OCecAFg0xsX9cVnZi4z0QWZDXChyHuS7tUBrpOFfRdixtNFwez6kEDPninDao7DG+19lkJceEDj3CvQyt2W+Z3077aXRt3JIDeoj82BiHsUSmEw7KeEkcUAF0cv3GoW9n1ZgHtNt9y3/6Y1fxez9+ovDjybSPtgxlSlcVFZ2ns323ufAxqLnvDAsm+em+IIW308KoEFZhbqXQk0IJH3wt3zC5s7Xtg3Lp/887EkPy53Y+No7zMW4jJ+QAlyjguXHKnG8KMZE4kkHYprFup19XWfRNwLZx6hmj1SXfDAj+tJrzPXl6cVDWjvMxjipP1MvCcH529P+LvCwQYwjuOtL+KDFC1iVpP249PBhD4v8p6j969hSZGoff6vrtr42Dz1xtHeZynEhTM6Kjk6gSvMWnWPbgDNOKKhOCpnel8Ro2H9uiuqnSxWUF/3ScS9cGYiQuWN650ozL/4+ylb68zlojeO9j5jIS5cWyWPPRUHWUfOSWamatRjiUrCelCIXk3as+ASmwkX3ozEMiPVFffZ6YW7FuQyHuBo77MU4sK7jjwvjHqCnR3cEs4QOxbTRdxDCSMCo+HNhul9G066MZKIe+HMwr6r3V4r+gA33pqVatGBrPba094n194n2RPn+rYacSsJq/u7yIwrqsXwc3mEjijC2y4d3gaSXr4gDBcHov659zjSC2fWg/tqdcKFNiGrPVW09wm1935CFUKf5Ou5+GIqrm6im1dh43iEYw1H1GyGt3kORt0Im9moa13YNypfq066smVX5nrjaO+TbQP8BA5oiV6JlzjKwHfngtyQtBdMjRqTHLBS5hw0491sh7dYeuHMenBmXTgXmEeon7c7Fm4+U9aZGS9Ne598e59ET1zkd3Qpl+Uu9DSLY8mRMscai6jNBTf9usGs92ZhzFtidbbphXNlYd/73Alw1272MnRe094n3N7HelXFNa4iAw7QQ+OWGBcAPsyEltwbCc+tI2Fo2xX2uLWCm0vb88VRZ5tHqK70wpmFfc2yIo4pZ2HoBe29nfY+7r1TSeVLp/OBDAYhL8W/gmlg45hVGlUjPST52jw7ykfcey1dD2m9DjqmlPj64jeD3tYpT8x2DKU37up+/cffUXKmYX/+SvBj/fZ/6dfT+nVBiVzR33lCv9d11dX0lAos1WC1DFyvtPcW2vvYTtcweZ7joC7ZsO9y6S4cAFbnm97uD7zFb4w90VUs+BuLRdmmM92tf/57t3zsjluL/6Mr37LvU89/5qFa/azv+eebSh73m/6lhvgTl7q2zD5ZW9eUb0uQ7vtQO2jv7bX3cT5O7eWALpvOWQAYQAa8RRpTz4kKPE8Vm62m5d/8i43bXQpwf/X/Tn3/odpsTYe0y4GoMWkGE6owU69PjzZHLz0ZyA+PKwIc7X3a2vs4H6fybHxlZTREMQBIu+KGW0T5z6iupqcavjTfvnfT/zI6EYw0mtLVaKpiEEghUFJQSnkvpqUXQ9MjT86e1//O/G9eoJSv//tiI9B/t6HW7/n59btu2upvWO13m55VM5/5i6v/t/60S/rjRz0VXG34zWlfvNnx+tVg/OoTSh67pDiKtPdpa+9jue0IB3Kf45ityK5w5wAASKkBb8cvvtu/ebsqqkJXd3Fdc5MotcVTapt4xW2igi06m20UT3WL8oqi41777ynz/9cCXTvCeWZcXZdIsEH/t1v1/3zT1z908747d3Tdstpv99cPTP3t795/5T/q71HTH/Ck8v3nZoPm5WbQPf3k1ZnG1f9jp8mVhDja+9S193H1xPGYsLOyGqQYAKTXHnVh/Q1qgxoPuuvFRsGXKeUrVZDmrA5jEzqIrVPK69JpraiTku95Jrh57X6Eua4EFf6TUkUdtHTY83XwUzfp/71+y7bC+tV+sysTwdjv3j/6l/qPz+q8+IJ4/hWlZieksa4+XtjWvPpQl2p/Omjv09fexxXi9nCsOiorQhyAFNsrMvKCeuZ/2BC8cv1sc7beqBeKvmoWzZPVYFoHsqLylO83vYLnN8U8UhV/3u4NYYRS7V65Lk8pHdq86VbK82RTaZO/6v26hr8/eVq/XdI//LL+HmOq2ZzU/1yf7qo3nx/VAW5EGAtHe5/a9p6eOO5iAGDtHrtRjY+eVk/86zc1by82lXTVg67ZYHba9wpbCuLXA/GUznBBI9CpqelJ1/xtr3SIUuskCHTKE9WlfNloHrn6Ipv/2c+u37jar/TMaPPZT3/n6vd0SrssnndFqea4/qjpIAhmn5udDaYeqip2iKINS3NZRT479e79F7giKDMAuaOD2HN7gvFTm4MfPfZk89nxroYJS43ZwszUdHG6eVlNBfXipP7nqeZsYbLZmP/yJ2dlZtIbb+p/p6aVUjNea+02abzulV3bVvuNvvDX43+tU9oL+o+jnlJXlagpz1f1xsxE88rz55SMnKYXjrYr1WUWR09cD4dpVWVWpRgApD7I1ZSS2rfluTsPq+duflLk9qInm34o23Q1t2XU5LJbF/yb9eIj3pauor+5qHxPbWwqz1Pm+eob7ui6fTXf5PyzjcdPfm/qYc88RvW8K+L740p50/XZZuNK0B1IdbcOcP8Th4z2PtXtfRwhbjfHiDIDkOMgZ0a5PTYg8ljrj8oMBbqi/3Rlqb92V8Fr/JPNXrF7RjYHrWVGzDyHwsZ13qbVfIvDf3ZlWH/2JR0GR8XzxwIJplRd6sHGUuOpsc2BPMdkBtqu9JdZHIv9ljlGlBkAvBjqVvDadrNs8JqyZdb3GoFqzVL1PK+448bCqzr9xDM/rv/g4Vq9pkSNekrGVKAmfdWYCQp+Y1LpAPe3TGag7cpGmRHiuBAAwAEluWndtNSDglfwCwXxzfRVVezu8jqa2DAzq2Y+/Z2xv9Ep7ZKnvMuBkquiginVlPp493Tz/HOXlNTohaPtIsRxUCkzAIjAW0SuPioz3YGnY5sXKJ3kxCwKLF07bizc2clP+puz02cers2e138cVZ4aE9Wc8P3mTBA0ms89/3wgf/sX9MLRdmWmzIqUJwDArm+K/PMfezK11St0130/ENML1+Upr7uTn2J64T7zn69+V//xWf163ve8K7OFwmRzZqZ+ZXy8MfnImwKp/VN64ZAZPkUAALBt2wu3SLc0xQ8CP1CqoHyv2Pc/b3p9Jz/jP//D1P/z9AvNi0rJqHje1Yb4k9IIZprbbm083v3zgTxAOYMQhxiE+88BQC5t2bhNgvVFL5htFlrbOTRVcetGb8U7NZjttT7+jSvfFU8ue/oflfLGfa8+0/S6G7MzGwN5WNgfFZlr731Xv1jeRL0pLgCkx7e82ZmHvNmpSS/wu3W7ZMbESfHOHV0rnpl68vuT5jHqJR3VLuukNuYFzSllVhDuGm8+Nib0wtHxkMn23nf1iwEAcuIX7pJm107ZuLHoFXzxw41Vi+u7V7ZGXO2ZxpOf/s7VvzPbaylPjSoVjIsXTDeValx5vhnIw/fRC0fHQybxOBUAYNfUa2Rro+55jYIXyKyvvKCoRBVfccPK1oj78t9MnPZML5zZI9WsC+fJVOD5s5Pjo8GlricDeeAiZYxMYnYqAMC6TZtulHrXs966QPxAeQXPk66VrBF3/tnGE8Pfn/qBKHXZM5vc+/6EiJquB15jbOttTfmTNyqRvfTCIZPi6ImrUayUGQCszIDIpYdkevaSF0yv8wIpmokNRU9J8aYt/s7l/vZHvjz6nXB7rcvKbK+lmpPBrNSV2tR87tlbTHgjwNF2ZbbMCHFcCABg0WFZv3va2+Cv8zZ2N31PRIe4ZvG//yfrXrHc33zwJ/WHf3B+9pwo9YKnvFEVNMf9wJtW67zG2PotgXyL7bVouwhxHFQuBACIzc1qlyh/wmsqz/d8M8zH63rtzq7tS/2dcHut/6pT2vPK8y4pUVeUUpNKgpnLE1PNCw//10DohaPtIsR17CzHiDIDgJW5z2uun/TqSnmBV/D1my+eFG+/pXDrUn/r9MMz//DQudb2WpdFme21gknxg5kgmGlOzjwZyH85J/TC0XZlvczimNgwwjGizABgRf7FL8lsc1a87qZXKMz6EnhFs0bc9lLh5sX+ysysmv70d8ZO6/B2yfO81u4MgedNNZpSnw3WNy8/ensg8i/phaPtynyZRd4Td+b4jirHiDIDgBXpKsq6WeVtNOv7Kt8s9FtU4hV33Lj48iJ/+d+mvnvxhebT+r+7rDxvrOnJpAq8mcBf17zk72zK07soV9quXJRZXOvEDXOoKCsAWF5Jblq3SepdTc9rzPo6yBWUUmZ5kQUX+h2bDK587OtXquKpS2Z7LQnUhKeC6UB5jaC4ufn8T0RJjbFwtGH5KKu4QtxpjhVlBQBLe4vI1Udlpnvaa9YLXlO6CiKtx6ldN29deHmRk9+fCrfX8kaVeGOBBJNe06vPFKYbtZmLQXvEEWPhaMPyUVb0xHEXAwCWfFPk1c95xdkN3oZCwfd95XuiWltudRe9Ddf/1+fM9lrfHvs7s8m98uSKqOaEL8G08uuzV55/IZj5yUUlz7yVXjjasNyUVSwhLtxTjQGPyxth/zkAeXZrYbsU/EkJ/KbpPjMxrvjr/2rL6xf6b7/8NxOtXjilZFSHvTHleZOzyqvXZxrN0bofyNnv6X/9LQo1QbT3dtv7OPdOPcYxo4wAYHFHvK4tJZn1ZnQC833PPEpVqhioVm/cS5x/tvH4t78/+ZASecH0xAXijYsqTCvfn53YsKM580BZyTMfoBeOtixXZRRniDPdhqMct0WNCt3QAPLs5w5LfXbcmy34XsFr+EqnMp3Civ/sznWvvf4/HfjKlf+k3573lFwKlDcmXjAZeF5d+Tc1z5/fqKRWYncGe2jvLbX3sYW4M8d3jJLOl07lYRkBQD7dUpPmbJdXauo/BzrJeZ6vk5y/cd1LN74/e64+8tBPZ2utJUVExjzVnPRnvZkZmW48Xh8N5Idsr2UT7b299t6P+YsPks4XTeWDFAOAfCvL7f64zBa6PVXwfOW1xsT522/wr60RZxb2Pf6dq3+pfHXZa9WdwVVRajooNGYnLk0E4xd+rOSxIzxGtY/23kJ7H2uII50nn8oBIDVmnhS1syyNotlrq+F7SrdJKvDWdb3YE/f9H81898GfmE3u5bJSwZh4MtH0/Zl6faY5WrgcyA/P6AA3QFlaRntvp733E/gFSOcJpnIASAedvW5f501dvuypRtFTzYKnlHkm6qnSpnZPXL2hpgaHx/5KKTXqiXdF/+urXmHdtCpunJ3quqU5/sNdgTy2n144d9DeJ9zexx7iwgR6iGN5zSF64QBA2/RDaTZ9TxVmPOUrT+lg99qdxfVz//q7D88MP/Fc86Lnyaj+t2OeV5xszuj/m5ptXgpKgTxwmzAWzh2098m3935CB3ZIv1U5nlINywIAIHeIakyJCro80zHnq0D96zdvbPXCTc2o5377xOifi6grEsiYH8h4EATTXpc3W9+0Obgy0tpai14494Ic7X2C7b2f4C/UL/nuZh0NywAAYEwUWyEu8GaVDmoq8AvNXduLN5l/9b1/nPkzMY9QlXmMGlxtet6U5zVnZvxm8yeTPw7k++a/ohfONb/20SdKr7mpWSrk+9Ak1t4nFuLClYrzHGL62Z0BAOZZf7P4hY2iM5xZ3rchqlm/7cbCTWOTwZkPfmn0W8oLLokULovfNeaLN9loNOvjE1NN+f5PzJIi9MK56cS6gvTs3BrkuQwSa++T7IkzQc4sdpfHQf2D4e8OAJhTmJbu9ZtUd/f6wGsUmp7y69s2+dv/7pH6cfG8MVEypiQYbzaD6UYwVZf1NzSfGH+1kpFnCXAO+rWPPjGg33rNn7esU3LTxlwepkTbez/p307/cmbQYzUvR3NDUY3+3K3NI1zeAHCdJ+rK716nijPFQJn+OFEz5y42vvbBL12uBoG6qlPehGoGU6K8mWZ9ffOnzz8SyBkzDu5eys69ANen3w7P/99esTmQTd25CnLVMOMkxrf0i+6THGyYu76o5I4bgpL+41EucQC4zgu3ytMzm9VMMBnUpxsN5amZdw0+f0oFhQlfeZMNrz4ZiEzXu7zZ6a5tzcmrm5U88lZ64dwLcD2LtXOv3Ba02sIcGAmzTaKshLhwyu3eLAc5c9KWbwgkHNzZp0/yg1zqADBHV44j98nlsUvq2fGxoOFNN5s6tTWlMB14XVMNrzjlq66ZoLGuMV0Pmj85NxXIt8d1GvgWRedWgDMdFSf1q7TQvzdtoGkLMx7kTJbZa2P5MFs9cZkOctcFuDlH9cneyyUPAHPuUfJfLqnnmzcEV2Ymm4263/A3FGdFxmY9L5ite9sbT9elUbv4ikD+6rhOAf+UXjj3nBKzf9oSMh7krAW48FbIrrv3X5hL8ZUsHE3z/N90Hy8yvboVXL/84VeOcN0DgPEWkVu+6clrHvXW3VmULeu3etIQ8f2n5dnGG5Q8fFGFi/oS4Bzzax994oR+61vpf9/UR/CJK75M1DOz/khVv/bZXMDfmZLUYc48T0/1I0czE8cM5FxJatdBjl0bAKAlzGc3P+/JG8al1bHz1I9FHntQ//mH7I3qZoAz4e3Eav7u0+O+vDCZ+iA3mPQkBqdDXBjkesOTopSmI2l63cyaOGZK9UrTuw5xe6kGAAApDHAVaT9GXbWrM548Nea3eudSprWQryvLhjkXhXWQK4dBrpKGo7mpS8nOLYF0FTpP8V/+yCvZYw4AkJ4A9/tPmDbadJGuubNltiny1FVfJmZT0ytXFccW7ne25HSY65P2lGUne+VM75t5dFpav6bbiH4d5IaoFgAAKQhwpj02PXA9Uf7c0Wmv9YjV4V450/t2yMW9z31XSywsrF36dUQc2nPVhLdbNym586bmWgOccUJfFD1UDQCAFDgadYAzTFtq2lTTtjq25+pomEF2uRjgjFT0YYYzWM2khwNiqWfOnFg3blRy04Yg0pNMtU+SXX/2ESY6AADc9G9//4kB77odGeJgeuNemPLl0qRns2fOtMfHpD15wem2OVXTQ8Iw1xuGuUR6sMy6NjduUK1JCzHeIbRmrBLkAAAOBjjT7p5M8jNNgDOTHy5NeTLdSCyqjIThbdj18JbKEHddoCuHgW5P+B4ZE9jMhIUt3Wo1ExZWa0iHuH6qCwCAQwHOdJiYcXDWxqebCRBX615rAoQJdhEzs0xPh8Gtlrbjk5kV93Soq0i7d263tFePnnstygS0br8d1EyP2/qiyMYuqyMrD+kgN0i1AQBwIMCZ4Pbgcm1p0iZNmKt7Iy9MeiMrbe+12rzXWf0a0aGtmvZj5OXlZAwfxZZM0tYnZkerTCdsnw5yw1QfAADLIc70wFUc/Gqt3Y90WzmyXHuf9WPkcXKm6+QEACCBNpLOjhTwc/y775N2t6przB3EibAbGwCApANcn8MB7hABjhAn4UxQE+RcnIFixvad4PQEACQc4Fxuf4YYN06Imx/kzCNLV7e+6tUX01FOUQBAQgGuLGvcEzVGLrfXhDiLQW5I2isyu+hg2K0NAECcAc4M4TFrwbk4lGdurDhrqRLiFgxyA6Jk2Gyf4ODr6L89wtZcAIAY6bZGv3qcbAcJcIS4FTAL7bo4I7S14bAOckx0AABETrcvA+LuRIZ+VmsgxC3rzw47PdGhFeQ4SgCAiAOc2fHosKNfb1C3zUMcpcV5FMHLTuiKw4FpSJ/QbM0FAIiivbO+pdYSqrq928tRWho9cdfRJ01V2o9WXdSnL7qDHCUAwBoDXGtNUkcDXE3aT8ZAiFtVkBvSb0OOfr2jYW8hAACrZWaiujhprjW0KRziBELcqoOcqxMdWhcfM1YBAKuh2w+zBqmrnQH9uv1lIgMhLhLmeXzNwe/V3pqLGasAgM4CXJ9+c3VYzhEd4NhSixAXDdOdq0T26deog0vn9Ci25gIArNDbjzzRajfcXBK1NXFvgKNEiIvUVw67vTXX24+wNRcAYNkA5/JSVWypRYiLNcgN6TdXN909+PZ29zgAAEsFOFe31Nr3FSYyEOJiDnLmLsHVZ/VH385EBwDAIm2EuDkT1dir29cah4gQlwDVr18jDo4m0HdX6uTbjzzORAcAwDW6XTio24c+cXNz8P6vMBOVEJeUrxx+lenuNUuPuNjtWxa25gIAvBjgzJZaro6bHtJt6hBHaW3Ydmt1F0bF4cBkLgy25gKAfLdTTm+ppdspttSKAD1xq6BPvqq4O5OmT1+8fRwlAMhpgBt4nC21CHFYJsgNipIhN4cZyAl9EVc4SgCQSyd1O9DjYNs0ql/7wqFJiACPU9d+x/OguLv/3F1fGXhVjaMEALlpk8wYOFd3ZNin2yR2ZIgQPXFrt1fcnOhgutFPht3qAIDsB7g+hwPcEQIcIc45+qQcdTjImR5CtuYCgOwHOFPfuzoTdVi3lQMcJUKcq0HO7a25Bh7n4gGA7AY4l3dkMO0jKyYQ4pwPckPi7tZch8NudgBA9ri9pdYAExniwsSG6O+ITuq3Xkcvpr1hryEAIBttjhky4+pNumlzqhyl+NATFz3TbexiUCopkZNvY6IDAGSCrs8POhzg+glwhLjUMd3GOiz169eoa0v0CFtzAUBWAlxFvx11c6lSGQqHGIEQlz5fbT+ydHUgZ8/b2t3vAIB0BjgzE/Wko19vRLeBTGQgxKU+yJn1cJzdmuttTHQAgDQGONe31GJPVEJcZoKcma065OjXOxHezQEA0sMEOFd3Cdr3VWaiEuIyxvTGuToj9JQOcmUOEQC4723tLbV6Hf16h77K6geJY4mRZC68kig5J+4uxLj3q0e4ewIAZ9uRw60hMK6OZz6i25ABjlLy6IlLwFdf3JrLRS5v1QIABLjDbm+pRYAjxGU/yB1xesZqn64kuAgBwL0Ax5ZaIMQ5EuSGxOGtuXRl0ctRAgCnOL2lFkNx7GJMnJ07K3NRVhy9KPeGvYYAALtthdNbaum2ospRsoueODv2iaNbc4nZmuswW3MBgOUA1+dwgDtEgCPE5VbY/WzGEbjYDV0Wd1cCB4A8BLiKuDsTdUi3YYMcJTfwONXuhdrrcGAyFyoDVgEg2XbB3Eg/KI5OZNDtwl0cJXfQE2eRvhjc3prrMFtzAUCCAa4U3ti7OpGBLbUIcbguyLm9NddhtuYCgKTqXHF3Sy0WhSfEYRFub811mK25ACBO4Vqd7m6pxaoFTmJMnDsXsAlKzo6D4C4MAGKr//vE3YkMg7ruP8RRchM9cY7QF0lN6aCkX+Lgq0exNRcARO5XDz/eql8drfuHCXCEOKzQ1xzfmktXNgc5SgAQWYBzeSIDW2oR4rCKIDekb3+GxM3bsqO/+hG25gKASCg5pV9lB+v6Uf3q/xpDaJzHmDhX79A+4vbWXF/7fQa5AsAa6nint9TSdXyVo+Q+euLcZbbmqjn4vUy3/wldAbE1FwCsLsD1ORzgDhHgCHFYI30RjYZBzsXubLOOEVtzAUDnAa4iDm+ppdsettQixCGiIOfywNKKroyYsQoAKw9wZYdvgE17w0xUQhwiDnJma64jjn69g+FjAQDA0gHO+S21widAIMQh4iA3IA5vzaUrJ7bmAoClmScXrtaVBDhCHGLm9NZcTHQAgIXp+tHciPc5+vX6WW0gvVhiJF0VQVkc35qLuzkAeEm9bdbWdHUc3KCusxkHl2L0xKWIvthqJig5+vXMYwImOgDAiwHO1IuuzkStEuAIcUg+yLm9NddH2JoLAByfyGDakX0cJUIc7AS5IXF3ogNbcwFAO8CVHfxeZshLP0NfsoExcem+0zPj41yc7cTWXADyXDe7vKXWvnDpKmQAPXHpZsbH1Rz8XiVRcuJXP8yMVQA5C3Afdn5LLQIcIQ4uaHWHK9mnX+ZdnHq1ewhPcJQA5CjAtes91+rj9osttQhxcC7IffRVLm+V0vsrH2ZrLgDZp+u6ss5Kpxz9emyplVGMictOBTKg3w47+vX6v/7R1mQMAMhi/WuGjpgA5+oY5V26DmYiQwbRE5cR+gI1Ic7RsQ7q6K98+DxbcwHIKOX0lloEOEIc0lGR9OvXiHuDMVrrJJ3SQY6JDgAyRddrZm3MPnFzIJx5CsIqAYQ4pMHXP3qHudsyCzi6eNc197gBALIS4MyamK6O+x3SbcIQR4kQh3QFuZq4uxJ3j670mLEKIAsBzukttXRb0M9RIsQhnUGuKg5vzRU+fgCAtAa4UhjgXBwi4vKNPAhxWGGQGxKHt+bSlWCFowQgpcyWWq7ORN0XDq0BIQ4pD3KmN87VQa0nmbEKIG10vWXGwLl6E9qv630mMhDikCHubs0lcoIZqwBSFOD69Jurw0GO6ADHllqEOGSJ4zNW2ZoLQFoCnMv1lZmJOsBRIsQhm0HO8a25zrM1FwCXA5zLSySxpRYhDjkIckP6zdXNjw+GjykAwNUA5+LQDyYyEOKQoyBn7tZcHTPB1lwAnKybxOkttVprg4IQh1xQ0q9fIw7uEFPSr5O/8ntMdADgBl0fHdT1Up+bO2oxExWEuNz5+sda3e5m6REXu9/LwtZcANwIcG5vqfUxttSCiEcR5LaCqjgcmEwFxZYxAGzVjz3i7ji4qq4f93KUYNATl1O6EqiKuzOa+nQl2sdRAmAhwLGlFghxSEWQG1QiQ24O95ATv/x7bM0FIFmm7tGvHgfrxFFlZqJ+jJmoeBGPUyE6LD0o7u4DeNc3PsbsKwCJ1IVmDJyrOzL0f4NxcLgOPXEw9oqbEx3M44yTv8yMVQDxB7g+hwPcEQIcCHFY0Dfa3fOuBjm25gIQd4Az9YyrM1GHdR09wFECIQ5LBTmnt+bSlSyVGIA4ApzLOzKYepmZ+iDEYUVBbkjc3Zrr8C8zYxVA9JzeUusbTGTAEpjYgIXuTE/qt15HK7W9Ya8hAKy1rjNDNVy9OTR1XZWjhKXQE4eFmO57F4MSEx0ARBXgDjoc4PoJcCDEYVW+wdZcALId4Cri8JZazETFSvE4FUtVdOaR6kmHK7qOBvzevf+CqbjNLLTdYRicey2lNu91Vr9GzhzfwR0yYMlar+MuX52/dUPzwMaicnIig67X7uIogxCHaILc77YeObh6x9r/jT9Y/I5VV/amYjdBdI9EP8ZvWL9Om3cd6mqcKUBsoS2263hzMZANRSWb9EuHO9u/qqlH7tJ1GhMZQIhDpEHO5cG/ptIbmVfhl8KK/oAktwuF+fxjYaCjAgbWHtwSv47XFZSUuoNWsPOTbxnbk7b+gElbIMQh+hA3t46Ss1tzPTbWZd4PhpV+yeJ3MWFukDAHrDq8Wb2OTYC7QYe5UnczyTC35FMFgBCHKILcOXFsPaVAibwwU6iN1v2SQ9+NMAekLLxZDHNHdIAb4CwAIQ5xBznTE/egK99nbNaX56YLrSDnKBPgDukgxx02sHiA65P2uFsnlw4yAe6W9U3Z2hXE8eOHdYDbx1kAQhySCnKmwrW6l+ls4MkzOrxNNVJz+lb1q58JEMBLwls5rEsqafi+ZgLEdh3mIpwAYca/7WUiAwhxSDrImbvmgzY+e7zhyzNTTve+LWY0DHLDnEEgwF3oDQNcqhbuNr1y2zc0W5MfIqgPmMgAQhysBblTSd9Bm0eno/XUr09txskd4gxCjgOctZvAqJhZrOYR6xqYAFflbAAhDla8NcEZq6bX7eJUMU2PT5djKu99THpAzsJba9s8Scnj0+WYx6u3bWisZtLDoW/+wR2DnBEgxMF2kOsJg1xsj0RMgHtqsigzzcydqq3xMAQ55CjAubpM0aqZteV2buwoyA3pANfPGQFCHFwJcrFtzZXhAEeQAwEuf0FuRAc4ttRCpHyKAGuhKyUzUD/yMV45CHASNmqnwkYOIMClkKmjTF21zGSr1kQGzggQ4uBikDPjO4ai/JlmDFzGA9z8IHeSswgZdTLLAW5+kDN11lIB7pssJQJCHBx2SJSMiLkbXePr+XStAReFSjhjD8iM8Jyu5OX3NXWWqbteVqe1JzKwlAhiwZg4ROatv3O+LO0dHVb9eHCi4es72kJei3Af68ghIwEutrGyrrttQ1M2vbiO3OA3P34HSwqBEIfUBLlVb83VCDx5fPmxJVlmHrfcxc4OSHmAW/PNXJqZCQ6v2tiQoq+GdYBjSy3Ee75RBIiSrrTMY4NVTaF/ZrqQ5wAnYaN3grMIKZe6nRii1FrXcrowutp6ECDEwXaQG5IOJzpcnfVlqknHsLTHx/VRDEij8Nyt5L0cZppe6cdXu3o5IxA3Wk3E5q2/s7Ktucyda22iK++9cPOZu/hdrB+HlAU40/t2TnLcC8d1jKTRE4c4mfEgtWVrutkCAe6lTCN4kGJAyhwkwHEdI1n0xCFW4USHRbfmoheOu3ikH71wXMewg544xGq5iQ70wnEXj0ygF47rGBbQE4dEvPV3zg/ot8Pz/zd64biLR/rRC8d1DHvoiUMivvnxOwZ0Vhuav5D5eMMnwC1/F88MN7iulwDHdQxCHLLPrFx+bfuZK3VOvxU4QBGAc5QyAhbC41Qk6i2/UyvrtwcbgVc6P9FFgazMLnZxgIvC3RnOURJcx7CDrhAk6lsfL5tKbK/ZIxUrxqMYcG5SVgAhDk4EuZHL9UKVklixPRQBODcpK4AQByc0FVvzcAcPzk3KCiDEIVXu3n+BAEeZgXOSMgMIcUihHoqAMgPnJGUGrE2RIoAFuymCzhQ8tect/742QknAFbUJtaepWOCAug+EOORNmSLoTLffGk/DmBq4dE7KVJNyoO6DTTxOBRVZCsyyswU4J6n7AEIcqMjSpxHw2Aqck9R9ACEOAACAEAcAAABCHIBFNJgJCKReuN8sQIgDFVieFD1GkoMbirQ7c3xHjVIAIQ5UYAC4oQAIcQAAAEjVDRVFAKQDfR8AAEIcbKsJ6yV1dqGax1ekODh2TjI2blV1HxAZHqeCiiwFurhSwTlJ3QcQ4kBFlj4MJAfnJHUfQIiDC85SBJ3p9mkwwTlJ3QcQ4mDfCEXQmXU0mOCcpO4DrsOoVFhx9/4LtAAdePWmOoUA5/x0optC6MCZ4ztocxEpeuJgyzBFsDKbCgGFAM5N6jyAEAdnnKYIVmZ9gU5LcG5S5wGEOHBXmjqbivR2gHOTOg8gxMER4R6qDPJdhpkByFIOcJU5N5mluiIj7BsNQhyy5hhFsLRtXU0KAZyj1HUAIQ7OMY8XRimGRS5Oj4HjcJ85R33mXC5lVHiUCkIcsubM8R2j3KEuzvRw0DgiDTcb9MYt6VhY1wGEOGTOoNAbt3DDWKRhREpuOIrccCxiNKzjAEIcsofeuEUaRXrhkLabDnrjFkIvHAhxyDx6465vEOmFQ9puPOiNux69cCDEIfvCO9VDlETbTd0NGkOk8ubDnLu45hC9cIgbTQWccff+C6f0WyXPZbChoOS29bOcDEiti9NdMtXMfdNS1QFuL2cDYr95ogjgkH7J8WNV05Nxyzp6MpBu5hzOeU/yaFiXAbGjJw5OuXv/hV79djKPv/vN3c3qVgaHIwPGZgvyfL1Qyemvv+/M8R2sCwdCHHIb5I7qt4M5+7UHdcXPuEBwHXMdA4Q4pL4ByNP4OMbPgOuY6xjoGGPi4Kp9+jWSg99zJPxdAa5jrmOgI/TEweW7+JJ+M3fyPRmu+PeyDAG4jrmOAUIcaACo+AGuY65j5ASPU+G0sHI040yqGfq1qlT84DrmOgbWip44pOluPguz3Zi9Bq5jrmOAEIdcNgBmHbkT+lVK2VdvLQDK+lEA1zFAiEOeG4By2ABUUvKVq2HFX+PoAVzHACEONAL7L/Tpt6MO382bu3azCfYQRwvgOgYIccBLGwBT8ZvxNQccagRMpX9M2uNmGPQMcB0DhDjA8UaASh/gOgYIccAaGoHesBFIak2qkbDSH6bSB7iOAUIcsPaGoBw2BHvC9yiZ2Wmnwwq/RmkDXMcAIQ6IrzGohHf1u/WrPO+1lNq811lzt64r+yqlCXAdAwDcaRxK4V0/AK5jAAAAAAAAAAAAAAAAAAAAAAAAAAAAAAAAAAAAAAAAAAAAAAAAAAAAAAAAAAAAAAAAAAAAAAAAAAAAAAAAAAAAAAAAAAAAAAAAAAAAAAAAAAAAAAAAAAAAAAAAAAAAAAAAAAAAAAAAAAAAAAAAAAAAAAAAAACATPr/BRgAqbzMbYb9KekAAAAASUVORK5CYII=;" vertex="1" parent="1">
                    <mxGeometry x="-192.5" y="-105.84" width="85" height="85" as="geometry"/>
                </mxCell>
            </root>
        </mxGraphModel>
    </diagram>
</mxfile>